<?xml version="1.0" encoding="UTF-8"?>
<svg xmlns="http://www.w3.org/2000/svg" xmlns:xlink="http://www.w3.org/1999/xlink" width="525pt" height="37.5pt" viewBox="0 0 525 37.5" version="1.2">
<defs>
<clipPath id="clip1">
  <path d="M 7.15625 11.679688 L 23 11.679688 L 23 27.222656 L 7.15625 27.222656 Z M 7.15625 11.679688 "/>
</clipPath>
<clipPath id="clip2">
  <path d="M 94.066406 12.496094 L 144 12.496094 L 144 25 L 94.066406 25 Z M 94.066406 12.496094 "/>
</clipPath>
<clipPath id="clip3">
  <path d="M 97 12.496094 L 148.09375 12.496094 L 148.09375 28 L 97 28 Z M 97 12.496094 "/>
</clipPath>
<clipPath id="clip4">
  <path d="M 191 21 L 215 21 L 215 27.160156 L 191 27.160156 Z M 191 21 "/>
</clipPath>
<clipPath id="clip5">
  <path d="M 185.144531 13.835938 L 228.8125 13.835938 L 228.8125 22 L 185.144531 22 Z M 185.144531 13.835938 "/>
</clipPath>
<clipPath id="clip6">
  <path d="M 287 13.175781 L 325.117188 13.175781 L 325.117188 25 L 287 25 Z M 287 13.175781 "/>
</clipPath>
<clipPath id="clip7">
  <path d="M 271.085938 13.175781 L 283 13.175781 L 283 25 L 271.085938 25 Z M 271.085938 13.175781 "/>
</clipPath>
<clipPath id="clip8">
  <path d="M 281.25 13.5 L 272.539062 13.5 C 272.347656 13.5 272.160156 13.535156 271.984375 13.609375 C 271.804688 13.679688 271.648438 13.785156 271.511719 13.917969 C 271.375 14.054688 271.269531 14.210938 271.195312 14.386719 C 271.125 14.5625 271.085938 14.746094 271.085938 14.933594 L 271.085938 23.539062 C 271.085938 23.730469 271.125 23.914062 271.199219 24.089844 C 271.269531 24.265625 271.375 24.421875 271.511719 24.554688 C 271.648438 24.6875 271.804688 24.792969 271.984375 24.867188 C 272.160156 24.9375 272.347656 24.976562 272.539062 24.976562 L 281.25 24.976562 C 281.441406 24.972656 281.625 24.9375 281.800781 24.863281 C 281.980469 24.789062 282.132812 24.6875 282.269531 24.550781 C 282.40625 24.417969 282.507812 24.261719 282.582031 24.085938 C 282.65625 23.914062 282.691406 23.730469 282.691406 23.539062 L 282.691406 14.9375 C 282.691406 14.746094 282.65625 14.566406 282.582031 14.390625 C 282.507812 14.214844 282.40625 14.058594 282.269531 13.925781 C 282.132812 13.789062 281.980469 13.6875 281.800781 13.613281 C 281.625 13.539062 281.441406 13.503906 281.25 13.503906 Z M 276.136719 22.191406 C 276.136719 22.378906 276.066406 22.539062 275.933594 22.671875 C 275.796875 22.804688 275.632812 22.871094 275.441406 22.871094 L 273.296875 22.871094 C 273.105469 22.875 272.941406 22.808594 272.804688 22.675781 C 272.667969 22.542969 272.601562 22.382812 272.597656 22.191406 L 272.597656 15.683594 C 272.597656 15.492188 272.664062 15.328125 272.800781 15.195312 C 272.9375 15.058594 273.105469 14.992188 273.296875 14.992188 L 275.441406 14.992188 C 275.632812 14.992188 275.796875 15.058594 275.933594 15.195312 C 276.070312 15.328125 276.136719 15.492188 276.136719 15.679688 Z M 281.191406 19.324219 C 281.191406 19.511719 281.125 19.675781 280.988281 19.808594 C 280.851562 19.945312 280.6875 20.011719 280.496094 20.011719 L 278.34375 20.011719 C 278.152344 20.011719 277.988281 19.945312 277.851562 19.808594 C 277.71875 19.675781 277.648438 19.511719 277.648438 19.324219 L 277.648438 15.683594 C 277.648438 15.492188 277.714844 15.328125 277.851562 15.195312 C 277.988281 15.058594 278.152344 14.992188 278.34375 14.992188 L 280.496094 14.992188 C 280.6875 14.992188 280.851562 15.058594 280.988281 15.195312 C 281.125 15.328125 281.191406 15.492188 281.191406 15.679688 Z M 281.191406 19.324219 "/>
</clipPath>
<clipPath id="clip9">
  <path d="M 473 14 L 517.765625 14 L 517.765625 23 L 473 23 Z M 473 14 "/>
</clipPath>
<clipPath id="clip10">
  <path d="M 457.074219 12.714844 L 464 12.714844 L 464 19 L 457.074219 19 Z M 457.074219 12.714844 "/>
</clipPath>
<clipPath id="clip11">
  <path d="M 463 12.714844 L 471 12.714844 L 471 19 L 463 19 Z M 463 12.714844 "/>
</clipPath>
<clipPath id="clip12">
  <path d="M 457.074219 19 L 464 19 L 464 25.296875 L 457.074219 25.296875 Z M 457.074219 19 "/>
</clipPath>
<clipPath id="clip13">
  <path d="M 463 19 L 471 19 L 471 25.296875 L 463 25.296875 Z M 463 19 "/>
</clipPath>
<clipPath id="clip14">
  <path d="M 367.238281 11.679688 L 381 11.679688 L 381 27.222656 L 367.238281 27.222656 Z M 367.238281 11.679688 "/>
</clipPath>
<clipPath id="clip15">
  <path d="M 382 16 L 422.75 16 L 422.75 23 L 382 23 Z M 382 16 "/>
</clipPath>
</defs>
<g id="surface1">
<path style=" stroke:none;fill-rule:nonzero;fill:rgb(65.098572%,69.40918%,77.648926%);fill-opacity:1;" d="M 50.867188 20.847656 L 50.867188 23.679688 L 51.757812 23.679688 L 51.757812 21.792969 L 54.984375 21.792969 L 54.984375 23.679688 L 55.871094 23.679688 L 55.871094 20.851562 L 50.867188 20.847656 M 51.65625 19.929688 L 55.070312 19.929688 C 55.542969 19.835938 55.894531 19.40625 55.996094 18.992188 L 50.730469 18.992188 C 50.832031 19.40625 51.1875 19.835938 51.65625 19.929688 M 48.183594 23.683594 C 48.628906 23.488281 48.871094 23.152344 48.960938 22.757812 L 44.980469 22.757812 L 44.984375 18.996094 L 44.09375 18.996094 L 44.09375 23.683594 L 48.179688 23.683594 M 37.460938 19.917969 L 40.609375 19.917969 C 41.085938 19.777344 41.484375 19.40625 41.582031 18.996094 L 36.578125 18.996094 L 36.578125 21.765625 L 40.671875 21.765625 L 40.671875 22.734375 L 37.460938 22.738281 C 36.957031 22.882812 36.53125 23.230469 36.316406 23.683594 L 36.578125 23.679688 L 41.554688 23.679688 L 41.554688 20.84375 L 37.460938 20.84375 L 37.460938 19.917969 M 29.679688 19.925781 L 33.089844 19.925781 C 33.566406 19.832031 33.917969 19.402344 34.015625 18.988281 L 28.753906 18.988281 C 28.855469 19.402344 29.210938 19.832031 29.683594 19.925781 M 29.683594 21.777344 L 33.089844 21.777344 C 33.566406 21.683594 33.917969 21.253906 34.015625 20.839844 L 28.753906 20.839844 C 28.855469 21.253906 29.210938 21.683594 29.683594 21.777344 M 29.683594 23.679688 L 33.089844 23.679688 C 33.566406 23.585938 33.917969 23.15625 34.015625 22.742188 L 28.753906 22.742188 C 28.855469 23.15625 29.210938 23.585938 29.679688 23.679688 M 20.808594 19 C 20.910156 19.410156 21.257812 19.828125 21.734375 19.933594 L 23.167969 19.933594 L 23.242188 19.960938 L 23.242188 23.671875 L 24.136719 23.671875 L 24.136719 19.960938 L 24.21875 19.933594 L 25.65625 19.933594 C 26.136719 19.804688 26.472656 19.410156 26.574219 19 L 26.574219 18.988281 L 20.808594 18.988281 L 20.808594 19 "/>
<g clip-path="url(#clip1)" clip-rule="nonzero">
<path style=" stroke:none;fill-rule:nonzero;fill:rgb(65.098572%,69.40918%,77.648926%);fill-opacity:1;" d="M 14.691406 27.128906 L 16.796875 15.003906 C 18.800781 15.003906 19.4375 15.230469 19.527344 16.148438 C 19.527344 16.148438 20.875 15.628906 21.550781 14.589844 C 18.902344 13.332031 16.238281 13.273438 16.238281 13.273438 L 14.6875 15.210938 L 13.136719 13.273438 C 13.136719 13.273438 10.46875 13.328125 7.824219 14.589844 C 8.5 15.636719 9.847656 16.148438 9.847656 16.148438 C 9.941406 15.230469 10.570312 15.003906 12.5625 15.003906 L 14.6875 27.128906 M 14.6875 12.71875 C 16.832031 12.699219 19.28125 13.058594 21.792969 14.179688 C 22.128906 13.558594 22.214844 13.285156 22.214844 13.285156 C 19.46875 12.175781 16.902344 11.792969 14.6875 11.785156 C 12.480469 11.792969 9.90625 12.175781 7.164062 13.285156 C 7.164062 13.285156 7.285156 13.625 7.585938 14.179688 C 10.09375 13.058594 12.546875 12.703125 14.6875 12.71875 "/>
</g>
<g clip-path="url(#clip2)" clip-rule="nonzero">
<path style=" stroke:none;fill-rule:nonzero;fill:rgb(65.098572%,69.40918%,77.648926%);fill-opacity:1;" d="M 113.742188 16.359375 L 116.042969 16.359375 C 118.015625 16.359375 119.261719 17.632812 119.261719 19.605469 C 119.261719 21.582031 118.019531 22.851562 116.042969 22.851562 L 113.742188 22.851562 Z M 115.988281 21.65625 C 117.230469 21.65625 117.90625 20.867188 117.90625 19.605469 C 117.90625 18.335938 117.222656 17.542969 115.988281 17.542969 L 115.085938 17.542969 L 115.085938 21.65625 Z M 122.753906 19.417969 C 122.578125 19.308594 122.335938 19.265625 122.09375 19.265625 C 121.652344 19.265625 121.289062 19.496094 121.191406 19.933594 L 121.191406 22.863281 L 119.867188 22.863281 L 119.867188 18.125 L 121.191406 18.125 L 121.191406 18.585938 C 121.390625 18.246094 121.785156 18.015625 122.25 18.015625 C 122.464844 18.015625 122.679688 18.058594 122.746094 18.101562 Z M 125.378906 22.949219 C 124 22.949219 123.050781 21.929688 123.050781 20.480469 C 123.050781 19.023438 124 18.003906 125.378906 18.003906 C 126.753906 18.003906 127.703125 19.023438 127.703125 20.480469 C 127.703125 21.941406 126.765625 22.949219 125.378906 22.949219 Z M 125.378906 19.140625 C 124.714844 19.140625 124.351562 19.710938 124.351562 20.5 C 124.351562 21.277344 124.714844 21.847656 125.378906 21.847656 C 126.039062 21.847656 126.402344 21.277344 126.402344 20.5 C 126.402344 19.710938 126.039062 19.140625 125.378906 19.140625 Z M 129.585938 24.601562 L 128.265625 24.601562 L 128.265625 18.128906 L 129.585938 18.128906 L 129.585938 18.523438 C 129.796875 18.269531 130.269531 18.027344 130.777344 18.027344 C 132.152344 18.027344 132.949219 19.167969 132.949219 20.507812 C 132.949219 21.832031 132.167969 22.972656 130.777344 22.972656 C 130.269531 22.972656 129.796875 22.734375 129.585938 22.480469 Z M 129.585938 21.265625 C 129.742188 21.59375 130.09375 21.816406 130.480469 21.816406 C 131.195312 21.816406 131.613281 21.246094 131.613281 20.5 C 131.613281 19.746094 131.183594 19.171875 130.480469 19.171875 C 130.066406 19.171875 129.769531 19.351562 129.585938 19.71875 Z M 134.84375 22.855469 L 133.519531 22.855469 L 133.519531 15.988281 L 134.84375 15.988281 L 134.84375 18.519531 C 135.050781 18.269531 135.527344 18.027344 136.03125 18.027344 C 137.410156 18.027344 138.191406 19.144531 138.191406 20.503906 C 138.191406 21.863281 137.421875 22.972656 136.03125 22.972656 C 135.527344 22.972656 135.050781 22.730469 134.84375 22.480469 Z M 134.84375 21.265625 C 134.984375 21.59375 135.339844 21.816406 135.734375 21.816406 C 136.453125 21.816406 136.871094 21.246094 136.871094 20.5 C 136.871094 19.746094 136.441406 19.171875 135.734375 19.171875 C 135.347656 19.171875 134.996094 19.402344 134.84375 19.71875 Z M 140.980469 22.976562 C 139.601562 22.976562 138.65625 21.957031 138.65625 20.511719 C 138.65625 19.050781 139.601562 18.03125 140.980469 18.03125 C 142.359375 18.03125 143.304688 19.050781 143.304688 20.511719 C 143.304688 21.957031 142.359375 22.976562 140.980469 22.976562 Z M 140.980469 19.148438 C 140.320312 19.148438 139.957031 19.71875 139.957031 20.511719 C 139.957031 21.289062 140.320312 21.859375 140.980469 21.859375 C 141.640625 21.859375 142.003906 21.289062 142.003906 20.511719 C 142.003906 19.722656 141.640625 19.148438 140.980469 19.148438 Z M 98.964844 12.59375 L 94.058594 15.742188 L 97.453125 18.464844 L 102.378906 15.445312 M 94.058594 21.140625 L 98.964844 24.351562 L 102.378906 21.507812 L 97.453125 18.46875 M 102.378906 21.507812 L 105.808594 24.351562 L 110.699219 21.171875 L 107.316406 18.464844 "/>
</g>
<g clip-path="url(#clip3)" clip-rule="nonzero">
<path style=" stroke:none;fill-rule:nonzero;fill:rgb(65.098572%,69.40918%,77.648926%);fill-opacity:1;" d="M 110.695312 15.769531 L 105.804688 12.589844 L 102.375 15.4375 L 107.3125 18.457031 M 102.390625 22.105469 L 98.960938 24.9375 L 97.484375 23.984375 L 97.484375 25.0625 L 102.390625 27.992188 L 107.296875 25.0625 L 107.296875 23.984375 L 105.816406 24.9375 M 146.382812 20.445312 L 148.113281 22.890625 L 146.65625 22.890625 L 145.632812 21.410156 L 144.597656 22.890625 L 143.222656 22.890625 L 144.929688 20.480469 L 143.320312 18.164062 L 144.773438 18.164062 L 145.6875 19.503906 L 146.625 18.164062 L 148.003906 18.164062 Z M 146.382812 20.445312 "/>
</g>
<g clip-path="url(#clip4)" clip-rule="nonzero">
<path style=" stroke:none;fill-rule:evenodd;fill:rgb(65.098572%,69.40918%,77.648926%);fill-opacity:1;" d="M 212.214844 24.285156 C 209.691406 26.179688 206.023438 27.191406 202.867188 27.191406 C 198.441406 27.191406 194.460938 25.527344 191.445312 22.757812 C 191.210938 22.539062 191.421875 22.242188 191.707031 22.414062 C 194.957031 24.339844 198.980469 25.496094 203.132812 25.496094 C 205.933594 25.496094 209.011719 24.90625 211.847656 23.683594 C 212.273438 23.496094 212.632812 23.96875 212.214844 24.285156 M 213.265625 23.058594 C 212.945312 22.640625 211.132812 22.863281 210.316406 22.960938 C 210.066406 22.992188 210.03125 22.769531 210.253906 22.613281 C 211.695312 21.578125 214.066406 21.878906 214.34375 22.222656 C 214.621094 22.570312 214.273438 24.988281 212.914062 26.144531 C 212.707031 26.320312 212.507812 26.226562 212.601562 25.992188 C 212.90625 25.21875 213.589844 23.480469 213.265625 23.058594 "/>
</g>
<g clip-path="url(#clip5)" clip-rule="nonzero">
<path style=" stroke:none;fill-rule:evenodd;fill:rgb(65.098572%,69.40918%,77.648926%);fill-opacity:1;" d="M 210.371094 15.308594 L 210.371094 14.304688 C 210.371094 14.234375 210.394531 14.171875 210.445312 14.121094 C 210.492188 14.070312 210.550781 14.046875 210.621094 14.050781 L 215.046875 14.050781 C 215.191406 14.050781 215.304688 14.152344 215.304688 14.304688 L 215.304688 15.164062 C 215.300781 15.308594 215.183594 15.496094 214.96875 15.796875 L 212.675781 19.128906 C 213.53125 19.105469 214.429688 19.234375 215.203125 19.679688 C 215.375 19.777344 215.417969 19.925781 215.4375 20.070312 L 215.4375 21.144531 C 215.4375 21.289062 215.277344 21.460938 215.109375 21.371094 C 213.75 20.648438 211.941406 20.566406 210.433594 21.378906 C 210.28125 21.464844 210.121094 21.292969 210.121094 21.148438 L 210.121094 20.128906 C 210.121094 19.964844 210.121094 19.6875 210.28125 19.4375 L 212.941406 15.5625 L 210.632812 15.5625 C 210.488281 15.5625 210.375 15.460938 210.375 15.308594 M 194.226562 21.585938 L 192.882812 21.585938 C 192.753906 21.574219 192.652344 21.476562 192.640625 21.351562 L 192.640625 14.320312 C 192.640625 14.179688 192.757812 14.070312 192.898438 14.070312 L 194.15625 14.070312 C 194.285156 14.074219 194.390625 14.175781 194.398438 14.304688 L 194.398438 15.222656 L 194.425781 15.222656 C 194.753906 14.332031 195.367188 13.917969 196.195312 13.917969 C 197.039062 13.917969 197.566406 14.332031 197.945312 15.222656 C 198.273438 14.332031 199.011719 13.917969 199.804688 13.917969 C 200.371094 13.917969 200.988281 14.15625 201.363281 14.6875 C 201.789062 15.28125 201.703125 16.140625 201.703125 16.890625 L 201.699219 21.328125 C 201.699219 21.46875 201.585938 21.585938 201.441406 21.585938 L 200.09375 21.585938 C 199.960938 21.574219 199.847656 21.464844 199.847656 21.328125 L 199.847656 17.597656 C 199.847656 17.300781 199.875 16.5625 199.8125 16.28125 C 199.710938 15.808594 199.410156 15.675781 199.019531 15.675781 C 198.695312 15.675781 198.351562 15.898438 198.214844 16.253906 C 198.078125 16.605469 198.089844 17.199219 198.089844 17.597656 L 198.089844 21.324219 C 198.089844 21.464844 197.972656 21.582031 197.832031 21.582031 L 196.480469 21.582031 C 196.347656 21.570312 196.238281 21.460938 196.238281 21.324219 L 196.238281 17.597656 C 196.238281 16.816406 196.363281 15.660156 195.410156 15.660156 C 194.441406 15.660156 194.480469 16.785156 194.480469 17.597656 L 194.480469 21.324219 C 194.480469 21.464844 194.363281 21.582031 194.21875 21.582031 M 219.113281 13.925781 C 221.113281 13.925781 222.195312 15.671875 222.195312 17.890625 C 222.195312 20.035156 221 21.734375 219.113281 21.734375 C 217.15625 21.734375 216.082031 19.988281 216.082031 17.816406 C 216.082031 15.625 217.164062 13.917969 219.113281 13.917969 M 219.125 15.355469 C 218.132812 15.355469 218.070312 16.730469 218.070312 17.589844 C 218.070312 18.445312 218.058594 20.28125 219.113281 20.28125 C 220.15625 20.28125 220.207031 18.800781 220.207031 17.898438 C 220.207031 17.308594 220.183594 16.597656 220.007812 16.035156 C 219.855469 15.546875 219.554688 15.355469 219.125 15.355469 M 224.785156 21.585938 L 223.445312 21.585938 C 223.3125 21.574219 223.203125 21.464844 223.203125 21.328125 L 223.199219 14.296875 C 223.210938 14.167969 223.324219 14.070312 223.460938 14.070312 L 224.707031 14.070312 C 224.824219 14.074219 224.921875 14.15625 224.949219 14.265625 L 224.949219 15.339844 L 224.972656 15.339844 C 225.351562 14.378906 225.878906 13.921875 226.808594 13.921875 C 227.417969 13.921875 228 14.140625 228.378906 14.75 C 228.726562 15.3125 228.726562 16.257812 228.726562 16.9375 L 228.726562 21.363281 C 228.714844 21.488281 228.601562 21.585938 228.46875 21.585938 L 227.125 21.585938 C 227 21.574219 226.898438 21.484375 226.886719 21.363281 L 226.886719 17.546875 C 226.886719 16.777344 226.972656 15.652344 226.042969 15.652344 C 225.714844 15.652344 225.414062 15.875 225.261719 16.214844 C 225.070312 16.644531 225.046875 17.070312 225.046875 17.542969 L 225.046875 21.332031 C 225.042969 21.472656 224.925781 21.585938 224.78125 21.585938 M 206.847656 18.222656 C 206.847656 18.753906 206.859375 19.195312 206.59375 19.675781 C 206.382812 20.058594 206.039062 20.296875 205.664062 20.296875 C 205.144531 20.296875 204.84375 19.894531 204.84375 19.304688 C 204.84375 18.136719 205.871094 17.925781 206.847656 17.925781 L 206.847656 18.222656 M 208.203125 21.558594 C 208.113281 21.640625 207.984375 21.648438 207.886719 21.59375 C 207.4375 21.214844 207.359375 21.039062 207.113281 20.679688 C 206.375 21.445312 205.851562 21.675781 204.894531 21.675781 C 203.757812 21.675781 202.878906 20.964844 202.878906 19.539062 C 202.878906 18.429688 203.46875 17.671875 204.3125 17.300781 C 205.046875 16.976562 206.066406 16.917969 206.847656 16.828125 L 206.847656 16.648438 C 206.847656 16.324219 206.871094 15.9375 206.679688 15.65625 C 206.519531 15.40625 206.203125 15.300781 205.925781 15.300781 C 205.410156 15.300781 204.957031 15.570312 204.84375 16.125 C 204.820312 16.246094 204.730469 16.367188 204.609375 16.375 L 203.304688 16.230469 C 203.195312 16.207031 203.070312 16.117188 203.101562 15.945312 C 203.402344 14.332031 204.835938 13.847656 206.113281 13.847656 C 206.769531 13.847656 207.625 14.023438 208.140625 14.53125 C 208.796875 15.152344 208.734375 15.980469 208.734375 16.886719 L 208.734375 19.019531 C 208.734375 19.664062 208.996094 19.945312 209.242188 20.292969 C 209.328125 20.414062 209.347656 20.5625 209.238281 20.65625 L 208.207031 21.570312 L 208.207031 21.566406 M 189.195312 18.226562 C 189.195312 18.757812 189.207031 19.199219 188.941406 19.679688 C 188.726562 20.0625 188.390625 20.300781 188.011719 20.300781 C 187.492188 20.300781 187.191406 19.898438 187.191406 19.308594 C 187.191406 18.140625 188.21875 17.929688 189.191406 17.929688 L 189.191406 18.226562 M 190.550781 21.566406 C 190.460938 21.644531 190.332031 21.652344 190.234375 21.597656 C 189.785156 21.21875 189.710938 21.042969 189.460938 20.683594 C 188.722656 21.449219 188.199219 21.679688 187.242188 21.679688 C 186.109375 21.679688 185.226562 20.96875 185.226562 19.546875 C 185.226562 18.433594 185.820312 17.675781 186.660156 17.308594 C 187.394531 16.980469 188.414062 16.921875 189.195312 16.832031 L 189.195312 16.65625 C 189.195312 16.328125 189.21875 15.945312 189.03125 15.664062 C 188.867188 15.410156 188.554688 15.304688 188.277344 15.304688 C 187.761719 15.304688 187.304688 15.574219 187.1875 16.128906 C 187.164062 16.253906 187.078125 16.375 186.957031 16.378906 L 185.648438 16.238281 C 185.539062 16.210938 185.417969 16.121094 185.449219 15.949219 C 185.75 14.339844 187.179688 13.851562 188.457031 13.851562 C 189.113281 13.851562 189.96875 14.03125 190.488281 14.535156 C 191.140625 15.15625 191.078125 15.988281 191.078125 16.890625 L 191.078125 19.027344 C 191.078125 19.667969 191.339844 19.949219 191.585938 20.296875 C 191.675781 20.421875 191.695312 20.566406 191.582031 20.660156 L 190.554688 21.570312 L 190.550781 21.566406 "/>
</g>
<g clip-path="url(#clip6)" clip-rule="nonzero">
<path style=" stroke:none;fill-rule:evenodd;fill:rgb(65.098572%,69.40918%,77.648926%);fill-opacity:1;" d="M 295.0625 14.058594 L 295.0625 15.4375 L 291.535156 15.4375 L 291.535156 24.582031 L 290.074219 24.582031 L 290.074219 15.433594 L 287.085938 15.433594 L 287.085938 14.058594 Z M 295.773438 16.574219 L 297.136719 16.574219 L 297.136719 17.984375 C 297.605469 17.035156 298.425781 16.363281 300.003906 16.460938 L 300.003906 17.808594 C 298.222656 17.625 297.136719 18.160156 297.136719 19.859375 L 297.136719 24.589844 L 295.773438 24.589844 Z M 304.917969 24.742188 C 301.882812 24.742188 300.554688 23.015625 300.554688 20.558594 C 300.554688 18.136719 301.917969 16.40625 304.382812 16.40625 C 306.878906 16.40625 307.882812 18.121094 307.882812 20.558594 L 307.882812 21.179688 L 301.96875 21.179688 C 302.164062 22.542969 303.054688 23.425781 304.96875 23.425781 C 305.816406 23.421875 306.636719 23.277344 307.433594 22.992188 L 307.433594 24.265625 C 306.769531 24.617188 305.746094 24.742188 304.917969 24.742188 Z M 301.949219 20.011719 L 306.472656 20.011719 C 306.390625 18.523438 305.710938 17.671875 304.316406 17.671875 C 302.84375 17.664062 302.097656 18.609375 301.949219 20.003906 Z M 311.710938 24.628906 C 310.378906 24.628906 309.535156 24.007812 309.535156 22.53125 L 309.535156 13.226562 L 310.929688 13.226562 L 310.929688 22.371094 C 310.929688 23.101562 311.417969 23.347656 312.015625 23.347656 C 312.152344 23.351562 312.289062 23.347656 312.421875 23.332031 L 312.421875 24.566406 C 312.1875 24.613281 311.949219 24.636719 311.707031 24.628906 Z M 315.9375 24.628906 C 314.609375 24.628906 313.765625 24.007812 313.765625 22.53125 L 313.765625 13.226562 L 315.160156 13.226562 L 315.160156 22.371094 C 315.160156 23.101562 315.644531 23.347656 316.246094 23.347656 C 316.382812 23.351562 316.515625 23.347656 316.652344 23.332031 L 316.652344 24.566406 C 316.417969 24.613281 316.179688 24.636719 315.9375 24.628906 Z M 317.429688 20.5625 C 317.429688 18.160156 318.855469 16.414062 321.289062 16.414062 C 323.71875 16.414062 325.113281 18.160156 325.113281 20.5625 C 325.113281 22.964844 323.703125 24.75 321.289062 24.75 C 318.875 24.75 317.429688 22.964844 317.429688 20.5625 Z M 318.792969 20.5625 C 318.792969 22.085938 319.558594 23.460938 321.289062 23.460938 C 323.023438 23.460938 323.753906 22.085938 323.753906 20.5625 C 323.753906 19.039062 323.019531 17.695312 321.292969 17.695312 C 319.566406 17.695312 318.796875 19.039062 318.796875 20.5625 Z M 318.792969 20.5625 "/>
</g>
<g clip-path="url(#clip7)" clip-rule="nonzero">
<g clip-path="url(#clip8)" clip-rule="evenodd">
<path style=" stroke:none;fill-rule:nonzero;fill:rgb(65.098572%,69.398499%,77.598572%);fill-opacity:1;" d="M 271.085938 13.5 L 271.085938 24.976562 L 282.691406 24.976562 L 282.691406 13.5 Z M 271.085938 13.5 "/>
</g>
</g>
<g clip-path="url(#clip9)" clip-rule="nonzero">
<path style=" stroke:none;fill-rule:nonzero;fill:rgb(65.098572%,69.40918%,77.648926%);fill-opacity:1;" d="M 517.605469 18.40625 L 517.605469 17.367188 L 516.285156 17.367188 L 516.285156 15.757812 L 516.242188 15.769531 L 515.003906 16.140625 L 514.976562 16.148438 L 514.976562 17.367188 L 513.023438 17.367188 L 513.023438 16.6875 C 513.023438 16.371094 513.097656 16.128906 513.238281 15.96875 C 513.382812 15.808594 513.585938 15.726562 513.84375 15.726562 C 514.03125 15.726562 514.222656 15.769531 514.417969 15.855469 L 514.464844 15.875 L 514.464844 14.785156 L 514.441406 14.777344 C 514.261719 14.714844 514.015625 14.679688 513.710938 14.679688 C 513.324219 14.679688 512.976562 14.761719 512.671875 14.925781 C 512.367188 15.085938 512.125 15.316406 511.960938 15.613281 C 511.792969 15.90625 511.707031 16.246094 511.707031 16.621094 L 511.707031 17.367188 L 510.789062 17.367188 L 510.789062 18.40625 L 511.707031 18.40625 L 511.707031 22.769531 L 513.023438 22.769531 L 513.023438 18.40625 L 514.976562 18.40625 L 514.976562 21.179688 C 514.976562 22.324219 515.53125 22.902344 516.621094 22.902344 C 516.796875 22.902344 516.988281 22.878906 517.179688 22.839844 C 517.375 22.800781 517.507812 22.757812 517.585938 22.714844 L 517.605469 22.703125 L 517.605469 21.660156 L 517.550781 21.695312 C 517.480469 21.738281 517.390625 21.777344 517.285156 21.804688 C 517.179688 21.835938 517.09375 21.847656 517.027344 21.847656 C 516.769531 21.847656 516.582031 21.78125 516.464844 21.648438 C 516.34375 21.515625 516.285156 21.28125 516.285156 20.957031 L 516.285156 18.40625 Z M 507.84375 21.847656 C 507.367188 21.847656 506.988281 21.695312 506.722656 21.390625 C 506.457031 21.082031 506.320312 20.644531 506.320312 20.089844 C 506.320312 19.519531 506.457031 19.070312 506.722656 18.757812 C 506.988281 18.449219 507.363281 18.289062 507.835938 18.289062 C 508.289062 18.289062 508.652344 18.441406 508.914062 18.738281 C 509.175781 19.035156 509.308594 19.480469 509.308594 20.058594 C 509.308594 20.644531 509.183594 21.097656 508.9375 21.398438 C 508.695312 21.699219 508.328125 21.847656 507.84375 21.847656 Z M 507.902344 17.238281 C 506.992188 17.238281 506.265625 17.5 505.75 18.015625 C 505.234375 18.53125 504.972656 19.242188 504.972656 20.132812 C 504.972656 20.976562 505.226562 21.660156 505.730469 22.152344 C 506.234375 22.648438 506.921875 22.902344 507.769531 22.902344 C 508.652344 22.902344 509.367188 22.636719 509.882812 22.113281 C 510.398438 21.59375 510.660156 20.886719 510.660156 20.019531 C 510.660156 19.160156 510.414062 18.472656 509.929688 17.980469 C 509.445312 17.488281 508.761719 17.238281 507.902344 17.238281 Z M 502.84375 17.238281 C 502.226562 17.238281 501.710938 17.394531 501.320312 17.699219 C 500.925781 18.007812 500.722656 18.410156 500.722656 18.898438 C 500.722656 19.152344 500.765625 19.375 500.851562 19.566406 C 500.9375 19.757812 501.070312 19.929688 501.246094 20.070312 C 501.421875 20.210938 501.691406 20.359375 502.046875 20.507812 C 502.347656 20.628906 502.570312 20.730469 502.714844 20.808594 C 502.851562 20.890625 502.953125 20.96875 503.007812 21.046875 C 503.0625 21.121094 503.089844 21.222656 503.089844 21.351562 C 503.089844 21.714844 502.808594 21.890625 502.238281 21.890625 C 502.023438 21.890625 501.78125 21.847656 501.515625 21.761719 C 501.25 21.675781 501.003906 21.554688 500.777344 21.398438 L 500.722656 21.359375 L 500.722656 22.597656 L 500.742188 22.605469 C 500.929688 22.691406 501.164062 22.761719 501.441406 22.816406 C 501.71875 22.871094 501.96875 22.902344 502.191406 22.902344 C 502.863281 22.902344 503.40625 22.746094 503.800781 22.4375 C 504.199219 22.128906 504.402344 21.714844 504.402344 21.210938 C 504.402344 20.847656 504.292969 20.535156 504.078125 20.28125 C 503.867188 20.03125 503.496094 19.804688 502.980469 19.601562 C 502.570312 19.441406 502.308594 19.308594 502.199219 19.203125 C 502.09375 19.105469 502.042969 18.964844 502.042969 18.789062 C 502.042969 18.632812 502.105469 18.503906 502.242188 18.402344 C 502.378906 18.300781 502.566406 18.25 502.804688 18.25 C 503.023438 18.25 503.246094 18.28125 503.46875 18.347656 C 503.695312 18.414062 503.890625 18.503906 504.054688 18.613281 L 504.109375 18.648438 L 504.109375 17.472656 L 504.085938 17.464844 C 503.9375 17.402344 503.738281 17.347656 503.496094 17.304688 C 503.253906 17.261719 503.035156 17.238281 502.84375 17.238281 Z M 497.289062 21.847656 C 496.808594 21.847656 496.433594 21.695312 496.167969 21.390625 C 495.898438 21.082031 495.765625 20.644531 495.765625 20.089844 C 495.765625 19.519531 495.898438 19.070312 496.167969 18.757812 C 496.433594 18.449219 496.808594 18.289062 497.277344 18.289062 C 497.734375 18.289062 498.097656 18.441406 498.359375 18.738281 C 498.621094 19.035156 498.753906 19.480469 498.753906 20.058594 C 498.753906 20.644531 498.628906 21.097656 498.382812 21.398438 C 498.136719 21.699219 497.769531 21.847656 497.289062 21.847656 Z M 497.347656 17.238281 C 496.433594 17.238281 495.710938 17.5 495.191406 18.015625 C 494.675781 18.53125 494.414062 19.242188 494.414062 20.132812 C 494.414062 20.980469 494.667969 21.660156 495.175781 22.152344 C 495.679688 22.648438 496.363281 22.902344 497.214844 22.902344 C 498.097656 22.902344 498.808594 22.636719 499.324219 22.113281 C 499.839844 21.59375 500.101562 20.886719 500.101562 20.019531 C 500.101562 19.160156 499.859375 18.472656 499.375 17.980469 C 498.886719 17.488281 498.207031 17.238281 497.347656 17.238281 Z M 492.414062 18.304688 L 492.414062 17.367188 L 491.109375 17.367188 L 491.109375 22.769531 L 492.414062 22.769531 L 492.414062 20.007812 C 492.414062 19.539062 492.523438 19.152344 492.738281 18.859375 C 492.953125 18.570312 493.234375 18.425781 493.578125 18.425781 C 493.699219 18.425781 493.828125 18.445312 493.972656 18.484375 C 494.113281 18.519531 494.214844 18.558594 494.273438 18.601562 L 494.328125 18.640625 L 494.328125 17.359375 L 494.308594 17.351562 C 494.1875 17.300781 494.015625 17.273438 493.800781 17.273438 C 493.472656 17.273438 493.179688 17.378906 492.929688 17.578125 C 492.707031 17.757812 492.550781 18 492.425781 18.304688 Z M 488.78125 17.238281 C 488.183594 17.238281 487.648438 17.363281 487.195312 17.609375 C 486.742188 17.855469 486.390625 18.210938 486.152344 18.660156 C 485.914062 19.105469 485.792969 19.628906 485.792969 20.210938 C 485.792969 20.722656 485.910156 21.191406 486.140625 21.601562 C 486.375 22.015625 486.703125 22.339844 487.117188 22.5625 C 487.53125 22.789062 488.011719 22.902344 488.539062 22.902344 C 489.160156 22.902344 489.6875 22.78125 490.109375 22.542969 L 490.128906 22.53125 L 490.128906 21.367188 L 490.074219 21.40625 C 489.882812 21.542969 489.667969 21.652344 489.4375 21.730469 C 489.207031 21.808594 488.996094 21.847656 488.8125 21.847656 C 488.300781 21.847656 487.890625 21.695312 487.59375 21.386719 C 487.296875 21.078125 487.144531 20.644531 487.144531 20.101562 C 487.144531 19.554688 487.300781 19.109375 487.613281 18.78125 C 487.921875 18.457031 488.332031 18.289062 488.832031 18.289062 C 489.261719 18.289062 489.679688 18.433594 490.074219 18.710938 L 490.128906 18.75 L 490.128906 17.523438 L 490.109375 17.515625 C 489.960938 17.433594 489.757812 17.367188 489.507812 17.316406 C 489.257812 17.265625 489.011719 17.238281 488.78125 17.238281 Z M 484.898438 17.371094 L 483.597656 17.371094 L 483.597656 22.769531 L 484.898438 22.769531 Z M 484.261719 15.066406 C 484.046875 15.066406 483.859375 15.140625 483.707031 15.28125 C 483.550781 15.421875 483.472656 15.601562 483.472656 15.808594 C 483.472656 16.015625 483.550781 16.191406 483.703125 16.328125 C 483.855469 16.464844 484.042969 16.535156 484.261719 16.535156 C 484.476562 16.535156 484.664062 16.464844 484.820312 16.328125 C 484.976562 16.191406 485.050781 16.015625 485.050781 15.808594 C 485.050781 15.605469 484.976562 15.429688 484.824219 15.285156 C 484.675781 15.140625 484.484375 15.066406 484.261719 15.066406 Z M 481.011719 16.96875 L 481.011719 22.769531 L 482.339844 22.769531 L 482.339844 15.234375 L 480.5 15.234375 L 478.164062 20.832031 L 475.894531 15.234375 L 473.980469 15.234375 L 473.980469 22.769531 L 475.230469 22.769531 L 475.230469 16.96875 L 475.273438 16.96875 L 477.667969 22.769531 L 478.609375 22.769531 L 480.96875 16.96875 Z M 481.011719 16.96875 "/>
</g>
<g clip-path="url(#clip10)" clip-rule="nonzero">
<path style=" stroke:none;fill-rule:nonzero;fill:rgb(65.098572%,69.40918%,77.648926%);fill-opacity:1;" d="M 457.230469 12.714844 L 463.355469 12.714844 L 463.355469 18.691406 L 457.230469 18.691406 Z M 457.230469 12.714844 "/>
</g>
<g clip-path="url(#clip11)" clip-rule="nonzero">
<path style=" stroke:none;fill-rule:nonzero;fill:rgb(65.098572%,69.40918%,77.648926%);fill-opacity:1;" d="M 463.992188 12.714844 L 470.117188 12.714844 L 470.117188 18.691406 L 463.992188 18.691406 Z M 463.992188 12.714844 "/>
</g>
<g clip-path="url(#clip12)" clip-rule="nonzero">
<path style=" stroke:none;fill-rule:nonzero;fill:rgb(65.098572%,69.40918%,77.648926%);fill-opacity:1;" d="M 457.230469 19.316406 L 463.355469 19.316406 L 463.355469 25.292969 L 457.230469 25.292969 Z M 457.230469 19.316406 "/>
</g>
<g clip-path="url(#clip13)" clip-rule="nonzero">
<path style=" stroke:none;fill-rule:nonzero;fill:rgb(65.098572%,69.40918%,77.648926%);fill-opacity:1;" d="M 463.992188 19.316406 L 470.117188 19.316406 L 470.117188 25.292969 L 463.992188 25.292969 Z M 463.992188 19.316406 "/>
</g>
<g clip-path="url(#clip14)" clip-rule="nonzero">
<path style=" stroke:none;fill-rule:nonzero;fill:rgb(65.098572%,69.40918%,77.648926%);fill-opacity:1;" d="M 368.640625 14.777344 L 370.085938 14.777344 C 370.183594 14.773438 370.234375 14.726562 370.234375 14.625 L 370.21875 13.035156 C 370.214844 12.777344 370.265625 12.53125 370.378906 12.296875 L 370.429688 12.203125 C 370.421875 12.203125 370.417969 12.207031 370.410156 12.210938 L 367.617188 15.003906 C 367.609375 15.007812 367.605469 15.011719 367.605469 15.019531 L 367.753906 14.945312 C 368.003906 14.835938 368.292969 14.777344 368.652344 14.777344 Z M 379.835938 14.472656 C 379.722656 13.855469 379.359375 13.550781 379.03125 13.433594 C 378.675781 13.304688 377.957031 13.171875 377.050781 13.0625 C 376.324219 12.976562 375.46875 12.984375 374.953125 13 C 374.890625 12.574219 374.59375 12.183594 374.257812 12.046875 C 373.367188 11.6875 371.996094 11.773438 371.644531 11.875 C 371.363281 11.953125 371.054688 12.113281 370.882812 12.363281 C 370.765625 12.527344 370.691406 12.742188 370.691406 13.039062 L 370.699219 13.953125 L 370.710938 14.625 C 370.710938 14.785156 370.652344 14.917969 370.542969 15.03125 C 370.433594 15.140625 370.300781 15.195312 370.144531 15.199219 L 368.699219 15.199219 C 368.390625 15.199219 368.15625 15.25 367.976562 15.332031 C 367.8125 15.402344 367.679688 15.511719 367.574219 15.65625 C 367.382812 15.914062 367.347656 16.234375 367.351562 16.558594 C 367.351562 16.558594 367.351562 16.824219 367.417969 17.339844 C 367.46875 17.742188 367.902344 20.539062 368.3125 21.390625 C 368.46875 21.71875 368.574219 21.859375 368.886719 22.003906 C 369.582031 22.304688 371.171875 22.636719 371.914062 22.730469 C 372.660156 22.828125 373.125 23.027344 373.402344 22.441406 C 373.445312 22.324219 373.492188 22.203125 373.53125 22.085938 C 373.773438 21.347656 373.808594 20.695312 373.808594 20.222656 C 373.808594 20.175781 373.878906 20.171875 373.878906 20.222656 C 373.878906 20.554688 373.8125 21.738281 374.699219 22.054688 C 375.050781 22.179688 375.773438 22.289062 376.511719 22.375 C 377.179688 22.453125 377.65625 22.71875 377.65625 24.4375 C 377.65625 25.492188 377.4375 25.628906 376.296875 25.628906 C 375.371094 25.628906 375.019531 25.652344 375.019531 24.910156 C 375.019531 24.3125 375.605469 24.375 376.042969 24.375 C 376.242188 24.375 376.09375 24.226562 376.09375 23.859375 C 376.09375 23.496094 376.324219 23.28125 376.109375 23.277344 C 374.601562 23.234375 373.714844 23.273438 373.714844 25.171875 C 373.714844 26.894531 374.367188 27.210938 376.503906 27.210938 C 378.179688 27.210938 378.773438 27.164062 379.464844 24.996094 C 379.601562 24.566406 379.933594 23.265625 380.132812 21.078125 C 380.261719 19.691406 380.011719 15.519531 379.820312 14.464844 Z M 376.914062 19.085938 C 376.714844 19.078125 376.515625 19.089844 376.320312 19.121094 C 376.371094 18.699219 376.546875 18.175781 377.164062 18.199219 C 377.847656 18.222656 377.945312 18.871094 377.945312 19.3125 C 377.65625 19.183594 377.300781 19.101562 376.914062 19.085938 Z M 376.914062 19.085938 "/>
</g>
<g clip-path="url(#clip15)" clip-rule="nonzero">
<path style=" stroke:none;fill-rule:nonzero;fill:rgb(65.098572%,69.40918%,77.648926%);fill-opacity:1;" d="M 382.226562 21.332031 L 382.796875 21.332031 L 382.824219 17.675781 L 382.226562 17.675781 L 382.226562 16.972656 L 385.996094 16.972656 L 386.042969 18.394531 L 385.296875 18.394531 L 385.230469 17.675781 L 383.808594 17.675781 L 383.800781 19.105469 L 385.246094 19.105469 L 385.246094 19.808594 L 383.800781 19.808594 L 383.792969 21.332031 L 385.222656 21.332031 L 385.316406 20.519531 L 386.121094 20.519531 L 386.03125 22.03125 L 382.226562 22.03125 Z M 392.042969 17.675781 L 391.566406 17.675781 L 389.777344 22.03125 L 388.75 22.03125 L 386.957031 17.675781 L 386.453125 17.675781 L 386.453125 16.972656 L 388.59375 16.972656 L 388.59375 17.675781 L 388.089844 17.675781 L 389.328125 21.109375 L 389.347656 21.109375 L 390.574219 17.675781 L 389.96875 17.675781 L 389.96875 16.972656 L 392.042969 16.972656 Z M 392.539062 21.332031 L 393.105469 21.332031 L 393.132812 17.675781 L 392.539062 17.675781 L 392.539062 16.972656 L 396.308594 16.972656 L 396.355469 18.394531 L 395.609375 18.394531 L 395.542969 17.675781 L 394.121094 17.675781 L 394.113281 19.105469 L 395.554688 19.105469 L 395.554688 19.808594 L 394.113281 19.808594 L 394.101562 21.332031 L 395.53125 21.332031 L 395.625 20.519531 L 396.433594 20.519531 L 396.339844 22.03125 L 392.539062 22.03125 Z M 397.371094 21.332031 L 397.941406 21.332031 L 397.96875 17.675781 L 397.371094 17.675781 L 397.371094 16.972656 L 399.695312 16.972656 C 400.859375 16.972656 401.234375 17.648438 401.234375 18.300781 C 401.234375 18.882812 400.949219 19.40625 400.050781 19.640625 L 400.050781 19.660156 C 400.519531 19.789062 400.640625 19.910156 401.105469 20.722656 C 401.417969 21.246094 401.527344 21.332031 401.703125 21.332031 C 401.777344 21.332031 401.847656 21.3125 401.914062 21.304688 L 401.914062 22.03125 L 401.398438 22.03125 C 400.71875 22.03125 400.636719 21.949219 400.105469 20.886719 C 399.628906 19.945312 399.519531 19.882812 399.152344 19.882812 L 398.949219 19.882812 L 398.941406 21.335938 L 399.535156 21.335938 L 399.535156 22.035156 L 397.371094 22.035156 Z M 398.960938 19.179688 L 399.359375 19.179688 C 399.898438 19.179688 400.265625 18.878906 400.265625 18.414062 C 400.265625 17.953125 400.035156 17.675781 399.578125 17.675781 L 398.972656 17.675781 L 398.964844 19.179688 Z M 406.527344 17.675781 L 405.929688 17.675781 L 405.929688 16.972656 L 407.902344 16.972656 L 407.902344 17.675781 L 407.335938 17.675781 L 407.308594 22.03125 L 406.558594 22.03125 L 403.871094 18.429688 L 403.855469 18.429688 L 403.828125 21.332031 L 404.421875 21.332031 L 404.421875 22.03125 L 402.449219 22.03125 L 402.449219 21.332031 L 403.019531 21.332031 L 403.046875 17.675781 L 402.449219 17.675781 L 402.449219 16.972656 L 403.9375 16.972656 L 406.476562 20.398438 L 406.496094 20.398438 L 406.523438 17.675781 Z M 410.761719 16.871094 C 412.496094 16.871094 413.25 18.023438 413.25 19.429688 C 413.25 21.027344 412.308594 22.132812 410.761719 22.132812 C 409.027344 22.132812 408.269531 20.980469 408.269531 19.566406 C 408.269531 17.976562 409.214844 16.867188 410.761719 16.867188 Z M 410.761719 21.320312 C 411.695312 21.320312 412.230469 20.515625 412.230469 19.492188 C 412.230469 18.339844 411.605469 17.6875 410.761719 17.6875 C 409.824219 17.6875 409.292969 18.492188 409.292969 19.535156 C 409.292969 20.667969 409.917969 21.324219 410.761719 21.324219 Z M 414.832031 21.332031 L 415.402344 21.332031 L 415.429688 17.675781 L 414.414062 17.675781 L 414.375 18.394531 L 413.613281 18.394531 L 413.664062 16.972656 L 418.167969 16.972656 L 418.21875 18.394531 L 417.457031 18.394531 L 417.421875 17.675781 L 416.410156 17.675781 L 416.382812 21.332031 L 416.980469 21.332031 L 416.980469 22.03125 L 414.816406 22.03125 L 414.816406 21.332031 Z M 418.796875 21.332031 L 419.363281 21.332031 L 419.394531 17.675781 L 418.796875 17.675781 L 418.796875 16.972656 L 422.566406 16.972656 L 422.617188 18.394531 L 421.871094 18.394531 L 421.804688 17.675781 L 420.382812 17.675781 L 420.371094 19.105469 L 421.816406 19.105469 L 421.816406 19.808594 L 420.371094 19.808594 L 420.363281 21.332031 L 421.792969 21.332031 L 421.886719 20.519531 L 422.691406 20.519531 L 422.601562 22.03125 L 418.804688 22.03125 L 418.804688 21.332031 Z M 418.796875 21.332031 "/>
</g>
</g>
</svg>
