<?xml version="1.0" encoding="UTF-8"?>
<svg xmlns="http://www.w3.org/2000/svg" xmlns:xlink="http://www.w3.org/1999/xlink" width="412.5pt" height="112.499997pt" viewBox="0 0 412.5 112.499997" version="1.2">
<defs>
<clipPath id="clip1">
  <path d="M 143.480469 4.601562 L 246 4.601562 L 246 31 L 143.480469 31 Z M 143.480469 4.601562 "/>
</clipPath>
<clipPath id="clip2">
  <path d="M 150 4.601562 L 255.621094 4.601562 L 255.621094 37.496094 L 150 37.496094 Z M 150 4.601562 "/>
</clipPath>
<clipPath id="clip3">
  <path d="M 299.339844 74.296875 L 326 74.296875 L 326 105.695312 L 299.339844 105.695312 Z M 299.339844 74.296875 "/>
</clipPath>
<clipPath id="clip4">
  <path d="M 329 84 L 411.339844 84 L 411.339844 96 L 329 96 Z M 329 84 "/>
</clipPath>
<clipPath id="clip5">
  <path d="M 176 80.636719 L 255.621094 80.636719 L 255.621094 105 L 176 105 Z M 176 80.636719 "/>
</clipPath>
<clipPath id="clip6">
  <path d="M 143.480469 81 L 168 81 L 168 105.308594 L 143.480469 105.308594 Z M 143.480469 81 "/>
</clipPath>
<clipPath id="clip7">
  <path d="M 164.570312 81.3125 L 146.496094 81.3125 C 146.09375 81.3125 145.710938 81.386719 145.339844 81.539062 C 144.972656 81.691406 144.644531 81.90625 144.363281 82.1875 C 144.082031 82.46875 143.863281 82.792969 143.710938 83.160156 C 143.558594 83.527344 143.480469 83.90625 143.480469 84.304688 L 143.480469 102.234375 C 143.480469 102.628906 143.558594 103.011719 143.710938 103.375 C 143.863281 103.742188 144.082031 104.066406 144.363281 104.347656 C 144.648438 104.625 144.972656 104.84375 145.34375 104.992188 C 145.710938 105.144531 146.09375 105.222656 146.496094 105.222656 L 164.570312 105.222656 C 164.96875 105.21875 165.351562 105.140625 165.71875 104.988281 C 166.085938 104.835938 166.410156 104.621094 166.691406 104.339844 C 166.972656 104.0625 167.191406 103.738281 167.339844 103.375 C 167.492188 103.007812 167.570312 102.628906 167.570312 102.234375 L 167.570312 84.308594 C 167.570312 83.914062 167.492188 83.53125 167.339844 83.167969 C 167.191406 82.800781 166.972656 82.480469 166.691406 82.199219 C 166.410156 81.921875 166.085938 81.703125 165.71875 81.550781 C 165.351562 81.398438 164.96875 81.320312 164.570312 81.320312 Z M 153.964844 99.421875 C 153.964844 99.613281 153.925781 99.792969 153.851562 99.96875 C 153.777344 100.140625 153.671875 100.292969 153.539062 100.425781 C 153.402344 100.558594 153.246094 100.660156 153.070312 100.734375 C 152.894531 100.804688 152.710938 100.839844 152.519531 100.839844 L 148.070312 100.839844 C 147.878906 100.84375 147.695312 100.808594 147.519531 100.734375 C 147.339844 100.664062 147.183594 100.5625 147.050781 100.429688 C 146.914062 100.296875 146.808594 100.144531 146.734375 99.96875 C 146.65625 99.792969 146.621094 99.613281 146.617188 99.421875 L 146.617188 85.863281 C 146.617188 85.671875 146.652344 85.488281 146.726562 85.3125 C 146.800781 85.132812 146.90625 84.980469 147.042969 84.84375 C 147.179688 84.707031 147.335938 84.605469 147.515625 84.53125 C 147.691406 84.460938 147.878906 84.425781 148.070312 84.425781 L 152.519531 84.425781 C 152.710938 84.425781 152.898438 84.460938 153.074219 84.535156 C 153.25 84.605469 153.40625 84.710938 153.542969 84.84375 C 153.679688 84.980469 153.78125 85.132812 153.855469 85.308594 C 153.929688 85.484375 153.964844 85.667969 153.964844 85.859375 Z M 164.453125 93.445312 C 164.453125 93.636719 164.417969 93.820312 164.34375 93.996094 C 164.269531 94.171875 164.164062 94.324219 164.03125 94.460938 C 163.894531 94.59375 163.738281 94.699219 163.5625 94.769531 C 163.382812 94.84375 163.199219 94.878906 163.007812 94.878906 L 158.546875 94.878906 C 158.355469 94.878906 158.171875 94.84375 157.992188 94.769531 C 157.816406 94.699219 157.660156 94.59375 157.523438 94.460938 C 157.390625 94.324219 157.285156 94.171875 157.210938 93.996094 C 157.136719 93.820312 157.101562 93.636719 157.101562 93.445312 L 157.101562 85.863281 C 157.101562 85.671875 157.136719 85.488281 157.210938 85.3125 C 157.28125 85.136719 157.386719 84.980469 157.523438 84.847656 C 157.660156 84.710938 157.816406 84.609375 157.992188 84.535156 C 158.167969 84.460938 158.355469 84.425781 158.546875 84.425781 L 163.007812 84.425781 C 163.199219 84.425781 163.382812 84.460938 163.5625 84.535156 C 163.738281 84.605469 163.894531 84.710938 164.03125 84.84375 C 164.164062 84.980469 164.269531 85.132812 164.34375 85.308594 C 164.417969 85.484375 164.453125 85.667969 164.453125 85.859375 Z M 164.453125 93.445312 "/>
</clipPath>
<clipPath id="clip8">
  <path d="M 32 18 L 112.800781 18 L 112.800781 30 L 32 30 Z M 32 18 "/>
</clipPath>
<clipPath id="clip9">
  <path d="M 0.664062 2.148438 L 36 2.148438 L 36 37.285156 L 0.664062 37.285156 Z M 0.664062 2.148438 "/>
</clipPath>
<clipPath id="clip10">
  <path d="M 330 11 L 411.339844 11 L 411.339844 28 L 330 28 Z M 330 11 "/>
</clipPath>
<clipPath id="clip11">
  <path d="M 299.339844 7.683594 L 311 7.683594 L 311 20 L 299.339844 20 Z M 299.339844 7.683594 "/>
</clipPath>
<clipPath id="clip12">
  <path d="M 312 7.683594 L 324 7.683594 L 324 20 L 312 20 Z M 312 7.683594 "/>
</clipPath>
<clipPath id="clip13">
  <path d="M 299.339844 20 L 311 20 L 311 31.605469 L 299.339844 31.605469 Z M 299.339844 20 "/>
</clipPath>
<clipPath id="clip14">
  <path d="M 312 20 L 324 20 L 324 31.605469 L 312 31.605469 Z M 312 20 "/>
</clipPath>
<clipPath id="clip15">
  <path d="M 16 96 L 76 96 L 76 109.882812 L 16 109.882812 Z M 16 96 "/>
</clipPath>
<clipPath id="clip16">
  <path d="M 0.664062 76.238281 L 112.800781 76.238281 L 112.800781 97 L 0.664062 97 Z M 0.664062 76.238281 "/>
</clipPath>
</defs>
<g id="surface1">
<g clip-path="url(#clip1)" clip-rule="nonzero">
<path style=" stroke:none;fill-rule:nonzero;fill:rgb(65.098572%,69.40918%,77.648926%);fill-opacity:1;" d="M 184.320312 12.785156 L 189.097656 12.785156 C 193.191406 12.785156 195.777344 15.472656 195.777344 19.652344 C 195.777344 23.832031 193.203125 26.523438 189.097656 26.523438 L 184.320312 26.523438 Z M 188.988281 23.992188 C 191.5625 23.992188 192.964844 22.320312 192.964844 19.652344 C 192.964844 16.960938 191.546875 15.289062 188.988281 15.289062 L 187.109375 15.289062 L 187.109375 23.992188 Z M 203.027344 19.257812 C 202.664062 19.023438 202.160156 18.929688 201.65625 18.929688 C 200.742188 18.929688 199.988281 19.417969 199.78125 20.347656 L 199.78125 26.542969 L 197.035156 26.542969 L 197.035156 16.519531 L 199.78125 16.519531 L 199.78125 17.492188 C 200.191406 16.773438 201.015625 16.285156 201.976562 16.285156 C 202.425781 16.285156 202.867188 16.378906 203.007812 16.46875 Z M 208.472656 26.726562 C 205.613281 26.726562 203.644531 24.570312 203.644531 21.507812 C 203.644531 18.421875 205.613281 16.261719 208.472656 16.261719 C 211.332031 16.261719 213.296875 18.421875 213.296875 21.507812 C 213.296875 24.59375 211.351562 26.726562 208.472656 26.726562 Z M 208.472656 18.664062 C 207.097656 18.664062 206.34375 19.871094 206.34375 21.542969 C 206.34375 23.1875 207.097656 24.398438 208.472656 24.398438 C 209.84375 24.398438 210.597656 23.1875 210.597656 21.542969 C 210.597656 19.875 209.84375 18.664062 208.472656 18.664062 Z M 217.207031 30.21875 L 214.460938 30.21875 L 214.460938 16.53125 L 217.207031 16.53125 L 217.207031 17.359375 C 217.640625 16.824219 218.625 16.316406 219.675781 16.316406 C 222.535156 16.316406 224.183594 18.726562 224.183594 21.558594 C 224.183594 24.367188 222.558594 26.78125 219.675781 26.78125 C 218.625 26.78125 217.640625 26.269531 217.207031 25.734375 Z M 217.207031 23.167969 C 217.527344 23.863281 218.257812 24.328125 219.058594 24.328125 C 220.546875 24.328125 221.414062 23.121094 221.414062 21.542969 C 221.414062 19.953125 220.523438 18.734375 219.058594 18.734375 C 218.667969 18.734375 218.304688 18.835938 217.96875 19.046875 C 217.636719 19.253906 217.382812 19.539062 217.207031 19.894531 Z M 228.113281 26.53125 L 225.371094 26.53125 L 225.371094 11.996094 L 228.113281 11.996094 L 228.113281 17.355469 C 228.550781 16.824219 229.53125 16.3125 230.585938 16.3125 C 233.445312 16.3125 235.066406 18.679688 235.066406 21.554688 C 235.066406 24.433594 233.46875 26.777344 230.585938 26.777344 C 229.53125 26.777344 228.546875 26.265625 228.113281 25.730469 Z M 228.113281 23.167969 C 228.414062 23.863281 229.144531 24.328125 229.96875 24.328125 C 231.453125 24.328125 232.324219 23.121094 232.324219 21.542969 C 232.324219 19.953125 231.429688 18.734375 229.96875 18.734375 C 229.167969 18.734375 228.433594 19.222656 228.113281 19.894531 Z M 240.851562 26.785156 C 237.996094 26.785156 236.027344 24.628906 236.027344 21.566406 C 236.027344 18.480469 237.992188 16.320312 240.851562 16.320312 C 243.710938 16.320312 245.679688 18.480469 245.679688 21.566406 C 245.679688 24.628906 243.710938 26.785156 240.851562 26.785156 Z M 240.851562 18.6875 C 239.480469 18.6875 238.726562 19.894531 238.726562 21.566406 C 238.726562 23.210938 239.480469 24.417969 240.851562 24.417969 C 242.226562 24.417969 242.980469 23.210938 242.980469 21.566406 C 242.980469 19.894531 242.226562 18.6875 240.851562 18.6875 Z M 153.648438 4.820312 L 143.464844 11.476562 L 150.515625 17.238281 L 160.734375 10.847656 M 143.464844 22.902344 L 153.648438 29.691406 L 160.734375 23.675781 L 150.515625 17.246094 M 160.734375 23.675781 L 167.851562 29.691406 L 178.003906 22.96875 L 170.984375 17.242188 "/>
</g>
<g clip-path="url(#clip2)" clip-rule="nonzero">
<path style=" stroke:none;fill-rule:nonzero;fill:rgb(65.098572%,69.40918%,77.648926%);fill-opacity:1;" d="M 177.996094 11.535156 L 167.847656 4.8125 L 160.726562 10.832031 L 170.980469 17.222656 M 160.761719 24.941406 L 153.644531 30.9375 L 150.574219 28.914062 L 150.574219 31.199219 L 160.757812 37.394531 L 170.945312 31.199219 L 170.945312 28.914062 L 167.875 30.9375 M 252.066406 21.429688 L 255.65625 26.605469 L 252.636719 26.605469 L 250.511719 23.472656 L 248.363281 26.605469 L 245.503906 26.605469 L 249.046875 21.5 L 245.710938 16.605469 L 248.730469 16.605469 L 250.625 19.433594 L 252.570312 16.605469 L 255.429688 16.605469 Z M 252.066406 21.429688 "/>
</g>
<g clip-path="url(#clip3)" clip-rule="nonzero">
<path style=" stroke:none;fill-rule:nonzero;fill:rgb(65.098572%,69.40918%,77.648926%);fill-opacity:1;" d="M 302.164062 80.546875 L 305.082031 80.546875 C 305.167969 80.546875 305.238281 80.519531 305.296875 80.460938 C 305.355469 80.398438 305.382812 80.328125 305.382812 80.246094 L 305.347656 77.03125 C 305.339844 76.507812 305.449219 76.011719 305.675781 75.539062 L 305.777344 75.351562 C 305.765625 75.351562 305.753906 75.359375 305.742188 75.371094 L 300.09375 81.007812 C 300.085938 81.015625 300.078125 81.027344 300.074219 81.039062 L 300.375 80.890625 C 300.875 80.667969 301.460938 80.546875 302.183594 80.546875 Z M 324.785156 79.933594 C 324.554688 78.691406 323.820312 78.078125 323.15625 77.835938 C 322.4375 77.574219 320.984375 77.304688 319.15625 77.089844 C 317.6875 76.914062 315.960938 76.929688 314.917969 76.960938 C 314.792969 76.097656 314.191406 75.308594 313.507812 75.035156 C 311.714844 74.308594 308.945312 74.484375 308.234375 74.6875 C 307.667969 74.84375 307.042969 75.171875 306.695312 75.671875 C 306.460938 76.007812 306.308594 76.4375 306.308594 77.039062 L 306.328125 78.890625 L 306.34375 80.246094 C 306.34375 80.398438 306.316406 80.546875 306.257812 80.6875 C 306.199219 80.828125 306.117188 80.953125 306.007812 81.0625 C 305.902344 81.171875 305.777344 81.253906 305.636719 81.3125 C 305.496094 81.371094 305.351562 81.398438 305.199219 81.398438 L 302.28125 81.398438 C 301.660156 81.398438 301.1875 81.503906 300.824219 81.671875 C 300.496094 81.816406 300.222656 82.035156 300.007812 82.324219 C 299.621094 82.847656 299.554688 83.496094 299.554688 84.148438 C 299.554688 84.148438 299.5625 84.6875 299.691406 85.730469 C 299.800781 86.539062 300.671875 92.191406 301.496094 93.90625 C 301.820312 94.578125 302.03125 94.855469 302.664062 95.148438 C 304.066406 95.753906 307.277344 96.429688 308.78125 96.621094 C 310.28125 96.816406 311.222656 97.222656 311.785156 96.035156 C 311.875 95.796875 311.960938 95.554688 312.046875 95.3125 C 312.535156 93.824219 312.601562 92.507812 312.601562 91.554688 C 312.601562 91.457031 312.746094 91.453125 312.746094 91.554688 C 312.746094 92.226562 312.617188 94.613281 314.40625 95.25 C 315.109375 95.503906 316.578125 95.726562 318.066406 95.902344 C 319.414062 96.058594 320.382812 96.589844 320.382812 100.066406 C 320.382812 102.195312 319.941406 102.472656 317.632812 102.472656 C 315.761719 102.472656 315.046875 102.523438 315.046875 101.023438 C 315.046875 99.816406 316.234375 99.941406 317.117188 99.941406 C 317.519531 99.941406 317.226562 99.636719 317.226562 98.902344 C 317.226562 98.164062 317.6875 97.730469 317.25 97.71875 C 314.207031 97.636719 312.414062 97.714844 312.414062 101.546875 C 312.414062 105.027344 313.738281 105.671875 318.050781 105.671875 C 321.4375 105.671875 322.632812 105.570312 324.03125 101.191406 C 324.308594 100.328125 324.976562 97.699219 325.382812 93.277344 C 325.640625 90.480469 325.140625 82.050781 324.746094 79.921875 Z M 318.878906 89.257812 C 318.476562 89.242188 318.078125 89.265625 317.679688 89.328125 C 317.785156 88.472656 318.136719 87.417969 319.386719 87.460938 C 320.769531 87.507812 320.960938 88.820312 320.964844 89.710938 C 320.382812 89.453125 319.664062 89.285156 318.875 89.257812 Z M 318.878906 89.257812 "/>
</g>
<g clip-path="url(#clip4)" clip-rule="nonzero">
<path style=" stroke:none;fill-rule:nonzero;fill:rgb(65.098572%,69.40918%,77.648926%);fill-opacity:1;" d="M 329.617188 93.792969 L 330.765625 93.792969 L 330.820312 86.40625 L 329.617188 86.40625 L 329.617188 84.988281 L 337.230469 84.988281 L 337.324219 87.859375 L 335.8125 87.859375 L 335.683594 86.402344 L 332.808594 86.402344 L 332.792969 89.292969 L 335.710938 89.292969 L 335.710938 90.710938 L 332.792969 90.710938 L 332.773438 93.792969 L 335.664062 93.792969 L 335.851562 92.152344 L 337.480469 92.152344 L 337.296875 95.210938 L 329.617188 95.210938 Z M 349.445312 86.40625 L 348.480469 86.40625 L 344.867188 95.207031 L 342.792969 95.207031 L 339.167969 86.40625 L 338.148438 86.40625 L 338.148438 84.988281 L 342.476562 84.988281 L 342.476562 86.40625 L 341.457031 86.40625 L 343.957031 93.34375 L 343.996094 93.34375 L 346.480469 86.40625 L 345.257812 86.40625 L 345.257812 84.988281 L 349.445312 84.988281 Z M 350.445312 93.792969 L 351.59375 93.792969 L 351.648438 86.40625 L 350.445312 86.40625 L 350.445312 84.988281 L 358.0625 84.988281 L 358.15625 87.859375 L 356.644531 87.859375 L 356.515625 86.402344 L 353.640625 86.402344 L 353.625 89.292969 L 356.542969 89.292969 L 356.542969 90.710938 L 353.625 90.710938 L 353.601562 93.792969 L 356.496094 93.792969 L 356.679688 92.152344 L 358.3125 92.152344 L 358.125 95.210938 L 350.445312 95.210938 Z M 360.210938 93.792969 L 361.359375 93.792969 L 361.414062 86.40625 L 360.210938 86.40625 L 360.210938 84.988281 L 364.898438 84.988281 C 367.253906 84.988281 368.011719 86.347656 368.011719 87.671875 C 368.011719 88.847656 367.441406 89.902344 365.621094 90.378906 L 365.621094 90.414062 C 366.570312 90.675781 366.808594 90.917969 367.753906 92.558594 C 368.382812 93.625 368.605469 93.792969 368.957031 93.792969 C 369.105469 93.792969 369.253906 93.753906 369.382812 93.734375 L 369.382812 95.207031 L 368.34375 95.207031 C 366.972656 95.207031 366.808594 95.042969 365.734375 92.894531 C 364.769531 90.992188 364.546875 90.863281 363.804688 90.863281 L 363.398438 90.863281 L 363.378906 93.800781 L 364.585938 93.800781 L 364.585938 95.21875 L 360.210938 95.21875 Z M 363.417969 89.445312 L 364.222656 89.445312 C 365.316406 89.445312 366.054688 88.835938 366.054688 87.894531 C 366.054688 86.964844 365.59375 86.402344 364.667969 86.402344 L 363.445312 86.402344 L 363.425781 89.441406 Z M 378.707031 86.402344 L 377.503906 86.402344 L 377.503906 84.984375 L 381.488281 84.984375 L 381.488281 86.402344 L 380.339844 86.402344 L 380.28125 95.207031 L 378.773438 95.207031 L 373.34375 87.933594 L 373.304688 87.933594 L 373.25 93.789062 L 374.453125 93.789062 L 374.453125 95.207031 L 370.46875 95.207031 L 370.46875 93.789062 L 371.621094 93.789062 L 371.675781 86.402344 L 370.46875 86.402344 L 370.46875 84.984375 L 373.472656 84.984375 L 378.601562 91.90625 L 378.640625 91.90625 L 378.695312 86.40625 Z M 387.261719 84.78125 C 390.761719 84.78125 392.292969 87.113281 392.292969 89.949219 C 392.292969 93.175781 390.382812 95.410156 387.261719 95.410156 C 383.757812 95.410156 382.230469 93.082031 382.230469 90.226562 C 382.230469 87.015625 384.136719 84.777344 387.261719 84.777344 Z M 387.261719 93.769531 C 389.148438 93.769531 390.226562 92.148438 390.226562 90.078125 C 390.226562 87.746094 388.96875 86.429688 387.261719 86.429688 C 385.367188 86.429688 384.292969 88.054688 384.292969 90.160156 C 384.292969 92.457031 385.554688 93.78125 387.261719 93.78125 Z M 395.488281 93.792969 L 396.636719 93.792969 L 396.691406 86.40625 L 394.636719 86.40625 L 394.5625 87.859375 L 393.027344 87.859375 L 393.125 84.988281 L 402.226562 84.988281 L 402.328125 87.859375 L 400.789062 87.859375 L 400.714844 86.40625 L 398.675781 86.40625 L 398.617188 93.792969 L 399.824219 93.792969 L 399.824219 95.210938 L 395.449219 95.210938 L 395.449219 93.792969 Z M 403.492188 93.792969 L 404.640625 93.792969 L 404.699219 86.40625 L 403.492188 86.40625 L 403.492188 84.988281 L 411.109375 84.988281 L 411.210938 87.859375 L 409.703125 87.859375 L 409.570312 86.402344 L 406.699219 86.402344 L 406.679688 89.292969 L 409.597656 89.292969 L 409.597656 90.710938 L 406.679688 90.710938 L 406.660156 93.792969 L 409.550781 93.792969 L 409.734375 92.152344 L 411.367188 92.152344 L 411.183594 95.210938 L 403.507812 95.210938 L 403.507812 93.792969 Z M 403.492188 93.792969 "/>
</g>
<g clip-path="url(#clip5)" clip-rule="nonzero">
<path style=" stroke:none;fill-rule:evenodd;fill:rgb(65.098572%,69.40918%,77.648926%);fill-opacity:1;" d="M 193.238281 82.480469 L 193.238281 85.351562 L 185.921875 85.351562 L 185.921875 104.40625 L 182.894531 104.40625 L 182.894531 85.347656 L 176.683594 85.347656 L 176.683594 82.480469 Z M 194.714844 87.71875 L 197.542969 87.71875 L 197.542969 90.65625 C 198.519531 88.683594 200.21875 87.28125 203.5 87.484375 L 203.5 90.292969 C 199.800781 89.914062 197.542969 91.027344 197.542969 94.5625 L 197.542969 104.421875 L 194.714844 104.421875 Z M 213.695312 104.738281 C 207.402344 104.738281 204.644531 101.136719 204.644531 96.019531 C 204.644531 90.972656 207.472656 87.371094 212.585938 87.371094 C 217.765625 87.371094 219.847656 90.945312 219.847656 96.019531 L 219.847656 97.320312 L 207.578125 97.320312 C 207.980469 100.15625 209.832031 101.992188 213.800781 101.992188 C 215.558594 101.988281 217.265625 101.6875 218.917969 101.089844 L 218.917969 103.742188 C 217.539062 104.472656 215.414062 104.738281 213.699219 104.738281 Z M 207.539062 94.878906 L 216.925781 94.878906 C 216.757812 91.777344 215.339844 90.007812 212.453125 90.007812 C 209.390625 89.992188 207.839844 91.960938 207.539062 94.859375 Z M 227.792969 104.503906 C 225.035156 104.503906 223.28125 103.203125 223.28125 100.132812 L 223.28125 80.742188 L 226.175781 80.742188 L 226.175781 99.796875 C 226.175781 101.316406 227.1875 101.835938 228.433594 101.835938 C 228.714844 101.839844 228.992188 101.828125 229.273438 101.800781 L 229.273438 104.367188 C 228.785156 104.472656 228.289062 104.515625 227.789062 104.5 Z M 236.574219 104.503906 C 233.8125 104.503906 232.0625 103.203125 232.0625 100.132812 L 232.0625 80.742188 L 234.957031 80.742188 L 234.957031 99.796875 C 234.957031 101.316406 235.964844 101.835938 237.210938 101.835938 C 237.492188 101.839844 237.773438 101.828125 238.050781 101.800781 L 238.050781 104.367188 C 237.5625 104.472656 237.070312 104.515625 236.570312 104.5 Z M 239.667969 96.027344 C 239.667969 91.023438 242.628906 87.382812 247.675781 87.382812 C 252.722656 87.382812 255.617188 91.023438 255.617188 96.027344 C 255.617188 101.035156 252.6875 104.75 247.675781 104.75 C 242.664062 104.75 239.667969 101.035156 239.667969 96.027344 Z M 242.5 96.027344 C 242.5 99.199219 244.082031 102.070312 247.679688 102.070312 C 251.277344 102.070312 252.792969 99.199219 252.792969 96.027344 C 252.792969 92.859375 251.265625 90.054688 247.683594 90.054688 C 244.101562 90.054688 242.507812 92.855469 242.507812 96.027344 Z M 242.5 96.027344 "/>
</g>
<g clip-path="url(#clip6)" clip-rule="nonzero">
<g clip-path="url(#clip7)" clip-rule="evenodd">
<path style=" stroke:none;fill-rule:nonzero;fill:rgb(65.098572%,69.398499%,77.598572%);fill-opacity:1;" d="M 143.480469 81.3125 L 143.480469 105.222656 L 167.570312 105.222656 L 167.570312 81.3125 Z M 143.480469 81.3125 "/>
</g>
</g>
<g clip-path="url(#clip8)" clip-rule="nonzero">
<path style=" stroke:none;fill-rule:nonzero;fill:rgb(65.098572%,69.40918%,77.648926%);fill-opacity:1;" d="M 101.015625 22.867188 L 101.015625 29.269531 L 103.050781 29.269531 L 103.050781 25.003906 L 110.464844 25.003906 L 110.464844 29.269531 L 112.5 29.269531 L 112.5 22.878906 L 101.015625 22.867188 M 102.824219 20.796875 L 110.65625 20.796875 C 111.746094 20.578125 112.554688 19.613281 112.78125 18.675781 L 100.699219 18.675781 C 100.925781 19.613281 101.742188 20.578125 102.824219 20.796875 M 94.847656 29.273438 C 95.875 28.835938 96.425781 28.074219 96.636719 27.1875 L 87.5 27.1875 L 87.507812 18.679688 L 85.460938 18.6875 L 85.460938 29.273438 L 94.847656 29.273438 M 70.230469 20.769531 L 77.464844 20.769531 C 78.554688 20.449219 79.46875 19.613281 79.695312 18.683594 L 68.207031 18.683594 L 68.207031 24.941406 L 77.609375 24.941406 L 77.609375 27.136719 L 70.234375 27.140625 C 69.078125 27.464844 68.097656 28.25 67.609375 29.28125 L 68.207031 29.269531 L 79.632812 29.269531 L 79.632812 22.859375 L 70.234375 22.859375 L 70.234375 20.769531 M 52.375 20.789062 L 60.203125 20.789062 C 61.289062 20.570312 62.101562 19.605469 62.328125 18.667969 L 50.253906 18.667969 C 50.476562 19.605469 51.300781 20.570312 52.378906 20.789062 M 52.378906 24.972656 L 60.203125 24.972656 C 61.292969 24.757812 62.101562 23.789062 62.332031 22.851562 L 50.25 22.851562 C 50.476562 23.785156 51.296875 24.757812 52.378906 24.972656 M 52.378906 29.273438 L 60.203125 29.273438 C 61.292969 29.054688 62.101562 28.085938 62.328125 27.152344 L 50.25 27.152344 C 50.476562 28.085938 51.296875 29.054688 52.378906 29.273438 M 32.007812 18.691406 C 32.246094 19.617188 33.039062 20.5625 34.128906 20.800781 L 37.421875 20.800781 L 37.589844 20.867188 L 37.589844 29.25 L 39.648438 29.25 L 39.648438 20.867188 L 39.835938 20.800781 L 43.132812 20.800781 C 44.238281 20.515625 45.015625 19.617188 45.246094 18.691406 L 45.246094 18.671875 L 32.007812 18.671875 L 32.007812 18.691406 "/>
</g>
<g clip-path="url(#clip9)" clip-rule="nonzero">
<path style=" stroke:none;fill-rule:nonzero;fill:rgb(65.098572%,69.40918%,77.648926%);fill-opacity:1;" d="M 17.960938 37.0625 L 22.796875 9.664062 C 27.402344 9.664062 28.855469 10.175781 29.066406 12.25 C 29.066406 12.25 32.15625 11.082031 33.714844 8.730469 C 27.632812 5.890625 21.519531 5.75 21.519531 5.75 L 17.953125 10.128906 L 17.960938 10.128906 L 14.394531 5.75 C 14.394531 5.75 8.269531 5.878906 2.199219 8.730469 C 3.753906 11.089844 6.847656 12.25 6.847656 12.25 C 7.058594 10.171875 8.507812 9.664062 13.078125 9.660156 L 17.960938 37.0625 M 17.957031 4.5 C 22.875 4.460938 28.503906 5.265625 34.265625 7.796875 C 35.035156 6.402344 35.234375 5.785156 35.234375 5.785156 C 28.9375 3.273438 23.039062 2.414062 17.960938 2.390625 C 12.890625 2.414062 6.980469 3.273438 0.683594 5.785156 C 0.683594 5.785156 0.964844 6.542969 1.652344 7.796875 C 7.414062 5.269531 13.042969 4.464844 17.960938 4.5 "/>
</g>
<g clip-path="url(#clip10)" clip-rule="nonzero">
<path style=" stroke:none;fill-rule:nonzero;fill:rgb(65.098572%,69.40918%,77.648926%);fill-opacity:1;" d="M 411.191406 18.503906 L 411.191406 16.535156 L 408.757812 16.535156 L 408.757812 13.472656 L 408.675781 13.496094 L 406.386719 14.199219 L 406.339844 14.214844 L 406.339844 16.535156 L 402.726562 16.535156 L 402.726562 15.242188 C 402.726562 14.640625 402.859375 14.179688 403.128906 13.871094 C 403.386719 13.566406 403.761719 13.414062 404.242188 13.414062 C 404.585938 13.414062 404.941406 13.496094 405.300781 13.65625 L 405.390625 13.695312 L 405.390625 11.621094 L 405.347656 11.605469 C 405.015625 11.484375 404.558594 11.421875 403.996094 11.421875 C 403.285156 11.421875 402.640625 11.578125 402.078125 11.886719 C 401.511719 12.195312 401.070312 12.632812 400.757812 13.195312 C 400.449219 13.753906 400.292969 14.398438 400.292969 15.113281 L 400.292969 16.535156 L 398.59375 16.535156 L 398.59375 18.503906 L 400.292969 18.503906 L 400.292969 26.804688 L 402.726562 26.804688 L 402.726562 18.503906 L 406.339844 18.503906 L 406.339844 23.777344 C 406.339844 25.953125 407.359375 27.050781 409.375 27.050781 C 409.703125 27.050781 410.050781 27.011719 410.40625 26.9375 C 410.769531 26.859375 411.015625 26.78125 411.160156 26.699219 L 411.191406 26.679688 L 411.191406 24.691406 L 411.09375 24.757812 C 410.960938 24.84375 410.796875 24.917969 410.605469 24.96875 C 410.410156 25.023438 410.25 25.050781 410.125 25.050781 C 409.652344 25.050781 409.300781 24.925781 409.085938 24.671875 C 408.867188 24.417969 408.757812 23.976562 408.757812 23.351562 L 408.757812 18.503906 Z M 393.15625 25.050781 C 392.273438 25.050781 391.574219 24.757812 391.082031 24.179688 C 390.589844 23.59375 390.339844 22.765625 390.339844 21.710938 C 390.339844 20.621094 390.589844 19.769531 391.082031 19.175781 C 391.578125 18.585938 392.265625 18.285156 393.136719 18.285156 C 393.980469 18.285156 394.652344 18.570312 395.132812 19.136719 C 395.617188 19.703125 395.863281 20.546875 395.863281 21.648438 C 395.863281 22.765625 395.632812 23.621094 395.175781 24.195312 C 394.726562 24.765625 394.046875 25.050781 393.15625 25.050781 Z M 393.261719 16.285156 C 391.578125 16.285156 390.238281 16.78125 389.285156 17.761719 C 388.328125 18.742188 387.84375 20.09375 387.84375 21.789062 C 387.84375 23.394531 388.316406 24.691406 389.25 25.632812 C 390.179688 26.574219 391.449219 27.050781 393.015625 27.050781 C 394.652344 27.050781 395.964844 26.550781 396.921875 25.558594 C 397.875 24.566406 398.359375 23.222656 398.359375 21.570312 C 398.359375 19.9375 397.902344 18.632812 397.007812 17.699219 C 396.113281 16.761719 394.851562 16.285156 393.261719 16.285156 Z M 383.917969 16.285156 C 382.769531 16.285156 381.820312 16.582031 381.097656 17.160156 C 380.367188 17.746094 379.996094 18.511719 379.996094 19.441406 C 379.996094 19.921875 380.074219 20.351562 380.234375 20.714844 C 380.390625 21.078125 380.636719 21.398438 380.960938 21.667969 C 381.285156 21.9375 381.78125 22.214844 382.441406 22.5 C 382.996094 22.730469 383.410156 22.925781 383.671875 23.078125 C 383.929688 23.226562 384.113281 23.378906 384.214844 23.523438 C 384.316406 23.667969 384.367188 23.863281 384.367188 24.105469 C 384.367188 24.796875 383.851562 25.132812 382.792969 25.132812 C 382.398438 25.132812 381.953125 25.050781 381.460938 24.886719 C 380.96875 24.726562 380.511719 24.492188 380.097656 24.191406 L 379.996094 24.121094 L 379.996094 26.476562 L 380.03125 26.492188 C 380.378906 26.652344 380.8125 26.785156 381.324219 26.890625 C 381.835938 27 382.300781 27.054688 382.703125 27.054688 C 383.949219 27.054688 384.953125 26.757812 385.683594 26.171875 C 386.417969 25.582031 386.792969 24.800781 386.792969 23.839844 C 386.792969 23.148438 386.589844 22.554688 386.195312 22.074219 C 385.800781 21.597656 385.121094 21.164062 384.167969 20.777344 C 383.410156 20.472656 382.921875 20.21875 382.722656 20.023438 C 382.53125 19.835938 382.433594 19.570312 382.433594 19.234375 C 382.433594 18.933594 382.550781 18.695312 382.800781 18.5 C 383.050781 18.304688 383.398438 18.207031 383.839844 18.207031 C 384.242188 18.207031 384.660156 18.269531 385.070312 18.398438 C 385.484375 18.523438 385.847656 18.691406 386.152344 18.898438 L 386.25 18.96875 L 386.25 16.734375 L 386.210938 16.71875 C 385.933594 16.597656 385.566406 16.496094 385.117188 16.410156 C 384.671875 16.328125 384.269531 16.285156 383.917969 16.285156 Z M 373.644531 25.050781 C 372.761719 25.050781 372.066406 24.757812 371.574219 24.179688 C 371.078125 23.59375 370.828125 22.765625 370.828125 21.710938 C 370.828125 20.621094 371.078125 19.769531 371.574219 19.175781 C 372.066406 18.585938 372.757812 18.285156 373.625 18.285156 C 374.472656 18.285156 375.144531 18.570312 375.625 19.136719 C 376.109375 19.703125 376.355469 20.546875 376.355469 21.648438 C 376.355469 22.765625 376.125 23.621094 375.667969 24.195312 C 375.214844 24.765625 374.535156 25.050781 373.644531 25.050781 Z M 373.753906 16.285156 C 372.066406 16.285156 370.730469 16.78125 369.773438 17.761719 C 368.820312 18.742188 368.332031 20.09375 368.332031 21.789062 C 368.332031 23.398438 368.804688 24.691406 369.738281 25.632812 C 370.671875 26.574219 371.9375 27.050781 373.507812 27.050781 C 375.144531 27.050781 376.457031 26.550781 377.410156 25.558594 C 378.363281 24.566406 378.847656 23.222656 378.847656 21.570312 C 378.847656 19.9375 378.394531 18.632812 377.5 17.699219 C 376.601562 16.761719 375.34375 16.285156 373.753906 16.285156 Z M 364.636719 18.3125 L 364.636719 16.535156 L 362.230469 16.535156 L 362.230469 26.804688 L 364.636719 26.804688 L 364.636719 21.550781 C 364.636719 20.65625 364.839844 19.921875 365.234375 19.371094 C 365.628906 18.820312 366.152344 18.542969 366.792969 18.542969 C 367.011719 18.542969 367.253906 18.578125 367.515625 18.652344 C 367.777344 18.722656 367.964844 18.796875 368.078125 18.878906 L 368.179688 18.953125 L 368.179688 16.515625 L 368.140625 16.5 C 367.914062 16.402344 367.597656 16.355469 367.199219 16.355469 C 366.589844 16.355469 366.050781 16.550781 365.589844 16.933594 C 365.179688 17.273438 364.886719 17.734375 364.664062 18.3125 Z M 357.921875 16.285156 C 356.816406 16.285156 355.832031 16.523438 354.996094 16.992188 C 354.15625 17.460938 353.507812 18.132812 353.066406 18.984375 C 352.625 19.835938 352.402344 20.828125 352.402344 21.9375 C 352.402344 22.90625 352.621094 23.796875 353.046875 24.582031 C 353.476562 25.367188 354.082031 25.984375 354.847656 26.410156 C 355.613281 26.835938 356.5 27.050781 357.476562 27.050781 C 358.621094 27.050781 359.597656 26.824219 360.382812 26.371094 L 360.414062 26.351562 L 360.414062 24.136719 L 360.3125 24.210938 C 359.957031 24.472656 359.558594 24.679688 359.132812 24.828125 C 358.710938 24.976562 358.320312 25.050781 357.980469 25.050781 C 357.039062 25.050781 356.277344 24.757812 355.730469 24.171875 C 355.179688 23.585938 354.898438 22.761719 354.898438 21.730469 C 354.898438 20.6875 355.1875 19.84375 355.765625 19.222656 C 356.339844 18.601562 357.097656 18.285156 358.019531 18.285156 C 358.8125 18.285156 359.582031 18.554688 360.3125 19.085938 L 360.414062 19.160156 L 360.414062 16.828125 L 360.378906 16.808594 C 360.105469 16.65625 359.730469 16.527344 359.269531 16.429688 C 358.804688 16.335938 358.351562 16.285156 357.921875 16.285156 Z M 350.746094 16.535156 L 348.339844 16.535156 L 348.339844 26.804688 L 350.746094 26.804688 Z M 349.566406 12.160156 C 349.171875 12.160156 348.828125 12.292969 348.542969 12.5625 C 348.257812 12.832031 348.113281 13.171875 348.113281 13.570312 C 348.113281 13.964844 348.253906 14.296875 348.539062 14.558594 C 348.816406 14.820312 349.164062 14.949219 349.566406 14.949219 C 349.972656 14.949219 350.316406 14.820312 350.601562 14.558594 C 350.886719 14.296875 351.03125 13.964844 351.03125 13.570312 C 351.03125 13.183594 350.890625 12.847656 350.613281 12.574219 C 350.335938 12.296875 349.984375 12.160156 349.566406 12.160156 Z M 343.566406 15.777344 L 343.566406 26.804688 L 346.019531 26.804688 L 346.019531 12.472656 L 342.621094 12.472656 L 338.300781 23.117188 L 334.109375 12.472656 L 330.574219 12.472656 L 330.574219 26.804688 L 332.878906 26.804688 L 332.878906 15.773438 L 332.960938 15.773438 L 337.386719 26.804688 L 339.125 26.804688 L 343.484375 15.777344 Z M 343.566406 15.777344 "/>
</g>
<g clip-path="url(#clip11)" clip-rule="nonzero">
<path style=" stroke:none;fill-rule:nonzero;fill:rgb(65.098572%,69.40918%,77.648926%);fill-opacity:1;" d="M 299.617188 7.683594 L 310.933594 7.683594 L 310.933594 19.050781 L 299.617188 19.050781 Z M 299.617188 7.683594 "/>
</g>
<g clip-path="url(#clip12)" clip-rule="nonzero">
<path style=" stroke:none;fill-rule:nonzero;fill:rgb(65.098572%,69.40918%,77.648926%);fill-opacity:1;" d="M 312.113281 7.683594 L 323.433594 7.683594 L 323.433594 19.050781 L 312.113281 19.050781 Z M 312.113281 7.683594 "/>
</g>
<g clip-path="url(#clip13)" clip-rule="nonzero">
<path style=" stroke:none;fill-rule:nonzero;fill:rgb(65.098572%,69.40918%,77.648926%);fill-opacity:1;" d="M 299.617188 20.238281 L 310.933594 20.238281 L 310.933594 31.601562 L 299.617188 31.601562 Z M 299.617188 20.238281 "/>
</g>
<g clip-path="url(#clip14)" clip-rule="nonzero">
<path style=" stroke:none;fill-rule:nonzero;fill:rgb(65.098572%,69.40918%,77.648926%);fill-opacity:1;" d="M 312.113281 20.238281 L 323.433594 20.238281 L 323.433594 31.601562 L 312.113281 31.601562 Z M 312.113281 20.238281 "/>
</g>
<g clip-path="url(#clip15)" clip-rule="nonzero">
<path style=" stroke:none;fill-rule:evenodd;fill:rgb(65.098572%,69.40918%,77.648926%);fill-opacity:1;" d="M 70.1875 102.621094 C 63.703125 107.40625 54.277344 109.964844 46.171875 109.964844 C 34.808594 109.964844 24.578125 105.761719 16.835938 98.769531 C 16.230469 98.21875 16.773438 97.46875 17.503906 97.898438 C 25.855469 102.757812 36.183594 105.679688 46.851562 105.679688 C 54.046875 105.679688 61.964844 104.191406 69.242188 101.101562 C 70.339844 100.636719 71.261719 101.824219 70.183594 102.621094 M 72.886719 99.53125 C 72.058594 98.46875 67.410156 99.03125 65.308594 99.277344 C 64.671875 99.359375 64.574219 98.800781 65.144531 98.402344 C 68.855469 95.789062 74.949219 96.542969 75.660156 97.417969 C 76.371094 98.292969 75.476562 104.40625 71.988281 107.320312 C 71.449219 107.765625 70.941406 107.527344 71.179688 106.933594 C 71.960938 104.980469 73.71875 100.597656 72.886719 99.53125 "/>
</g>
<g clip-path="url(#clip16)" clip-rule="nonzero">
<path style=" stroke:none;fill-rule:evenodd;fill:rgb(65.098572%,69.40918%,77.648926%);fill-opacity:1;" d="M 65.453125 79.957031 L 65.453125 77.417969 C 65.449219 77.238281 65.511719 77.085938 65.636719 76.960938 C 65.765625 76.832031 65.917969 76.773438 66.097656 76.777344 L 77.464844 76.777344 C 77.828125 76.777344 78.121094 77.039062 78.121094 77.417969 L 78.121094 79.59375 C 78.117188 79.957031 77.808594 80.433594 77.265625 81.1875 L 71.375 89.601562 C 73.566406 89.546875 75.875 89.875 77.859375 90.992188 C 78.308594 91.246094 78.417969 91.613281 78.464844 91.980469 L 78.464844 94.691406 C 78.464844 95.058594 78.054688 95.492188 77.625 95.269531 C 74.128906 93.4375 69.480469 93.234375 65.613281 95.289062 C 65.21875 95.503906 64.804688 95.074219 64.804688 94.703125 L 64.804688 92.128906 C 64.804688 91.71875 64.8125 91.011719 65.226562 90.382812 L 72.050781 80.59375 L 66.121094 80.59375 C 65.757812 80.59375 65.464844 80.339844 65.464844 79.957031 M 23.980469 95.804688 L 20.519531 95.804688 C 20.191406 95.78125 19.929688 95.53125 19.902344 95.214844 L 19.902344 77.460938 C 19.902344 77.105469 20.199219 76.824219 20.570312 76.824219 L 23.792969 76.824219 C 24.128906 76.839844 24.398438 77.097656 24.421875 77.417969 L 24.421875 79.738281 L 24.484375 79.738281 C 25.328125 77.496094 26.910156 76.449219 29.039062 76.449219 C 31.203125 76.449219 32.558594 77.496094 33.53125 79.738281 C 34.367188 77.496094 36.269531 76.449219 38.308594 76.449219 C 39.757812 76.449219 41.34375 77.046875 42.3125 78.390625 C 43.40625 79.882812 43.183594 82.054688 43.183594 83.957031 L 43.175781 95.160156 C 43.175781 95.515625 42.878906 95.804688 42.507812 95.804688 L 39.042969 95.804688 C 38.710938 95.78125 38.421875 95.503906 38.421875 95.160156 L 38.421875 85.738281 C 38.421875 84.992188 38.488281 83.121094 38.324219 82.414062 C 38.066406 81.222656 37.292969 80.886719 36.289062 80.886719 C 35.453125 80.886719 34.578125 81.445312 34.222656 82.339844 C 33.867188 83.238281 33.902344 84.734375 33.902344 85.742188 L 33.902344 95.152344 C 33.902344 95.507812 33.605469 95.792969 33.234375 95.792969 L 29.773438 95.792969 C 29.421875 95.769531 29.148438 95.492188 29.148438 95.152344 L 29.144531 85.742188 C 29.144531 83.761719 29.472656 80.847656 27.011719 80.847656 C 24.527344 80.847656 24.625 83.6875 24.625 85.742188 L 24.625 95.152344 C 24.625 95.507812 24.328125 95.792969 23.957031 95.792969 M 87.910156 76.464844 C 93.042969 76.464844 95.820312 80.871094 95.820312 86.476562 C 95.820312 91.890625 92.75 96.1875 87.910156 96.1875 C 82.882812 96.1875 80.125 91.777344 80.125 86.285156 C 80.125 80.757812 82.90625 76.449219 87.910156 76.449219 M 87.941406 80.074219 C 85.390625 80.074219 85.230469 83.546875 85.230469 85.714844 C 85.230469 87.878906 85.195312 92.515625 87.910156 92.515625 C 90.589844 92.515625 90.71875 88.777344 90.71875 86.5 C 90.71875 85.003906 90.652344 83.210938 90.203125 81.792969 C 89.8125 80.554688 89.039062 80.074219 87.941406 80.074219 M 102.476562 95.804688 L 99.035156 95.804688 C 98.699219 95.78125 98.410156 95.503906 98.410156 95.160156 L 98.40625 77.40625 C 98.4375 77.078125 98.722656 76.824219 99.074219 76.824219 L 102.28125 76.824219 C 102.582031 76.839844 102.832031 77.042969 102.898438 77.320312 L 102.898438 80.039062 L 102.960938 80.039062 C 103.929688 77.609375 105.285156 76.453125 107.675781 76.453125 C 109.242188 76.453125 110.742188 77.011719 111.714844 78.542969 C 112.609375 79.964844 112.609375 82.355469 112.609375 84.070312 L 112.609375 95.246094 C 112.570312 95.5625 112.28125 95.808594 111.941406 95.808594 L 108.488281 95.808594 C 108.171875 95.78125 107.910156 95.550781 107.875 95.246094 L 107.875 85.605469 C 107.875 83.664062 108.101562 80.824219 105.710938 80.824219 C 104.871094 80.824219 104.097656 81.386719 103.699219 82.242188 C 103.214844 83.324219 103.148438 84.40625 103.148438 85.605469 L 103.148438 95.164062 C 103.144531 95.519531 102.84375 95.808594 102.472656 95.808594 M 56.398438 87.3125 C 56.398438 88.660156 56.433594 89.769531 55.75 90.980469 C 55.199219 91.953125 54.324219 92.550781 53.355469 92.550781 C 52.027344 92.550781 51.25 91.539062 51.25 90.046875 C 51.25 87.097656 53.890625 86.5625 56.394531 86.5625 L 56.394531 87.3125 M 59.882812 95.742188 C 59.652344 95.949219 59.324219 95.960938 59.066406 95.824219 C 57.917969 94.871094 57.710938 94.429688 57.082031 93.519531 C 55.183594 95.457031 53.839844 96.035156 51.378906 96.035156 C 48.464844 96.035156 46.203125 94.238281 46.203125 90.644531 C 46.203125 87.835938 47.722656 85.925781 49.890625 84.992188 C 51.769531 84.164062 54.390625 84.019531 56.394531 83.789062 L 56.394531 83.34375 C 56.394531 82.519531 56.460938 81.546875 55.972656 80.835938 C 55.554688 80.199219 54.746094 79.9375 54.03125 79.9375 C 52.710938 79.9375 51.539062 80.613281 51.25 82.015625 C 51.195312 82.328125 50.964844 82.632812 50.648438 82.648438 L 47.296875 82.289062 C 47.011719 82.226562 46.699219 82 46.78125 81.5625 C 47.550781 77.492188 51.230469 76.269531 54.515625 76.269531 C 56.199219 76.269531 58.398438 76.714844 59.726562 77.988281 C 61.410156 79.5625 61.25 81.660156 61.25 83.941406 L 61.25 89.332031 C 61.25 90.953125 61.917969 91.660156 62.550781 92.539062 C 62.769531 92.851562 62.820312 93.226562 62.539062 93.457031 L 59.890625 95.765625 L 59.886719 95.753906 M 11.050781 87.324219 C 11.050781 88.671875 11.082031 89.78125 10.402344 90.992188 C 9.851562 91.964844 8.980469 92.5625 8.007812 92.5625 C 6.679688 92.5625 5.90625 91.550781 5.90625 90.058594 C 5.90625 87.109375 8.546875 86.574219 11.046875 86.574219 L 11.046875 87.324219 M 14.535156 95.753906 C 14.304688 95.957031 13.976562 95.972656 13.71875 95.835938 C 12.570312 94.882812 12.378906 94.441406 11.734375 93.53125 C 9.835938 95.46875 8.492188 96.046875 6.03125 96.046875 C 3.125 96.046875 0.855469 94.253906 0.855469 90.65625 C 0.855469 87.851562 2.378906 85.9375 4.546875 85.003906 C 6.421875 84.175781 9.042969 84.03125 11.050781 83.804688 L 11.050781 83.355469 C 11.050781 82.535156 11.113281 81.5625 10.632812 80.851562 C 10.207031 80.214844 9.402344 79.949219 8.691406 79.949219 C 7.371094 79.949219 6.195312 80.625 5.894531 82.03125 C 5.839844 82.34375 5.609375 82.648438 5.296875 82.660156 L 1.941406 82.300781 C 1.660156 82.238281 1.347656 82.011719 1.425781 81.574219 C 2.199219 77.507812 5.875 76.28125 9.160156 76.28125 C 10.84375 76.28125 13.042969 76.730469 14.371094 78.003906 C 16.054688 79.574219 15.894531 81.671875 15.894531 83.953125 L 15.894531 89.34375 C 15.894531 90.964844 16.5625 91.675781 17.199219 92.550781 C 17.421875 92.863281 17.46875 93.238281 17.1875 93.472656 L 14.550781 95.765625 L 14.539062 95.753906 "/>
</g>
</g>
</svg>
