<?xml version="1.0" encoding="UTF-8"?>
<svg xmlns="http://www.w3.org/2000/svg" xmlns:xlink="http://www.w3.org/1999/xlink" width="600pt" height="599.999999pt" viewBox="0 0 600 599.999999" version="1.2">
<g id="surface1">
<path style=" stroke:none;fill-rule:nonzero;fill:rgb(100%,95.689392%,90.19928%);fill-opacity:1;" d="M 471.828125 195.65625 C 469.453125 185.027344 464.898438 174.730469 457.980469 165.386719 C 457.828125 164.308594 457.371094 163.265625 456.507812 162.515625 C 455.378906 161.515625 454.199219 160.574219 453.007812 159.636719 C 448.5 155.191406 443.121094 151.6875 436.914062 149.578125 C 436.886719 149.566406 436.863281 149.566406 436.824219 149.554688 C 423.34375 142.8125 408.273438 138.59375 393.636719 135.441406 C 393.210938 134.667969 392.636719 133.863281 391.859375 133.03125 C 390.398438 131.464844 388.707031 130.667969 386.875 130.207031 C 390.140625 127.394531 392.949219 123.882812 395.121094 120 C 396.640625 117.289062 397.632812 114.320312 398.996094 111.578125 C 404.726562 114.953125 409.796875 117.988281 416.804688 118.988281 C 422.085938 119.742188 427.765625 119.066406 432.164062 116.039062 C 436.558594 113.011719 439.308594 107.316406 437.910156 102.164062 C 437.171875 99.453125 435.453125 96.339844 437.1875 94.125 C 438.578125 92.351562 441.257812 92.523438 443.382812 91.769531 C 447.996094 90.140625 448.203125 84.882812 447.097656 81.03125 C 447.816406 80.738281 448.480469 80.757812 449.238281 80.597656 C 454.273438 79.53125 458.261719 75.199219 457.617188 69.828125 C 457.09375 65.472656 453.703125 62.222656 449.398438 61.84375 C 446.925781 61.628906 445.066406 62.332031 443.425781 63.40625 C 442.816406 63.054688 442.183594 62.730469 441.546875 62.476562 C 439.871094 61.808594 438.019531 61.441406 436.160156 61.328125 C 432.816406 60.054688 428.992188 60.050781 425.128906 62.011719 C 421.058594 64.078125 418.300781 67.976562 417.667969 72.277344 C 416.050781 71.179688 414.203125 70.386719 412.054688 70.046875 C 411.160156 69.902344 410.253906 69.855469 409.351562 69.894531 C 406.050781 69.433594 402.683594 69.574219 399.503906 70.449219 C 392.554688 72.363281 389.089844 80.152344 387.636719 86.566406 C 386.886719 89.886719 386.371094 93.644531 386.875 97.042969 C 387.09375 98.496094 391.710938 106.933594 392.011719 106.304688 C 388.324219 114.097656 383.988281 122.59375 377.378906 126.710938 C 374.113281 124.890625 370.632812 123.316406 367.042969 122.335938 C 367.007812 122.324219 366.972656 122.304688 366.9375 122.289062 C 365.65625 118.046875 367.074219 112.882812 368.425781 108.910156 C 370.667969 102.316406 371.933594 92.347656 376.078125 87.261719 C 383.382812 78.296875 395.144531 70.558594 395.238281 57.871094 C 395.257812 54.824219 394.652344 51.734375 393.492188 48.890625 C 391.136719 43.121094 386.488281 38.363281 380.109375 37.039062 C 379.804688 36.972656 379.472656 36.910156 379.128906 36.851562 C 379.015625 36.703125 378.847656 36.59375 378.652344 36.621094 C 378.5 36.644531 378.359375 36.683594 378.207031 36.710938 C 377.710938 36.640625 377.199219 36.585938 376.675781 36.542969 C 378.660156 33.835938 380.277344 30.914062 381.167969 27.597656 C 382.527344 22.523438 382.882812 16.695312 380.988281 11.703125 C 380.179688 9.574219 375.164062 0.03125 372.253906 3.859375 C 371.328125 5.078125 371.347656 6.734375 371.109375 8.246094 C 369.429688 18.941406 362.746094 15.140625 355.738281 15.574219 C 348.617188 16.015625 342.695312 22.035156 341.617188 28.941406 C 340.972656 33.074219 342.558594 39.5625 346.339844 42.65625 C 346.335938 42.742188 346.320312 42.828125 346.316406 42.910156 C 346.21875 44.386719 346.210938 45.851562 346.269531 47.3125 C 344.96875 49.761719 344.355469 52.566406 344.222656 55.300781 C 343.816406 63.453125 346.316406 71.910156 348.0625 79.816406 C 349.3125 85.46875 351.269531 91.972656 356.164062 94.710938 C 354.191406 101.238281 351.492188 107.660156 350.285156 114.527344 C 349.992188 116.191406 349.816406 117.824219 349.738281 119.429688 C 348.988281 117.40625 348.410156 115.605469 348.144531 114.84375 C 346.625 110.492188 346.386719 106.011719 345.125 101.710938 C 343.738281 96.972656 341.605469 92.460938 339.167969 88.175781 C 337.519531 85.285156 330.808594 78.628906 330.796875 75.527344 C 330.785156 72.664062 334.714844 70.273438 335.808594 67.476562 C 336.859375 64.808594 336.871094 61.859375 336.355469 59.078125 C 334.128906 47.0625 320.722656 37.96875 309.945312 46.328125 C 309.421875 46.734375 308.25 47.746094 306.957031 48.964844 C 306.9375 48.722656 306.941406 48.472656 306.90625 48.230469 C 305.652344 38.96875 297.421875 33.011719 288.285156 33.691406 C 279.964844 34.3125 274.027344 39.851562 271.027344 47.105469 C 268.304688 53.699219 262.800781 61.867188 254.441406 61.234375 C 251.0625 60.980469 249.042969 58.539062 245.367188 60.660156 C 242.527344 62.296875 241.226562 65.144531 242.828125 68.21875 C 248.140625 78.421875 252.808594 88.601562 265.613281 90.070312 C 270.992188 90.683594 276.011719 88.96875 280.527344 86.191406 C 282.457031 85 284.382812 82.953125 286.472656 82.042969 C 286.914062 82.324219 287.347656 82.617188 287.753906 82.949219 C 294.800781 90.859375 307.566406 91.628906 316.65625 87.632812 C 318.15625 86.972656 319.539062 86.199219 320.839844 85.339844 C 323.742188 90.96875 326.027344 96.988281 328.277344 102.589844 C 331.464844 110.519531 335.605469 118.855469 337.570312 127.148438 C 335.519531 126.398438 333.011719 126.460938 331.285156 127.734375 C 321.992188 127.359375 312.679688 127.25 303.386719 127.324219 C 290.972656 127.398438 278.394531 128.339844 267.441406 134.726562 C 265.71875 135.726562 264.066406 136.859375 262.507812 138.089844 C 255.023438 142.761719 248.800781 149.058594 244.085938 156.496094 C 229.730469 159.011719 215.46875 162.863281 201.679688 168.007812 C 204.183594 163.871094 205.15625 158.96875 203.734375 153.429688 C 202.140625 147.214844 198.140625 141.570312 193.34375 136.804688 C 193.433594 136.660156 193.496094 136.496094 193.515625 136.316406 C 193.542969 136.058594 193.484375 135.816406 193.390625 135.59375 C 193.53125 132.859375 193.222656 130.019531 192.425781 127.421875 C 192.625 127.277344 192.828125 127.132812 193.023438 126.984375 C 203.789062 118.707031 200.589844 101.8125 185.726562 102.40625 C 179.953125 102.636719 174.582031 105.535156 169.589844 108.195312 C 162.976562 111.722656 156.449219 115.414062 149.886719 119.035156 C 144.664062 121.921875 139.511719 124.890625 136.578125 130.175781 C 134.507812 132.5 132.792969 135.117188 131.597656 138.03125 C 127.570312 147.832031 131.09375 160.933594 140.765625 165.257812 C 141.429688 165.558594 142.105469 165.792969 142.789062 166.003906 C 142.578125 167.566406 142.75 169.144531 143.265625 170.703125 C 143.855469 172.25 144.785156 173.554688 146.054688 174.617188 C 147.035156 175.484375 148.152344 176.042969 149.40625 176.292969 C 150.570312 176.75 151.78125 176.878906 153.042969 176.683594 C 156.984375 176.078125 159.621094 173.957031 163.203125 176.277344 C 165.828125 177.980469 168.300781 180.035156 170.527344 182.328125 C 163.644531 186.132812 156.972656 190.273438 150.59375 194.773438 C 134.597656 206.0625 127.542969 221.097656 126.765625 240.398438 C 125.925781 261.257812 127.097656 282.234375 130.164062 302.878906 C 132.097656 315.90625 134.28125 330.980469 143.617188 340.394531 C 143.625 349.113281 146.742188 358.167969 148.136719 366.496094 C 150.105469 378.308594 151.363281 390.230469 151.949219 402.191406 C 153.085938 425.761719 151.292969 449.359375 146.960938 472.542969 C 144.460938 485.914062 141.429688 499.175781 137.246094 512.136719 C 133.582031 523.488281 122.144531 550.371094 135.492188 560.507812 C 134.703125 563.007812 135.207031 565.882812 136.46875 568.230469 C 137.984375 571.035156 140.414062 573.21875 142.851562 575.265625 C 151.972656 582.921875 161.941406 589.570312 172.515625 595.039062 C 177.398438 597.566406 182.667969 599.894531 188.15625 599.589844 C 193.644531 599.285156 199.3125 595.515625 199.972656 590.058594 C 200.574219 585.105469 197.128906 580.675781 193.886719 576.882812 C 189.011719 571.175781 183.925781 563 177.402344 557.960938 C 181.421875 556.800781 185.277344 555.179688 188.683594 552.644531 C 194.636719 548.214844 195.992188 541.878906 199.449219 535.625 C 208.09375 519.964844 215.519531 503.632812 221.621094 486.816406 C 228.644531 467.476562 233.890625 447.507812 237.3125 427.226562 C 237.996094 427.351562 238.75 427.027344 238.871094 426.132812 C 240.96875 410.5 242.207031 394.765625 242.609375 379 C 245.257812 382.355469 256.058594 389.964844 265.136719 396.261719 C 264.332031 399.425781 263.859375 402.636719 263.890625 405.839844 C 263.902344 407.035156 265.527344 407.035156 265.984375 406.15625 C 267.210938 403.859375 268.238281 401.496094 269.4375 399.242188 C 273.589844 402.121094 276.890625 404.429688 278.058594 405.453125 C 290.410156 416.285156 301.992188 427.996094 312.6875 440.46875 C 323.90625 453.558594 332.007812 470.359375 345.855469 481.429688 C 350.269531 484.957031 355.511719 488.164062 361.015625 489.324219 C 363.851562 489.921875 366.757812 489.972656 369.652344 489.246094 C 370.296875 489.082031 370.941406 488.898438 371.585938 488.691406 C 371.101562 496.199219 376.636719 504.382812 384.53125 507.007812 C 392.15625 509.539062 400.066406 506.480469 407.378906 501.03125 C 418.492188 492.753906 428.222656 478.964844 433.46875 470.925781 C 436.128906 466.84375 437.980469 457.222656 430.828125 455.910156 C 428.992188 455.574219 427.140625 456.253906 425.398438 456.917969 C 418.371094 459.601562 410.597656 462.007812 402.972656 464.855469 C 403.769531 463.164062 404.136719 461.363281 403.75 459.519531 C 403.300781 457.367188 401.875 455.566406 400.492188 453.851562 C 392.847656 444.386719 387.472656 435.757812 381.523438 425.46875 C 375.890625 415.734375 370.054688 406.113281 364.042969 396.597656 C 351.195312 376.289062 337.671875 356.234375 322.929688 337.175781 C 324.007812 335.695312 325.101562 334.230469 326.285156 332.824219 C 326.753906 332.25 327.238281 331.707031 327.746094 331.160156 C 328.316406 330.550781 328.898438 329.941406 329.507812 329.355469 C 330.066406 328.835938 330.636719 328.316406 331.246094 327.808594 C 331.425781 327.65625 331.601562 327.515625 331.78125 327.363281 C 339.027344 321.585938 347.367188 317.613281 356.085938 314.589844 C 361.164062 312.824219 366.113281 311.492188 370.984375 310.3125 C 402.273438 302.617188 431.082031 297.984375 452.8125 271.207031 C 470.394531 249.550781 477.601562 221.570312 471.828125 195.65625 Z M 286.425781 295.289062 C 286.757812 293.667969 286.960938 292 287.019531 290.28125 C 290.234375 288.816406 293.398438 287.25 296.503906 285.5625 C 297.183594 285.195312 297.328125 284.445312 297.136719 283.859375 C 297.289062 283.730469 297.445312 283.613281 297.59375 283.484375 C 300.371094 287.546875 302.804688 291.832031 304.753906 296.441406 C 307.871094 303.816406 309.53125 311.765625 308.730469 319.613281 C 301.609375 311.21875 294.1875 303.09375 286.425781 295.289062 Z M 286.425781 295.289062 "/>
<path style=" stroke:none;fill-rule:nonzero;fill:rgb(96.859741%,42.349243%,38.038635%);fill-opacity:1;" d="M 168.78125 559.878906 C 171.671875 559.375 174.574219 558.777344 177.398438 557.964844 C 183.921875 563.003906 189.007812 571.175781 193.882812 576.886719 C 197.125 580.679688 200.570312 585.109375 199.96875 590.0625 C 199.308594 595.519531 193.640625 599.289062 188.152344 599.59375 C 182.664062 599.898438 177.394531 597.570312 172.511719 595.042969 C 161.933594 589.574219 151.96875 582.925781 142.847656 575.269531 C 140.40625 573.222656 137.976562 571.039062 136.464844 568.234375 C 135.199219 565.886719 134.699219 563.011719 135.488281 560.511719 C 136.269531 561.105469 137.125 561.65625 138.089844 562.128906 C 145.519531 565.785156 160.984375 561.234375 168.78125 559.878906 Z M 398.460938 470.65625 C 391.210938 477.511719 381.457031 485.550781 371.582031 488.699219 C 371.09375 496.207031 376.628906 504.386719 384.523438 507.011719 C 392.148438 509.546875 400.058594 506.484375 407.371094 501.039062 C 418.484375 492.757812 428.214844 478.96875 433.460938 470.929688 C 436.121094 466.851562 437.972656 457.226562 430.820312 455.914062 C 428.984375 455.578125 427.132812 456.257812 425.390625 456.921875 C 418.363281 459.605469 410.589844 462.011719 402.964844 464.859375 C 401.941406 467.019531 400.214844 469 398.460938 470.65625 Z M 452.804688 271.210938 C 431.074219 297.988281 402.265625 302.625 370.976562 310.316406 C 366.105469 311.496094 361.15625 312.832031 356.078125 314.597656 C 347.359375 317.617188 339.019531 321.589844 331.773438 327.367188 C 331.59375 327.519531 331.417969 327.660156 331.238281 327.8125 C 330.632812 328.320312 330.058594 328.839844 329.5 329.363281 C 321.824219 329.871094 314.21875 327.292969 308.40625 322.164062 C 308.484375 321.808594 308.535156 321.453125 308.585938 321.082031 L 308.585938 321.070312 C 308.652344 320.585938 308.679688 320.101562 308.730469 319.613281 C 309.53125 311.765625 307.871094 303.816406 304.753906 296.441406 C 302.804688 291.832031 300.371094 287.546875 297.59375 283.484375 C 298.191406 282.972656 298.777344 282.445312 299.347656 281.894531 C 303.277344 278.113281 306.929688 274.183594 309.382812 269.707031 C 309.628906 269.640625 309.878906 269.566406 310.117188 269.511719 C 316.214844 268.097656 322.367188 266.949219 328.453125 265.472656 C 329.078125 265.320312 329.667969 265.140625 330.238281 264.9375 C 330.371094 265.210938 330.582031 265.453125 330.851562 265.574219 C 331.515625 265.867188 332.195312 265.527344 332.515625 264.925781 C 332.792969 264.40625 333.042969 263.878906 333.285156 263.34375 C 334.074219 262.726562 334.734375 261.984375 335.234375 261.078125 C 341.328125 257.355469 346.554688 252.597656 352.300781 248.332031 C 354.4375 246.746094 354.539062 244.171875 353.355469 241.996094 C 351.929688 239.367188 348.855469 238.152344 345.378906 237.589844 C 347.300781 236.089844 349.226562 234.585938 351.144531 233.082031 C 351.800781 232.570312 351.734375 231.785156 351.347656 231.269531 C 351.988281 230.578125 352.570312 229.859375 353.058594 229.097656 C 353.691406 228.105469 353.121094 226.925781 351.90625 226.949219 C 344.625 227.074219 336.316406 231.695312 329.507812 234.183594 C 327.398438 234.953125 325.234375 235.597656 323.136719 236.394531 C 321.875 236.875 319.890625 238.40625 318.554688 238.433594 C 315.671875 238.484375 314.816406 235.207031 315.417969 232.910156 C 315.953125 230.859375 316.292969 229.238281 316.660156 227.128906 C 316.871094 225.929688 316.898438 224.496094 315.953125 223.730469 C 315.308594 223.207031 314.363281 223.179688 313.589844 223.472656 C 312.8125 223.769531 312.175781 224.339844 311.601562 224.941406 C 309.671875 226.972656 308.578125 229.574219 306.980469 231.800781 C 306.429688 232.574219 305.847656 233.332031 305.28125 234.097656 C 300.402344 233.226562 294.339844 234.191406 290.9375 234.726562 C 286.765625 235.382812 282.566406 236.175781 278.351562 237 C 278.285156 236.207031 277.542969 235.382812 276.527344 235.648438 C 269.953125 237.375 263.261719 238.558594 256.527344 239.242188 C 256.328125 239.011719 256.125 238.777344 255.925781 238.546875 C 241.214844 221.203125 230.148438 198.359375 236.050781 175.226562 C 237.777344 168.464844 240.496094 162.152344 244.082031 156.496094 C 248.796875 149.0625 255.019531 142.765625 262.5 138.089844 C 264.0625 136.859375 265.710938 135.730469 267.4375 134.726562 C 278.390625 128.339844 290.96875 127.398438 303.378906 127.324219 C 312.675781 127.253906 321.984375 127.359375 331.28125 127.734375 C 330.582031 128.25 329.996094 128.941406 329.640625 129.890625 C 328.566406 132.757812 329.941406 136.097656 332.230469 138.132812 C 336.121094 141.589844 343.792969 144.761719 348.621094 146.875 C 354.65625 149.515625 361.199219 150.921875 367.789062 150.910156 C 374.824219 150.898438 399.335938 145.855469 393.636719 135.441406 C 408.269531 138.59375 423.34375 142.8125 436.824219 149.554688 C 436.859375 149.566406 436.886719 149.566406 436.910156 149.578125 C 443.117188 151.6875 448.5 155.191406 453.003906 159.636719 C 454.199219 160.574219 455.378906 161.515625 456.507812 162.515625 C 457.371094 163.265625 457.828125 164.308594 457.980469 165.386719 C 464.898438 174.730469 469.453125 185.027344 471.828125 195.65625 C 477.601562 221.570312 470.394531 249.550781 452.804688 271.210938 Z M 284.929688 203.71875 C 279.941406 206.484375 273.683594 206.785156 268.480469 204.421875 C 263.789062 202.292969 260.222656 198.207031 258.582031 193.34375 C 258.015625 191.671875 255.488281 192.679688 256.046875 194.332031 C 257.953125 199.980469 262.257812 204.746094 267.757812 207.09375 C 273.832031 209.683594 280.777344 209.101562 286.503906 205.929688 C 288.03125 205.082031 286.449219 202.875 284.929688 203.71875 Z M 324.390625 177.644531 C 320.542969 181.488281 314.875 183.375 309.496094 182.519531 C 304.25 181.683594 299.714844 178.347656 297.09375 173.769531 C 296.222656 172.246094 294.03125 173.875 294.886719 175.371094 C 297.925781 180.679688 303.441406 184.46875 309.519531 185.285156 C 315.769531 186.125 322.054688 183.789062 326.480469 179.367188 C 327.71875 178.128906 325.625 176.410156 324.390625 177.644531 Z M 378.210938 273.289062 C 373.851562 277.808594 367.40625 280.203125 361.148438 279.433594 C 355.085938 278.6875 349.679688 275.144531 346.382812 270.039062 C 345.429688 268.5625 343.234375 270.179688 344.175781 271.640625 C 347.9375 277.464844 354.316406 281.511719 361.246094 282.191406 C 368.34375 282.894531 375.378906 280.113281 380.300781 275.015625 C 381.519531 273.753906 379.425781 272.035156 378.210938 273.289062 Z M 381.527344 215.898438 C 381.0625 215.230469 380.277344 215.242188 379.636719 215.59375 C 374.460938 218.425781 367.375 216.484375 364.132812 211.65625 C 363.152344 210.195312 360.957031 211.8125 361.925781 213.257812 C 366.074219 219.429688 374.765625 221.332031 381.210938 217.804688 C 381.859375 217.449219 381.910156 216.449219 381.527344 215.898438 Z M 436.429688 239.855469 C 435.808594 239.34375 435.042969 239.535156 434.519531 240.050781 C 432.601562 241.945312 429.378906 242.039062 426.972656 241.171875 C 423.820312 240.039062 421.34375 237.679688 418.949219 235.429688 C 417.671875 234.226562 415.957031 236.359375 417.21875 237.542969 C 420.0625 240.21875 423.078125 242.945312 426.933594 244.003906 C 430.335938 244.933594 434.058594 244.296875 436.609375 241.777344 C 437.128906 241.261719 436.953125 240.289062 436.429688 239.855469 Z M 436.019531 201.167969 C 433.148438 204.367188 428.773438 206.199219 424.460938 205.785156 C 420.253906 205.386719 416.460938 203.046875 414.113281 199.554688 C 413.128906 198.09375 410.933594 199.714844 411.90625 201.15625 C 414.699219 205.308594 419.390625 208.164062 424.414062 208.519531 C 429.589844 208.882812 434.652344 206.742188 438.109375 202.894531 C 439.28125 201.585938 437.195312 199.863281 436.019531 201.167969 Z M 282.273438 384.019531 C 289.117188 377.710938 296.199219 371.742188 302.503906 364.847656 C 305.109375 362.003906 307.632812 359.046875 310.007812 355.988281 C 305.539062 355.65625 301.148438 354.753906 296.996094 352.925781 C 295.488281 352.253906 294.027344 351.464844 292.644531 350.566406 C 292.199219 351.097656 291.769531 351.617188 291.324219 352.140625 C 284.292969 360.367188 277.820312 368.757812 272.667969 378.28125 C 269.691406 383.800781 266.742188 389.9375 265.132812 396.265625 C 264.328125 399.429688 263.851562 402.640625 263.882812 405.84375 C 263.898438 407.039062 265.523438 407.039062 265.976562 406.164062 C 267.203125 403.867188 268.230469 401.5 269.433594 399.246094 C 270.433594 397.363281 271.554688 395.554688 273.035156 393.9375 C 276.070312 390.636719 278.976562 387.066406 282.273438 384.019531 Z M 307.558594 325.933594 C 307.277344 326.898438 306.960938 327.851562 306.605469 328.789062 C 304.269531 334.886719 300.78125 340.28125 296.859375 345.371094 C 296.3125 346.097656 295.753906 346.792969 295.15625 347.503906 C 295.054688 347.632812 294.953125 347.746094 294.851562 347.875 C 296.351562 348.824219 297.949219 349.613281 299.5625 350.261719 C 303.699219 351.898438 308.066406 352.558594 312.46875 352.683594 C 312.988281 351.960938 313.507812 351.226562 314.015625 350.488281 C 315.589844 348.179688 317.0625 345.804688 318.410156 343.367188 C 319.96875 341.328125 321.425781 339.238281 322.921875 337.179688 C 324 335.703125 325.09375 334.234375 326.277344 332.828125 C 319.511719 332.5625 312.925781 330.148438 307.558594 325.933594 Z M 307.558594 325.933594 "/>
<path style=" stroke:none;fill-rule:nonzero;fill:rgb(53.329468%,72.938538%,53.729248%);fill-opacity:1;" d="M 184.59375 329.050781 C 185.15625 329.8125 185.742188 330.558594 186.355469 331.28125 C 185.617188 331.304688 184.878906 331.347656 184.136719 331.359375 C 184.378906 330.632812 184.527344 329.855469 184.59375 329.050781 Z M 314.015625 350.488281 C 313.507812 351.226562 312.988281 351.960938 312.46875 352.683594 C 312.355469 352.851562 312.242188 353.003906 312.125 353.167969 C 311.429688 354.121094 310.730469 355.058594 310.007812 355.988281 C 307.632812 359.046875 305.109375 362.003906 302.503906 364.847656 C 296.199219 371.742188 289.117188 377.710938 282.273438 384.019531 C 278.976562 387.066406 276.070312 390.636719 273.035156 393.9375 C 271.554688 395.554688 270.433594 397.363281 269.433594 399.246094 C 273.585938 402.125 276.882812 404.433594 278.050781 405.460938 C 290.402344 416.289062 301.988281 428 312.679688 440.472656 C 323.898438 453.5625 332 470.363281 345.847656 481.433594 C 350.261719 484.960938 355.503906 488.171875 361.007812 489.328125 C 363.84375 489.925781 366.75 489.980469 369.644531 489.25 C 370.289062 489.089844 370.933594 488.902344 371.582031 488.699219 C 381.457031 485.550781 391.210938 477.511719 398.460938 470.65625 C 400.21875 469 401.945312 467.019531 402.964844 464.859375 C 403.765625 463.171875 404.132812 461.371094 403.746094 459.523438 C 403.292969 457.371094 401.867188 455.570312 400.484375 453.855469 C 392.84375 444.390625 387.464844 435.765625 381.515625 425.476562 C 375.886719 415.742188 370.050781 406.117188 364.035156 396.601562 C 351.191406 376.292969 337.667969 356.242188 322.921875 337.179688 C 321.425781 339.238281 319.96875 341.328125 318.410156 343.367188 C 317.0625 345.804688 315.589844 348.179688 314.015625 350.488281 Z M 272.667969 378.28125 C 269.691406 383.800781 266.742188 389.9375 265.132812 396.265625 C 256.050781 389.96875 245.25 382.363281 242.605469 379.007812 C 242.75 373.273438 242.796875 367.535156 242.71875 361.800781 C 242.695312 360.039062 240 360.371094 240.023438 362.109375 C 240.304688 383.382812 239.011719 404.652344 236.1875 425.738281 C 236.074219 426.589844 236.65625 427.113281 237.308594 427.230469 C 233.882812 447.511719 228.636719 467.480469 221.617188 486.820312 C 215.511719 503.636719 208.085938 519.96875 199.441406 535.628906 C 195.988281 541.882812 194.628906 548.222656 188.679688 552.648438 C 185.273438 555.1875 181.414062 556.804688 177.394531 557.964844 C 174.570312 558.78125 171.671875 559.375 168.78125 559.878906 C 160.984375 561.230469 145.515625 565.785156 138.085938 562.125 C 137.125 561.652344 136.269531 561.105469 135.484375 560.511719 C 122.140625 550.375 133.578125 523.492188 137.238281 512.140625 C 141.421875 499.179688 144.453125 485.917969 146.957031 472.546875 C 151.289062 449.359375 153.078125 425.761719 151.945312 402.195312 C 151.355469 390.230469 150.097656 378.3125 148.132812 366.496094 C 146.734375 358.171875 143.621094 349.117188 143.609375 340.398438 C 146.125 342.9375 149.152344 345.066406 152.839844 346.628906 C 168.109375 353.105469 189.0625 351.523438 205.015625 348.757812 C 222.539062 345.71875 239.210938 339.464844 254.4375 330.277344 C 267.625 322.320312 283.171875 311.136719 286.425781 295.289062 C 294.1875 303.09375 301.609375 311.222656 308.730469 319.617188 C 308.679688 320.101562 308.652344 320.585938 308.582031 321.074219 L 308.582031 321.085938 C 308.53125 321.453125 308.480469 321.808594 308.40625 322.164062 C 308.292969 322.886719 308.152344 323.613281 307.960938 324.335938 C 307.835938 324.867188 307.707031 325.402344 307.554688 325.933594 C 307.277344 326.898438 306.960938 327.851562 306.605469 328.792969 C 304.269531 334.886719 300.777344 340.28125 296.855469 345.375 C 296.3125 346.097656 295.753906 346.796875 295.15625 347.507812 C 295.054688 347.632812 294.953125 347.746094 294.851562 347.875 C 294.128906 348.777344 293.390625 349.675781 292.644531 350.566406 C 292.199219 351.097656 291.765625 351.621094 291.324219 352.140625 C 284.292969 360.367188 277.820312 368.757812 272.667969 378.28125 Z M 190.710938 367.175781 C 190.894531 365.558594 188.40625 365.183594 188.222656 366.808594 C 186.558594 381.609375 174.375 393.046875 159.511719 393.820312 C 157.898438 393.902344 158.15625 396.421875 159.777344 396.339844 C 175.71875 395.507812 188.925781 383.035156 190.710938 367.175781 Z M 244.902344 313.753906 C 244.359375 313.433594 243.835938 313.089844 243.332031 312.730469 C 243.476562 313.300781 243.621094 313.871094 243.765625 314.445312 C 244.148438 314.21875 244.523438 313.984375 244.902344 313.753906 Z M 408.792969 90.558594 C 408.78125 90.589844 408.777344 90.597656 408.765625 90.617188 C 408.761719 90.632812 408.757812 90.644531 408.753906 90.65625 C 408.765625 90.625 408.777344 90.589844 408.792969 90.558594 Z M 407.792969 86.503906 C 407.792969 86.507812 407.796875 86.507812 407.796875 86.511719 C 407.804688 86.515625 407.8125 86.527344 407.820312 86.527344 C 407.8125 86.523438 407.800781 86.507812 407.792969 86.503906 Z M 407.777344 86.484375 C 407.695312 86.386719 407.71875 86.429688 407.757812 86.476562 C 407.769531 86.484375 407.78125 86.496094 407.792969 86.503906 C 407.789062 86.5 407.78125 86.492188 407.777344 86.484375 Z M 331.28125 127.734375 C 333.007812 126.460938 335.511719 126.402344 337.566406 127.148438 C 335.601562 118.859375 331.457031 110.523438 328.273438 102.589844 C 326.019531 96.988281 323.734375 90.972656 320.835938 85.34375 C 319.535156 86.199219 318.148438 86.976562 316.652344 87.632812 C 307.558594 91.632812 294.796875 90.863281 287.746094 82.949219 C 287.339844 82.617188 286.90625 82.324219 286.464844 82.042969 C 284.375 82.953125 282.453125 85.003906 280.519531 86.191406 C 276.007812 88.972656 270.984375 90.6875 265.605469 90.070312 C 252.800781 88.601562 248.132812 78.421875 242.820312 68.222656 C 241.222656 65.148438 242.523438 62.296875 245.359375 60.664062 C 249.039062 58.542969 251.054688 60.980469 254.433594 61.238281 C 262.796875 61.871094 268.296875 53.703125 271.023438 47.109375 C 274.023438 39.851562 279.957031 34.3125 288.277344 33.695312 C 297.414062 33.011719 305.644531 38.96875 306.902344 48.230469 C 306.933594 48.476562 306.933594 48.722656 306.953125 48.96875 C 308.246094 47.746094 309.414062 46.738281 309.9375 46.332031 C 320.714844 37.96875 334.121094 47.066406 336.347656 59.078125 C 336.863281 61.859375 336.851562 64.8125 335.804688 67.476562 C 334.707031 70.273438 330.777344 72.664062 330.789062 75.527344 C 330.800781 78.628906 337.515625 85.285156 339.160156 88.175781 C 341.597656 92.460938 343.730469 96.972656 345.121094 101.714844 C 346.378906 106.011719 346.621094 110.492188 348.140625 114.84375 C 348.40625 115.605469 348.980469 117.40625 349.730469 119.433594 C 349.8125 117.824219 349.988281 116.191406 350.28125 114.527344 C 351.488281 107.660156 354.1875 101.238281 356.15625 94.710938 C 351.261719 91.972656 349.304688 85.46875 348.054688 79.816406 C 346.308594 71.914062 343.808594 63.453125 344.214844 55.300781 C 344.351562 52.566406 344.964844 49.761719 346.261719 47.316406 C 346.207031 45.855469 346.210938 44.386719 346.308594 42.914062 C 346.3125 42.828125 346.328125 42.742188 346.335938 42.660156 C 342.554688 39.5625 340.964844 33.074219 341.609375 28.941406 C 342.691406 22.039062 348.609375 16.015625 355.734375 15.578125 C 362.742188 15.144531 369.421875 18.945312 371.101562 8.246094 C 371.339844 6.734375 371.324219 5.082031 372.246094 3.863281 C 375.15625 0.03125 380.175781 9.574219 380.984375 11.707031 C 382.878906 16.695312 382.519531 22.527344 381.160156 27.597656 C 380.273438 30.914062 378.652344 33.835938 376.667969 36.542969 C 377.191406 36.585938 377.707031 36.644531 378.203125 36.710938 C 378.351562 36.6875 378.492188 36.644531 378.644531 36.621094 C 378.839844 36.59375 379.007812 36.707031 379.121094 36.855469 C 379.46875 36.914062 379.796875 36.976562 380.101562 37.039062 C 386.480469 38.363281 391.128906 43.125 393.484375 48.890625 C 394.648438 51.738281 395.25 54.828125 395.230469 57.871094 C 395.140625 70.558594 383.375 78.300781 376.070312 87.265625 C 371.929688 92.347656 370.664062 102.316406 368.417969 108.914062 C 367.066406 112.882812 365.652344 118.046875 366.929688 122.289062 C 366.964844 122.304688 367 122.324219 367.035156 122.339844 C 370.625 123.316406 374.105469 124.890625 377.371094 126.710938 C 383.980469 122.59375 388.320312 114.097656 392.003906 106.304688 C 391.707031 106.9375 387.085938 98.496094 386.871094 97.042969 C 386.363281 93.648438 386.878906 89.886719 387.632812 86.570312 C 389.082031 80.152344 392.550781 72.363281 399.496094 70.449219 C 402.675781 69.574219 406.046875 69.4375 409.34375 69.894531 C 410.246094 69.859375 411.152344 69.90625 412.046875 70.046875 C 414.195312 70.390625 416.042969 71.179688 417.664062 72.277344 C 418.296875 67.976562 421.050781 64.078125 425.125 62.011719 C 428.988281 60.050781 432.808594 60.054688 436.152344 61.328125 C 438.011719 61.445312 439.863281 61.808594 441.542969 62.476562 C 442.179688 62.730469 442.808594 63.054688 443.421875 63.40625 C 445.0625 62.332031 446.921875 61.628906 449.390625 61.84375 C 453.695312 62.222656 457.089844 65.476562 457.609375 69.832031 C 458.253906 75.199219 454.265625 79.53125 449.234375 80.597656 C 448.472656 80.761719 447.8125 80.738281 447.089844 81.03125 C 448.195312 84.886719 447.988281 90.144531 443.378906 91.769531 C 441.25 92.523438 438.570312 92.351562 437.179688 94.128906 C 435.445312 96.34375 437.164062 99.453125 437.902344 102.167969 C 439.304688 107.316406 436.550781 113.011719 432.15625 116.039062 C 427.761719 119.066406 422.082031 119.742188 416.796875 118.988281 C 409.789062 117.992188 404.722656 114.957031 398.988281 111.582031 C 397.625 114.320312 396.632812 117.289062 395.113281 120.003906 C 392.941406 123.882812 390.136719 127.394531 386.867188 130.207031 C 388.699219 130.667969 390.390625 131.464844 391.851562 133.03125 C 392.632812 133.867188 393.207031 134.667969 393.628906 135.441406 C 399.332031 145.855469 374.816406 150.898438 367.785156 150.910156 C 361.191406 150.921875 354.648438 149.515625 348.617188 146.875 C 343.789062 144.761719 336.113281 141.589844 332.226562 138.132812 C 329.9375 136.097656 328.5625 132.757812 329.636719 129.890625 C 330 128.941406 330.582031 128.25 331.28125 127.734375 Z M 401.921875 103.679688 C 406.113281 96.847656 412.214844 91.257812 419.375 87.664062 C 422.164062 86.265625 425.089844 85.007812 427.867188 83.550781 C 427.976562 83.535156 428.085938 83.535156 428.1875 83.492188 C 428.53125 83.34375 428.882812 83.214844 429.242188 83.121094 C 429.300781 83.113281 429.515625 83.066406 429.570312 83.054688 C 429.757812 83.023438 429.949219 82.996094 430.140625 82.976562 C 430.332031 82.957031 430.527344 82.945312 430.71875 82.941406 C 430.777344 82.941406 430.839844 82.941406 430.898438 82.941406 C 430.921875 82.941406 431.046875 82.949219 431.074219 82.949219 C 431.460938 82.972656 431.84375 83.023438 432.222656 83.101562 C 432.394531 83.136719 432.558594 83.175781 432.726562 83.222656 C 432.746094 83.226562 432.742188 83.226562 432.75 83.226562 C 432.765625 83.230469 432.769531 83.234375 432.808594 83.25 C 432.890625 83.277344 432.972656 83.304688 433.054688 83.335938 C 433.417969 83.464844 433.769531 83.625 434.109375 83.804688 C 434.183594 83.847656 434.257812 83.890625 434.332031 83.933594 C 434.363281 83.949219 434.367188 83.949219 434.382812 83.957031 C 434.382812 83.960938 434.382812 83.960938 434.40625 83.976562 C 434.550781 84.074219 434.6875 84.171875 434.828125 84.273438 C 434.980469 84.390625 435.128906 84.515625 435.273438 84.644531 C 435.351562 84.714844 435.429688 84.789062 435.507812 84.863281 C 435.539062 84.894531 435.738281 85.101562 435.582031 84.929688 C 436.078125 85.472656 436.824219 85.703125 437.472656 85.234375 C 438.007812 84.847656 438.289062 83.875 437.789062 83.328125 C 436.460938 81.882812 434.71875 80.894531 432.851562 80.464844 C 435.035156 78.816406 436.953125 76.84375 438.382812 74.277344 C 439.242188 72.742188 436.761719 71.652344 435.910156 73.175781 C 433.929688 76.726562 430.777344 79.042969 427.277344 80.933594 C 427.261719 80.9375 427.246094 80.941406 427.230469 80.949219 C 427.203125 80.957031 427.1875 80.984375 427.160156 80.996094 C 423.328125 83.050781 419.089844 84.605469 415.507812 86.6875 C 414.152344 87.476562 412.859375 88.355469 411.605469 89.277344 C 411.542969 87.152344 410.5625 85.035156 408.828125 83.789062 C 408.25 83.371094 407.378906 83.367188 406.917969 83.984375 C 406.503906 84.539062 406.480469 85.457031 407.097656 85.902344 C 407.230469 85.996094 407.355469 86.097656 407.480469 86.199219 C 407.554688 86.265625 407.664062 86.402344 407.765625 86.480469 C 407.777344 86.492188 407.789062 86.503906 407.804688 86.511719 C 407.847656 86.566406 407.890625 86.617188 407.933594 86.671875 C 408.03125 86.800781 408.125 86.929688 408.210938 87.0625 C 408.269531 87.152344 408.332031 87.316406 408.410156 87.402344 C 408.421875 87.421875 408.433594 87.449219 408.445312 87.472656 C 408.472656 87.53125 408.5 87.589844 408.523438 87.648438 C 408.589844 87.796875 408.644531 87.945312 408.695312 88.097656 C 408.722656 88.175781 408.746094 88.253906 408.765625 88.332031 C 408.769531 88.339844 408.769531 88.347656 408.773438 88.359375 C 408.773438 88.519531 408.792969 88.457031 408.773438 88.359375 C 408.773438 88.34375 408.769531 88.339844 408.773438 88.316406 C 408.765625 88.605469 408.886719 88.929688 408.910156 89.222656 C 408.914062 89.304688 408.917969 89.382812 408.921875 89.464844 C 408.921875 89.480469 408.925781 89.519531 408.925781 89.558594 C 408.917969 89.417969 408.921875 89.667969 408.917969 89.6875 C 408.914062 89.753906 408.910156 89.816406 408.902344 89.878906 C 408.886719 90.039062 408.863281 90.199219 408.832031 90.355469 C 408.816406 90.433594 408.800781 90.511719 408.78125 90.589844 C 408.78125 90.601562 408.777344 90.609375 408.773438 90.621094 C 408.71875 90.746094 408.726562 90.738281 408.753906 90.679688 C 408.644531 90.9375 408.5625 91.203125 408.429688 91.453125 C 408.351562 91.601562 408.316406 91.773438 408.3125 91.941406 C 404.863281 95.023438 401.886719 98.617188 399.453125 102.582031 C 398.53125 104.070312 401.015625 105.15625 401.921875 103.679688 Z M 325.511719 68.890625 C 315.824219 62.15625 305.441406 55.15625 293.292969 54.710938 C 293.257812 50.570312 291.046875 46.714844 287.421875 44.640625 C 286.78125 44.273438 285.90625 44.714844 285.628906 45.335938 C 285.308594 46.0625 285.667969 46.769531 286.3125 47.136719 C 286.328125 47.148438 286.464844 47.226562 286.519531 47.257812 C 286.570312 47.296875 286.722656 47.398438 286.71875 47.394531 C 286.890625 47.511719 287.0625 47.636719 287.226562 47.769531 C 287.570312 48.039062 287.894531 48.335938 288.195312 48.648438 C 288.230469 48.683594 288.285156 48.746094 288.308594 48.769531 C 288.371094 48.839844 288.429688 48.914062 288.488281 48.984375 C 288.640625 49.164062 288.785156 49.351562 288.921875 49.542969 C 289.175781 49.898438 289.414062 50.269531 289.617188 50.65625 C 289.632812 50.683594 289.652344 50.722656 289.660156 50.746094 C 289.710938 50.851562 289.761719 50.957031 289.8125 51.0625 C 289.898438 51.257812 289.980469 51.449219 290.054688 51.648438 C 290.136719 51.867188 290.210938 52.089844 290.28125 52.3125 C 290.308594 52.40625 290.332031 52.496094 290.359375 52.585938 C 290.371094 52.625 290.378906 52.652344 290.386719 52.675781 C 290.390625 52.6875 290.390625 52.699219 290.398438 52.722656 C 290.496094 53.15625 290.5625 53.597656 290.601562 54.039062 C 290.621094 54.265625 290.625 54.492188 290.632812 54.714844 C 285.414062 54.96875 280.328125 56.574219 276.152344 59.800781 C 271.332031 63.523438 266.683594 70.058594 259.824219 69.140625 C 258.101562 68.914062 257.667969 71.613281 259.40625 71.84375 C 265.589844 72.667969 270.359375 68.554688 274.617188 64.683594 C 276.929688 62.582031 279.296875 60.589844 282.1875 59.335938 C 284.75 58.21875 287.496094 57.628906 290.28125 57.445312 C 297.160156 56.988281 303.546875 59.019531 309.535156 62.066406 C 305.136719 62.941406 301.226562 65.925781 299.25 69.972656 C 298.480469 71.554688 300.953125 72.652344 301.722656 71.074219 C 303.625 67.171875 307.773438 64.585938 312.179688 64.496094 C 312.542969 64.488281 312.859375 64.285156 313.074219 64 C 316.792969 66.164062 320.355469 68.621094 323.785156 71.003906 C 325.210938 72 326.941406 69.882812 325.511719 68.890625 Z M 356.863281 50.457031 C 357 50.472656 357.136719 50.449219 357.273438 50.425781 C 360.242188 59.257812 368.207031 65.96875 368.097656 75.917969 C 368.019531 82.867188 365.042969 89.464844 362.234375 95.679688 C 361.507812 97.28125 363.980469 98.382812 364.703125 96.78125 C 369.222656 86.785156 373.480469 75.726562 368.34375 65.109375 C 368.054688 64.511719 367.746094 63.921875 367.421875 63.339844 C 367.59375 63.152344 367.730469 62.933594 367.75 62.671875 C 368.074219 58.121094 370.964844 53.964844 375.234375 52.207031 C 376.847656 51.546875 375.902344 48.992188 374.273438 49.664062 C 369.90625 51.457031 366.546875 55.417969 365.433594 59.992188 C 363.785156 57.347656 362.0625 54.746094 360.769531 51.910156 C 358.777344 47.546875 358.316406 42.835938 359.65625 38.210938 C 361.097656 33.25 364.367188 29.011719 368.855469 26.457031 C 370.375 25.59375 368.796875 23.382812 367.28125 24.246094 C 359.515625 28.664062 355.007812 38.113281 356.394531 46.949219 C 356.433594 47.195312 356.5 47.429688 356.546875 47.675781 C 355.070312 47.507812 353.597656 47.339844 352.125 47.171875 C 351.414062 47.09375 350.65625 47.578125 350.578125 48.324219 C 350.5 49.035156 350.949219 49.789062 351.707031 49.871094 C 353.429688 50.066406 355.144531 50.261719 356.863281 50.457031 Z M 356.863281 50.457031 "/>
<path style=" stroke:none;fill-rule:nonzero;fill:rgb(100%,59.609985%,50.19989%);fill-opacity:1;" d="M 183.292969 197.796875 C 188.742188 202.660156 196.59375 204.320312 202.851562 200.164062 C 208.082031 196.691406 213.160156 189.273438 208.214844 183.464844 C 205.265625 180.003906 202.445312 176.4375 199.625 172.871094 C 199.367188 172.488281 199.101562 172.113281 198.832031 171.746094 C 199.917969 170.582031 200.871094 169.335938 201.671875 168.007812 C 204.175781 163.871094 205.148438 158.972656 203.730469 153.433594 C 202.132812 147.214844 198.132812 141.574219 193.335938 136.808594 C 193.058594 137.265625 192.496094 137.550781 191.960938 137.472656 C 189.351562 137.082031 186.691406 137.304688 184.207031 138.140625 C 183.488281 138.382812 182.761719 138.0625 182.460938 137.359375 C 182.179688 136.707031 182.570312 135.820312 183.246094 135.59375 C 185.765625 134.746094 188.421875 134.445312 191.0625 134.65625 C 189.65625 133.394531 188.203125 132.207031 186.746094 131.101562 C 178.429688 135.800781 168.707031 138.730469 159.429688 140.9375 C 157.9375 147.46875 154.589844 152.289062 150.179688 158.089844 C 148.835938 159.863281 147.179688 160.417969 145.640625 160.1875 C 144.726562 161.121094 143.992188 162.230469 143.46875 163.464844 C 143.117188 164.304688 142.890625 165.15625 142.777344 166.007812 C 142.566406 167.570312 142.738281 169.144531 143.253906 170.707031 C 143.84375 172.253906 144.773438 173.558594 146.046875 174.617188 C 147.023438 175.488281 148.140625 176.046875 149.394531 176.296875 C 150.558594 176.75 151.773438 176.882812 153.035156 176.6875 C 156.972656 176.082031 159.609375 173.957031 163.195312 176.28125 C 165.816406 177.980469 168.292969 180.039062 170.515625 182.328125 C 171.824219 183.675781 173.046875 185.101562 174.167969 186.585938 C 177.074219 190.441406 179.691406 194.582031 183.292969 197.796875 Z M 178.820312 161.332031 C 179.3125 160.734375 180.125 160.71875 180.730469 161.136719 C 180.722656 161.132812 180.878906 161.238281 180.925781 161.273438 C 180.96875 161.300781 181.046875 161.34375 181.058594 161.351562 C 181.21875 161.441406 181.378906 161.527344 181.546875 161.601562 C 181.730469 161.691406 181.921875 161.769531 182.113281 161.84375 C 182.199219 161.875 182.285156 161.902344 182.371094 161.9375 C 182.394531 161.945312 182.421875 161.953125 182.445312 161.960938 C 182.785156 162.058594 183.136719 162.128906 183.488281 162.179688 C 183.671875 162.203125 183.855469 162.222656 184.035156 162.238281 C 184.125 162.246094 184.214844 162.25 184.304688 162.253906 C 184.328125 162.253906 184.355469 162.253906 184.375 162.253906 C 184.761719 162.25 185.152344 162.21875 185.539062 162.160156 C 185.71875 162.136719 185.898438 162.101562 186.078125 162.0625 C 186.105469 162.054688 186.101562 162.054688 186.113281 162.054688 C 186.125 162.050781 186.121094 162.050781 186.140625 162.046875 C 186.230469 162.023438 186.316406 161.996094 186.402344 161.96875 C 187.191406 161.726562 187.667969 161.484375 188.242188 161.078125 C 188.84375 160.65625 189.699219 160.773438 190.132812 161.382812 C 190.554688 161.976562 190.417969 162.867188 189.816406 163.289062 C 186.597656 165.546875 182.207031 165.488281 179 163.253906 C 178.394531 162.832031 178.386719 161.867188 178.820312 161.332031 Z M 189.457031 140.671875 C 189.796875 140.488281 190.289062 140.402344 190.644531 140.613281 C 190.78125 140.695312 190.898438 140.796875 191.027344 140.886719 C 191.21875 140.9375 191.402344 141.019531 191.5625 141.140625 C 192.925781 142.152344 193.617188 143.945312 193.375 145.613281 C 193.3125 146.042969 193.042969 146.398438 192.667969 146.601562 C 192.328125 146.785156 191.832031 146.875 191.476562 146.660156 C 191.050781 146.40625 190.660156 146.144531 190.316406 145.78125 C 189.992188 145.4375 189.699219 145.089844 189.46875 144.675781 C 189.238281 144.253906 189.039062 143.835938 188.925781 143.367188 C 188.855469 143.089844 188.789062 142.8125 188.757812 142.527344 C 188.730469 142.238281 188.742188 141.953125 188.75 141.664062 C 188.761719 141.242188 189.113281 140.859375 189.457031 140.671875 Z M 172.136719 152.308594 C 172.195312 151.765625 172.65625 151.320312 173.164062 151.191406 C 173.570312 151.09375 174.007812 151.191406 174.332031 151.449219 C 174.359375 151.445312 174.390625 151.425781 174.421875 151.421875 C 174.734375 151.386719 175.203125 151.480469 175.433594 151.71875 C 175.984375 152.296875 176.441406 152.953125 176.667969 153.730469 C 176.894531 154.496094 176.972656 155.300781 176.820312 156.089844 C 176.648438 156.96875 175.765625 157.488281 174.925781 157.140625 C 173.042969 156.359375 171.921875 154.308594 172.136719 152.308594 Z M 166.683594 144.792969 C 167.28125 144.328125 168.132812 144.53125 168.574219 145.097656 C 169.039062 145.691406 168.816406 146.566406 168.257812 147.003906 C 168.089844 147.132812 167.925781 147.265625 167.769531 147.402344 C 167.6875 147.46875 167.613281 147.542969 167.53125 147.609375 C 167.519531 147.621094 167.523438 147.617188 167.515625 147.621094 C 167.515625 147.621094 167.515625 147.621094 167.511719 147.625 C 167.242188 147.890625 166.980469 148.160156 166.734375 148.449219 C 166.488281 148.738281 166.253906 149.035156 166.035156 149.34375 C 165.925781 149.496094 165.820312 149.65625 165.71875 149.8125 C 165.695312 149.847656 165.695312 149.847656 165.683594 149.863281 C 165.679688 149.871094 165.683594 149.863281 165.675781 149.875 C 165.636719 149.949219 165.59375 150.019531 165.550781 150.09375 C 165.164062 150.769531 164.84375 151.480469 164.589844 152.214844 C 164.5625 152.296875 164.539062 152.375 164.507812 152.457031 C 164.496094 152.492188 164.492188 152.496094 164.488281 152.511719 C 164.488281 152.519531 164.488281 152.515625 164.488281 152.527344 C 164.4375 152.710938 164.390625 152.890625 164.34375 153.074219 C 164.261719 153.445312 164.195312 153.816406 164.140625 154.191406 C 164.039062 154.945312 163.320312 155.417969 162.59375 155.34375 C 161.855469 155.265625 161.367188 154.496094 161.464844 153.792969 C 161.949219 150.246094 163.863281 146.988281 166.683594 144.792969 Z M 307.804688 234.757812 C 307.019531 234.464844 306.167969 234.253906 305.28125 234.09375 C 305.851562 233.332031 306.429688 232.574219 306.984375 231.800781 C 308.578125 229.574219 309.671875 226.972656 311.601562 224.941406 C 312.175781 224.335938 312.8125 223.765625 313.589844 223.472656 C 314.367188 223.175781 315.308594 223.207031 315.953125 223.730469 C 316.898438 224.496094 316.871094 225.929688 316.664062 227.128906 C 316.296875 229.234375 315.957031 230.855469 315.417969 232.90625 C 314.820312 235.207031 315.671875 238.480469 318.554688 238.429688 C 319.890625 238.40625 321.878906 236.871094 323.136719 236.394531 C 325.234375 235.597656 327.398438 234.953125 329.507812 234.179688 C 336.316406 231.691406 344.625 227.074219 351.90625 226.945312 C 353.121094 226.925781 353.695312 228.105469 353.058594 229.097656 C 352.570312 229.859375 351.988281 230.578125 351.347656 231.269531 C 350.980469 230.777344 350.316406 230.535156 349.6875 231.027344 C 344.941406 234.738281 340.195312 238.453125 335.449219 242.164062 C 334.171875 243.160156 335.621094 245.226562 336.910156 244.214844 C 339.734375 242.007812 342.558594 239.800781 345.382812 237.589844 C 348.859375 238.152344 351.929688 239.367188 353.355469 241.992188 C 354.539062 244.167969 354.4375 246.742188 352.304688 248.328125 C 346.558594 252.597656 341.328125 257.351562 335.234375 261.074219 C 334.734375 261.984375 334.074219 262.726562 333.285156 263.339844 C 334.613281 260.40625 335.433594 257.242188 335.679688 254.035156 C 335.730469 253.355469 335.339844 252.703125 334.628906 252.597656 C 333.992188 252.5 333.246094 252.984375 333.191406 253.667969 C 332.914062 257.261719 331.914062 260.71875 330.222656 263.902344 C 330.046875 264.230469 330.085938 264.609375 330.242188 264.9375 C 329.671875 265.140625 329.078125 265.320312 328.453125 265.472656 C 322.371094 266.949219 316.214844 268.097656 310.121094 269.511719 C 309.882812 269.566406 309.628906 269.640625 309.382812 269.707031 C 311.144531 266.492188 312.289062 262.996094 312.457031 259.066406 C 312.722656 252.773438 315.363281 243.40625 311.6875 237.679688 C 310.800781 236.300781 309.4375 235.367188 307.804688 234.757812 Z M 307.804688 234.757812 "/>
<path style=" stroke:none;fill-rule:nonzero;fill:rgb(6.269836%,15.689087%,16.468811%);fill-opacity:1;" d="M 143.472656 163.464844 C 143.121094 164.304688 142.894531 165.152344 142.78125 166.007812 C 142.101562 165.796875 141.425781 165.558594 140.757812 165.257812 C 131.089844 160.933594 127.5625 147.832031 131.589844 138.035156 C 132.789062 135.117188 134.5 132.5 136.570312 130.179688 C 139.507812 124.890625 144.65625 121.921875 149.882812 119.039062 C 156.445312 115.417969 162.972656 111.726562 169.582031 108.199219 C 174.574219 105.535156 179.949219 102.640625 185.722656 102.410156 C 200.582031 101.8125 203.78125 118.710938 193.019531 126.984375 C 192.824219 127.136719 192.617188 127.277344 192.417969 127.425781 C 193.214844 130.023438 193.523438 132.863281 193.382812 135.59375 C 193.480469 135.820312 193.535156 136.0625 193.507812 136.316406 C 193.488281 136.496094 193.429688 136.660156 193.335938 136.808594 C 193.058594 137.265625 192.496094 137.550781 191.960938 137.46875 C 189.351562 137.082031 186.691406 137.304688 184.207031 138.136719 C 183.488281 138.378906 182.761719 138.0625 182.460938 137.359375 C 182.179688 136.707031 182.570312 135.820312 183.246094 135.59375 C 185.765625 134.746094 188.421875 134.445312 191.0625 134.652344 C 189.65625 133.394531 188.203125 132.207031 186.746094 131.097656 C 178.429688 135.796875 168.707031 138.726562 159.429688 140.9375 C 157.9375 147.46875 154.589844 152.285156 150.179688 158.089844 C 148.835938 159.863281 147.179688 160.417969 145.640625 160.1875 C 144.730469 161.121094 143.992188 162.230469 143.472656 163.464844 Z M 242.71875 361.796875 C 242.695312 360.039062 240 360.371094 240.023438 362.109375 C 240.304688 383.382812 239.011719 404.652344 236.1875 425.738281 C 236.074219 426.589844 236.65625 427.113281 237.308594 427.230469 C 237.988281 427.351562 238.746094 427.027344 238.867188 426.136719 C 240.960938 410.503906 242.199219 394.765625 242.605469 379.003906 C 242.75 373.273438 242.796875 367.535156 242.71875 361.796875 Z M 216.699219 237.25 C 214.992188 236.902344 214.570312 239.601562 216.285156 239.949219 C 236.527344 244.074219 257.511719 243.433594 277.488281 238.191406 C 278.152344 238.015625 278.394531 237.515625 278.351562 236.996094 C 278.285156 236.207031 277.542969 235.378906 276.527344 235.648438 C 269.953125 237.371094 263.261719 238.558594 256.527344 239.238281 C 243.257812 240.582031 229.804688 239.921875 216.699219 237.25 Z M 157.332031 212.121094 C 159.269531 210.292969 162.339844 210.492188 164.621094 211.484375 C 167.328125 212.660156 169.503906 214.796875 171.683594 216.738281 C 176.722656 221.222656 181.761719 225.710938 186.796875 230.199219 C 188.105469 231.367188 189.824219 229.242188 188.527344 228.085938 C 182.675781 222.871094 176.914062 217.515625 170.941406 212.441406 C 166.574219 208.734375 160.109375 205.804688 155.246094 210.394531 C 153.972656 211.597656 156.070312 213.3125 157.332031 212.121094 Z M 174.925781 157.140625 C 175.765625 157.492188 176.648438 156.96875 176.820312 156.089844 C 176.972656 155.300781 176.890625 154.5 176.667969 153.730469 C 176.4375 152.953125 175.984375 152.300781 175.429688 151.71875 C 175.203125 151.484375 174.730469 151.386719 174.421875 151.421875 C 174.390625 151.425781 174.359375 151.445312 174.328125 151.453125 C 174.003906 151.195312 173.570312 151.09375 173.164062 151.195312 C 172.652344 151.320312 172.195312 151.765625 172.136719 152.308594 C 171.921875 154.308594 173.042969 156.359375 174.925781 157.140625 Z M 188.925781 143.367188 C 189.039062 143.835938 189.238281 144.253906 189.46875 144.675781 C 189.699219 145.089844 189.992188 145.4375 190.316406 145.78125 C 190.660156 146.144531 191.050781 146.40625 191.476562 146.660156 C 191.832031 146.875 192.328125 146.785156 192.667969 146.601562 C 193.042969 146.398438 193.3125 146.042969 193.375 145.613281 C 193.617188 143.945312 192.925781 142.152344 191.5625 141.140625 C 191.402344 141.019531 191.21875 140.9375 191.027344 140.886719 C 190.898438 140.796875 190.78125 140.695312 190.644531 140.613281 C 190.289062 140.402344 189.796875 140.488281 189.457031 140.671875 C 189.113281 140.859375 188.761719 141.242188 188.75 141.664062 C 188.742188 141.953125 188.730469 142.238281 188.757812 142.527344 C 188.789062 142.8125 188.855469 143.089844 188.925781 143.367188 Z M 162.59375 155.347656 C 163.320312 155.421875 164.039062 154.949219 164.140625 154.195312 C 164.191406 153.820312 164.257812 153.445312 164.34375 153.078125 C 164.386719 152.894531 164.4375 152.710938 164.484375 152.527344 C 164.488281 152.515625 164.488281 152.523438 164.488281 152.515625 C 164.492188 152.5 164.496094 152.496094 164.507812 152.457031 C 164.535156 152.378906 164.558594 152.296875 164.589844 152.21875 C 164.839844 151.484375 165.164062 150.773438 165.546875 150.097656 C 165.589844 150.023438 165.632812 149.953125 165.675781 149.878906 C 165.683594 149.867188 165.675781 149.875 165.679688 149.867188 C 165.695312 149.847656 165.695312 149.851562 165.714844 149.816406 C 165.820312 149.65625 165.925781 149.5 166.035156 149.347656 C 166.253906 149.039062 166.488281 148.738281 166.734375 148.453125 C 166.980469 148.164062 167.242188 147.890625 167.511719 147.625 C 167.515625 147.625 167.511719 147.625 167.515625 147.621094 C 167.523438 147.617188 167.519531 147.621094 167.53125 147.613281 C 167.613281 147.542969 167.6875 147.472656 167.765625 147.402344 C 167.925781 147.265625 168.089844 147.132812 168.257812 147.007812 C 168.816406 146.570312 169.035156 145.691406 168.574219 145.101562 C 168.132812 144.535156 167.28125 144.328125 166.683594 144.796875 C 163.859375 146.992188 161.949219 150.25 161.460938 153.800781 C 161.367188 154.5 161.855469 155.269531 162.59375 155.347656 Z M 189.816406 163.289062 C 190.417969 162.867188 190.554688 161.976562 190.132812 161.382812 C 189.699219 160.773438 188.84375 160.65625 188.242188 161.078125 C 187.667969 161.484375 187.191406 161.726562 186.402344 161.972656 C 186.316406 161.996094 186.230469 162.023438 186.140625 162.046875 C 186.121094 162.054688 186.125 162.054688 186.113281 162.054688 C 186.101562 162.058594 186.105469 162.058594 186.078125 162.0625 C 185.898438 162.101562 185.71875 162.136719 185.539062 162.164062 C 185.152344 162.222656 184.761719 162.25 184.375 162.253906 C 184.355469 162.253906 184.328125 162.253906 184.304688 162.253906 C 184.214844 162.25 184.128906 162.246094 184.035156 162.238281 C 183.855469 162.226562 183.671875 162.207031 183.488281 162.179688 C 183.136719 162.132812 182.785156 162.0625 182.445312 161.960938 C 182.421875 161.953125 182.394531 161.945312 182.371094 161.9375 C 182.285156 161.90625 182.199219 161.878906 182.113281 161.84375 C 181.921875 161.773438 181.730469 161.691406 181.546875 161.605469 C 181.378906 161.527344 181.21875 161.441406 181.058594 161.351562 C 181.046875 161.347656 180.96875 161.300781 180.925781 161.273438 C 180.878906 161.238281 180.722656 161.132812 180.730469 161.140625 C 180.125 160.71875 179.3125 160.734375 178.820312 161.335938 C 178.386719 161.867188 178.394531 162.832031 179 163.257812 C 182.207031 165.492188 186.597656 165.546875 189.816406 163.289062 Z M 407.757812 86.476562 C 407.773438 86.492188 407.785156 86.5 407.796875 86.511719 C 407.796875 86.507812 407.792969 86.507812 407.792969 86.503906 C 407.78125 86.5 407.769531 86.484375 407.757812 86.476562 Z M 408.765625 88.355469 C 408.765625 88.515625 408.785156 88.453125 408.765625 88.355469 Z M 401.921875 103.679688 C 406.113281 96.847656 412.214844 91.257812 419.375 87.664062 C 422.164062 86.265625 425.089844 85.007812 427.867188 83.550781 C 427.976562 83.535156 428.085938 83.535156 428.1875 83.492188 C 428.53125 83.34375 428.882812 83.214844 429.242188 83.121094 C 429.300781 83.113281 429.515625 83.066406 429.570312 83.054688 C 429.757812 83.023438 429.949219 82.996094 430.140625 82.976562 C 430.332031 82.957031 430.527344 82.945312 430.71875 82.941406 C 430.777344 82.941406 430.839844 82.941406 430.898438 82.941406 C 430.921875 82.941406 431.046875 82.949219 431.074219 82.949219 C 431.460938 82.972656 431.84375 83.023438 432.222656 83.101562 C 432.394531 83.136719 432.558594 83.175781 432.726562 83.222656 C 432.746094 83.226562 432.742188 83.226562 432.75 83.226562 C 432.765625 83.230469 432.769531 83.234375 432.808594 83.25 C 432.890625 83.277344 432.972656 83.304688 433.054688 83.335938 C 433.417969 83.464844 433.769531 83.625 434.109375 83.804688 C 434.183594 83.847656 434.257812 83.890625 434.332031 83.933594 C 434.363281 83.949219 434.367188 83.949219 434.382812 83.957031 C 434.382812 83.960938 434.382812 83.960938 434.40625 83.976562 C 434.550781 84.074219 434.6875 84.171875 434.828125 84.273438 C 434.980469 84.390625 435.128906 84.515625 435.273438 84.644531 C 435.351562 84.714844 435.429688 84.789062 435.507812 84.863281 C 435.539062 84.894531 435.738281 85.101562 435.582031 84.929688 C 436.078125 85.472656 436.824219 85.703125 437.472656 85.234375 C 438.007812 84.847656 438.289062 83.875 437.789062 83.328125 C 436.460938 81.882812 434.71875 80.894531 432.851562 80.464844 C 435.035156 78.816406 436.953125 76.84375 438.382812 74.277344 C 439.242188 72.742188 436.761719 71.652344 435.910156 73.175781 C 433.929688 76.726562 430.777344 79.042969 427.277344 80.933594 C 427.261719 80.9375 427.246094 80.941406 427.230469 80.949219 C 427.203125 80.957031 427.1875 80.984375 427.160156 80.996094 C 423.328125 83.050781 419.089844 84.605469 415.507812 86.6875 C 414.152344 87.476562 412.859375 88.355469 411.605469 89.277344 C 411.542969 87.152344 410.5625 85.035156 408.828125 83.789062 C 408.25 83.371094 407.378906 83.367188 406.917969 83.984375 C 406.503906 84.539062 406.480469 85.457031 407.097656 85.902344 C 407.230469 85.996094 407.355469 86.097656 407.480469 86.199219 C 407.554688 86.265625 407.664062 86.402344 407.765625 86.480469 C 407.722656 86.433594 407.703125 86.390625 407.78125 86.488281 C 407.789062 86.496094 407.792969 86.5 407.800781 86.507812 C 407.808594 86.511719 407.820312 86.527344 407.828125 86.53125 C 407.820312 86.53125 407.8125 86.519531 407.804688 86.515625 C 407.847656 86.566406 407.894531 86.621094 407.933594 86.675781 C 408.035156 86.800781 408.125 86.929688 408.214844 87.066406 C 408.273438 87.15625 408.335938 87.316406 408.414062 87.402344 C 408.425781 87.425781 408.4375 87.449219 408.449219 87.472656 C 408.472656 87.53125 408.5 87.589844 408.527344 87.648438 C 408.589844 87.796875 408.648438 87.949219 408.699219 88.101562 C 408.722656 88.175781 408.746094 88.253906 408.769531 88.332031 C 408.769531 88.339844 408.769531 88.351562 408.773438 88.359375 C 408.773438 88.34375 408.773438 88.339844 408.773438 88.320312 C 408.765625 88.605469 408.890625 88.933594 408.910156 89.226562 C 408.917969 89.304688 408.921875 89.386719 408.921875 89.464844 C 408.921875 89.480469 408.925781 89.519531 408.925781 89.5625 C 408.917969 89.417969 408.921875 89.667969 408.921875 89.691406 C 408.917969 89.753906 408.910156 89.820312 408.90625 89.882812 C 408.886719 90.039062 408.863281 90.199219 408.835938 90.355469 C 408.820312 90.433594 408.804688 90.511719 408.785156 90.589844 C 408.78125 90.601562 408.777344 90.613281 408.773438 90.625 C 408.78125 90.601562 408.785156 90.59375 408.800781 90.566406 C 408.785156 90.597656 408.773438 90.632812 408.761719 90.664062 C 408.765625 90.652344 408.769531 90.636719 408.773438 90.625 C 408.71875 90.746094 408.730469 90.738281 408.753906 90.683594 C 408.648438 90.9375 408.5625 91.203125 408.433594 91.453125 C 408.355469 91.605469 408.320312 91.773438 408.3125 91.945312 C 404.867188 95.023438 401.890625 98.617188 399.457031 102.582031 C 398.53125 104.070312 401.015625 105.15625 401.921875 103.679688 Z M 357.273438 50.425781 C 360.242188 59.257812 368.207031 65.96875 368.097656 75.917969 C 368.019531 82.867188 365.042969 89.464844 362.234375 95.679688 C 361.507812 97.28125 363.980469 98.382812 364.703125 96.78125 C 369.222656 86.785156 373.480469 75.726562 368.34375 65.109375 C 368.054688 64.511719 367.746094 63.921875 367.421875 63.339844 C 367.59375 63.152344 367.730469 62.933594 367.75 62.671875 C 368.074219 58.121094 370.964844 53.964844 375.234375 52.207031 C 376.847656 51.546875 375.902344 48.992188 374.273438 49.664062 C 369.90625 51.457031 366.546875 55.417969 365.433594 59.992188 C 363.785156 57.347656 362.0625 54.746094 360.769531 51.910156 C 358.777344 47.546875 358.316406 42.835938 359.65625 38.210938 C 361.097656 33.25 364.367188 29.011719 368.855469 26.457031 C 370.375 25.59375 368.796875 23.382812 367.28125 24.246094 C 359.515625 28.664062 355.007812 38.113281 356.394531 46.949219 C 356.433594 47.195312 356.5 47.429688 356.546875 47.675781 C 355.070312 47.507812 353.597656 47.339844 352.125 47.171875 C 351.414062 47.09375 350.65625 47.578125 350.578125 48.324219 C 350.5 49.035156 350.949219 49.789062 351.707031 49.871094 C 353.425781 50.066406 355.144531 50.261719 356.859375 50.457031 C 357 50.472656 357.136719 50.449219 357.273438 50.425781 Z M 325.511719 68.890625 C 315.824219 62.15625 305.441406 55.15625 293.292969 54.710938 C 293.257812 50.570312 291.046875 46.714844 287.421875 44.640625 C 286.78125 44.273438 285.90625 44.714844 285.628906 45.335938 C 285.308594 46.0625 285.667969 46.769531 286.3125 47.136719 C 286.328125 47.148438 286.464844 47.226562 286.519531 47.257812 C 286.570312 47.296875 286.722656 47.398438 286.71875 47.394531 C 286.890625 47.511719 287.0625 47.636719 287.226562 47.769531 C 287.570312 48.039062 287.894531 48.335938 288.195312 48.648438 C 288.230469 48.683594 288.285156 48.746094 288.308594 48.769531 C 288.371094 48.839844 288.429688 48.914062 288.488281 48.984375 C 288.640625 49.164062 288.785156 49.351562 288.921875 49.542969 C 289.175781 49.898438 289.414062 50.269531 289.617188 50.65625 C 289.632812 50.683594 289.652344 50.722656 289.660156 50.746094 C 289.710938 50.851562 289.761719 50.957031 289.8125 51.0625 C 289.898438 51.257812 289.980469 51.449219 290.054688 51.648438 C 290.136719 51.867188 290.210938 52.089844 290.28125 52.3125 C 290.308594 52.40625 290.332031 52.496094 290.359375 52.585938 C 290.371094 52.625 290.378906 52.652344 290.386719 52.675781 C 290.390625 52.6875 290.390625 52.699219 290.398438 52.722656 C 290.496094 53.15625 290.5625 53.597656 290.601562 54.039062 C 290.621094 54.265625 290.625 54.492188 290.632812 54.714844 C 285.414062 54.96875 280.328125 56.574219 276.152344 59.800781 C 271.332031 63.523438 266.683594 70.058594 259.824219 69.140625 C 258.101562 68.914062 257.667969 71.613281 259.40625 71.84375 C 265.589844 72.667969 270.359375 68.554688 274.617188 64.683594 C 276.929688 62.582031 279.296875 60.589844 282.1875 59.335938 C 284.75 58.21875 287.496094 57.628906 290.28125 57.445312 C 297.160156 56.988281 303.546875 59.019531 309.535156 62.066406 C 305.136719 62.941406 301.226562 65.925781 299.25 69.972656 C 298.480469 71.554688 300.953125 72.652344 301.722656 71.074219 C 303.625 67.171875 307.773438 64.585938 312.179688 64.496094 C 312.542969 64.488281 312.859375 64.285156 313.074219 64 C 316.792969 66.164062 320.355469 68.621094 323.785156 71.003906 C 325.210938 72 326.941406 69.882812 325.511719 68.890625 Z M 308.40625 322.164062 C 308.292969 322.886719 308.152344 323.609375 307.964844 324.335938 C 307.835938 324.867188 307.710938 325.402344 307.558594 325.933594 C 312.925781 330.148438 319.511719 332.5625 326.277344 332.828125 C 326.746094 332.257812 327.230469 331.710938 327.738281 331.164062 C 328.308594 330.554688 328.890625 329.945312 329.5 329.363281 C 321.824219 329.871094 314.21875 327.292969 308.40625 322.164062 Z M 296.996094 352.925781 C 301.148438 354.753906 305.539062 355.65625 310.007812 355.988281 C 310.730469 355.058594 311.429688 354.121094 312.125 353.167969 C 312.242188 353.003906 312.355469 352.851562 312.46875 352.683594 C 308.066406 352.558594 303.699219 351.898438 299.5625 350.261719 C 297.949219 349.613281 296.351562 348.824219 294.851562 347.875 C 294.128906 348.773438 293.394531 349.675781 292.644531 350.566406 C 294.027344 351.464844 295.488281 352.253906 296.996094 352.925781 Z M 349.683594 231.027344 C 344.9375 234.738281 340.191406 238.453125 335.449219 242.164062 C 334.171875 243.164062 335.617188 245.226562 336.910156 244.21875 C 339.730469 242.007812 342.554688 239.800781 345.378906 237.589844 C 347.300781 236.089844 349.222656 234.585938 351.144531 233.082031 C 351.796875 232.570312 351.734375 231.785156 351.347656 231.269531 C 350.976562 230.78125 350.3125 230.535156 349.683594 231.027344 Z M 334.625 252.59375 C 333.988281 252.5 333.242188 252.980469 333.191406 253.664062 C 332.914062 257.261719 331.910156 260.714844 330.21875 263.902344 C 330.046875 264.230469 330.082031 264.609375 330.238281 264.9375 C 330.371094 265.210938 330.582031 265.453125 330.851562 265.570312 C 331.515625 265.867188 332.195312 265.527344 332.515625 264.921875 C 332.792969 264.40625 333.042969 263.875 333.285156 263.339844 C 334.609375 260.40625 335.433594 257.242188 335.679688 254.035156 C 335.730469 253.355469 335.339844 252.703125 334.625 252.59375 Z M 297.132812 283.859375 C 296.929688 283.238281 296.347656 282.796875 295.609375 283.199219 C 275.902344 293.90625 253.867188 300.054688 231.464844 301.105469 C 225.015625 301.40625 218.558594 301.269531 212.125 300.71875 C 210.523438 300.582031 210.117188 303.089844 211.742188 303.226562 C 234.394531 305.164062 257.398438 301.929688 278.640625 293.804688 C 281.46875 292.71875 284.261719 291.539062 287.019531 290.285156 C 290.230469 288.820312 293.398438 287.25 296.5 285.5625 C 297.183594 285.191406 297.328125 284.445312 297.132812 283.859375 Z M 297.132812 283.859375 "/>
<path style=" stroke:none;fill-rule:nonzero;fill:rgb(100%,95.689392%,90.19928%);fill-opacity:1;" d="M 311.6875 237.679688 C 310.800781 236.300781 309.4375 235.367188 307.804688 234.757812 C 307.019531 234.464844 306.167969 234.25 305.28125 234.09375 C 300.402344 233.226562 294.339844 234.1875 290.9375 234.722656 C 286.765625 235.378906 282.566406 236.171875 278.351562 236.996094 C 278.394531 237.515625 278.152344 238.015625 277.488281 238.191406 C 257.511719 243.429688 236.527344 244.074219 216.285156 239.949219 C 214.570312 239.601562 214.992188 236.902344 216.699219 237.25 C 229.804688 239.917969 243.257812 240.582031 256.527344 239.238281 C 256.328125 239.007812 256.125 238.777344 255.925781 238.542969 C 241.214844 221.199219 230.148438 198.359375 236.050781 175.226562 C 237.777344 168.460938 240.496094 162.148438 244.082031 156.492188 C 229.722656 159.007812 215.460938 162.863281 201.675781 168.007812 C 200.875 169.332031 199.917969 170.578125 198.832031 171.742188 C 199.105469 172.109375 199.367188 172.484375 199.625 172.867188 C 202.445312 176.433594 205.269531 180 208.214844 183.460938 C 213.160156 189.269531 208.085938 196.6875 202.855469 200.160156 C 196.59375 204.316406 188.742188 202.65625 183.292969 197.792969 C 179.691406 194.578125 177.078125 190.4375 174.171875 186.582031 C 173.054688 185.097656 171.832031 183.671875 170.523438 182.324219 C 163.640625 186.132812 156.96875 190.273438 150.589844 194.773438 C 134.59375 206.058594 127.539062 221.09375 126.761719 240.394531 C 125.921875 261.253906 127.09375 282.230469 130.160156 302.878906 C 132.09375 315.902344 134.277344 330.976562 143.613281 340.394531 C 146.128906 342.929688 149.15625 345.058594 152.839844 346.625 C 168.113281 353.101562 189.066406 351.519531 205.015625 348.753906 C 222.542969 345.714844 239.214844 339.457031 254.4375 330.273438 C 267.628906 322.316406 283.175781 311.132812 286.425781 295.285156 C 286.761719 293.664062 286.960938 291.996094 287.023438 290.277344 C 284.265625 291.535156 281.476562 292.714844 278.644531 293.796875 C 257.402344 301.925781 234.398438 305.160156 211.746094 303.222656 C 210.121094 303.085938 210.527344 300.578125 212.128906 300.714844 C 218.5625 301.261719 225.019531 301.402344 231.46875 301.097656 C 253.871094 300.050781 275.902344 293.898438 295.613281 283.195312 C 296.347656 282.792969 296.933594 283.230469 297.136719 283.855469 C 297.289062 283.726562 297.445312 283.609375 297.597656 283.476562 C 298.191406 282.96875 298.78125 282.441406 299.351562 281.890625 C 303.28125 278.109375 306.933594 274.179688 309.382812 269.699219 C 311.144531 266.488281 312.289062 262.992188 312.457031 259.058594 C 312.71875 252.773438 315.359375 243.402344 311.6875 237.679688 Z M 164.617188 211.484375 C 162.339844 210.492188 159.269531 210.292969 157.332031 212.121094 C 156.070312 213.316406 153.96875 211.597656 155.246094 210.398438 C 160.109375 205.804688 166.574219 208.734375 170.941406 212.441406 C 176.914062 217.515625 182.671875 222.871094 188.527344 228.085938 C 189.824219 229.242188 188.105469 231.367188 186.796875 230.203125 C 181.757812 225.714844 176.71875 221.226562 171.679688 216.738281 C 169.503906 214.796875 167.328125 212.660156 164.617188 211.484375 Z M 438.109375 202.894531 C 434.65625 206.742188 429.589844 208.886719 424.414062 208.519531 C 419.390625 208.164062 414.699219 205.308594 411.90625 201.15625 C 410.933594 199.714844 413.128906 198.09375 414.113281 199.554688 C 416.460938 203.046875 420.253906 205.382812 424.460938 205.785156 C 428.773438 206.199219 433.144531 204.367188 436.019531 201.167969 C 437.195312 199.863281 439.28125 201.585938 438.109375 202.894531 Z M 326.480469 179.367188 C 322.054688 183.789062 315.769531 186.125 309.519531 185.285156 C 303.441406 184.46875 297.925781 180.679688 294.886719 175.371094 C 294.03125 173.875 296.222656 172.246094 297.09375 173.769531 C 299.714844 178.347656 304.25 181.683594 309.496094 182.519531 C 314.875 183.375 320.542969 181.488281 324.390625 177.644531 C 325.625 176.410156 327.71875 178.128906 326.480469 179.367188 Z M 381.527344 215.898438 C 381.910156 216.445312 381.859375 217.449219 381.210938 217.804688 C 374.765625 221.332031 366.074219 219.429688 361.925781 213.257812 C 360.957031 211.8125 363.152344 210.195312 364.132812 211.65625 C 367.375 216.484375 374.460938 218.425781 379.636719 215.59375 C 380.277344 215.242188 381.0625 215.230469 381.527344 215.898438 Z M 286.503906 205.929688 C 280.777344 209.101562 273.832031 209.683594 267.757812 207.089844 C 262.257812 204.742188 257.953125 199.980469 256.046875 194.328125 C 255.488281 192.679688 258.015625 191.671875 258.582031 193.34375 C 260.222656 198.203125 263.789062 202.292969 268.480469 204.421875 C 273.683594 206.78125 279.941406 206.484375 284.929688 203.71875 C 286.449219 202.875 288.03125 205.082031 286.503906 205.929688 Z M 380.300781 275.015625 C 375.378906 280.113281 368.34375 282.890625 361.246094 282.191406 C 354.316406 281.507812 347.9375 277.464844 344.175781 271.636719 C 343.234375 270.179688 345.429688 268.558594 346.382812 270.039062 C 349.679688 275.144531 355.082031 278.6875 361.144531 279.433594 C 367.402344 280.203125 373.847656 277.804688 378.210938 273.289062 C 379.425781 272.035156 381.519531 273.753906 380.300781 275.015625 Z M 436.429688 239.855469 C 436.953125 240.289062 437.128906 241.261719 436.605469 241.777344 C 434.058594 244.296875 430.332031 244.929688 426.933594 244 C 423.078125 242.945312 420.0625 240.21875 417.21875 237.542969 C 415.953125 236.355469 417.671875 234.226562 418.945312 235.425781 C 421.34375 237.679688 423.820312 240.035156 426.96875 241.171875 C 429.378906 242.039062 432.601562 241.941406 434.519531 240.050781 C 435.042969 239.535156 435.808594 239.34375 436.429688 239.855469 Z M 190.710938 367.175781 C 188.925781 383.035156 175.71875 395.507812 159.777344 396.339844 C 158.152344 396.421875 157.898438 393.902344 159.511719 393.820312 C 174.375 393.046875 186.554688 381.609375 188.222656 366.808594 C 188.40625 365.183594 190.894531 365.558594 190.710938 367.175781 Z M 190.710938 367.175781 "/>
</g>
</svg>
