<?xml version="1.0" encoding="UTF-8"?>
<svg xmlns="http://www.w3.org/2000/svg" xmlns:xlink="http://www.w3.org/1999/xlink" width="600pt" height="599.999999pt" viewBox="0 0 600 599.999999" version="1.2">
<g id="surface1">
<rect x="0" y="0" width="600" height="599.999999" style="fill:rgb(100%,100%,100%);fill-opacity:1;stroke:none;"/>
<rect x="0" y="0" width="600" height="599.999999" style="fill:rgb(100%,100%,100%);fill-opacity:1;stroke:none;"/>
<rect x="0" y="0" width="600" height="599.999999" style="fill:rgb(6.269836%,15.689087%,16.468811%);fill-opacity:1;stroke:none;"/>
<path style=" stroke:none;fill-rule:nonzero;fill:rgb(100%,96.078491%,90.19928%);fill-opacity:1;" d="M 481.40625 462.25 C 478.3125 470.402344 465.039062 475.535156 417.445312 475.535156 C 369.855469 475.535156 362.3125 470.78125 358.691406 468.742188 C 358.691406 468.742188 357.9375 467.835938 356.957031 466.101562 C 271.953125 466.855469 170.660156 467.234375 160.101562 464.742188 C 141.699219 460.363281 136.871094 421.183594 134.609375 385.855469 C 132.347656 350.527344 148.035156 347.355469 148.035156 347.355469 L 152.03125 346.902344 C 156.179688 299.574219 175.867188 254.28125 194.722656 243.9375 C 217.347656 231.480469 263.28125 238.652344 274.972656 236.765625 C 283.945312 229.519531 291.035156 222.800781 291.035156 222.800781 C 295.636719 219.628906 300.839844 220.082031 322.109375 219.554688 C 343.378906 219.027344 347.980469 220.839844 348.886719 221.96875 C 348.886719 221.96875 356.65625 229.367188 362.914062 236.691406 C 374.53125 238.730469 432.378906 231.105469 454.855469 243.863281 C 477.484375 256.695312 487.136719 301.007812 487.589844 348.1875 C 488.644531 371.738281 484.496094 454.097656 481.40625 462.25 Z M 144.789062 224.761719 C 147.507812 224.3125 150.144531 223.40625 152.859375 222.800781 C 156.785156 221.96875 160.929688 222.046875 164.703125 220.839844 C 167.265625 220.007812 170.058594 218.496094 172.621094 219.328125 C 172.621094 219.328125 188.613281 219.253906 191.101562 219.78125 C 193.589844 220.308594 200.226562 225.140625 205.808594 225.820312 C 211.390625 226.5 221.648438 222.273438 228.058594 217.96875 C 228.511719 217.667969 228.886719 217.441406 229.265625 217.140625 C 228.964844 216.382812 228.511719 215.703125 228.058594 215.101562 C 225.644531 216.460938 222.777344 218.046875 220.363281 219.175781 C 216.292969 221.066406 213.878906 221.367188 213.652344 220.535156 C 213.351562 219.628906 221.121094 216.914062 226.550781 214.269531 C 226.777344 214.195312 227.003906 214.042969 227.152344 213.96875 C 226.550781 213.214844 225.945312 212.457031 225.417969 211.628906 C 221.796875 213.515625 215.3125 216.988281 213.578125 217.59375 C 211.390625 218.347656 210.9375 216.460938 211.917969 216.082031 C 212.824219 215.703125 219.160156 212.683594 224.363281 209.742188 C 223.984375 208.835938 223.757812 207.855469 223.835938 206.949219 C 219.835938 209.289062 214.859375 212.15625 211.464844 213.363281 C 205.355469 215.554688 198.871094 215.253906 193.136719 215.554688 C 187.40625 215.855469 160.328125 215.402344 160.027344 215.554688 L 158.894531 215.175781 C 155.953125 214.574219 153.011719 213.894531 149.996094 213.289062 C 145.695312 212.382812 141.09375 211.476562 137.097656 213.214844 C 134.683594 214.269531 131.742188 217.289062 129.101562 217.289062 L 111.152344 216.6875 C 111.152344 216.6875 111.53125 222.421875 116.582031 223.253906 C 121.636719 224.085938 126.839844 223.253906 126.839844 223.253906 C 129.933594 223.253906 132.949219 224.234375 135.964844 224.613281 C 138.90625 224.988281 141.847656 225.214844 144.789062 224.761719 Z M 144.789062 224.761719 "/>
<path style=" stroke:none;fill-rule:nonzero;fill:rgb(52.549744%,21.179199%,10.5896%);fill-opacity:1;" d="M 362.6875 130.703125 C 362.460938 130.476562 362.234375 130.253906 361.933594 130.027344 C 362.839844 128.894531 363.519531 127.683594 364.046875 126.402344 C 365.855469 124.289062 366.460938 122.476562 366.460938 119.53125 C 366.460938 119.457031 366.382812 119.457031 366.382812 119.53125 C 366.160156 121.117188 365.628906 122.703125 364.800781 124.136719 C 365.175781 122.628906 365.328125 121.042969 365.253906 119.457031 C 363.292969 120.4375 361.105469 120.816406 358.84375 120.664062 C 358.765625 120.664062 358.765625 120.515625 358.84375 120.515625 C 361.105469 120.4375 363.214844 119.757812 365.175781 118.703125 C 365.101562 118.25 365.101562 117.722656 364.953125 117.269531 C 360.804688 118.777344 356.503906 119.15625 352.128906 118.851562 C 352.808594 118.703125 353.5625 118.550781 354.242188 118.398438 C 357.105469 118.398438 359.898438 118.097656 362.3125 116.890625 C 362.460938 116.816406 362.3125 116.664062 362.234375 116.738281 C 360.199219 117.722656 357.863281 118.023438 355.371094 118.097656 C 357.03125 117.570312 358.691406 116.890625 360.199219 115.984375 C 360.273438 115.910156 360.199219 115.757812 360.125 115.757812 C 355.597656 116.816406 351.375 117.417969 346.925781 117.644531 C 346.546875 117.644531 346.171875 117.570312 345.792969 117.570312 C 344.664062 117.496094 343.605469 117.417969 342.476562 117.34375 C 341.796875 117.191406 341.117188 116.964844 340.4375 116.816406 C 342.398438 116.738281 344.359375 116.4375 346.320312 115.984375 C 346.472656 115.910156 346.398438 115.683594 346.246094 115.683594 C 344.058594 116.210938 341.871094 116.511719 339.761719 116.589844 C 338.929688 116.363281 338.101562 116.136719 337.269531 115.832031 C 328.21875 113.117188 319.320312 109.492188 309.890625 109.113281 C 300.992188 108.8125 291.261719 112.285156 286.738281 119.835938 C 287.417969 117.417969 288.472656 115.230469 290.359375 113.265625 C 290.507812 113.039062 290.28125 112.664062 290.054688 112.890625 C 287.339844 115.003906 285.90625 117.871094 285.378906 120.96875 C 283.34375 120.515625 281.308594 120.589844 279.421875 121.117188 C 278.742188 121.042969 277.988281 120.96875 277.308594 121.117188 C 273.6875 121.722656 271.578125 125.195312 269.917969 128.136719 C 269.84375 128.214844 269.992188 128.289062 270.070312 128.214844 C 271.578125 126.023438 273.238281 123.609375 275.875 122.628906 C 276.101562 122.550781 276.40625 122.476562 276.628906 122.402344 C 275.726562 123.003906 274.894531 123.683594 274.140625 124.589844 C 273.464844 125.195312 272.785156 125.875 272.179688 126.628906 C 268.710938 131.234375 266.449219 138.328125 266.675781 144.066406 C 266.675781 144.21875 266.902344 144.21875 266.902344 144.066406 C 266.824219 138.859375 268.9375 132.742188 271.726562 128.289062 C 270.296875 131.007812 269.464844 134.027344 268.785156 137.121094 C 267.503906 143.460938 267.128906 150.03125 267.957031 156.523438 C 268.183594 154.859375 268.484375 153.199219 268.863281 151.691406 C 268.9375 151.464844 269.238281 151.539062 269.238281 151.765625 C 268.863281 155.691406 269.539062 159.617188 269.238281 163.46875 C 270.972656 170.183594 274.066406 176.527344 278.667969 181.734375 C 282.4375 185.960938 287.039062 189.433594 290.585938 193.890625 C 295.261719 199.777344 297.75 207.023438 300.238281 214.195312 C 310.871094 215.328125 322.335938 216.007812 331.691406 210.796875 C 333.878906 209.589844 340.289062 205.289062 341.417969 202.117188 C 342.023438 197.359375 358.464844 168.523438 360.5 160.671875 C 360.953125 159.011719 362.160156 154.785156 363.214844 149.953125 C 362.992188 151.839844 362.839844 153.652344 363.140625 155.539062 C 363.140625 155.765625 363.519531 155.691406 363.519531 155.464844 C 363.140625 150.40625 364.800781 145.5 364.726562 140.367188 C 364.800781 139.613281 364.800781 138.933594 364.800781 138.253906 C 365.402344 135.308594 365.328125 132.214844 362.6875 130.703125 Z M 364.5 136.894531 C 364.421875 134.554688 363.972656 132.515625 363.066406 131.15625 C 364.875 132.515625 365.027344 134.707031 364.5 136.894531 Z M 354.769531 122.023438 C 357.332031 122.402344 359.824219 122.097656 362.386719 122.023438 C 362.539062 122.023438 362.539062 122.175781 362.386719 122.25 C 359.898438 123.003906 357.183594 122.703125 354.695312 122.175781 C 354.617188 122.175781 354.695312 122.023438 354.769531 122.023438 Z M 354.769531 122.023438 "/>
<path style=" stroke:none;fill-rule:nonzero;fill:rgb(89.7995%,62.348938%,38.038635%);fill-opacity:1;" d="M 291.789062 222.195312 C 289.378906 228.160156 289.453125 235.03125 291.867188 240.917969 L 291.1875 241.21875 C 288.773438 235.484375 288.625 228.839844 290.660156 223.027344 C 290.886719 222.800781 290.960938 222.726562 290.960938 222.726562 C 291.261719 222.5 291.488281 222.347656 291.789062 222.195312 Z M 347.832031 221.214844 C 347.527344 221.066406 347.152344 220.914062 346.699219 220.761719 C 346.851562 220.988281 347 221.214844 347.152344 221.441406 C 347.90625 222.800781 348.585938 224.234375 349.113281 225.667969 C 349.414062 226.652344 349.714844 227.632812 350.019531 228.613281 L 350.695312 231.105469 L 351.449219 230.878906 L 350.773438 228.386719 C 350.46875 227.40625 350.242188 226.425781 349.867188 225.367188 C 349.261719 224.007812 348.585938 222.574219 347.832031 221.214844 Z M 279.121094 252.542969 C 277.460938 248.015625 276.78125 243.183594 276.101562 238.503906 L 275.347656 238.578125 C 276.027344 243.332031 276.707031 248.164062 278.367188 252.769531 C 279.722656 256.394531 282.289062 261.300781 287.113281 264.242188 L 287.492188 264.46875 L 287.644531 264.015625 C 289.753906 258.882812 291.339844 254.054688 292.394531 249.449219 C 292.546875 248.769531 292.769531 248.316406 293.074219 248.316406 C 293.222656 248.316406 293.449219 248.390625 293.601562 248.46875 C 295.335938 249.222656 296.917969 250.128906 298.503906 251.183594 L 298.957031 250.582031 C 297.371094 249.523438 295.714844 248.617188 293.976562 247.789062 C 293.75 247.710938 293.375 247.5625 292.996094 247.5625 C 292.015625 247.636719 291.714844 248.84375 291.640625 249.296875 C 290.660156 253.675781 289.074219 258.429688 287.113281 263.339844 C 282.816406 260.46875 280.402344 255.941406 279.121094 252.542969 Z M 356.804688 261.375 C 354.996094 262.960938 352.429688 263.792969 350.019531 264.46875 C 349.640625 264.546875 349.261719 264.695312 348.886719 264.773438 C 348.359375 259.5625 347.300781 254.429688 345.71875 249.523438 C 345.644531 249.222656 345.492188 248.769531 345.113281 248.46875 C 344.511719 247.9375 343.605469 248.015625 342.703125 248.542969 C 342.625 248.617188 342.476562 248.695312 342.398438 248.769531 C 341.949219 249.070312 341.496094 249.371094 340.96875 249.296875 L 340.890625 250.050781 C 341.570312 250.128906 342.171875 249.75 342.777344 249.371094 C 342.851562 249.296875 343.003906 249.222656 343.078125 249.222656 C 343.605469 248.917969 344.285156 248.695312 344.664062 249.070312 C 344.8125 249.222656 344.964844 249.523438 345.039062 249.824219 C 346.699219 254.882812 347.753906 260.09375 348.207031 265.375 L 348.28125 265.828125 L 348.734375 265.679688 C 349.261719 265.527344 349.792969 265.375 350.320312 265.226562 C 352.882812 264.46875 355.523438 263.640625 357.410156 261.980469 C 358.238281 261.222656 359.070312 260.242188 359.824219 259.109375 C 363.292969 253.828125 364.421875 246.882812 363.441406 237.824219 L 362.6875 237.898438 C 363.667969 246.804688 362.539062 253.601562 359.21875 258.734375 C 358.390625 259.789062 357.636719 260.695312 356.804688 261.375 Z M 201.359375 279.792969 C 196.910156 268.472656 195.25 256.089844 196.53125 244.011719 C 196.605469 243.636719 196.683594 243.257812 196.910156 243.257812 L 196.757812 242.503906 C 196.378906 242.578125 195.929688 242.878906 195.777344 243.9375 C 194.496094 256.167969 196.152344 268.621094 200.679688 280.097656 Z M 208.148438 384.574219 L 209.957031 397.332031 C 209.957031 397.554688 210.03125 397.707031 210.03125 397.933594 L 212.824219 417.863281 L 213.578125 417.789062 L 210.710938 397.328125 C 209.503906 387.742188 210.03125 340.941406 210.332031 330.597656 C 210.558594 323.578125 210.183594 313.3125 204.828125 305.308594 L 204.222656 305.761719 C 208.449219 312.027344 209.503906 319.878906 209.65625 326.296875 C 208.449219 325.164062 206.863281 324.410156 205.203125 324.183594 L 205.128906 324.9375 C 206.789062 325.164062 208.296875 325.917969 209.429688 327.125 L 209.65625 326.898438 C 209.65625 328.183594 209.65625 329.390625 209.65625 330.597656 C 209.503906 336.863281 208.976562 370.304688 209.503906 388.121094 L 207.015625 370.378906 C 206.109375 363.8125 205.128906 357.09375 201.960938 351.054688 C 199.171875 345.773438 193.664062 340.035156 186.273438 339.65625 L 186.199219 340.410156 C 193.210938 340.789062 198.566406 346.375 201.28125 351.433594 C 204.375 357.320312 205.355469 364.039062 206.261719 370.53125 L 208.148438 383.96875 C 205.960938 384.195312 202.339844 384.121094 200.753906 383.136719 C 199.699219 382.457031 198.945312 381.25 198.492188 380.34375 C 197.4375 378.382812 196.683594 376.269531 196.304688 374.003906 L 196.230469 374.003906 C 196.457031 365.550781 194.496094 356.945312 190.421875 349.546875 L 189.742188 349.921875 C 195.171875 359.886719 196.832031 372.269531 194.269531 383.136719 C 186.425781 382.230469 178.882812 385.25 171.566406 388.121094 C 165.910156 390.308594 160.101562 392.574219 154.144531 393.179688 C 147.65625 393.78125 141.09375 392.273438 135.4375 389.027344 L 135.0625 389.707031 C 139.964844 392.574219 145.621094 394.085938 151.277344 394.085938 C 152.257812 394.085938 153.238281 394.007812 154.144531 393.933594 C 160.253906 393.40625 166.136719 391.066406 171.792969 388.875 C 179.484375 385.855469 186.726562 383.0625 194.496094 384.042969 L 194.796875 384.121094 L 194.871094 383.816406 C 195.476562 381.402344 195.851562 378.988281 196.003906 376.496094 C 196.457031 378.003906 196.984375 379.4375 197.738281 380.796875 C 198.265625 381.855469 199.019531 383.0625 200.300781 383.894531 C 201.585938 384.722656 203.773438 384.949219 205.808594 384.949219 C 206.636719 384.648438 207.46875 384.648438 208.148438 384.574219 Z M 188.761719 379.589844 C 188.988281 379.589844 189.214844 379.515625 189.441406 379.4375 C 190.195312 379.136719 190.722656 378.382812 190.949219 377.628906 C 191.628906 375.664062 191.554688 371.210938 188.535156 371.210938 C 185.59375 371.210938 186.800781 376.496094 187.328125 378.15625 C 187.632812 378.835938 188.007812 379.589844 188.761719 379.589844 Z M 141.472656 359.660156 L 141.019531 360.265625 C 145.695312 364.113281 151.804688 366.304688 157.839844 366.304688 C 158.066406 366.304688 158.292969 366.304688 158.519531 366.304688 L 158.519531 365.550781 C 152.410156 365.699219 146.148438 363.585938 141.472656 359.660156 Z M 451.914062 252.695312 C 447.390625 257.449219 442.261719 262.886719 438.339844 269.152344 C 434.113281 275.945312 432.003906 282.964844 432.230469 289.457031 L 432.984375 289.457031 C 432.757812 283.117188 434.867188 276.246094 438.941406 269.605469 C 442.789062 263.414062 447.917969 258.054688 452.367188 253.296875 C 454.480469 251.035156 456.589844 248.84375 458.703125 246.65625 C 458.476562 246.503906 458.324219 246.351562 458.097656 246.203125 C 456.0625 248.316406 454.027344 250.503906 451.914062 252.695312 Z M 419.332031 412.957031 C 418.578125 399.292969 421.367188 385.554688 424.082031 372.191406 C 427.175781 357.171875 430.34375 341.621094 428.308594 326.21875 L 427.554688 326.296875 C 429.515625 341.542969 426.347656 357.019531 423.328125 371.964844 C 420.613281 385.328125 417.824219 399.140625 418.578125 412.878906 C 415.636719 413.03125 412.695312 413.484375 409.828125 414.238281 L 410.054688 414.996094 C 418.953125 412.652344 428.457031 413.257812 436.980469 416.730469 L 437.28125 416.050781 C 431.550781 413.785156 425.441406 412.730469 419.332031 412.957031 Z M 223.757812 418.769531 L 224.511719 418.617188 C 223.53125 412.652344 220.214844 407.066406 215.613281 403.292969 L 215.160156 403.898438 C 219.609375 407.597656 222.777344 413.03125 223.757812 418.769531 Z M 424.082031 409.03125 C 427.402344 407.445312 431.171875 406.917969 434.792969 407.519531 L 434.945312 406.765625 C 431.171875 406.164062 427.175781 406.691406 423.78125 408.351562 Z M 474.542969 456.890625 C 475.972656 459.003906 476.730469 461.644531 476.578125 464.214844 L 477.332031 464.214844 C 477.484375 461.496094 476.652344 458.703125 475.144531 456.4375 Z M 478.914062 457.796875 L 478.238281 458.023438 C 478.464844 458.703125 478.539062 459.457031 478.464844 460.210938 L 479.21875 460.289062 C 479.292969 459.457031 479.140625 458.625 478.914062 457.796875 Z M 381.695312 386.988281 C 379.433594 385.027344 377.925781 382.234375 375.660156 380.269531 C 374.078125 378.910156 372.191406 377.929688 370.304688 377.097656 C 361.40625 373.097656 351.828125 370.832031 342.097656 370.304688 C 337.574219 370.078125 333.046875 370.304688 328.523438 370.53125 C 324.296875 370.757812 323.921875 373.625 324.148438 377.703125 C 324.222656 378.609375 324.296875 379.515625 324.523438 380.34375 C 325.957031 380.117188 327.769531 380.34375 328.898438 380.648438 C 332.59375 381.476562 335.988281 383.515625 338.78125 386.082031 C 339.308594 386.535156 339.835938 387.0625 340.363281 387.515625 C 342.25 388.195312 344.058594 388.949219 345.871094 389.707031 C 348.433594 389.933594 351.148438 389.707031 353.636719 390.308594 C 355.902344 390.839844 358.464844 391.96875 360.425781 390.761719 C 362.234375 389.628906 362.460938 387.0625 363.894531 385.476562 C 364.726562 384.574219 365.855469 384.121094 367.0625 383.742188 C 369.101562 383.136719 371.4375 382.910156 373.324219 383.894531 C 375.210938 384.875 376.492188 387.289062 375.511719 389.253906 C 374.757812 390.761719 372.945312 391.59375 372.492188 393.253906 C 371.4375 396.652344 376.867188 399.671875 375.433594 402.917969 C 374.90625 404.125 373.472656 404.804688 372.117188 404.726562 C 370.757812 404.726562 369.550781 404.125 368.34375 403.445312 C 365.101562 401.632812 362.234375 399.21875 358.84375 397.78125 C 358.539062 397.632812 358.164062 397.554688 357.863281 397.40625 C 362.085938 402.691406 362.3125 410.085938 362.3125 416.882812 C 362.3125 424.28125 362.386719 431.753906 362.386719 439.152344 C 362.386719 444.964844 362.460938 450.851562 363.820312 456.4375 C 364.5 459.304688 365.554688 462.097656 367.515625 464.289062 C 369.476562 466.476562 372.34375 467.988281 375.210938 467.683594 C 378.152344 467.382812 380.5625 465.34375 382.601562 463.308594 C 396.554688 449.417969 403.265625 429.1875 403.191406 409.484375 C 403.191406 404.578125 402.585938 399.292969 399.195312 395.820312 C 394.59375 390.914062 386.671875 391.214844 381.695312 386.988281 Z M 318.71875 313.613281 C 315.472656 313.914062 316.152344 321.011719 316.757812 323.050781 C 316.90625 323.503906 317.058594 323.957031 317.433594 324.257812 C 318.039062 324.785156 319.019531 324.558594 319.621094 324.03125 C 320.226562 323.503906 320.527344 322.746094 320.753906 321.992188 C 321.28125 320.105469 322.488281 313.234375 318.71875 313.613281 Z M 320.148438 344.714844 C 319.921875 343.355469 318.339844 339.203125 316.378906 340.261719 C 314.644531 341.167969 315.097656 346.675781 315.324219 348.261719 C 315.398438 348.941406 315.625 349.695312 316.078125 350.300781 C 316.53125 350.90625 317.359375 351.207031 317.960938 350.90625 C 318.265625 350.753906 318.492188 350.527344 318.71875 350.226562 C 319.921875 348.640625 320.453125 346.601562 320.148438 344.714844 Z M 314.796875 364.71875 C 313.816406 366.457031 313.816406 368.492188 313.964844 370.457031 C 314.117188 372.269531 314.417969 374.230469 315.625 375.589844 C 316.078125 376.117188 316.679688 376.570312 317.359375 376.644531 C 318.039062 376.644531 318.640625 376.269531 319.09375 375.742188 C 319.472656 375.210938 319.699219 374.53125 319.847656 373.851562 C 320.453125 371.058594 320.148438 368.117188 318.941406 365.550781 C 318.039062 363.4375 316.226562 362.152344 314.796875 364.71875 Z M 352.582031 425.335938 C 352.582031 425.335938 299.183594 433.867188 296.316406 433.113281 C 254.15625 423.296875 249.402344 423.976562 237.5625 430.847656 C 225.796875 437.714844 209.804688 458.324219 207.617188 461.042969 C 205.429688 463.761719 200.679688 469.269531 211.84375 469.574219 C 211.84375 469.574219 213.652344 476.140625 224.664062 469.574219 C 224.664062 469.574219 227.152344 473.421875 237.5625 469.269531 C 247.96875 465.117188 252.644531 462.097656 252.644531 462.097656 C 259.8125 465.421875 271.878906 473.347656 284.777344 468.441406 C 284.777344 468.441406 288.320312 465.949219 297.976562 466.78125 C 307.554688 467.609375 335.839844 473.121094 358.617188 468.667969 C 358.617188 468.742188 347.679688 451.984375 352.582031 425.335938 Z M 281.535156 161.65625 C 286.210938 159.84375 287.339844 154.9375 286.359375 150.40625 C 286.359375 150.257812 286.132812 150.332031 286.132812 150.40625 C 285.757812 154.410156 286.058594 159.84375 281.535156 161.65625 C 281.535156 161.65625 281.535156 161.730469 281.535156 161.65625 Z M 289 132.367188 C 289.152344 132.515625 289.378906 132.214844 289.226562 132.0625 C 287.71875 130.703125 286.660156 129.574219 286.210938 127.609375 C 285.757812 125.875 285.304688 123.988281 285.53125 122.175781 C 285.53125 122.097656 285.457031 122.097656 285.457031 122.175781 C 284.171875 125.949219 285.832031 130.101562 289 132.367188 Z M 284.171875 133.195312 C 284.476562 132.667969 284.851562 132.214844 285.230469 131.761719 C 285.605469 131.234375 286.132812 130.78125 286.738281 130.402344 C 286.8125 130.328125 286.738281 130.175781 286.660156 130.175781 C 285.984375 130.402344 285.457031 130.78125 284.925781 131.234375 C 284.398438 131.6875 284.171875 132.367188 283.945312 133.046875 C 283.871094 133.273438 284.097656 133.347656 284.171875 133.195312 Z M 291.867188 133.496094 C 291.789062 133.496094 291.789062 133.496094 291.867188 133.496094 C 298.878906 137.953125 306.046875 131.835938 311.777344 127.988281 C 311.929688 127.910156 311.777344 127.609375 311.628906 127.761719 C 305.746094 131.15625 299.257812 137.347656 291.867188 133.496094 Z M 338.628906 129.800781 C 344.738281 132.0625 355.070312 137.273438 360.578125 130.855469 C 360.804688 130.628906 360.5 130.253906 360.199219 130.402344 C 356.351562 132.820312 352.882812 133.722656 348.359375 132.820312 C 345.039062 132.140625 341.871094 130.78125 338.628906 129.648438 C 338.554688 129.648438 338.476562 129.800781 338.628906 129.800781 Z M 347 135.761719 C 346.851562 135.761719 346.851562 135.988281 347 135.988281 C 352.203125 135.6875 356.503906 140.59375 361.707031 138.632812 C 361.933594 138.554688 361.859375 138.179688 361.632812 138.253906 C 356.503906 140.066406 352.128906 135.308594 347 135.761719 Z M 359.21875 146.332031 C 356.429688 145.878906 353.941406 144.519531 352.507812 142.027344 C 352.429688 141.953125 352.355469 142.027344 352.355469 142.105469 C 353.335938 144.972656 355.976562 147.085938 359.144531 146.933594 C 359.445312 146.933594 359.597656 146.40625 359.21875 146.332031 Z M 279.648438 155.011719 C 281.308594 153.351562 282.363281 151.464844 282.4375 149.046875 C 282.664062 144.898438 279.722656 141.574219 281.609375 137.347656 C 281.609375 137.273438 281.535156 137.273438 281.535156 137.347656 C 280.628906 139.3125 280.777344 141.121094 281.15625 143.234375 C 281.984375 147.613281 282.289062 151.238281 279.496094 154.9375 C 279.421875 155.011719 279.574219 155.085938 279.648438 155.011719 Z M 356.203125 159.390625 C 357.03125 157.125 357.863281 154.9375 357.183594 152.519531 C 357.105469 152.144531 356.578125 152.21875 356.578125 152.597656 C 356.429688 154.859375 356.804688 157.203125 356.203125 159.390625 C 356.125 159.390625 356.203125 159.464844 356.203125 159.390625 Z M 289.679688 129.195312 C 293.828125 129.800781 298.351562 129.421875 302.046875 127.234375 C 302.199219 127.15625 302.125 126.855469 301.898438 126.929688 C 297.824219 128.441406 294.054688 129.347656 289.753906 128.816406 C 289.527344 128.816406 289.527344 129.195312 289.679688 129.195312 Z M 138.230469 262.660156 C 144.566406 267.640625 152.9375 276.546875 152.03125 281.003906 C 151.203125 285.457031 148.261719 341.46875 148.035156 347.207031 C 148.035156 347.207031 163.949219 360.417969 186.574219 345.921875 C 186.574219 345.921875 178.957031 291.269531 180.238281 284.171875 C 181.523438 277.078125 183.632812 268.925781 180.089844 261.828125 C 180.089844 261.828125 180.84375 254.882812 177.222656 247.257812 C 177.75 244.464844 177.148438 242.351562 175.1875 239.632812 C 172.847656 236.164062 169.078125 232.464844 165.003906 231.105469 C 165.003906 231.105469 174.660156 233.371094 177.070312 229.519531 C 179.863281 224.988281 178.128906 222.195312 172.09375 219.027344 C 166.058594 215.855469 156.859375 216.6875 156.859375 216.6875 C 156.859375 216.6875 166.589844 215.101562 163.722656 206.191406 C 163.722656 206.191406 149.015625 203.023438 140.113281 209.0625 C 131.214844 215.101562 121.710938 218.800781 130.082031 233.820312 C 130.082031 233.820312 125.859375 248.242188 134.308594 253.296875 C 134.308594 253.222656 131.96875 257.675781 138.230469 262.660156 Z M 275.953125 186.867188 C 279.496094 187.773438 281.984375 186.265625 283.644531 184.152344 C 283.644531 184.152344 286.4375 192.226562 293.300781 199.550781 C 293.527344 200.457031 295.183594 208.003906 295.261719 217.289062 C 296.84375 229.445312 293.675781 232.238281 293.675781 232.238281 C 293.675781 232.238281 288.246094 239.632812 296.695312 246.351562 C 305.820312 253.601562 320.453125 283.570312 321.128906 299.195312 C 321.128906 299.195312 333.652344 251.636719 343.152344 245.597656 C 351.828125 240.085938 351 236.238281 351 232.238281 C 351 232.238281 343.003906 224.3125 342.777344 215.402344 C 341.949219 206.117188 343.078125 199.625 343.832031 194.71875 C 343.757812 194.71875 343.605469 194.792969 343.53125 194.792969 C 347.074219 190.265625 349.113281 186.492188 349.113281 186.492188 C 349.113281 186.492188 357.183594 194.566406 364.347656 185.585938 C 371.511719 176.601562 368.875 161.730469 365.253906 159.996094 C 361.632812 158.183594 355.824219 159.542969 353.109375 161.804688 L 353.410156 157.804688 C 354.84375 151.765625 352.355469 145.351562 348.507812 140.441406 C 344.285156 135.007812 338.328125 130.78125 331.613281 128.96875 C 324.976562 127.082031 317.585938 127.609375 311.402344 130.703125 C 309.289062 131.761719 307.328125 133.046875 305.292969 134.253906 C 305.667969 134.175781 306.046875 134.027344 306.347656 133.875 C 308.308594 132.96875 309.890625 132.140625 311.023438 131.6875 C 313.136719 130.78125 315.246094 129.949219 317.433594 129.269531 C 318.566406 128.816406 319.699219 128.589844 320.828125 128.441406 C 323.015625 128.0625 325.277344 127.910156 327.617188 128.136719 C 327.691406 128.136719 327.691406 128.289062 327.617188 128.289062 C 326.335938 128.214844 325.128906 128.289062 323.921875 128.441406 C 325.128906 128.589844 326.410156 128.816406 327.617188 129.269531 C 327.691406 129.269531 327.617188 129.347656 327.617188 129.347656 C 321.355469 128.214844 317.058594 130.929688 311.703125 133.421875 C 308.835938 134.707031 305.894531 135.839844 302.800781 135.839844 C 302.199219 136.066406 301.671875 136.292969 301.066406 136.515625 C 296.84375 138.179688 289.074219 140.140625 287.492188 134.328125 C 285.757812 139.007812 286.8125 143.539062 288.09375 148.445312 C 288.09375 148.59375 287.945312 148.671875 287.867188 148.519531 C 286.4375 145.273438 285.230469 141.347656 285.605469 137.726562 C 285.230469 139.386719 285.304688 141.199219 285.679688 142.859375 C 286.285156 145.878906 287.492188 148.898438 287.566406 151.992188 C 287.644531 154.785156 286.664062 157.503906 285.457031 159.996094 C 284.625 161.65625 283.191406 163.242188 281.308594 163.242188 C 281.308594 163.242188 275.5 158.332031 270.523438 162.335938 C 265.617188 166.183594 266.976562 184.605469 275.953125 186.867188 Z M 287.945312 134.402344 C 289.378906 139.007812 294.808594 138.253906 300.238281 136.367188 C 299.558594 136.515625 298.878906 136.667969 298.203125 136.742188 C 294.507812 137.195312 290.433594 136.96875 287.945312 134.402344 Z M 287.945312 134.402344 "/>
<path style=" stroke:none;fill-rule:nonzero;fill:rgb(53.329468%,72.938538%,53.729248%);fill-opacity:1;" d="M 404.699219 379.890625 C 404.472656 378.457031 404.097656 376.949219 403.34375 375.742188 C 401.910156 373.550781 399.417969 372.496094 397.234375 371.058594 C 393.761719 368.644531 391.199219 365.097656 388.183594 362.152344 C 385.164062 359.132812 381.242188 356.566406 377.019531 357.019531 C 372.570312 357.472656 369.023438 361.171875 366.914062 365.097656 C 366.082031 366.683594 365.402344 368.265625 364.648438 369.929688 C 363.59375 372.417969 361.785156 372.34375 360.351562 374.609375 C 360.125 374.984375 359.898438 375.289062 359.671875 375.664062 L 359.898438 375.742188 C 359.898438 375.890625 359.898438 375.96875 359.972656 376.117188 C 360.050781 376.269531 360.199219 376.34375 360.273438 376.34375 L 360.125 377.097656 C 359.824219 377.023438 359.519531 376.796875 359.292969 376.496094 C 359.292969 376.417969 359.21875 376.34375 359.21875 376.34375 C 356.730469 379.742188 355.070312 380.722656 351.527344 383.136719 C 351.449219 379.363281 349.941406 378.15625 346.925781 376.269531 C 345.113281 375.136719 341.417969 375.363281 339.308594 375.289062 C 334.632812 375.136719 330.859375 374.609375 327.238281 373.703125 C 323.921875 372.796875 324.070312 371.285156 320.527344 369.625 C 319.546875 369.171875 315.097656 368.945312 314.039062 368.492188 C 311.550781 367.511719 308.910156 366.832031 306.5 367.738281 C 305.292969 368.191406 304.234375 369.023438 303.332031 370.003906 C 303.027344 370.378906 300.164062 371.664062 299.859375 372.042969 C 298.203125 374.304688 296.316406 374.757812 295.710938 377.550781 C 295.035156 380.722656 287.867188 386.15625 283.117188 386.007812 C 278.289062 385.929688 277.761719 386.835938 274.519531 383.289062 C 273.386719 382.082031 270.445312 382.761719 269.464844 381.402344 C 268.710938 380.421875 268.03125 379.4375 267.128906 378.535156 C 265.089844 376.417969 262.226562 374.757812 259.359375 375.4375 C 257.324219 375.890625 255.664062 377.476562 254.605469 379.289062 C 252.417969 382.988281 252.195312 387.667969 253.097656 391.894531 C 253.25 392.726562 253.476562 393.632812 253.703125 394.535156 C 252.570312 400.273438 254.53125 407.972656 255.738281 411.070312 C 260.488281 415.449219 279.121094 426.394531 324.976562 426.394531 C 325.355469 426.394531 332.972656 428.054688 333.273438 428.054688 C 373.246094 427.902344 394.292969 415.070312 404.773438 409.859375 C 404.699219 408.730469 407.714844 401.933594 407.792969 400.800781 C 408.167969 397.554688 407.640625 395.292969 408.621094 392.195312 C 409.601562 389.027344 405 386.234375 404.851562 382.910156 C 405 381.929688 404.851562 380.875 404.699219 379.890625 Z M 262.375 395.367188 L 260.792969 395.367188 L 260.792969 394.613281 L 262.375 394.613281 Z M 264.5625 384.875 L 264.414062 384.121094 C 264.863281 384.042969 265.316406 383.667969 265.542969 383.214844 L 266.222656 383.515625 C 265.921875 384.269531 265.316406 384.800781 264.5625 384.875 Z M 271.277344 400.800781 C 271.050781 400.046875 271.050781 399.21875 271.199219 398.460938 L 271.953125 398.613281 C 271.804688 399.21875 271.804688 399.898438 272.03125 400.574219 Z M 285.832031 407.671875 L 283.71875 407.671875 L 283.71875 406.917969 L 285.832031 406.917969 Z M 293.902344 400.800781 C 293.300781 400.199219 292.769531 399.519531 292.546875 398.6875 L 293.300781 398.460938 C 293.527344 399.140625 293.902344 399.746094 294.429688 400.273438 Z M 303.558594 407.066406 L 303.332031 406.3125 L 304.765625 405.9375 L 304.988281 406.691406 Z M 308.007812 387.214844 L 307.78125 386.460938 C 308.382812 386.308594 308.835938 385.855469 309.136719 385.328125 L 309.816406 385.703125 C 309.441406 386.460938 308.761719 386.988281 308.007812 387.214844 Z M 311.097656 414.011719 L 309.136719 413.105469 L 309.441406 412.429688 L 311.402344 413.332031 Z M 310.34375 378.761719 L 310.722656 378.082031 L 312.53125 378.988281 L 312.15625 379.664062 Z M 312.53125 396.425781 L 312.457031 395.667969 L 314.039062 395.519531 L 314.117188 396.273438 Z M 322.414062 395.292969 L 321.660156 395.140625 L 322.035156 393.554688 L 322.789062 393.707031 Z M 325.203125 382.082031 L 325.128906 381.328125 C 326.183594 381.175781 327.164062 382.007812 327.316406 382.988281 L 326.5625 383.136719 C 326.484375 382.535156 325.808594 382.007812 325.203125 382.082031 Z M 327.84375 404.125 C 327.617188 403.820312 327.238281 403.59375 326.863281 403.519531 L 327.011719 402.765625 C 327.617188 402.839844 328.144531 403.21875 328.523438 403.671875 Z M 336.214844 415.144531 L 335.535156 415.449219 C 335.234375 414.769531 335.386719 414.011719 335.839844 413.410156 L 336.441406 413.863281 C 336.140625 414.238281 336.0625 414.691406 336.214844 415.144531 Z M 340.664062 406.238281 C 340.136719 406.011719 339.457031 405.859375 338.855469 405.9375 L 338.855469 405.179688 C 339.609375 405.179688 340.289062 405.257812 340.96875 405.558594 Z M 347.753906 401.027344 L 347.074219 400.726562 L 347.832031 398.914062 L 348.507812 399.21875 Z M 350.921875 413.785156 L 350.167969 413.558594 C 350.46875 412.804688 350.847656 412.125 351.375 411.523438 L 351.980469 412.050781 C 351.527344 412.503906 351.148438 413.105469 350.921875 413.785156 Z M 353.410156 392.195312 L 351.601562 392.195312 L 351.601562 391.441406 L 353.410156 391.441406 Z M 356.351562 405.9375 C 355.902344 405.40625 355.371094 404.953125 354.695312 404.652344 L 354.996094 403.972656 C 355.75 404.351562 356.429688 404.804688 356.957031 405.484375 Z M 359.070312 415.976562 C 358.617188 415.671875 358.164062 415.523438 357.636719 415.523438 L 357.710938 414.769531 C 358.3125 414.84375 358.917969 415.070312 359.445312 415.371094 Z M 368.722656 398.234375 C 368.648438 397.859375 368.421875 397.480469 368.121094 397.253906 L 368.570312 396.652344 C 369.023438 397.027344 369.402344 397.554688 369.476562 398.160156 Z M 369.855469 386.6875 L 369.25 386.234375 C 369.703125 385.628906 370.382812 385.253906 371.136719 385.101562 L 371.285156 385.855469 C 370.757812 385.855469 370.230469 386.234375 369.855469 386.6875 Z M 374.378906 376.191406 C 374.003906 376.117188 373.625 376.191406 373.246094 376.269531 L 372.945312 375.589844 C 373.472656 375.363281 374.003906 375.363281 374.53125 375.4375 Z M 376.792969 366.53125 C 376.640625 366.003906 376.191406 365.625 375.738281 365.472656 L 375.886719 364.71875 C 376.640625 364.945312 377.320312 365.550781 377.546875 366.304688 Z M 389.464844 377.175781 L 389.164062 376.496094 C 389.765625 376.269531 390.367188 375.890625 390.898438 375.4375 L 391.425781 375.96875 C 390.898438 376.496094 390.21875 376.871094 389.464844 377.175781 Z M 258.832031 231.480469 C 258.453125 232.160156 257.925781 232.839844 257.246094 233.21875 C 256.34375 233.671875 255.285156 233.59375 254.304688 233.519531 C 251.214844 233.292969 248.121094 233.144531 245.027344 233.671875 C 241.9375 234.199219 238.917969 235.332031 236.65625 237.371094 C 232.132812 231.933594 230.925781 224.460938 227.453125 218.273438 C 227.679688 218.121094 227.832031 218.046875 228.058594 217.894531 C 228.511719 217.59375 228.886719 217.367188 229.265625 217.0625 C 228.964844 216.308594 228.511719 215.628906 228.058594 215.027344 C 227.453125 215.402344 226.777344 215.703125 226.171875 216.082031 C 225.871094 215.628906 225.570312 215.175781 225.265625 214.800781 C 225.71875 214.574219 226.097656 214.421875 226.550781 214.195312 C 226.777344 214.121094 227.003906 213.96875 227.152344 213.894531 C 226.550781 213.136719 225.945312 212.382812 225.417969 211.554688 C 224.890625 211.78125 224.363281 212.082031 223.757812 212.457031 C 223.382812 211.855469 223.003906 211.25 222.628906 210.648438 C 223.230469 210.34375 223.835938 209.96875 224.4375 209.664062 C 224.0625 208.761719 223.835938 207.777344 223.910156 206.871094 C 223.082031 207.324219 222.175781 207.855469 221.34375 208.382812 C 219.460938 204.457031 220.0625 199.550781 221.269531 195.171875 C 222.628906 190.265625 224.511719 185.507812 226.851562 180.980469 C 227.078125 180.601562 227.378906 180.074219 227.832031 180.148438 C 228.132812 180.148438 228.433594 180.453125 228.660156 180.679688 C 229.945312 182.035156 231.601562 183.167969 233.488281 183.394531 C 235.375 183.621094 237.261719 183.09375 238.996094 182.488281 C 240.804688 181.960938 242.691406 181.433594 244.574219 181.886719 C 246.386719 182.339844 248.121094 184 247.894531 185.886719 C 247.667969 187.625 246.085938 188.753906 244.652344 189.738281 C 241.484375 191.851562 238.542969 194.339844 236.128906 197.210938 C 234.46875 199.171875 232.960938 201.589844 232.960938 204.15625 C 232.960938 207.855469 235.902344 210.875 239.070312 212.609375 C 242.3125 214.347656 245.933594 215.25 249.101562 216.988281 C 252.34375 218.722656 255.058594 221.441406 256.945312 224.613281 C 258.078125 226.878906 259.960938 229.21875 258.832031 231.480469 Z M 258.832031 231.480469 "/>
<path style=" stroke:none;fill-rule:nonzero;fill:rgb(82.749939%,36.079407%,14.898682%);fill-opacity:1;" d="M 178.808594 255.941406 C 178.730469 256.621094 178.582031 257.375 178.050781 257.902344 C 177.523438 258.507812 176.847656 258.734375 176.242188 258.960938 L 174.28125 259.640625 C 172.921875 260.09375 171.339844 260.695312 169.757812 260.695312 C 169.453125 260.695312 169.152344 260.695312 168.851562 260.621094 C 167.265625 260.394531 165.304688 258.734375 164.855469 256.996094 C 163.496094 258.203125 162.214844 259.109375 161.460938 259.5625 L 161.082031 258.882812 C 162.816406 257.828125 166.890625 254.882812 168.398438 250.503906 L 169.152344 250.730469 C 168.851562 251.710938 168.324219 252.695312 167.796875 253.523438 C 169.152344 253.222656 170.433594 252.390625 171.265625 251.261719 L 171.867188 251.710938 C 170.8125 253.222656 169.078125 254.203125 167.191406 254.355469 C 166.664062 255.035156 166.136719 255.714844 165.53125 256.242188 C 165.683594 257.828125 167.570312 259.5625 169 259.789062 C 170.738281 260.015625 172.472656 259.414062 174.054688 258.882812 L 176.015625 258.203125 C 176.542969 258.054688 177.148438 257.828125 177.523438 257.375 C 177.902344 256.996094 177.976562 256.394531 178.128906 255.789062 C 178.808594 250.730469 176.46875 243.863281 172.320312 242.125 C 170.433594 241.371094 168.398438 241.144531 166.511719 241.523438 C 165.304688 241.75 164.25 242.351562 163.269531 242.957031 C 158.292969 245.898438 154.144531 250.050781 150.070312 254.054688 L 149.542969 253.523438 C 153.617188 249.523438 157.839844 245.296875 162.890625 242.277344 C 163.949219 241.671875 165.078125 241.070312 166.363281 240.765625 C 168.398438 240.3125 170.585938 240.539062 172.621094 241.371094 C 177.148438 243.332031 179.5625 250.582031 178.808594 255.941406 Z M 165.003906 231.558594 L 165.078125 230.800781 C 161.382812 230.273438 156.179688 231.40625 152.484375 233.59375 C 149.089844 235.558594 146.148438 238.277344 143.28125 240.917969 L 138.230469 245.523438 L 138.757812 246.050781 L 143.808594 241.445312 C 146.601562 238.878906 149.542969 236.164062 152.859375 234.273438 C 155.878906 232.464844 161.007812 230.953125 165.003906 231.558594 Z M 145.394531 220.386719 C 147.054688 219.554688 148.9375 219.101562 150.75 218.648438 C 151.730469 218.421875 152.785156 218.121094 153.839844 217.820312 C 154.898438 217.515625 155.953125 217.289062 156.933594 216.988281 L 156.785156 216.234375 C 155.804688 216.460938 154.746094 216.761719 153.691406 217.0625 C 152.636719 217.367188 151.578125 217.59375 150.597656 217.894531 C 148.789062 218.347656 146.902344 218.800781 145.09375 219.628906 C 140.71875 221.667969 137.699219 225.667969 134.984375 229.140625 L 130.234375 235.257812 L 130.835938 235.710938 L 135.589844 229.59375 C 138.230469 226.199219 141.246094 222.347656 145.394531 220.386719 Z M 152.105469 279.039062 L 151.429688 279.417969 C 152.9375 282.058594 156.105469 284.777344 159.121094 284.929688 L 159.121094 284.171875 C 156.480469 284.023438 153.539062 281.378906 152.105469 279.039062 Z M 172.09375 285.457031 L 171.867188 286.136719 C 172.546875 286.363281 173.300781 286.511719 174.054688 286.511719 C 175.714844 286.511719 177.449219 285.910156 178.65625 284.703125 L 178.128906 284.171875 C 176.542969 285.683594 174.128906 286.210938 172.09375 285.457031 Z M 174.207031 288.777344 L 174.054688 289.53125 C 174.207031 289.53125 174.433594 289.609375 174.582031 289.609375 C 175.335938 289.609375 176.089844 289.382812 176.695312 288.929688 L 176.242188 288.324219 C 175.714844 288.703125 174.960938 288.929688 174.207031 288.777344 Z M 142.300781 212.910156 C 142.152344 212.15625 142 211.328125 142 210.496094 L 141.246094 210.496094 C 141.246094 211.328125 141.320312 212.234375 141.546875 213.0625 Z M 143.960938 213.363281 L 143.507812 209.515625 L 142.753906 209.589844 L 143.207031 213.441406 Z M 148.410156 224.460938 L 149.089844 224.160156 C 148.714844 223.253906 148.488281 222.347656 148.410156 221.441406 L 147.65625 221.515625 C 147.734375 222.5 148.035156 223.480469 148.410156 224.460938 Z M 146.148438 225.441406 L 146.828125 225.066406 C 146.449219 224.386719 146.074219 223.707031 145.921875 222.953125 L 145.167969 223.179688 C 145.320312 224.007812 145.695312 224.761719 146.148438 225.441406 Z M 163.269531 222.121094 C 162.96875 221.292969 162.890625 220.460938 162.890625 219.628906 L 162.136719 219.628906 C 162.136719 220.535156 162.289062 221.441406 162.589844 222.347656 Z M 156.933594 235.710938 C 157.539062 236.3125 158.066406 237.066406 158.441406 237.824219 L 159.121094 237.445312 C 158.667969 236.613281 158.140625 235.785156 157.460938 235.105469 Z M 158.894531 235.332031 L 158.292969 235.859375 L 159.046875 236.691406 L 159.648438 236.164062 Z M 167.039062 244.238281 C 167.492188 244.996094 167.796875 245.898438 167.945312 246.804688 L 168.699219 246.730469 C 168.625 245.671875 168.246094 244.691406 167.71875 243.863281 Z M 169.453125 245.070312 L 169 243.785156 L 168.246094 244.011719 L 168.699219 245.296875 Z M 156.632812 209.96875 L 156.785156 210.042969 C 157.007812 210.117188 157.234375 210.195312 157.613281 210.195312 C 158.519531 210.195312 159.648438 209.816406 160.480469 209.363281 C 161.535156 208.835938 162.136719 208.082031 162.214844 207.324219 L 161.460938 207.25 C 161.382812 207.703125 160.929688 208.308594 160.101562 208.683594 C 159.046875 209.289062 157.839844 209.515625 157.234375 209.363281 C 156.785156 208.308594 156.785156 207.097656 156.785156 205.890625 L 156.027344 205.890625 C 156.027344 207.25 156.027344 208.609375 156.632812 209.890625 Z M 171.941406 226.046875 C 172.019531 226.121094 173.679688 227.105469 175.1875 227.105469 C 175.640625 227.105469 176.015625 227.027344 176.394531 226.800781 C 177.148438 226.425781 177.601562 225.519531 177.675781 224.3125 L 176.921875 224.234375 C 176.847656 225.214844 176.542969 225.820312 176.015625 226.121094 C 174.960938 226.726562 173 225.746094 172.320312 225.367188 C 171.566406 224.839844 171.566406 221.515625 171.71875 219.707031 L 170.960938 219.628906 C 171.039062 219.78125 170.511719 225.066406 171.941406 226.046875 Z M 227.304688 466.929688 C 226.023438 468.0625 224.816406 469.042969 224.589844 469.195312 L 224.890625 469.875 C 225.191406 469.722656 225.945312 469.121094 227.832031 467.535156 C 232.207031 463.835938 241.332031 456.058594 245.179688 455.230469 L 245.027344 454.476562 C 240.878906 455.378906 232.054688 462.929688 227.304688 466.929688 Z M 252.34375 458.777344 C 251.0625 461.644531 252.34375 462.402344 252.496094 462.476562 L 252.871094 461.796875 C 252.871094 461.796875 252.042969 461.269531 253.023438 459.078125 Z M 241.859375 465.421875 L 241.183594 465.796875 C 241.484375 466.328125 241.9375 466.78125 242.386719 467.082031 L 242.839844 466.476562 C 242.464844 466.175781 242.085938 465.796875 241.859375 465.421875 Z M 227.605469 458.25 L 227.90625 457.570312 C 226.777344 457.042969 225.71875 456.210938 224.890625 455.304688 L 224.285156 455.832031 C 225.191406 456.816406 226.398438 457.722656 227.605469 458.25 Z M 227.832031 456.058594 L 228.285156 455.457031 L 227.152344 454.625 L 226.699219 455.230469 Z M 235.75 462.023438 L 236.355469 462.550781 L 236.808594 461.949219 L 236.203125 461.417969 Z M 222.929688 451.304688 L 223.382812 450.699219 C 222.476562 450.019531 221.722656 449.191406 221.042969 448.285156 L 220.441406 448.738281 C 221.121094 449.644531 221.949219 450.550781 222.929688 451.304688 Z M 245.707031 432.886719 C 244.878906 431.601562 244.652344 430.546875 245.027344 429.789062 L 244.351562 429.488281 C 243.898438 430.546875 244.125 431.828125 245.105469 433.339844 C 245.179688 433.488281 245.332031 433.640625 245.40625 433.792969 C 245.933594 434.621094 246.535156 435.527344 246.613281 436.433594 L 247.367188 436.433594 C 247.292969 435.300781 246.6875 434.320312 246.085938 433.414062 C 245.933594 433.1875 245.859375 433.035156 245.707031 432.886719 Z M 247.441406 441.039062 C 247.742188 442.246094 248.347656 443.378906 249.175781 444.359375 L 249.78125 443.832031 C 249.027344 443 248.496094 441.945312 248.195312 440.8125 Z M 212.898438 462.324219 C 213.273438 461.871094 213.652344 461.496094 214.03125 461.117188 C 214.179688 461.042969 214.332031 460.890625 214.40625 460.664062 C 214.480469 460.363281 214.332031 460.0625 214.253906 459.984375 C 213.652344 458.929688 212.671875 458.023438 211.539062 457.496094 L 211.238281 458.171875 C 212.21875 458.625 213.050781 459.457031 213.578125 460.363281 C 213.578125 460.4375 213.652344 460.4375 213.652344 460.4375 C 213.652344 460.4375 213.578125 460.515625 213.578125 460.515625 C 213.050781 460.890625 212.671875 461.34375 212.292969 461.796875 C 211.992188 462.175781 211.691406 462.550781 211.3125 462.855469 C 210.257812 463.761719 208.675781 463.988281 207.390625 463.382812 L 207.089844 464.0625 C 207.617188 464.289062 208.296875 464.4375 208.902344 464.4375 C 209.957031 464.4375 211.011719 464.0625 211.84375 463.382812 C 212.21875 463.082031 212.519531 462.703125 212.898438 462.324219 Z M 217.5 463.082031 C 223.683594 455.757812 233.261719 444.886719 234.847656 443.679688 L 234.394531 443.074219 C 231.90625 444.886719 212.746094 467.007812 211.617188 469.347656 L 212.292969 469.722656 C 212.597656 469.121094 214.480469 466.703125 217.046875 463.683594 C 217.5 464.136719 217.875 464.515625 218.179688 465.042969 C 218.402344 465.496094 218.554688 466.101562 218.253906 466.628906 C 218.101562 466.929688 217.800781 467.15625 217.5 467.382812 C 216.820312 467.910156 216.140625 468.441406 215.386719 468.742188 C 214.558594 469.042969 213.804688 469.042969 213.199219 468.742188 L 212.824219 469.421875 C 213.199219 469.648438 213.726562 469.722656 214.253906 469.722656 C 214.707031 469.722656 215.234375 469.648438 215.6875 469.421875 C 216.519531 469.121094 217.273438 468.515625 217.953125 467.988281 C 218.328125 467.683594 218.707031 467.457031 218.933594 467.007812 C 219.308594 466.328125 219.234375 465.496094 218.855469 464.742188 C 218.480469 464.0625 217.953125 463.609375 217.5 463.082031 Z M 231.601562 464.515625 L 231.226562 465.195312 C 231.90625 465.648438 232.355469 466.402344 232.433594 467.15625 C 231.90625 467.382812 231.527344 467.683594 231.074219 468.0625 C 230.847656 468.214844 230.546875 468.441406 230.320312 468.589844 C 229.71875 468.96875 228.8125 469.269531 228.132812 468.894531 L 227.679688 469.496094 C 227.984375 469.722656 228.433594 469.800781 228.8125 469.800781 C 229.414062 469.800781 230.019531 469.574219 230.621094 469.195312 C 230.925781 469.042969 231.152344 468.816406 231.453125 468.589844 C 231.90625 468.214844 232.355469 467.910156 232.886719 467.683594 L 233.113281 467.609375 L 233.113281 467.308594 C 233.1875 466.25 232.582031 465.195312 231.601562 464.515625 Z M 357.710938 178.714844 C 358.539062 177.582031 359.144531 175.996094 358.84375 174.5625 C 358.691406 174.035156 358.390625 173.507812 358.164062 172.976562 C 357.484375 171.46875 357.410156 170.183594 358.011719 168.675781 C 358.089844 168.601562 357.863281 168.449219 357.785156 168.601562 C 357.257812 169.734375 356.957031 170.941406 357.257812 172.148438 C 357.410156 172.902344 357.785156 173.507812 358.011719 174.1875 C 358.464844 175.773438 357.636719 177.054688 357.183594 178.414062 C 357.109375 178.867188 357.558594 178.941406 357.710938 178.714844 Z M 313.511719 179.320312 C 314.039062 180.453125 315.019531 181.359375 316.226562 181.660156 C 317.433594 181.960938 319.699219 182.1875 319.773438 180.980469 C 320.148438 170.941406 317.8125 165.808594 317.8125 165.808594 C 317.886719 168.222656 316.226562 177.433594 313.511719 179.320312 Z M 323.621094 171.847656 C 324.148438 167.316406 325.808594 163.242188 328.21875 159.390625 C 328.296875 159.316406 328.144531 159.164062 328.070312 159.238281 C 324.976562 162.789062 323.542969 167.164062 323.46875 171.847656 C 323.46875 171.921875 323.621094 171.921875 323.621094 171.847656 Z M 323.542969 162.335938 C 323.542969 161.957031 323.621094 161.578125 323.769531 161.277344 C 323.847656 160.976562 324.070312 160.671875 324.148438 160.371094 C 324.148438 160.222656 323.921875 159.996094 323.769531 160.144531 C 323.316406 160.671875 323.394531 161.730469 323.542969 162.335938 C 323.46875 162.410156 323.542969 162.410156 323.542969 162.335938 Z M 354.089844 170.410156 C 355.824219 166.5625 359.292969 164.449219 363.292969 163.617188 C 363.519531 163.542969 363.441406 163.242188 363.214844 163.242188 C 358.917969 163.316406 355.371094 166.488281 353.863281 170.335938 C 353.863281 170.488281 354.089844 170.5625 354.089844 170.410156 Z M 364.347656 176.828125 C 363.140625 179.242188 361.332031 181.359375 358.617188 182.035156 C 356.351562 182.640625 354.089844 181.734375 351.902344 182.488281 C 351.828125 182.488281 351.828125 182.640625 351.980469 182.640625 C 354.84375 181.734375 357.558594 183.019531 360.425781 181.660156 C 362.460938 180.679688 364.046875 179.09375 364.875 177.054688 C 364.875 176.753906 364.421875 176.527344 364.347656 176.828125 Z M 271.351562 164.75 C 274.820312 164.976562 277.082031 167.84375 278.441406 170.789062 C 278.441406 170.789062 278.515625 170.789062 278.515625 170.789062 C 277.386719 167.542969 275.199219 164.296875 271.351562 164.597656 C 271.277344 164.597656 271.277344 164.75 271.351562 164.75 Z M 278.140625 181.960938 C 278.441406 182.035156 278.59375 181.585938 278.289062 181.507812 C 276.40625 180.828125 274.140625 179.921875 273.085938 178.1875 C 271.953125 176.375 271.503906 174.1875 271.425781 172.148438 C 271.425781 172.074219 271.277344 172.074219 271.277344 172.148438 C 271.277344 174.414062 271.652344 176.980469 272.933594 178.867188 C 273.992188 180.527344 276.101562 181.433594 278.140625 181.960938 Z M 275.121094 174.714844 C 274.59375 173.429688 274.746094 171.921875 274.292969 170.5625 C 274.292969 170.488281 274.140625 170.488281 274.140625 170.636719 C 274.519531 172.222656 274.140625 174.035156 274.894531 175.546875 C 275.648438 176.980469 277.535156 177.960938 278.894531 178.640625 C 279.042969 178.714844 279.195312 178.566406 279.042969 178.414062 C 277.761719 177.207031 275.800781 176.527344 275.121094 174.714844 Z M 345.644531 158.710938 C 346.925781 161.277344 347.605469 163.84375 348.433594 166.488281 C 348.507812 166.710938 348.8125 166.636719 348.8125 166.410156 C 348.8125 163.617188 347.527344 160.75 345.792969 158.558594 C 345.644531 158.558594 345.566406 158.636719 345.644531 158.710938 Z M 310.570312 193.738281 C 310.496094 193.664062 310.34375 193.8125 310.421875 193.890625 C 313.210938 196.984375 319.09375 198.265625 322.261719 195.019531 C 322.488281 194.792969 322.1875 194.492188 321.960938 194.71875 C 318.867188 197.664062 313.210938 196.605469 310.570312 193.738281 Z M 324.296875 198.492188 C 324.449219 198.570312 324.675781 198.417969 324.601562 198.191406 C 324.070312 197.285156 323.46875 196.605469 323.167969 195.550781 C 322.941406 194.492188 322.867188 193.359375 323.089844 192.304688 C 323.089844 192.152344 322.941406 192.078125 322.867188 192.226562 C 321.882812 194.191406 322.109375 197.359375 324.296875 198.492188 Z M 313.738281 171.847656 C 313.738281 171.921875 313.890625 171.921875 313.890625 171.847656 C 313.816406 167.164062 312.457031 162.789062 309.289062 159.238281 C 309.214844 159.164062 309.0625 159.238281 309.136719 159.390625 C 311.476562 163.164062 313.210938 167.316406 313.738281 171.847656 Z M 313.738281 162.335938 C 313.738281 162.410156 313.816406 162.410156 313.738281 162.335938 C 313.890625 161.65625 313.964844 160.671875 313.511719 160.070312 C 313.363281 159.917969 313.136719 160.070312 313.136719 160.296875 C 313.210938 160.597656 313.4375 160.898438 313.511719 161.203125 C 313.664062 161.65625 313.738281 162.03125 313.738281 162.335938 Z M 288.925781 166.488281 C 289.753906 163.769531 290.433594 161.277344 291.714844 158.710938 C 291.714844 158.636719 291.640625 158.558594 291.640625 158.636719 C 289.90625 160.824219 288.625 163.691406 288.625 166.488281 C 288.546875 166.636719 288.847656 166.710938 288.925781 166.488281 Z M 402.664062 392.121094 C 400.175781 384.347656 392.554688 378.003906 384.484375 378.609375 C 383.203125 378.683594 381.921875 378.988281 380.789062 379.589844 C 377.847656 381.175781 376.414062 384.574219 375.285156 387.742188 C 371.664062 397.480469 367.441406 407.21875 364.273438 417.109375 C 384.789062 413.410156 397.683594 407.519531 403.417969 404.425781 C 404.019531 400.273438 403.945312 396.046875 402.664062 392.121094 Z M 296.769531 376.117188 C 295.335938 374.757812 293.601562 373.550781 291.640625 373.476562 C 290.054688 373.398438 288.625 373.929688 287.191406 374.609375 C 282.4375 376.722656 278.0625 379.4375 274.066406 382.835938 C 273.386719 383.441406 272.707031 384.042969 272.40625 384.875 C 272.40625 384.949219 272.332031 385.027344 272.332031 385.175781 C 272.40625 385.253906 272.484375 385.402344 272.558594 385.476562 C 275.800781 389.027344 280.554688 391.214844 285.304688 391.292969 C 290.054688 391.367188 295.335938 389.707031 299.257812 392.347656 C 301.898438 394.085938 303.558594 397.554688 305.820312 399.519531 C 305.59375 397.480469 305.292969 395.441406 304.839844 393.40625 C 303.707031 386.988281 301.445312 380.570312 296.769531 376.117188 Z M 315.472656 210.648438 C 305.59375 209.742188 298.351562 204.835938 293.300781 199.476562 C 293.375 199.929688 294.128906 202.722656 294.429688 206.117188 C 297.675781 209.136719 300.617188 211.476562 304.386719 213.894531 C 306.949219 215.554688 309.742188 217.0625 312.683594 217.742188 C 318.414062 219.101562 324.449219 217.515625 329.804688 215.027344 C 334.707031 212.761719 339.082031 209.363281 342.550781 205.289062 C 342.851562 200.53125 343.53125 196.683594 343.832031 194.566406 C 343.757812 194.566406 343.605469 194.644531 343.53125 194.644531 C 337.800781 202.117188 327.769531 211.78125 315.472656 210.648438 Z M 315.472656 210.648438 "/>
<path style=" stroke:none;fill-rule:nonzero;fill:rgb(52.549744%,21.179199%,10.5896%);fill-opacity:1;" d="M 389.164062 399.898438 C 390.820312 400.574219 392.253906 402.011719 392.859375 403.746094 L 392.105469 403.972656 C 391.574219 402.464844 390.367188 401.179688 388.859375 400.574219 Z M 359.746094 410.992188 C 358.238281 412.050781 356.277344 412.578125 354.46875 412.429688 L 354.390625 413.183594 C 354.617188 413.183594 354.84375 413.183594 355.144531 413.183594 C 356.957031 413.183594 358.765625 412.652344 360.199219 411.597656 C 361.859375 410.464844 363.140625 408.652344 363.667969 406.691406 L 362.914062 406.464844 C 362.460938 408.277344 361.332031 409.9375 359.746094 410.992188 Z M 387.425781 405.632812 C 388.183594 406.011719 388.859375 406.464844 389.464844 407.066406 L 389.992188 406.539062 C 389.3125 405.9375 388.558594 405.40625 387.730469 404.953125 Z M 364.574219 386.082031 C 363.519531 387.59375 362.386719 389.175781 361.859375 390.988281 C 361.480469 392.5 361.480469 394.007812 361.558594 395.519531 C 361.558594 395.972656 361.558594 396.425781 361.558594 396.878906 C 361.558594 399.445312 361.179688 402.011719 360.425781 404.425781 L 361.179688 404.652344 C 362.011719 402.160156 362.386719 399.519531 362.386719 396.878906 C 362.386719 396.425781 362.386719 395.972656 362.386719 395.519531 C 362.3125 394.085938 362.3125 392.574219 362.6875 391.214844 C 363.140625 389.480469 364.195312 387.96875 365.253906 386.535156 C 365.480469 386.234375 365.707031 385.929688 365.933594 385.554688 C 370.457031 379.0625 371.964844 371.664062 369.929688 365.699219 L 369.175781 365.925781 C 371.136719 371.664062 369.628906 378.761719 365.253906 385.101562 C 365.027344 385.476562 364.800781 385.78125 364.574219 386.082031 Z M 382.601562 373.550781 C 382.601562 373.476562 382.75 373.324219 382.976562 373.171875 C 384.109375 372.496094 385.316406 371.816406 386.597656 371.4375 C 387.957031 371.058594 389.3125 371.058594 390.367188 371.511719 L 390.671875 370.832031 C 389.464844 370.304688 387.878906 370.230469 386.371094 370.683594 C 385.015625 371.058594 383.730469 371.816406 382.601562 372.570312 C 382.296875 372.796875 381.921875 373.097656 381.921875 373.550781 C 381.921875 373.777344 381.996094 374.003906 382.148438 374.15625 Z M 307.78125 157.503906 C 310.042969 156.898438 310.570312 154.03125 310.570312 154.03125 C 310.570312 154.03125 297.75 152.898438 293.976562 153.652344 C 290.207031 154.410156 289.527344 157.804688 289.527344 157.804688 C 291.640625 157.503906 305.519531 158.105469 307.78125 157.503906 Z M 394.515625 398.539062 L 395.273438 398.3125 C 394.667969 396.574219 393.460938 395.066406 391.878906 394.160156 L 391.5 394.839844 C 392.859375 395.59375 393.988281 396.953125 394.515625 398.539062 Z M 292.769531 171.167969 C 294.429688 171.316406 302.5 170.410156 305.519531 170.636719 C 308.535156 170.863281 310.570312 172.527344 311.023438 172.753906 C 311.023438 172.753906 309.742188 169.882812 306.648438 168.675781 C 303.558594 167.46875 289.605469 168.675781 289.605469 168.675781 C 289.605469 168.675781 291.113281 171.015625 292.769531 171.167969 Z M 364.726562 369.929688 C 363.667969 372.417969 362.6875 374.984375 361.253906 377.324219 C 358.617188 381.554688 354.84375 384.722656 350.847656 387.59375 C 350.773438 383.816406 350.019531 379.96875 347 378.003906 C 345.191406 376.871094 342.929688 376.644531 340.742188 376.417969 C 332.59375 375.515625 324.675781 373.324219 317.285156 369.851562 C 316.226562 369.398438 315.171875 368.871094 314.039062 368.417969 C 328.898438 366.910156 347.605469 367.4375 364.726562 369.929688 Z M 327.464844 372.871094 L 327.542969 373.625 C 337.949219 372.644531 348.359375 373.476562 358.464844 376.191406 L 358.691406 375.4375 C 348.433594 372.722656 337.949219 371.890625 327.464844 372.871094 Z M 330.40625 390.007812 C 331.085938 389.480469 331.765625 388.875 332.445312 388.195312 C 333.953125 386.6875 335.234375 384.949219 336.0625 382.988281 L 335.386719 382.683594 C 334.554688 384.496094 333.347656 386.234375 331.917969 387.667969 C 331.3125 388.273438 330.632812 388.875 329.953125 389.402344 C 329.277344 390.007812 328.523438 390.613281 327.84375 391.214844 C 326.410156 392.574219 325.277344 394.160156 324.449219 395.972656 L 325.128906 396.273438 C 325.957031 394.613281 327.011719 393.027344 328.371094 391.742188 C 329.050781 391.214844 329.730469 390.613281 330.40625 390.007812 Z M 328.296875 407.519531 C 329.277344 405.03125 330.332031 402.539062 332.066406 400.5 C 334.101562 398.085938 336.894531 396.574219 339.535156 395.066406 L 346.019531 391.441406 C 347.90625 390.386719 349.792969 389.253906 350.394531 387.214844 L 349.640625 386.988281 C 349.113281 388.722656 347.378906 389.78125 345.644531 390.761719 L 339.15625 394.386719 C 336.515625 395.820312 333.574219 397.480469 331.464844 399.972656 C 329.652344 402.085938 328.597656 404.726562 327.617188 407.21875 C 326.183594 410.84375 324.523438 414.917969 324.449219 419.070312 L 325.203125 419.070312 C 325.203125 415.070312 326.863281 411.070312 328.296875 407.519531 Z M 351.148438 397.179688 C 348.886719 397.105469 346.625 397.179688 344.359375 397.480469 C 343.757812 397.554688 343.003906 397.707031 342.703125 398.386719 L 343.378906 398.6875 C 343.53125 398.386719 344.058594 398.234375 344.4375 398.234375 C 346.625 397.933594 348.886719 397.859375 351.074219 397.933594 Z M 320.980469 386.6875 C 321.355469 386.988281 321.886719 387.140625 322.414062 387.140625 C 322.867188 387.140625 323.316406 386.988281 323.621094 386.6875 L 323.089844 386.15625 C 322.640625 386.535156 321.882812 386.460938 321.433594 386.082031 C 320.902344 385.703125 320.527344 385.027344 320.148438 384.347656 C 318.792969 381.554688 317.285156 378.382812 317.511719 374.984375 L 316.757812 374.984375 C 316.605469 378.535156 318.113281 381.855469 319.546875 384.722656 C 319.921875 385.476562 320.300781 386.234375 320.980469 386.6875 Z M 306.273438 398.386719 L 305.59375 398.6875 C 307.480469 402.691406 311.402344 405.632812 315.777344 406.3125 C 316.679688 406.464844 317.660156 406.539062 318.566406 406.539062 C 319.472656 406.613281 320.375 406.613281 321.28125 406.765625 C 322.714844 406.992188 324.675781 407.597656 325.730469 409.183594 L 326.335938 408.730469 C 325.128906 406.917969 322.941406 406.238281 321.355469 406.011719 C 320.453125 405.859375 319.472656 405.785156 318.566406 405.785156 C 317.660156 405.710938 316.757812 405.710938 315.851562 405.558594 C 311.777344 404.953125 308.082031 402.160156 306.273438 398.386719 Z M 344.585938 171.167969 C 346.246094 171.015625 347.832031 168.675781 347.832031 168.675781 C 347.832031 168.675781 333.878906 167.46875 330.785156 168.675781 C 327.691406 169.882812 326.410156 172.753906 326.410156 172.753906 C 326.863281 172.449219 328.898438 170.863281 331.917969 170.636719 C 334.859375 170.410156 342.929688 171.242188 344.585938 171.167969 Z M 329.503906 157.503906 C 331.765625 158.105469 345.71875 157.503906 347.832031 157.730469 C 347.832031 157.730469 347.074219 154.332031 343.378906 153.578125 C 339.683594 152.824219 326.789062 153.957031 326.789062 153.957031 C 326.789062 153.957031 327.238281 156.898438 329.503906 157.503906 Z M 345.566406 408.652344 C 347.605469 407.824219 349.867188 406.839844 350.921875 404.804688 L 350.242188 404.425781 C 349.261719 406.238281 347.152344 407.144531 345.265625 407.972656 C 343.078125 408.878906 340.890625 410.011719 340.136719 412.125 C 339.835938 412.957031 339.835938 413.785156 340.210938 414.316406 L 340.816406 413.863281 C 340.4375 413.332031 340.664062 412.652344 340.816406 412.351562 C 341.496094 410.539062 343.53125 409.558594 345.566406 408.652344 Z M 320.679688 188.980469 C 322.941406 189.207031 324.828125 189.738281 326.636719 191.171875 C 326.789062 191.320312 327.089844 191.09375 326.863281 190.945312 C 325.730469 189.964844 324.523438 189.207031 323.089844 188.90625 C 321.207031 188.527344 319.167969 189.058594 317.511719 187.925781 C 317.433594 187.851562 317.359375 188 317.433594 188.074219 C 318.492188 188.753906 319.472656 188.832031 320.679688 188.980469 Z M 236.808594 231.933594 C 236.28125 231.40625 235.902344 230.878906 235.828125 230.273438 C 235.75 229.898438 235.902344 229.445312 236.054688 228.992188 L 236.128906 228.839844 C 236.582031 227.480469 236.808594 226.046875 236.882812 224.613281 L 236.128906 224.613281 C 236.054688 225.972656 235.828125 227.332031 235.449219 228.6875 L 235.375 228.839844 C 235.222656 229.367188 235.074219 229.820312 235.074219 230.425781 C 235.148438 231.332031 235.75 232.011719 236.203125 232.464844 C 236.429688 232.765625 236.882812 233.292969 237.5625 233.292969 C 237.5625 233.292969 237.636719 233.292969 237.636719 233.292969 L 237.5625 232.539062 C 237.335938 232.464844 237.035156 232.160156 236.808594 231.933594 Z M 230.621094 209.0625 L 229.945312 209.4375 C 230.847656 211.023438 232.207031 212.234375 233.867188 212.910156 L 234.167969 212.234375 C 232.660156 211.554688 231.375 210.421875 230.621094 209.0625 Z M 233.789062 188.753906 L 233.261719 189.285156 C 230.171875 192.226562 227.605469 195.851562 225.945312 199.777344 L 226.625 200.078125 C 228.285156 196.230469 230.773438 192.679688 233.789062 189.8125 L 234.320312 189.285156 C 235.75 187.925781 237.261719 186.566406 237.710938 184.679688 L 236.957031 184.527344 C 236.503906 186.1875 235.148438 187.472656 233.789062 188.753906 Z M 228.285156 215.027344 C 227.378906 213.742188 226.398438 212.457031 225.570312 211.101562 C 224.511719 209.289062 223.457031 206.496094 224.210938 203.777344 L 223.457031 203.550781 C 222.703125 206.496094 223.835938 209.4375 224.890625 211.402344 C 225.71875 212.835938 226.699219 214.121094 227.605469 215.402344 C 228.210938 216.234375 228.8125 217.0625 229.414062 217.894531 C 231.152344 220.535156 231.980469 222.875 231.90625 224.988281 L 232.660156 224.988281 C 232.734375 222.648438 231.828125 220.160156 230.019531 217.441406 C 229.492188 216.6875 228.886719 215.78125 228.285156 215.027344 Z M 242.839844 227.105469 L 242.085938 227.332031 C 242.386719 228.3125 243.292969 229.140625 244.273438 229.367188 L 244.425781 228.613281 C 243.746094 228.460938 243.066406 227.859375 242.839844 227.105469 Z M 411.488281 393.480469 C 411.488281 414.84375 405.226562 481.347656 331.085938 486.40625 C 260.039062 491.3125 252.949219 412.351562 252.195312 400.726562 C 252.042969 398.613281 252.644531 396.5 253.851562 394.460938 C 254.683594 397.480469 255.738281 400.726562 256.871094 403.820312 C 261.621094 408.199219 279.042969 420.355469 324.976562 420.355469 C 325.355469 420.355469 325.65625 420.355469 326.03125 420.355469 C 341.796875 420.277344 355.070312 418.769531 366.160156 416.65625 C 366.761719 416.503906 367.363281 416.429688 367.96875 416.277344 C 367.96875 416.277344 368.042969 416.277344 368.042969 416.277344 C 375.058594 414.84375 381.015625 413.257812 386.070312 411.597656 L 383.730469 409.558594 L 384.261719 408.957031 L 386.824219 411.296875 L 386.75 411.371094 C 387.652344 411.070312 388.484375 410.765625 389.3125 410.464844 C 390.445312 410.085938 391.574219 409.632812 392.632812 409.257812 C 392.707031 409.183594 392.859375 409.183594 392.933594 409.105469 C 393.234375 408.957031 393.535156 408.878906 393.839844 408.730469 C 393.914062 408.730469 393.988281 408.652344 394.140625 408.652344 C 394.59375 408.425781 395.121094 408.277344 395.496094 408.050781 C 395.648438 407.972656 395.875 407.898438 396.027344 407.824219 C 396.253906 407.746094 396.402344 407.671875 396.628906 407.597656 C 396.855469 407.519531 397.082031 407.371094 397.308594 407.292969 C 397.457031 407.21875 397.609375 407.144531 397.683594 407.144531 C 398.0625 406.992188 398.363281 406.839844 398.664062 406.691406 C 398.742188 406.613281 398.890625 406.613281 398.96875 406.539062 C 399.269531 406.390625 399.496094 406.3125 399.796875 406.164062 C 399.871094 406.164062 399.949219 406.085938 400.023438 406.085938 C 401.304688 405.484375 402.4375 404.878906 403.417969 404.351562 C 404.019531 401.027344 404.019531 397.632812 403.34375 394.3125 C 403.492188 393.78125 403.71875 393.253906 403.871094 392.726562 C 404.851562 389.554688 405.304688 386.15625 405.152344 382.835938 C 409.148438 386.007812 411.488281 389.480469 411.488281 393.480469 Z M 397.382812 434.621094 L 396.628906 434.46875 C 393.6875 446.320312 386.824219 457.117188 377.472656 464.96875 L 377.925781 465.570312 C 387.425781 457.570312 394.367188 446.625 397.382812 434.621094 Z M 400.929688 416.203125 L 400.175781 416.203125 C 400.023438 419.597656 399.644531 423.070312 398.890625 426.394531 L 399.644531 426.542969 C 400.398438 423.148438 400.777344 419.597656 400.929688 416.203125 Z M 253.703125 228.234375 L 254.457031 228.085938 C 254.230469 227.027344 253.402344 226.121094 252.421875 225.667969 L 252.117188 226.347656 C 252.949219 226.652344 253.550781 227.40625 253.703125 228.234375 Z M 244.273438 222.648438 C 243.898438 222.421875 243.519531 222.195312 243.144531 221.96875 C 241.484375 220.914062 239.671875 219.78125 238.996094 218.046875 L 238.316406 218.347656 C 239.070312 220.386719 240.957031 221.515625 242.765625 222.648438 C 243.144531 222.875 243.519531 223.101562 243.898438 223.328125 C 245.707031 224.535156 247.292969 225.972656 248.574219 227.707031 C 249.175781 228.460938 249.929688 229.671875 249.78125 230.878906 L 250.535156 230.953125 C 250.761719 229.445312 249.855469 228.085938 249.175781 227.253906 C 247.742188 225.441406 246.160156 223.933594 244.273438 222.648438 Z M 227.605469 189.285156 C 227.832031 189.585938 228.210938 189.8125 228.585938 189.8125 C 228.738281 189.8125 228.8125 189.8125 228.964844 189.738281 L 228.660156 189.058594 C 228.511719 189.132812 228.285156 188.980469 228.210938 188.832031 C 228.058594 188.605469 227.984375 188.300781 227.984375 188 C 227.90625 186.945312 228.132812 185.8125 228.511719 184.832031 L 227.832031 184.527344 C 227.378906 185.660156 227.152344 186.867188 227.230469 188 C 227.304688 188.453125 227.378906 188.90625 227.605469 189.285156 Z M 287.566406 385.253906 L 287.566406 384.496094 C 285.605469 384.496094 283.71875 385.402344 282.4375 386.835938 L 283.042969 387.367188 C 284.097656 386.007812 285.832031 385.253906 287.566406 385.253906 Z M 295.714844 410.238281 C 295.109375 409.632812 294.582031 408.804688 294.128906 407.597656 C 293.976562 407.292969 293.902344 406.917969 293.828125 406.613281 C 293.601562 405.9375 293.375 405.179688 293.074219 404.5 L 292.394531 404.804688 C 292.695312 405.484375 292.921875 406.085938 293.148438 406.839844 C 293.222656 407.21875 293.375 407.519531 293.449219 407.898438 C 293.75 408.730469 294.28125 410.011719 295.183594 410.84375 C 295.863281 411.523438 296.769531 411.824219 297.597656 411.824219 C 297.898438 411.824219 298.277344 411.75 298.578125 411.671875 L 298.277344 410.992188 C 297.449219 411.296875 296.390625 410.84375 295.714844 410.238281 Z M 285.003906 380.570312 L 285.152344 379.816406 C 283.871094 379.589844 282.4375 379.816406 281.308594 380.421875 L 281.683594 381.101562 C 282.664062 380.496094 283.871094 380.34375 285.003906 380.570312 Z M 279.121094 171.542969 C 280.25 168.449219 280.175781 164.902344 279.648438 161.730469 C 279.574219 161.351562 280.175781 161.125 280.25 161.578125 C 280.328125 161.804688 280.402344 161.957031 280.402344 162.183594 C 280.703125 160.976562 281.984375 160.296875 281.984375 160.296875 C 282.136719 160.296875 282.210938 160.296875 282.289062 160.296875 C 282.289062 159.691406 282.363281 159.089844 282.515625 158.484375 C 282.589844 158.105469 283.117188 158.183594 283.191406 158.484375 C 283.796875 160.824219 284.023438 163.242188 284.699219 165.503906 C 285.457031 168.070312 286.585938 170.5625 287.792969 172.976562 C 287.792969 173.054688 287.71875 173.128906 287.71875 173.054688 C 286.964844 172.300781 286.210938 171.394531 285.53125 170.410156 C 285.984375 171.621094 286.511719 172.753906 286.964844 173.808594 C 288.472656 177.433594 291.640625 180.226562 295.183594 181.8125 C 298.730469 183.472656 302.726562 184 306.648438 183.925781 C 308.910156 183.925781 311.25 183.699219 313.511719 183.699219 C 319.09375 183.773438 324.601562 185.359375 330.179688 185.8125 C 335.761719 186.265625 341.949219 185.359375 345.792969 181.28125 C 348.660156 178.339844 349.792969 174.109375 350.847656 170.183594 C 351.902344 166.261719 352.507812 161.503906 353.5625 157.578125 L 356.65625 159.769531 C 354.316406 161.882812 350.320312 185.28125 349.566406 190.644531 C 349.414062 191.546875 349.113281 192.453125 348.734375 193.285156 C 347.90625 194.792969 346.699219 196.53125 345.113281 198.34375 C 343.378906 200.605469 341.722656 202.871094 340.363281 205.289062 C 340.136719 205.664062 339.535156 205.363281 339.761719 204.910156 C 340.210938 203.851562 340.742188 202.871094 341.34375 201.964844 C 341.117188 202.117188 340.890625 202.34375 340.664062 202.496094 C 339.609375 204.078125 338.402344 205.515625 337.195312 207.023438 C 337.195312 207.097656 337.121094 207.023438 337.121094 206.949219 C 338.027344 205.890625 338.703125 204.683594 339.382812 203.476562 C 338.402344 204.230469 337.347656 204.910156 336.214844 205.589844 C 334.632812 207.550781 332.445312 208.910156 330.105469 209.742188 C 330.03125 209.742188 329.957031 209.664062 330.03125 209.589844 C 332.140625 208.761719 333.878906 207.550781 335.386719 206.042969 C 330.484375 208.835938 324.375 210.875 317.207031 211.175781 C 299.785156 211.78125 289.152344 198.265625 287.71875 196.378906 C 287.867188 196.984375 288.09375 197.664062 288.246094 198.265625 C 288.320312 198.417969 288.09375 198.417969 288.019531 198.34375 C 287.417969 196.910156 286.8125 195.398438 286.285156 193.8125 C 283.117188 186.792969 281.535156 174.5625 280.855469 167.695312 C 280.628906 169.054688 280.175781 170.410156 279.421875 171.621094 C 279.269531 171.847656 279.042969 171.769531 279.121094 171.542969 Z M 347.226562 186.945312 C 347.527344 187.019531 347.832031 187.019531 348.132812 186.945312 C 348.28125 186.867188 348.28125 186.71875 348.132812 186.640625 C 347.90625 186.566406 347.605469 186.566406 347.378906 186.414062 C 347.074219 186.339844 346.925781 186.867188 347.226562 186.945312 Z M 345.191406 194.566406 C 345.339844 194.71875 345.492188 194.792969 345.644531 194.871094 C 345.71875 194.871094 345.71875 194.871094 345.644531 194.792969 C 345.492188 194.71875 345.339844 194.566406 345.265625 194.417969 C 345.191406 194.417969 345.113281 194.492188 345.191406 194.566406 Z M 342.324219 188.753906 C 342.550781 188.605469 342.777344 188.453125 343.003906 188.378906 C 343.230469 188.300781 343.078125 187.925781 342.929688 188 C 342.625 188.152344 342.324219 188.300781 342.097656 188.527344 C 342.023438 188.679688 342.25 188.90625 342.324219 188.753906 Z M 340.210938 193.585938 C 340.4375 193.585938 340.664062 193.511719 340.96875 193.4375 C 341.117188 193.359375 341.042969 193.210938 340.890625 193.210938 C 340.664062 193.285156 340.4375 193.285156 340.210938 193.285156 C 340.0625 193.285156 340.0625 193.585938 340.210938 193.585938 Z M 337.421875 198.644531 C 337.648438 198.871094 337.875 199.097656 338.101562 199.25 C 338.175781 199.324219 338.25 199.171875 338.175781 199.097656 C 337.949219 198.945312 337.722656 198.71875 337.496094 198.492188 C 337.421875 198.492188 337.347656 198.570312 337.421875 198.644531 Z M 332.21875 195.472656 C 332.445312 195.398438 332.746094 195.398438 332.972656 195.324219 C 333.199219 195.246094 333.121094 194.871094 332.898438 194.871094 C 332.671875 194.871094 332.367188 194.871094 332.140625 194.871094 C 331.691406 194.945312 331.765625 195.550781 332.21875 195.472656 Z M 331.386719 190.566406 C 331.464844 190.339844 331.539062 190.113281 331.765625 189.964844 C 331.992188 189.8125 331.691406 189.511719 331.464844 189.660156 C 331.238281 189.886719 331.085938 190.113281 331.011719 190.417969 C 330.933594 190.71875 331.3125 190.871094 331.386719 190.566406 Z M 310.195312 205.664062 C 309.742188 205.890625 309.515625 206.496094 309.441406 206.949219 C 309.363281 207.324219 309.96875 207.476562 309.96875 207.023438 C 310.042969 206.570312 310.269531 206.34375 310.421875 205.96875 C 310.570312 205.742188 310.421875 205.589844 310.195312 205.664062 Z M 315.925781 208.835938 C 316 208.683594 315.777344 208.609375 315.699219 208.683594 C 315.550781 208.835938 315.398438 208.910156 315.324219 209.0625 C 315.171875 209.289062 315.171875 209.515625 314.945312 209.589844 C 314.871094 209.589844 314.945312 209.664062 315.019531 209.664062 C 315.246094 209.515625 315.472656 209.515625 315.699219 209.363281 C 315.777344 209.210938 315.851562 208.988281 315.925781 208.835938 Z M 325.429688 206.191406 C 325.277344 205.890625 325.050781 205.589844 324.902344 205.289062 C 324.828125 205.136719 324.601562 205.289062 324.675781 205.4375 C 324.828125 205.742188 324.976562 206.117188 325.128906 206.417969 C 325.128906 206.644531 325.582031 206.417969 325.429688 206.191406 Z M 329.425781 202.417969 C 329.503906 202.644531 329.578125 202.871094 329.730469 203.097656 C 329.878906 203.324219 330.257812 203.097656 330.105469 202.871094 C 330.03125 202.644531 329.953125 202.496094 329.878906 202.269531 C 329.804688 201.964844 329.351562 202.117188 329.425781 202.417969 Z M 327.011719 188 C 327.316406 188 327.617188 188.074219 327.917969 188.074219 C 328.070312 188.074219 328.070312 187.851562 327.917969 187.851562 C 327.617188 187.851562 327.316406 187.773438 327.011719 187.773438 C 326.9375 187.773438 326.9375 187.925781 327.011719 188 Z M 318.566406 186.792969 C 318.566406 186.867188 318.640625 186.867188 318.640625 186.867188 C 318.941406 186.792969 319.167969 186.792969 319.472656 186.71875 C 319.699219 186.566406 320 186.566406 320.300781 186.414062 C 320.527344 186.265625 320.527344 185.886719 320.226562 185.8125 C 319.847656 185.734375 319.472656 185.886719 319.167969 186.039062 C 318.792969 186.1875 318.640625 186.492188 318.566406 186.792969 Z M 308.308594 186.265625 C 308.609375 186.265625 308.835938 186.265625 309.136719 186.265625 C 309.363281 186.265625 309.363281 185.886719 309.0625 185.886719 C 308.761719 185.960938 308.535156 185.960938 308.234375 186.039062 C 308.15625 186.113281 308.234375 186.265625 308.308594 186.265625 Z M 304.3125 192.679688 C 304.765625 194.871094 305.519531 197.210938 306.648438 199.171875 C 306.648438 199.25 306.574219 199.324219 306.574219 199.25 C 305.894531 198.417969 305.367188 197.511719 304.988281 196.683594 C 305.140625 197.058594 305.214844 197.511719 305.441406 197.890625 C 306.046875 199.324219 306.875 200.605469 308.082031 201.589844 C 310.117188 203.398438 312.832031 204.609375 315.550781 204.683594 C 318.113281 204.757812 320.074219 204.457031 320.828125 204.003906 C 323.242188 202.644531 325.808594 201.285156 327.316406 198.945312 C 327.917969 198.039062 328.296875 196.984375 328.597656 195.925781 C 328.75 195.324219 328.824219 194.71875 328.75 194.113281 C 328.75 196.304688 327.390625 198.191406 325.65625 199.703125 C 325.65625 199.703125 325.582031 199.703125 325.582031 199.625 C 327.917969 197.738281 328.824219 194.644531 328.070312 191.773438 C 327.316406 190.339844 326.03125 189.207031 324.449219 188.679688 C 324.296875 188.605469 324.148438 188.605469 323.996094 188.527344 C 319.320312 187.09375 314.34375 187.925781 309.363281 188.300781 C 308.910156 188.453125 308.460938 188.605469 308.082031 188.832031 C 306.273438 189.964844 305.292969 191.925781 305.367188 193.964844 C 305.367188 194.039062 305.292969 194.039062 305.292969 193.964844 C 305.140625 193.132812 304.988281 192.304688 305.214844 191.546875 C 305.59375 190.566406 306.421875 189.585938 307.101562 188.753906 C 305.519531 189.511719 304.539062 191.019531 304.3125 192.679688 Z M 302.199219 203.023438 C 302.425781 203.171875 302.652344 203.171875 302.953125 203.171875 C 303.027344 203.171875 303.027344 203.023438 302.953125 203.023438 C 302.726562 203.023438 302.5 202.949219 302.273438 202.796875 C 302.199219 202.796875 302.125 202.949219 302.199219 203.023438 Z M 301.746094 206.570312 C 301.898438 206.570312 302.046875 206.722656 302.199219 206.722656 C 302.351562 206.722656 302.5 206.644531 302.652344 206.570312 C 302.878906 206.417969 302.726562 206.117188 302.5 206.191406 C 302.351562 206.269531 302.273438 206.269531 302.125 206.34375 C 302.046875 206.34375 301.972656 206.496094 301.746094 206.570312 C 301.746094 206.496094 301.746094 206.570312 301.746094 206.570312 Z M 300.691406 199.023438 C 300.765625 199.097656 300.917969 199.097656 300.917969 199.023438 C 300.917969 198.644531 300.992188 198.34375 301.144531 198.039062 C 301.292969 197.8125 301.519531 197.664062 301.519531 197.359375 C 301.519531 197.210938 301.371094 197.058594 301.144531 197.058594 C 300.390625 197.285156 300.464844 198.492188 300.691406 199.023438 Z M 298.429688 189.359375 C 298.65625 189.511719 298.957031 189.660156 299.257812 189.660156 C 299.558594 189.660156 299.558594 189.285156 299.257812 189.207031 C 299.03125 189.207031 298.878906 189.058594 298.65625 188.980469 C 298.429688 188.753906 298.203125 189.132812 298.429688 189.359375 Z M 295.5625 185.585938 C 295.636719 185.960938 295.789062 186.265625 296.015625 186.566406 C 296.164062 186.792969 296.617188 186.566406 296.46875 186.339844 C 296.316406 186.039062 296.164062 185.8125 296.089844 185.433594 C 296.015625 185.054688 295.488281 185.207031 295.5625 185.585938 Z M 294.054688 198.644531 C 293.828125 198.71875 293.527344 198.71875 293.300781 198.796875 C 293.074219 198.871094 293.148438 199.25 293.375 199.25 C 293.601562 199.25 293.902344 199.171875 294.128906 199.171875 C 294.507812 199.097656 294.429688 198.570312 294.054688 198.644531 Z M 292.996094 194.644531 C 293.074219 194.792969 293.375 194.871094 293.375 194.644531 C 293.449219 194.265625 293.375 193.8125 293.375 193.359375 C 293.375 193.210938 293.148438 193.132812 293.074219 193.285156 C 293.074219 193.738281 292.921875 194.265625 292.996094 194.644531 Z M 289.828125 188.605469 C 290.28125 188.527344 290.660156 188.378906 291.035156 188.074219 C 291.1875 187.925781 290.960938 187.773438 290.808594 187.851562 C 290.507812 188.074219 290.132812 188.226562 289.753906 188.300781 C 289.527344 188.378906 289.605469 188.605469 289.828125 188.605469 Z M 287.113281 183.09375 C 287.492188 183.320312 287.792969 183.621094 288.171875 183.847656 C 288.472656 184.074219 288.773438 183.546875 288.472656 183.320312 C 288.09375 183.09375 287.792969 182.867188 287.417969 182.640625 C 287.113281 182.488281 286.886719 182.941406 287.113281 183.09375 Z M 283.644531 177.808594 C 283.796875 178.035156 284.023438 178.1875 284.324219 178.261719 C 284.777344 178.414062 285.003906 177.660156 284.550781 177.582031 C 284.398438 177.507812 284.25 177.507812 284.171875 177.355469 C 283.796875 177.054688 283.34375 177.507812 283.644531 177.808594 Z M 260.714844 388.800781 C 259.8125 386.988281 260.414062 384.496094 262.074219 383.214844 L 261.621094 382.609375 C 259.660156 384.042969 258.90625 386.914062 260.039062 389.101562 Z M 272.332031 385.101562 C 272.332031 385.027344 272.40625 384.949219 272.40625 384.800781 C 272.707031 383.96875 273.386719 383.363281 274.066406 382.761719 C 275.875 381.25 277.761719 379.816406 279.722656 378.535156 C 281.382812 377.476562 283.042969 376.496094 284.777344 375.664062 C 285.53125 375.289062 286.359375 374.910156 287.113281 374.53125 C 288.546875 373.929688 290.054688 373.324219 291.566406 373.398438 C 293.527344 373.550781 295.261719 374.683594 296.695312 376.042969 C 297.523438 376.871094 298.277344 377.703125 299.03125 378.609375 C 299.636719 375.816406 300.765625 373.25 302.425781 370.984375 C 302.726562 370.53125 303.105469 370.152344 303.40625 369.777344 C 296.84375 370.984375 290.359375 372.722656 284.324219 374.835938 C 283.644531 373.398438 283.042969 371.964844 282.363281 370.457031 C 281.835938 369.25 281.15625 367.8125 279.875 367.359375 C 278.667969 366.910156 277.386719 367.4375 276.179688 367.964844 C 275.347656 368.34375 274.59375 368.796875 273.839844 369.25 C 273.464844 369.476562 273.085938 369.777344 273.011719 370.152344 C 272.933594 370.53125 273.238281 370.910156 273.539062 371.285156 C 275.121094 373.171875 276.78125 375.0625 278.367188 377.023438 C 275.199219 378.308594 272.179688 379.742188 269.390625 381.175781 C 270.445312 382.609375 271.351562 383.894531 272.332031 385.101562 Z M 289.605469 389.328125 L 289.300781 388.648438 C 288.472656 389.027344 287.71875 389.402344 287.039062 389.933594 L 287.492188 390.535156 C 288.09375 390.082031 288.847656 389.707031 289.605469 389.328125 Z M 265.695312 404.199219 C 266.976562 405.03125 268.484375 405.484375 269.992188 405.484375 C 270.371094 405.484375 270.824219 405.484375 271.199219 405.40625 L 271.050781 404.652344 C 269.316406 404.953125 267.503906 404.578125 266.070312 403.59375 C 264.636719 402.613281 263.507812 401.105469 263.128906 399.367188 C 263.128906 399.445312 262.980469 399.519531 262.828125 399.519531 L 262.980469 398.765625 C 262.828125 398.6875 262.601562 398.765625 262.527344 398.914062 C 262.375 399.066406 262.300781 399.367188 262.375 399.59375 C 262.902344 401.480469 264.109375 403.144531 265.695312 404.199219 Z M 276.328125 396.726562 C 276.707031 397.78125 277.160156 398.839844 277.914062 399.746094 C 279.421875 401.332031 281.757812 401.558594 284.023438 401.707031 L 284.097656 400.953125 C 281.984375 400.878906 279.796875 400.652344 278.515625 399.21875 C 277.835938 398.460938 277.460938 397.480469 277.082031 396.5 C 276.707031 395.519531 276.328125 394.535156 275.648438 393.707031 C 273.992188 391.742188 271.125 391.441406 268.5625 391.292969 L 268.5625 392.046875 C 271.050781 392.121094 273.613281 392.421875 275.121094 394.160156 C 275.574219 394.839844 275.953125 395.746094 276.328125 396.726562 Z M 397.308594 383.515625 C 399.796875 380.648438 402.4375 377.703125 404.324219 374.382812 C 404.773438 373.550781 405.226562 372.417969 404.699219 371.589844 C 404.472656 371.210938 404.019531 370.910156 403.566406 370.683594 C 402.964844 370.378906 402.4375 370.003906 401.832031 369.703125 C 401.457031 369.476562 401.003906 369.25 400.550781 369.25 C 399.871094 369.324219 399.34375 369.929688 398.96875 370.53125 C 397.082031 373.324219 395.046875 376.269531 394.066406 379.515625 C 393.988281 379.816406 393.839844 380.269531 393.6875 380.796875 C 394.96875 381.628906 396.175781 382.535156 397.308594 383.515625 C 397.234375 383.589844 397.234375 383.515625 397.308594 383.515625 Z M 397.308594 383.515625 "/>
</g>
</svg>
