<?xml version="1.0" encoding="UTF-8"?>
<svg xmlns="http://www.w3.org/2000/svg" xmlns:xlink="http://www.w3.org/1999/xlink" width="300pt" height="449.999984pt" viewBox="0 0 300 449.999984" version="1.2">
<defs>
<filter id="alpha" filterUnits="objectBoundingBox" x="0%" y="0%" width="100%" height="100%">
  <feColorMatrix type="matrix" in="SourceGraphic" values="0 0 0 0 1 0 0 0 0 1 0 0 0 0 1 0 0 0 1 0"/>
</filter>
<mask id="mask0">
  <g filter="url(#alpha)">
<rect x="0" y="0" width="300" height="449.999984" style="fill:rgb(0%,0%,0%);fill-opacity:0.4;stroke:none;"/>
  </g>
</mask>
<clipPath id="clip2">
  <path d="M 15 226 L 90 226 L 90 300.675781 L 15 300.675781 Z M 15 226 "/>
</clipPath>
<clipPath id="clip1">
  <rect x="0" y="0" width="298" height="304"/>
</clipPath>
<g id="surface5" clip-path="url(#clip1)">
<path style=" stroke:none;fill-rule:nonzero;fill:rgb(97.24884%,95.689392%,95.689392%);fill-opacity:1;" d="M 83.617188 102.5625 L 21.703125 102.5625 C 18.285156 102.5625 15.511719 99.777344 15.511719 96.371094 L 15.511719 34.457031 C 15.511719 31.039062 18.285156 28.265625 21.703125 28.265625 L 83.617188 28.265625 C 87.035156 28.265625 89.808594 31.039062 89.808594 34.457031 L 89.808594 96.371094 C 89.808594 99.777344 87.035156 102.5625 83.617188 102.5625 Z M 27.894531 90.179688 L 77.425781 90.179688 L 77.425781 40.648438 L 27.894531 40.648438 Z M 27.894531 90.179688 "/>
<path style=" stroke:none;fill-rule:nonzero;fill:rgb(97.24884%,95.689392%,95.689392%);fill-opacity:1;" d="M 52.660156 83.988281 C 52.203125 83.988281 51.730469 83.9375 51.285156 83.8125 C 49.464844 83.40625 47.929688 82.179688 47.101562 80.507812 L 35.238281 56.261719 C 33.738281 53.191406 35.003906 49.488281 38.074219 47.976562 C 41.15625 46.464844 44.847656 47.753906 46.359375 50.8125 L 54.851562 68.175781 L 111.789062 23.371094 C 114.476562 21.265625 118.378906 21.726562 120.484375 24.414062 C 122.585938 27.113281 122.128906 30.988281 119.441406 33.105469 L 56.488281 82.636719 C 55.386719 83.527344 54.035156 83.988281 52.660156 83.988281 Z M 52.660156 83.988281 "/>
<path style=" stroke:none;fill-rule:nonzero;fill:rgb(97.24884%,95.689392%,95.689392%);fill-opacity:1;" d="M 83.617188 201.625 L 21.703125 201.625 C 18.285156 201.625 15.511719 198.839844 15.511719 195.433594 L 15.511719 133.519531 C 15.511719 130.101562 18.285156 127.328125 21.703125 127.328125 L 83.617188 127.328125 C 87.035156 127.328125 89.808594 130.101562 89.808594 133.519531 L 89.808594 195.433594 C 89.808594 198.839844 87.035156 201.625 83.617188 201.625 Z M 27.894531 189.242188 L 77.425781 189.242188 L 77.425781 139.710938 L 27.894531 139.710938 Z M 27.894531 189.242188 "/>
<path style=" stroke:none;fill-rule:nonzero;fill:rgb(97.24884%,95.689392%,95.689392%);fill-opacity:1;" d="M 52.660156 183.050781 C 52.203125 183.050781 51.730469 183 51.285156 182.878906 C 49.464844 182.46875 47.929688 181.242188 47.101562 179.558594 L 35.238281 155.3125 C 33.738281 152.242188 35.003906 148.539062 38.074219 147.027344 C 41.15625 145.519531 44.847656 146.792969 46.359375 149.863281 L 54.851562 167.226562 L 111.789062 122.425781 C 114.476562 120.320312 118.378906 120.789062 120.484375 123.464844 C 122.585938 126.164062 122.128906 130.039062 119.441406 132.15625 L 56.488281 181.6875 C 55.386719 182.59375 54.035156 183.050781 52.660156 183.050781 Z M 52.660156 183.050781 "/>
<g clip-path="url(#clip2)" clip-rule="nonzero">
<path style=" stroke:none;fill-rule:nonzero;fill:rgb(97.24884%,95.689392%,95.689392%);fill-opacity:1;" d="M 83.617188 300.6875 L 21.703125 300.6875 C 18.285156 300.6875 15.511719 297.902344 15.511719 294.496094 L 15.511719 232.582031 C 15.511719 229.164062 18.285156 226.390625 21.703125 226.390625 L 83.617188 226.390625 C 87.035156 226.390625 89.808594 229.164062 89.808594 232.582031 L 89.808594 294.496094 C 89.808594 297.902344 87.035156 300.6875 83.617188 300.6875 Z M 27.894531 288.304688 L 77.425781 288.304688 L 77.425781 238.773438 L 27.894531 238.773438 Z M 27.894531 288.304688 "/>
</g>
<path style=" stroke:none;fill-rule:nonzero;fill:rgb(97.24884%,95.689392%,95.689392%);fill-opacity:1;" d="M 287.9375 251.15625 L 151.726562 251.15625 C 148.308594 251.15625 145.535156 248.371094 145.535156 244.964844 C 145.535156 241.546875 148.308594 238.773438 151.726562 238.773438 L 287.9375 238.773438 C 291.34375 238.773438 294.128906 241.546875 294.128906 244.964844 C 294.128906 248.371094 291.34375 251.15625 287.9375 251.15625 Z M 287.9375 251.15625 "/>
<path style=" stroke:none;fill-rule:nonzero;fill:rgb(97.24884%,95.689392%,95.689392%);fill-opacity:1;" d="M 287.9375 288.304688 L 151.726562 288.304688 C 148.308594 288.304688 145.535156 285.519531 145.535156 282.113281 C 145.535156 278.695312 148.308594 275.921875 151.726562 275.921875 L 287.9375 275.921875 C 291.34375 275.921875 294.128906 278.695312 294.128906 282.113281 C 294.128906 285.519531 291.34375 288.304688 287.9375 288.304688 Z M 287.9375 288.304688 "/>
<path style=" stroke:none;fill-rule:nonzero;fill:rgb(97.24884%,95.689392%,95.689392%);fill-opacity:1;" d="M 287.9375 152.09375 L 151.726562 152.09375 C 148.308594 152.09375 145.535156 149.308594 145.535156 145.902344 C 145.535156 142.484375 148.308594 139.710938 151.726562 139.710938 L 287.9375 139.710938 C 291.34375 139.710938 294.128906 142.484375 294.128906 145.902344 C 294.128906 149.308594 291.34375 152.09375 287.9375 152.09375 Z M 287.9375 152.09375 "/>
<path style=" stroke:none;fill-rule:nonzero;fill:rgb(97.24884%,95.689392%,95.689392%);fill-opacity:1;" d="M 287.9375 189.242188 L 151.726562 189.242188 C 148.308594 189.242188 145.535156 186.457031 145.535156 183.050781 C 145.535156 179.632812 148.308594 176.859375 151.726562 176.859375 L 287.9375 176.859375 C 291.34375 176.859375 294.128906 179.632812 294.128906 183.050781 C 294.128906 186.457031 291.34375 189.242188 287.9375 189.242188 Z M 287.9375 189.242188 "/>
<path style=" stroke:none;fill-rule:nonzero;fill:rgb(97.24884%,95.689392%,95.689392%);fill-opacity:1;" d="M 287.9375 53.03125 L 151.726562 53.03125 C 148.308594 53.03125 145.535156 50.242188 145.535156 46.839844 C 145.535156 43.421875 148.308594 40.648438 151.726562 40.648438 L 287.9375 40.648438 C 291.34375 40.648438 294.128906 43.421875 294.128906 46.839844 C 294.128906 50.242188 291.34375 53.03125 287.9375 53.03125 Z M 287.9375 53.03125 "/>
<path style=" stroke:none;fill-rule:nonzero;fill:rgb(97.24884%,95.689392%,95.689392%);fill-opacity:1;" d="M 287.9375 90.179688 L 151.726562 90.179688 C 148.308594 90.179688 145.535156 87.390625 145.535156 83.988281 C 145.535156 80.570312 148.308594 77.796875 151.726562 77.796875 L 287.9375 77.796875 C 291.34375 77.796875 294.128906 80.570312 294.128906 83.988281 C 294.128906 87.390625 291.34375 90.179688 287.9375 90.179688 Z M 287.9375 90.179688 "/>
</g>
<clipPath id="clip3">
  <path d="M 216 415 L 238 415 L 238 419.363281 L 216 419.363281 Z M 216 415 "/>
</clipPath>
<clipPath id="clip4">
  <path d="M 12.164062 365 L 129 365 L 129 411 L 12.164062 411 Z M 12.164062 365 "/>
</clipPath>
</defs>
<g id="surface1">
<use xlink:href="#surface5" transform="matrix(1,0,0,1,0,70)" mask="url(#mask0)"/>
<path style=" stroke:none;fill-rule:nonzero;fill:rgb(18.818665%,57.649231%,81.568909%);fill-opacity:1;" d="M 270.238281 391.722656 C 266.894531 385.246094 264.910156 378.152344 261.90625 371.566406 C 257.996094 363.011719 253.691406 352.820312 248.082031 344.542969 C 246.722656 342.460938 245.476562 340.320312 244.285156 338.183594 C 241.167969 332.441406 235.273438 331.539062 229.324219 333.117188 C 221.394531 333.398438 212.722656 337.113281 205.582031 339.308594 C 192.550781 343.363281 181.839844 351.074219 169.433594 355.859375 C 166.371094 357.042969 163.085938 357.832031 159.6875 358.394531 C 153.054688 357.832031 146.425781 357.265625 139.738281 356.703125 C 134.867188 356.308594 132.828125 355.859375 130.785156 360.308594 C 128.351562 365.65625 128.746094 374.832031 129.144531 380.574219 C 130.390625 397.746094 140.535156 406.359375 157.644531 402.023438 C 173.625 397.972656 184.449219 390.03125 197.765625 380.855469 C 197.765625 380.855469 197.480469 381.136719 197.539062 381.082031 C 204.734375 376.804688 211.929688 370.214844 219.296875 366.105469 C 218.785156 369.878906 218.21875 373.59375 217.9375 377.140625 C 217.3125 385.753906 216.804688 394.59375 216.519531 403.433594 C 219.238281 402.476562 223.488281 402.53125 227.511719 402.757812 C 228.417969 398.363281 230.175781 393.917969 231.480469 389.808594 C 233.519531 383.277344 236.011719 376.914062 238.617188 370.609375 C 246.777344 379.28125 255.957031 390.933594 263.097656 400.449219 C 266.328125 399.433594 268.421875 395.605469 271.539062 394.3125 C 271.144531 393.410156 270.691406 392.566406 270.238281 391.722656 Z M 270.238281 391.722656 "/>
<path style=" stroke:none;fill-rule:nonzero;fill:rgb(79.998779%,94.509888%,100%);fill-opacity:1;" d="M 138.097656 369.035156 C 143.480469 368.019531 149.03125 366.386719 153.28125 365.148438 C 160.761719 362.953125 168.015625 360.308594 175.15625 357.15625 C 176.96875 356.140625 184.277344 353.550781 184.277344 353.550781 C 184.277344 353.550781 196.234375 321.238281 194.136719 301.136719 C 194.082031 300.519531 194.023438 299.898438 193.910156 299.335938 C 193.289062 294.4375 191.925781 289.257812 187.675781 287.007812 C 183.769531 284.925781 178.894531 286.21875 174.757812 287.910156 C 152.660156 297.199219 142.628906 313.636719 135.832031 335.140625 C 132.261719 346.457031 130.050781 358.054688 128.578125 369.820312 C 131.523438 370.101562 134.46875 369.710938 138.097656 369.035156 Z M 138.097656 369.035156 "/>
<path style=" stroke:none;fill-rule:nonzero;fill:rgb(43.528748%,14.898682%,46.669006%);fill-opacity:1;" d="M 241.226562 296.015625 C 241.28125 296.015625 241.28125 296.070312 241.226562 296.015625 C 242.753906 296.464844 243.492188 298.097656 242.699219 299.449219 C 235.558594 311.554688 222.527344 339.195312 219.917969 339.535156 C 219.75 339.535156 218.957031 339.253906 218.105469 338.96875 C 216.691406 338.519531 216.066406 336.886719 216.804688 335.59375 C 220.371094 329.457031 224.960938 324.277344 228.191406 317.800781 C 231.648438 310.878906 234.425781 303.671875 238.449219 297.027344 C 239.070312 296.128906 240.207031 295.734375 241.226562 296.015625 Z M 241.226562 296.015625 "/>
<path style=" stroke:none;fill-rule:nonzero;fill:rgb(43.528748%,14.898682%,46.669006%);fill-opacity:1;" d="M 223.148438 333.453125 C 223.148438 333.453125 223.148438 333.507812 223.148438 333.453125 C 223.660156 334.691406 222.867188 336.042969 221.507812 336.324219 C 209.210938 338.464844 182.859375 345.332031 181.273438 343.867188 C 181.160156 343.757812 180.992188 343.136719 180.707031 342.40625 C 180.3125 341.277344 181.160156 339.984375 182.40625 339.757812 C 188.585938 338.6875 194.703125 338.746094 200.9375 337.226562 C 207.625 335.59375 214.195312 333.398438 220.996094 332.328125 C 221.960938 332.101562 222.808594 332.609375 223.148438 333.453125 Z M 223.148438 333.453125 "/>
<path style=" stroke:none;fill-rule:nonzero;fill:rgb(100%,67.449951%,91.758728%);fill-opacity:1;" d="M 183.882812 280.703125 C 183.203125 282.449219 182.691406 284.25 182.179688 286.050781 C 183.03125 287.515625 183.882812 288.921875 185.070312 289.933594 C 185.695312 290.496094 186.542969 290.78125 187.449219 291.003906 C 188.414062 290.835938 189.265625 290.214844 189.71875 289.148438 C 190.113281 288.132812 190.453125 287.007812 190.679688 285.882812 C 192.152344 285.9375 193.683594 285.207031 194.816406 283.796875 C 196.6875 281.492188 196.914062 277.4375 196.007812 274.734375 C 195.042969 271.863281 193.0625 269.328125 189.945312 269.441406 C 187.109375 269.554688 184.902344 271.132812 184.109375 274.171875 C 183.65625 275.972656 183.65625 277.945312 184.164062 279.746094 C 184.109375 280.140625 183.996094 280.421875 183.882812 280.703125 Z M 183.882812 280.703125 "/>
<path style=" stroke:none;fill-rule:nonzero;fill:rgb(96.859741%,91.369629%,70.199585%);fill-opacity:1;" d="M 181.898438 275.464844 C 182.179688 273.832031 182.632812 272.199219 182.972656 271.414062 C 186.996094 262.179688 193.402344 273.046875 199.238281 269.722656 C 200.539062 268.9375 201.671875 267.867188 203.148438 267.304688 C 204.222656 266.910156 205.355469 266.851562 206.488281 266.851562 C 207.511719 266.851562 208.53125 266.964844 209.4375 267.414062 C 211.078125 268.148438 212.15625 269.949219 212.101562 271.75 C 211.929688 275.859375 206.601562 278.335938 203.035156 278.335938 C 199.859375 278.335938 196.96875 276.535156 194.023438 276.480469 C 191.417969 276.421875 190.679688 278.449219 188.585938 279.6875 C 184.675781 281.941406 181.160156 279.96875 181.898438 275.464844 Z M 181.898438 275.464844 "/>
<path style=" stroke:none;fill-rule:nonzero;fill:rgb(100%,67.449951%,91.758728%);fill-opacity:1;" d="M 188.925781 276.535156 C 189.832031 276.761719 190.453125 277.832031 190.171875 278.730469 C 189.886719 279.6875 188.925781 280.308594 187.960938 280.027344 C 187.054688 279.800781 186.429688 278.730469 186.714844 277.832031 C 187.054688 276.875 187.960938 276.253906 188.925781 276.535156 Z M 188.925781 276.535156 "/>
<path style=" stroke:none;fill-rule:nonzero;fill:rgb(100%,67.449951%,91.758728%);fill-opacity:1;" d="M 227.457031 333.339844 C 224.28125 333.171875 221.109375 333.339844 217.9375 333.734375 C 218.503906 332.609375 219.125 331.539062 219.75 330.46875 C 219.296875 330.019531 218.445312 330.414062 217.9375 330.75 C 216.40625 331.765625 211.929688 333.621094 209.265625 335.367188 C 200.9375 337.394531 192.777344 340.714844 184.84375 343.980469 C 175.664062 347.753906 174.476562 347.132812 165.296875 350.90625 C 166.429688 348.089844 168.523438 341.222656 174.136719 328.386719 C 173.171875 328.332031 168.523438 327.089844 167.5625 326.980469 C 164.503906 326.640625 161.386719 326.132812 158.382812 325.628906 C 156.230469 325.234375 150.507812 323.996094 150.507812 323.996094 C 150.507812 323.996094 147.277344 329.792969 146.484375 331.988281 C 144.046875 338.6875 143.140625 345.894531 142.742188 352.988281 C 142.460938 357.71875 142.460938 362.617188 144.613281 366.839844 C 149.03125 375.621094 157.757812 373.03125 165.125 369.992188 C 180.59375 363.574219 199.125 353.664062 210.683594 341.558594 C 215.386719 341.730469 215.726562 342.855469 220.03125 341.054688 C 220.769531 340.773438 228.023438 333.398438 227.457031 333.339844 Z M 227.457031 333.339844 "/>
<path style=" stroke:none;fill-rule:nonzero;fill:rgb(100%,43.139648%,54.508972%);fill-opacity:1;" d="M 285.195312 402.585938 C 285.253906 401.855469 284.515625 401.066406 283.835938 400.277344 C 281.117188 401.234375 279.246094 401.519531 277.714844 401.234375 C 275.789062 398.757812 273.125 395.15625 272.390625 394.253906 C 270.464844 391.890625 269.445312 389.019531 267.742188 386.597656 C 264.628906 388.289062 266.441406 393.1875 267.121094 395.773438 C 267.234375 396.226562 267.402344 396.734375 267.574219 397.183594 C 266.328125 397.972656 264.796875 398.929688 263.039062 400.054688 C 265.929688 403.882812 267.515625 405.289062 270.066406 409.285156 C 270.292969 409.570312 270.519531 409.792969 270.746094 410.019531 C 275.621094 408.273438 280.605469 405.570312 284.574219 403.207031 C 284.855469 403.09375 285.140625 402.867188 285.195312 402.585938 Z M 285.195312 402.585938 "/>
<path style=" stroke:none;fill-rule:nonzero;fill:rgb(79.998779%,94.509888%,100%);fill-opacity:1;" d="M 287.292969 399.773438 C 286.667969 399.265625 285.761719 399.546875 284.96875 399.828125 C 284.574219 399.996094 284.175781 400.109375 283.78125 400.277344 C 284.460938 401.066406 285.195312 401.855469 285.140625 402.585938 C 285.140625 402.867188 284.855469 403.09375 284.574219 403.207031 C 280.550781 405.570312 275.621094 408.273438 270.746094 410.019531 C 271.878906 411.03125 271.652344 412.269531 273.183594 411.765625 C 277.773438 410.242188 283.835938 406.527344 286.839844 402.757812 C 287.578125 401.910156 288.199219 400.503906 287.292969 399.773438 Z M 287.292969 399.773438 "/>
<path style=" stroke:none;fill-rule:nonzero;fill:rgb(100%,43.139648%,54.508972%);fill-opacity:1;" d="M 231.195312 417.113281 C 231.367188 417 231.367188 416.773438 231.421875 416.605469 C 231.480469 416.097656 231.480469 415.648438 231.480469 415.253906 C 230.34375 414.917969 229.324219 414.636719 228.871094 414.183594 C 227.851562 413.226562 227.34375 412.269531 227.117188 411.199219 C 227.625 408.328125 228.191406 405.066406 228.363281 404.109375 C 228.757812 401.125 230.175781 398.421875 230.800781 395.492188 C 227.457031 394.367188 225.074219 399.039062 223.660156 401.347656 C 223.433594 401.742188 223.207031 402.082031 222.980469 402.476562 C 220.542969 402.476562 218.21875 402.699219 216.578125 403.261719 C 216.40625 407.484375 216.351562 411.652344 216.234375 415.761719 C 216.234375 416.042969 216.292969 416.324219 216.351562 416.605469 C 221.167969 416.773438 225.925781 417 230.742188 417.167969 C 230.914062 417.226562 231.082031 417.226562 231.195312 417.113281 Z M 231.195312 417.113281 "/>
<g clip-path="url(#clip3)" clip-rule="nonzero">
<path style=" stroke:none;fill-rule:nonzero;fill:rgb(79.998779%,94.509888%,100%);fill-opacity:1;" d="M 231.480469 415.253906 C 231.480469 415.703125 231.421875 416.15625 231.421875 416.605469 C 231.421875 416.773438 231.367188 417 231.195312 417.113281 C 231.082031 417.226562 230.914062 417.226562 230.742188 417.226562 C 225.925781 417.054688 221.167969 416.832031 216.351562 416.660156 C 216.691406 417.902344 217.824219 418.859375 219.183594 418.914062 C 224.734375 419.082031 230.230469 419.25 235.730469 419.363281 C 236.410156 419.363281 237.03125 418.914062 237.03125 418.238281 C 237.144531 416.605469 233.972656 415.929688 231.480469 415.253906 Z M 231.480469 415.253906 "/>
</g>
<path style=" stroke:none;fill-rule:nonzero;fill:rgb(43.528748%,14.898682%,46.669006%);fill-opacity:1;" d="M 84.945312 308.402344 C 87.097656 308.175781 90.328125 307.726562 91.460938 304.796875 C 92.539062 302.039062 92.425781 299.394531 91.40625 296.578125 C 91.292969 296.296875 91.179688 295.957031 91.234375 295.675781 C 91.347656 295.226562 91.800781 295 92.199219 294.832031 C 94.351562 293.933594 96.503906 292.863281 98.148438 291.0625 C 99.792969 289.316406 100.867188 286.839844 100.472656 284.417969 C 100.132812 281.996094 98.148438 279.800781 95.824219 279.800781 C 94.691406 279.800781 93.671875 280.308594 92.652344 280.871094 C 89.648438 282.558594 86.757812 285.882812 87.609375 289.371094 C 87.777344 290.046875 88.117188 290.722656 88.175781 291.453125 C 88.234375 292.1875 88.003906 293.03125 87.382812 293.3125 C 87.042969 293.480469 86.644531 293.425781 86.25 293.371094 C 83.300781 292.976562 80.128906 293.199219 77.636719 294.890625 C 74.011719 297.367188 73.101562 299.394531 75.710938 302.660156 C 78.203125 305.753906 81.375 308.792969 84.945312 308.402344 Z M 84.945312 308.402344 "/>
<path style=" stroke:none;fill-rule:nonzero;fill:rgb(100%,67.449951%,91.758728%);fill-opacity:1;" d="M 74.917969 302.433594 C 75.085938 302.152344 75.257812 301.925781 75.539062 301.8125 C 76.785156 301.136719 79.222656 302.320312 80.242188 302.941406 C 82.28125 304.121094 81.773438 302.996094 83.585938 302.996094 C 84.4375 302.996094 85.003906 303.617188 85.058594 304.347656 C 85.058594 304.628906 84.945312 304.910156 84.777344 305.136719 C 85.851562 307.613281 88.742188 311.273438 89.648438 313.804688 C 90.046875 314.875 87.890625 314.3125 87.210938 314.425781 C 86.25 316 84.324219 318.984375 83.132812 316.675781 C 82.394531 315.15625 79.734375 310.316406 79.621094 308.570312 C 79.394531 308.625 79.167969 308.625 78.882812 308.625 C 77.296875 308.792969 75.652344 308.007812 74.859375 306.597656 C 74.464844 305.53125 74.292969 303.558594 74.917969 302.433594 Z M 74.917969 302.433594 "/>
<g clip-path="url(#clip4)" clip-rule="nonzero">
<path style=" stroke:none;fill-rule:nonzero;fill:rgb(42.349243%,80.778503%,100%);fill-opacity:1;" d="M 13.039062 388.851562 C 13.492188 385.980469 16.382812 382.882812 19.214844 381.925781 C 39.445312 375.058594 62.449219 376.972656 87.4375 372.074219 C 88.574219 371.847656 89.027344 370.101562 89.082031 367.402344 C 94.464844 369.820312 101.039062 370.386719 107.042969 370.046875 C 114.355469 369.597656 121.609375 368.1875 128.519531 365.769531 C 128.917969 369.484375 128.972656 373.199219 128.691406 376.914062 C 128.238281 383.390625 126.820312 389.921875 123.363281 395.492188 C 118.378906 403.542969 111.632812 405.457031 102.851562 407.035156 C 91.859375 409.003906 80.640625 410.636719 69.476562 410.46875 C 49.019531 410.242188 28.28125 405.683594 18.820312 398.421875 C 14.171875 394.816406 12.472656 392.117188 13.039062 388.851562 Z M 13.039062 388.851562 "/>
</g>
<path style=" stroke:none;fill-rule:nonzero;fill:rgb(96.859741%,91.369629%,70.199585%);fill-opacity:1;" d="M 89.027344 367.457031 C 89.253906 356.421875 82.453125 329.34375 82.167969 325.460938 C 81.773438 319.714844 81.261719 308.511719 90.386719 309.414062 C 94.125 309.808594 98.488281 313.015625 102.285156 316.5625 C 105.0625 319.152344 107.554688 321.914062 109.3125 323.769531 C 114.863281 329.792969 119.339844 336.664062 122.683594 344.039062 C 125.742188 350.960938 127.785156 358.335938 128.519531 365.824219 C 121.609375 368.246094 114.355469 369.710938 107.042969 370.101562 C 100.980469 370.441406 94.464844 369.878906 89.027344 367.457031 Z M 89.027344 367.457031 "/>
<path style=" stroke:none;fill-rule:nonzero;fill:rgb(18.818665%,57.649231%,81.568909%);fill-opacity:1;" d="M 51.855469 330.246094 C 51.0625 329.34375 50.210938 328.441406 49.078125 328.105469 C 47.886719 327.824219 46.640625 328.273438 45.507812 328.722656 C 41.9375 330.074219 38.425781 331.484375 34.855469 332.835938 C 34.457031 333.003906 34.0625 333.171875 33.890625 333.507812 C 33.550781 334.074219 33.949219 334.75 34.289062 335.253906 C 38.367188 341.167969 42.902344 346.851562 47.773438 352.144531 C 48.679688 353.15625 49.8125 354.171875 51.175781 354.058594 C 52.476562 353.945312 53.382812 352.820312 54.175781 351.804688 C 56.386719 349.046875 62.28125 346.007812 62.109375 342.574219 C 61.941406 339.195312 54.0625 332.777344 51.855469 330.246094 Z M 51.855469 330.246094 "/>
<path style=" stroke:none;fill-rule:nonzero;fill:rgb(89.408875%,91.369629%,100%);fill-opacity:1;" d="M 53.441406 329.230469 C 52.648438 328.332031 51.796875 327.429688 50.664062 327.089844 C 49.472656 326.808594 48.226562 327.261719 47.09375 327.710938 C 43.523438 329.0625 40.011719 330.46875 36.441406 331.820312 C 36.046875 331.988281 35.648438 332.160156 35.476562 332.496094 C 35.136719 333.058594 35.535156 333.734375 35.875 334.242188 C 39.953125 340.152344 44.488281 345.839844 49.359375 351.132812 C 50.269531 352.144531 51.402344 353.15625 52.761719 353.046875 C 54.0625 352.933594 54.96875 351.804688 55.765625 350.792969 C 57.972656 348.035156 63.867188 344.996094 63.695312 341.558594 C 63.527344 338.125 55.652344 331.765625 53.441406 329.230469 Z M 53.441406 329.230469 "/>
<path style=" stroke:none;fill-rule:nonzero;fill:rgb(100%,67.449951%,91.758728%);fill-opacity:1;" d="M 54.460938 347.921875 C 53.78125 346.121094 52.761719 343.867188 54.121094 342.40625 C 55.652344 344.320312 56.726562 346.289062 57.804688 348.089844 C 59.789062 351.355469 62.960938 353.832031 66.644531 354.902344 L 83.53125 359.855469 C 83.414062 348.933594 83.019531 345.105469 82.28125 328.386719 C 82.28125 328.046875 82.226562 327.65625 82.226562 327.316406 L 98.261719 327.316406 C 100.246094 334.859375 100.359375 342.96875 100.300781 350.792969 C 100.246094 356.027344 100.074219 361.488281 97.980469 366.332031 C 96.730469 369.203125 95.144531 371.230469 93.332031 372.523438 C 86.078125 377.871094 75.3125 372.128906 67.664062 366.613281 C 62.507812 362.898438 58.652344 355.636719 53.269531 352.820312 C 54.914062 351.582031 55.199219 349.835938 54.460938 347.921875 Z M 54.460938 347.921875 "/>
<path style=" stroke:none;fill-rule:nonzero;fill:rgb(100%,67.449951%,91.758728%);fill-opacity:1;" d="M 84.4375 359.855469 C 84.4375 359.855469 84.378906 359.855469 84.378906 359.914062 C 84.378906 359.855469 84.378906 359.855469 84.4375 359.855469 Z M 84.4375 359.855469 "/>
<path style=" stroke:none;fill-rule:nonzero;fill:rgb(100%,67.449951%,91.758728%);fill-opacity:1;" d="M 84.605469 359.6875 C 84.605469 359.6875 84.550781 359.6875 84.550781 359.746094 C 84.605469 359.746094 84.605469 359.6875 84.605469 359.6875 C 84.664062 359.6875 84.664062 359.6875 84.605469 359.6875 Z M 84.605469 359.6875 "/>
<path style=" stroke:none;fill-rule:nonzero;fill:rgb(100%,67.449951%,91.758728%);fill-opacity:1;" d="M 127.5 416.886719 C 127.105469 418.238281 125.234375 418.292969 123.875 417.957031 C 121.210938 417.394531 118.492188 416.269531 115.714844 414.972656 C 109.027344 411.988281 102.058594 408.21875 95.429688 409.230469 C 89.933594 410.019531 84.378906 410.1875 79.167969 410.132812 C 79.222656 405.457031 79.28125 400.785156 79.28125 396.113281 C 87.496094 397.238281 95.824219 397.800781 103.644531 400.617188 C 104.15625 400.785156 104.609375 400.898438 105.0625 400.953125 C 107.894531 401.96875 110.785156 403.039062 113.5625 404.390625 C 118.71875 406.808594 123.589844 410.019531 126.820312 414.691406 C 127.332031 415.367188 127.726562 416.15625 127.5 416.886719 Z M 127.5 416.886719 "/>
<path style=" stroke:none;fill-rule:nonzero;fill:rgb(18.818665%,57.649231%,81.568909%);fill-opacity:1;" d="M 127.5 416.886719 C 127.105469 418.238281 125.234375 418.292969 123.875 417.957031 C 121.210938 417.394531 118.492188 416.269531 115.714844 414.972656 C 117.019531 413.847656 117.925781 412.441406 117.300781 410.355469 C 116.847656 408.835938 115.714844 407.652344 114.808594 406.359375 C 114.355469 405.738281 113.957031 405.007812 113.617188 404.332031 C 118.773438 406.753906 123.648438 409.960938 126.878906 414.636719 C 127.332031 415.367188 127.726562 416.15625 127.5 416.886719 Z M 127.5 416.886719 "/>
</g>
</svg>
