<?xml version="1.0" encoding="UTF-8"?>
<svg xmlns="http://www.w3.org/2000/svg" xmlns:xlink="http://www.w3.org/1999/xlink" width="300pt" height="449.999984pt" viewBox="0 0 300 449.999984" version="1.2">
<defs>
<filter id="alpha" filterUnits="objectBoundingBox" x="0%" y="0%" width="100%" height="100%">
  <feColorMatrix type="matrix" in="SourceGraphic" values="0 0 0 0 1 0 0 0 0 1 0 0 0 0 1 0 0 0 1 0"/>
</filter>
<mask id="mask0">
  <g filter="url(#alpha)">
<rect x="0" y="0" width="300" height="449.999984" style="fill:rgb(0%,0%,0%);fill-opacity:0.4;stroke:none;"/>
  </g>
</mask>
<clipPath id="clip2">
  <path d="M 15 226 L 90 226 L 90 300.675781 L 15 300.675781 Z M 15 226 "/>
</clipPath>
<clipPath id="clip1">
  <rect x="0" y="0" width="298" height="304"/>
</clipPath>
<g id="surface5" clip-path="url(#clip1)">
<path style=" stroke:none;fill-rule:nonzero;fill:rgb(97.24884%,95.689392%,95.689392%);fill-opacity:1;" d="M 83.617188 102.5625 L 21.703125 102.5625 C 18.285156 102.5625 15.511719 99.777344 15.511719 96.371094 L 15.511719 34.457031 C 15.511719 31.039062 18.285156 28.265625 21.703125 28.265625 L 83.617188 28.265625 C 87.035156 28.265625 89.808594 31.039062 89.808594 34.457031 L 89.808594 96.371094 C 89.808594 99.777344 87.035156 102.5625 83.617188 102.5625 Z M 27.894531 90.179688 L 77.425781 90.179688 L 77.425781 40.648438 L 27.894531 40.648438 Z M 27.894531 90.179688 "/>
<path style=" stroke:none;fill-rule:nonzero;fill:rgb(97.24884%,95.689392%,95.689392%);fill-opacity:1;" d="M 52.660156 83.988281 C 52.203125 83.988281 51.730469 83.9375 51.285156 83.8125 C 49.464844 83.40625 47.929688 82.179688 47.101562 80.507812 L 35.238281 56.261719 C 33.738281 53.191406 35.003906 49.488281 38.074219 47.976562 C 41.15625 46.464844 44.847656 47.753906 46.359375 50.8125 L 54.851562 68.175781 L 111.789062 23.371094 C 114.476562 21.265625 118.378906 21.726562 120.484375 24.414062 C 122.585938 27.113281 122.128906 30.988281 119.441406 33.105469 L 56.488281 82.636719 C 55.386719 83.527344 54.035156 83.988281 52.660156 83.988281 Z M 52.660156 83.988281 "/>
<path style=" stroke:none;fill-rule:nonzero;fill:rgb(97.24884%,95.689392%,95.689392%);fill-opacity:1;" d="M 83.617188 201.625 L 21.703125 201.625 C 18.285156 201.625 15.511719 198.839844 15.511719 195.433594 L 15.511719 133.519531 C 15.511719 130.101562 18.285156 127.328125 21.703125 127.328125 L 83.617188 127.328125 C 87.035156 127.328125 89.808594 130.101562 89.808594 133.519531 L 89.808594 195.433594 C 89.808594 198.839844 87.035156 201.625 83.617188 201.625 Z M 27.894531 189.242188 L 77.425781 189.242188 L 77.425781 139.710938 L 27.894531 139.710938 Z M 27.894531 189.242188 "/>
<path style=" stroke:none;fill-rule:nonzero;fill:rgb(97.24884%,95.689392%,95.689392%);fill-opacity:1;" d="M 52.660156 183.050781 C 52.203125 183.050781 51.730469 183 51.285156 182.878906 C 49.464844 182.46875 47.929688 181.242188 47.101562 179.558594 L 35.238281 155.3125 C 33.738281 152.242188 35.003906 148.539062 38.074219 147.027344 C 41.15625 145.519531 44.847656 146.792969 46.359375 149.863281 L 54.851562 167.226562 L 111.789062 122.425781 C 114.476562 120.320312 118.378906 120.789062 120.484375 123.464844 C 122.585938 126.164062 122.128906 130.039062 119.441406 132.15625 L 56.488281 181.6875 C 55.386719 182.59375 54.035156 183.050781 52.660156 183.050781 Z M 52.660156 183.050781 "/>
<g clip-path="url(#clip2)" clip-rule="nonzero">
<path style=" stroke:none;fill-rule:nonzero;fill:rgb(97.24884%,95.689392%,95.689392%);fill-opacity:1;" d="M 83.617188 300.6875 L 21.703125 300.6875 C 18.285156 300.6875 15.511719 297.902344 15.511719 294.496094 L 15.511719 232.582031 C 15.511719 229.164062 18.285156 226.390625 21.703125 226.390625 L 83.617188 226.390625 C 87.035156 226.390625 89.808594 229.164062 89.808594 232.582031 L 89.808594 294.496094 C 89.808594 297.902344 87.035156 300.6875 83.617188 300.6875 Z M 27.894531 288.304688 L 77.425781 288.304688 L 77.425781 238.773438 L 27.894531 238.773438 Z M 27.894531 288.304688 "/>
</g>
<path style=" stroke:none;fill-rule:nonzero;fill:rgb(97.24884%,95.689392%,95.689392%);fill-opacity:1;" d="M 287.9375 251.15625 L 151.726562 251.15625 C 148.308594 251.15625 145.535156 248.371094 145.535156 244.964844 C 145.535156 241.546875 148.308594 238.773438 151.726562 238.773438 L 287.9375 238.773438 C 291.34375 238.773438 294.128906 241.546875 294.128906 244.964844 C 294.128906 248.371094 291.34375 251.15625 287.9375 251.15625 Z M 287.9375 251.15625 "/>
<path style=" stroke:none;fill-rule:nonzero;fill:rgb(97.24884%,95.689392%,95.689392%);fill-opacity:1;" d="M 287.9375 288.304688 L 151.726562 288.304688 C 148.308594 288.304688 145.535156 285.519531 145.535156 282.113281 C 145.535156 278.695312 148.308594 275.921875 151.726562 275.921875 L 287.9375 275.921875 C 291.34375 275.921875 294.128906 278.695312 294.128906 282.113281 C 294.128906 285.519531 291.34375 288.304688 287.9375 288.304688 Z M 287.9375 288.304688 "/>
<path style=" stroke:none;fill-rule:nonzero;fill:rgb(97.24884%,95.689392%,95.689392%);fill-opacity:1;" d="M 287.9375 152.09375 L 151.726562 152.09375 C 148.308594 152.09375 145.535156 149.308594 145.535156 145.902344 C 145.535156 142.484375 148.308594 139.710938 151.726562 139.710938 L 287.9375 139.710938 C 291.34375 139.710938 294.128906 142.484375 294.128906 145.902344 C 294.128906 149.308594 291.34375 152.09375 287.9375 152.09375 Z M 287.9375 152.09375 "/>
<path style=" stroke:none;fill-rule:nonzero;fill:rgb(97.24884%,95.689392%,95.689392%);fill-opacity:1;" d="M 287.9375 189.242188 L 151.726562 189.242188 C 148.308594 189.242188 145.535156 186.457031 145.535156 183.050781 C 145.535156 179.632812 148.308594 176.859375 151.726562 176.859375 L 287.9375 176.859375 C 291.34375 176.859375 294.128906 179.632812 294.128906 183.050781 C 294.128906 186.457031 291.34375 189.242188 287.9375 189.242188 Z M 287.9375 189.242188 "/>
<path style=" stroke:none;fill-rule:nonzero;fill:rgb(97.24884%,95.689392%,95.689392%);fill-opacity:1;" d="M 287.9375 53.03125 L 151.726562 53.03125 C 148.308594 53.03125 145.535156 50.242188 145.535156 46.839844 C 145.535156 43.421875 148.308594 40.648438 151.726562 40.648438 L 287.9375 40.648438 C 291.34375 40.648438 294.128906 43.421875 294.128906 46.839844 C 294.128906 50.242188 291.34375 53.03125 287.9375 53.03125 Z M 287.9375 53.03125 "/>
<path style=" stroke:none;fill-rule:nonzero;fill:rgb(97.24884%,95.689392%,95.689392%);fill-opacity:1;" d="M 287.9375 90.179688 L 151.726562 90.179688 C 148.308594 90.179688 145.535156 87.390625 145.535156 83.988281 C 145.535156 80.570312 148.308594 77.796875 151.726562 77.796875 L 287.9375 77.796875 C 291.34375 77.796875 294.128906 80.570312 294.128906 83.988281 C 294.128906 87.390625 291.34375 90.179688 287.9375 90.179688 Z M 287.9375 90.179688 "/>
</g>
<clipPath id="clip3">
  <path d="M 250 377 L 278.9375 377 L 278.9375 397 L 250 397 Z M 250 377 "/>
</clipPath>
</defs>
<g id="surface1">
<use xlink:href="#surface5" transform="matrix(1,0,0,1,0,70)" mask="url(#mask0)"/>
<path style=" stroke:none;fill-rule:nonzero;fill:rgb(87.449646%,71.369934%,43.919373%);fill-opacity:1;" d="M 259.363281 375.09375 C 255.746094 368.121094 253.667969 360.542969 250.449219 353.4375 C 245.621094 342.84375 240.261719 329.972656 232.886719 320.453125 C 230.070312 311.601562 222.898438 310.0625 215.660156 312.003906 C 207.214844 312.339844 197.898438 316.296875 190.324219 318.710938 C 176.382812 323.066406 164.921875 331.378906 151.648438 336.542969 C 148.363281 337.816406 144.878906 338.621094 141.257812 339.222656 C 134.152344 338.621094 127.050781 338.019531 119.945312 337.347656 C 114.78125 336.878906 112.503906 336.410156 110.359375 341.167969 C 107.746094 346.867188 108.148438 356.789062 108.617188 362.957031 C 109.957031 381.394531 120.816406 390.714844 139.046875 386.019531 C 156.074219 381.664062 167.398438 371.335938 181.609375 361.414062 C 182.148438 361.082031 182.617188 360.8125 183.152344 360.476562 C 190.324219 356.121094 197.5625 351.492188 204.9375 347.402344 C 204.398438 351.492188 203.796875 355.449219 203.460938 359.269531 C 202.792969 368.589844 202.253906 378.042969 201.921875 387.496094 C 204.800781 386.421875 209.359375 386.554688 213.648438 386.757812 C 214.589844 381.996094 216.464844 377.238281 217.871094 372.8125 C 220.085938 365.773438 222.765625 358.933594 225.445312 352.164062 C 234.226562 361.484375 242.808594 371.136719 250.449219 381.328125 C 253.867188 380.253906 257.285156 379.046875 260.636719 377.640625 C 260.300781 376.96875 259.832031 376.03125 259.363281 375.09375 Z M 259.363281 375.09375 "/>
<path style=" stroke:none;fill-rule:nonzero;fill:rgb(54.508972%,32.159424%,15.289307%);fill-opacity:1;" d="M 201.988281 387.5625 C 201.851562 392.054688 201.71875 396.546875 201.652344 401.039062 C 201.652344 402.78125 203.058594 404.253906 204.800781 404.324219 C 210.699219 404.523438 216.597656 404.65625 222.496094 404.859375 C 223.234375 404.859375 223.839844 404.390625 223.90625 403.652344 C 224.039062 401.105469 216.597656 400.703125 215.125 399.292969 C 212.914062 397.214844 213.046875 395.203125 213.113281 392.320312 C 213.113281 390.511719 213.382812 388.703125 213.71875 386.824219 C 209.425781 386.625 204.871094 386.554688 201.988281 387.5625 Z M 201.988281 387.5625 "/>
<g clip-path="url(#clip3)" clip-rule="nonzero">
<path style=" stroke:none;fill-rule:nonzero;fill:rgb(54.508972%,32.159424%,15.289307%);fill-opacity:1;" d="M 277.59375 383.808594 C 276.925781 383.269531 275.917969 383.539062 275.117188 383.875 C 265.867188 387.496094 264.390625 385.015625 260.703125 377.773438 C 257.351562 379.113281 253.933594 380.386719 250.515625 381.460938 C 253.597656 385.550781 256.480469 389.773438 259.164062 394.066406 C 260.371094 395.742188 262.515625 396.480469 264.457031 395.808594 C 269.351562 394.199219 273.84375 391.113281 277.058594 387.027344 C 277.863281 386.085938 278.535156 384.613281 277.59375 383.808594 Z M 277.59375 383.808594 "/>
</g>
<path style=" stroke:none;fill-rule:nonzero;fill:rgb(54.508972%,32.159424%,15.289307%);fill-opacity:1;" d="M 118.066406 350.21875 C 121.082031 349.75 124.167969 349.148438 127.117188 348.476562 C 127.519531 348.410156 128.054688 348.273438 128.324219 348.207031 C 128.925781 348.074219 129.527344 347.871094 130.132812 347.738281 C 131.539062 347.335938 132.949219 347 134.355469 346.53125 C 142.332031 344.1875 150.105469 341.304688 157.679688 337.949219 C 159.625 336.878906 161.570312 335.738281 163.445312 334.597656 C 184.089844 321.859375 180.269531 299.335938 177.992188 277.679688 C 177.925781 277.007812 177.855469 276.40625 177.789062 275.734375 C 177.121094 270.4375 175.644531 264.941406 171.085938 262.460938 C 166.863281 260.183594 161.703125 261.589844 157.277344 263.46875 C 133.683594 273.390625 122.960938 291.089844 115.652344 314.285156 C 114.582031 317.570312 109.019531 334.261719 109.21875 344.789062 C 109.285156 348.34375 112.4375 351.089844 115.988281 350.554688 C 116.660156 350.421875 117.328125 350.355469 118.066406 350.21875 Z M 118.066406 350.21875 "/>
<path style=" stroke:none;fill-rule:nonzero;fill:rgb(39.608765%,21.958923%,9.799194%);fill-opacity:1;" d="M 225.917969 273.589844 C 225.984375 273.589844 225.984375 273.589844 225.917969 273.589844 C 227.59375 274.058594 228.328125 275.871094 227.523438 277.277344 C 219.882812 290.351562 206.007812 320.050781 203.195312 320.386719 C 202.992188 320.386719 202.1875 320.117188 201.25 319.78125 C 199.773438 319.246094 199.105469 317.503906 199.910156 316.160156 C 203.730469 309.59375 208.621094 303.960938 212.042969 296.988281 C 215.726562 289.546875 218.675781 281.769531 222.96875 274.664062 C 223.636719 273.65625 224.84375 273.253906 225.917969 273.589844 Z M 225.917969 273.589844 "/>
<path style=" stroke:none;fill-rule:nonzero;fill:rgb(97.24884%,95.689392%,95.689392%);fill-opacity:1;" d="M 213.648438 312.339844 C 197.832031 311.601562 182.617188 317.703125 168.070312 323.738281 C 158.21875 327.828125 148.429688 331.851562 138.578125 335.941406 C 139.785156 332.855469 146.6875 319.582031 152.722656 305.769531 C 151.714844 305.703125 150.644531 305.570312 149.636719 305.503906 C 143.738281 304.832031 137.90625 303.691406 132.144531 302.484375 C 131.40625 304.027344 130.800781 305.300781 130.402344 306.238281 C 123.832031 320.652344 120.144531 336.339844 119.878906 352.097656 C 119.742188 361.347656 142.601562 353.636719 147.023438 351.828125 C 163.578125 344.921875 178.660156 334.53125 190.996094 321.59375 C 196.023438 321.792969 201.046875 320.855469 205.671875 318.976562 C 206.546875 318.507812 214.1875 312.339844 213.648438 312.339844 Z M 213.648438 312.339844 "/>
<path style=" stroke:none;fill-rule:nonzero;fill:rgb(97.24884%,95.689392%,95.689392%);fill-opacity:1;" d="M 167.066406 255.691406 C 167.398438 254.886719 167.667969 253.878906 168.003906 252.941406 C 168.070312 252.671875 168.136719 252.40625 168.203125 252.136719 C 168.339844 251.535156 168.605469 251.132812 168.941406 250.863281 C 169.074219 250.660156 169.210938 250.460938 169.410156 250.257812 C 170.617188 248.917969 171.488281 249.589844 172.695312 250.058594 C 173.96875 250.59375 175.914062 250.394531 176.316406 252.339844 C 176.648438 253.878906 175.644531 256.09375 175.242188 257.566406 C 174.640625 259.914062 174.171875 262.59375 173.300781 264.808594 C 172.023438 268.027344 167.667969 267.085938 166.195312 265.074219 C 165.253906 264.941406 164.519531 264.003906 164.921875 262.527344 C 165.589844 260.183594 166.261719 257.902344 167.066406 255.691406 Z M 167.066406 255.691406 "/>
<path style=" stroke:none;fill-rule:nonzero;fill:rgb(97.24884%,95.689392%,95.689392%);fill-opacity:1;" d="M 173.566406 243.554688 C 176.917969 243.421875 179.0625 246.171875 180.070312 249.253906 C 181.007812 252.136719 180.804688 256.496094 178.796875 258.976562 C 177.1875 260.988281 174.773438 261.722656 172.828125 260.851562 C 171.222656 260.382812 169.8125 259.175781 168.875 257.769531 C 167.199219 255.289062 166.597656 251.667969 167.398438 248.652344 C 168.203125 245.433594 170.550781 243.691406 173.566406 243.554688 Z M 173.566406 243.554688 "/>
<path style=" stroke:none;fill-rule:nonzero;fill:rgb(39.608765%,21.958923%,9.799194%);fill-opacity:1;" d="M 164.183594 249.253906 C 164.519531 247.445312 164.988281 245.699219 165.324219 244.894531 C 169.410156 235.441406 174.574219 244.492188 180.738281 242.886719 C 183.6875 242.148438 186.636719 241.609375 189.652344 241.410156 C 191.128906 241.277344 192.738281 241.277344 194.011719 242.011719 C 196.691406 243.621094 196.355469 247.980469 194.078125 250.058594 C 191.800781 252.136719 188.378906 252.472656 185.296875 252.269531 C 182.414062 252.070312 179.199219 249.523438 176.316406 250.058594 C 173.902344 250.527344 172.695312 253.476562 170.351562 254.28125 C 166.058594 255.757812 163.3125 254.214844 164.183594 249.253906 Z M 164.183594 249.253906 "/>
<path style=" stroke:none;fill-rule:nonzero;fill:rgb(97.24884%,95.689392%,95.689392%);fill-opacity:1;" d="M 172.09375 249.992188 C 173.03125 250.257812 173.699219 251.398438 173.433594 252.40625 C 173.097656 253.410156 172.09375 254.082031 171.085938 253.8125 C 170.148438 253.542969 169.476562 252.40625 169.746094 251.398438 C 170.082031 250.394531 171.085938 249.722656 172.09375 249.992188 Z M 172.09375 249.992188 "/>
<path style=" stroke:none;fill-rule:nonzero;fill:rgb(97.24884%,95.689392%,95.689392%);fill-opacity:1;" d="M 90.785156 373.886719 C 89.042969 378.511719 86.429688 382.800781 83.144531 386.488281 C 80.195312 389.707031 76.644531 392.722656 75.4375 396.878906 C 74.5 400.03125 75.101562 403.652344 73.492188 406.535156 C 70.542969 411.628906 63.238281 411.027344 57.339844 411.5625 C 47.21875 412.433594 37.5 418.601562 27.578125 416.457031 C 25.96875 416.121094 24.359375 415.519531 23.222656 414.3125 C 21.34375 412.234375 21.410156 408.949219 22.484375 406.332031 C 25.234375 399.628906 32.671875 396.410156 39.375 393.796875 C 46.75 390.914062 59.753906 388.300781 65.449219 382.667969 C 70.074219 378.042969 65.851562 371.605469 73.089844 369.660156 C 73.226562 372.277344 73.359375 374.890625 72.890625 377.371094 C 71.75 383.605469 66.722656 388.566406 61.292969 391.785156 C 55.796875 395.003906 49.699219 396.949219 44.066406 399.964844 C 42.457031 400.835938 40.851562 401.84375 40.046875 403.382812 C 39.242188 404.992188 39.578125 407.273438 41.253906 408.011719 C 42.257812 408.480469 43.398438 408.210938 44.402344 408.011719 C 48.960938 407.003906 53.519531 406.066406 58.078125 405.058594 C 59.351562 404.792969 60.691406 404.523438 61.832031 403.851562 C 63.773438 402.78125 65.046875 400.769531 66.253906 398.824219 C 69.070312 394.265625 92.261719 364.699219 73.15625 369.527344 C 73.089844 369.527344 73.089844 369.527344 73.023438 369.527344 C 72.890625 365.90625 72.824219 362.355469 74.699219 359.402344 C 77.714844 354.578125 85.492188 353.773438 89.378906 357.863281 C 93.265625 362.085938 92.730469 368.65625 90.785156 373.886719 Z M 90.785156 373.886719 "/>
<path style=" stroke:none;fill-rule:nonzero;fill:rgb(97.24884%,95.689392%,95.689392%);fill-opacity:1;" d="M 69.671875 363.964844 C 69.875 361.886719 70.207031 359.738281 71.347656 357.996094 C 73.089844 355.316406 76.441406 354.175781 79.59375 353.238281 C 86.898438 351.089844 94.808594 349.28125 102.113281 351.425781 C 109.554688 353.636719 115.320312 359.671875 119.40625 366.242188 C 124.367188 374.152344 127.519531 383.269531 128.523438 392.589844 C 128.726562 394.667969 128.859375 396.949219 127.785156 398.757812 C 126.914062 400.300781 125.441406 401.304688 123.964844 402.246094 C 114.3125 408.277344 84.953125 419.941406 75.636719 407.875 C 72.6875 404.054688 73.089844 396.277344 72.019531 391.652344 C 69.804688 382.535156 68.734375 373.417969 69.671875 363.964844 Z M 69.671875 363.964844 "/>
<path style=" stroke:none;fill-rule:nonzero;fill:rgb(97.24884%,95.689392%,95.689392%);fill-opacity:1;" d="M 73.828125 343.648438 C 73.089844 340.230469 72.753906 335.941406 75.703125 334.128906 C 78.253906 332.65625 81.535156 334.128906 83.679688 336.140625 C 88.640625 340.632812 91.253906 347.539062 90.585938 354.175781 C 88.238281 350.285156 85.894531 346.398438 83.546875 342.507812 C 82.945312 341.503906 82.339844 340.5 81.335938 339.761719 C 80.398438 339.089844 79.054688 338.824219 78.050781 339.492188 C 76.644531 341.503906 77.3125 344.320312 78.65625 346.398438 C 80.464844 349.28125 83.949219 352.03125 83.210938 355.71875 C 78.253906 354.644531 74.832031 348.34375 73.828125 343.648438 Z M 73.828125 343.648438 "/>
<path style=" stroke:none;fill-rule:nonzero;fill:rgb(39.608765%,21.958923%,9.799194%);fill-opacity:1;" d="M 122.828125 375.226562 C 122.828125 375.160156 122.757812 375.09375 122.757812 375.023438 C 121.886719 376.835938 120.679688 378.445312 119.339844 379.71875 C 115.117188 383.671875 109.421875 385.214844 104.460938 386.222656 C 101.042969 386.957031 97.488281 387.496094 94.070312 387.964844 C 92.128906 388.230469 89.980469 388.566406 88.171875 387.964844 C 85.757812 387.160156 83.816406 384.476562 82.878906 380.65625 C 82.609375 379.582031 81.9375 377.773438 80.53125 377.171875 C 79.929688 376.902344 79.191406 376.902344 78.519531 377.171875 L 79.527344 379.183594 C 79.527344 379.183594 79.457031 379.183594 79.390625 379.183594 C 79.59375 379.25 80.128906 379.917969 80.398438 381.191406 C 81.066406 383.875 82.878906 388.566406 87.167969 390.042969 C 88.777344 390.578125 90.453125 390.578125 91.992188 390.445312 C 92.796875 390.378906 93.601562 390.242188 94.339844 390.109375 C 97.757812 389.574219 101.378906 389.035156 104.863281 388.300781 C 110.226562 387.226562 116.324219 385.484375 121.015625 381.125 C 122.089844 380.121094 123.027344 378.980469 123.898438 377.640625 C 123.496094 376.96875 123.09375 376.097656 122.828125 375.226562 Z M 122.828125 375.226562 "/>
</g>
</svg>
