<?xml version="1.0" encoding="UTF-8"?>
<svg xmlns="http://www.w3.org/2000/svg" xmlns:xlink="http://www.w3.org/1999/xlink" width="300pt" height="449.999984pt" viewBox="0 0 300 449.999984" version="1.2">
<defs>
<filter id="alpha" filterUnits="objectBoundingBox" x="0%" y="0%" width="100%" height="100%">
  <feColorMatrix type="matrix" in="SourceGraphic" values="0 0 0 0 1 0 0 0 0 1 0 0 0 0 1 0 0 0 1 0"/>
</filter>
<mask id="mask0">
  <g filter="url(#alpha)">
<rect x="0" y="0" width="300" height="449.999984" style="fill:rgb(0%,0%,0%);fill-opacity:0.4;stroke:none;"/>
  </g>
</mask>
<clipPath id="clip2">
  <path d="M 15 226 L 90 226 L 90 300.675781 L 15 300.675781 Z M 15 226 "/>
</clipPath>
<clipPath id="clip1">
  <rect x="0" y="0" width="298" height="304"/>
</clipPath>
<g id="surface5" clip-path="url(#clip1)">
<path style=" stroke:none;fill-rule:nonzero;fill:rgb(97.24884%,95.689392%,95.689392%);fill-opacity:1;" d="M 83.617188 102.5625 L 21.703125 102.5625 C 18.285156 102.5625 15.511719 99.777344 15.511719 96.371094 L 15.511719 34.457031 C 15.511719 31.039062 18.285156 28.265625 21.703125 28.265625 L 83.617188 28.265625 C 87.035156 28.265625 89.808594 31.039062 89.808594 34.457031 L 89.808594 96.371094 C 89.808594 99.777344 87.035156 102.5625 83.617188 102.5625 Z M 27.894531 90.179688 L 77.425781 90.179688 L 77.425781 40.648438 L 27.894531 40.648438 Z M 27.894531 90.179688 "/>
<path style=" stroke:none;fill-rule:nonzero;fill:rgb(97.24884%,95.689392%,95.689392%);fill-opacity:1;" d="M 52.660156 83.988281 C 52.203125 83.988281 51.730469 83.9375 51.285156 83.8125 C 49.464844 83.40625 47.929688 82.179688 47.101562 80.507812 L 35.238281 56.261719 C 33.738281 53.191406 35.003906 49.488281 38.074219 47.976562 C 41.15625 46.464844 44.847656 47.753906 46.359375 50.8125 L 54.851562 68.175781 L 111.789062 23.371094 C 114.476562 21.265625 118.378906 21.726562 120.484375 24.414062 C 122.585938 27.113281 122.128906 30.988281 119.441406 33.105469 L 56.488281 82.636719 C 55.386719 83.527344 54.035156 83.988281 52.660156 83.988281 Z M 52.660156 83.988281 "/>
<path style=" stroke:none;fill-rule:nonzero;fill:rgb(97.24884%,95.689392%,95.689392%);fill-opacity:1;" d="M 83.617188 201.625 L 21.703125 201.625 C 18.285156 201.625 15.511719 198.839844 15.511719 195.433594 L 15.511719 133.519531 C 15.511719 130.101562 18.285156 127.328125 21.703125 127.328125 L 83.617188 127.328125 C 87.035156 127.328125 89.808594 130.101562 89.808594 133.519531 L 89.808594 195.433594 C 89.808594 198.839844 87.035156 201.625 83.617188 201.625 Z M 27.894531 189.242188 L 77.425781 189.242188 L 77.425781 139.710938 L 27.894531 139.710938 Z M 27.894531 189.242188 "/>
<path style=" stroke:none;fill-rule:nonzero;fill:rgb(97.24884%,95.689392%,95.689392%);fill-opacity:1;" d="M 52.660156 183.050781 C 52.203125 183.050781 51.730469 183 51.285156 182.878906 C 49.464844 182.46875 47.929688 181.242188 47.101562 179.558594 L 35.238281 155.3125 C 33.738281 152.242188 35.003906 148.539062 38.074219 147.027344 C 41.15625 145.519531 44.847656 146.792969 46.359375 149.863281 L 54.851562 167.226562 L 111.789062 122.425781 C 114.476562 120.320312 118.378906 120.789062 120.484375 123.464844 C 122.585938 126.164062 122.128906 130.039062 119.441406 132.15625 L 56.488281 181.6875 C 55.386719 182.59375 54.035156 183.050781 52.660156 183.050781 Z M 52.660156 183.050781 "/>
<g clip-path="url(#clip2)" clip-rule="nonzero">
<path style=" stroke:none;fill-rule:nonzero;fill:rgb(97.24884%,95.689392%,95.689392%);fill-opacity:1;" d="M 83.617188 300.6875 L 21.703125 300.6875 C 18.285156 300.6875 15.511719 297.902344 15.511719 294.496094 L 15.511719 232.582031 C 15.511719 229.164062 18.285156 226.390625 21.703125 226.390625 L 83.617188 226.390625 C 87.035156 226.390625 89.808594 229.164062 89.808594 232.582031 L 89.808594 294.496094 C 89.808594 297.902344 87.035156 300.6875 83.617188 300.6875 Z M 27.894531 288.304688 L 77.425781 288.304688 L 77.425781 238.773438 L 27.894531 238.773438 Z M 27.894531 288.304688 "/>
</g>
<path style=" stroke:none;fill-rule:nonzero;fill:rgb(97.24884%,95.689392%,95.689392%);fill-opacity:1;" d="M 287.9375 251.15625 L 151.726562 251.15625 C 148.308594 251.15625 145.535156 248.371094 145.535156 244.964844 C 145.535156 241.546875 148.308594 238.773438 151.726562 238.773438 L 287.9375 238.773438 C 291.34375 238.773438 294.128906 241.546875 294.128906 244.964844 C 294.128906 248.371094 291.34375 251.15625 287.9375 251.15625 Z M 287.9375 251.15625 "/>
<path style=" stroke:none;fill-rule:nonzero;fill:rgb(97.24884%,95.689392%,95.689392%);fill-opacity:1;" d="M 287.9375 288.304688 L 151.726562 288.304688 C 148.308594 288.304688 145.535156 285.519531 145.535156 282.113281 C 145.535156 278.695312 148.308594 275.921875 151.726562 275.921875 L 287.9375 275.921875 C 291.34375 275.921875 294.128906 278.695312 294.128906 282.113281 C 294.128906 285.519531 291.34375 288.304688 287.9375 288.304688 Z M 287.9375 288.304688 "/>
<path style=" stroke:none;fill-rule:nonzero;fill:rgb(97.24884%,95.689392%,95.689392%);fill-opacity:1;" d="M 287.9375 152.09375 L 151.726562 152.09375 C 148.308594 152.09375 145.535156 149.308594 145.535156 145.902344 C 145.535156 142.484375 148.308594 139.710938 151.726562 139.710938 L 287.9375 139.710938 C 291.34375 139.710938 294.128906 142.484375 294.128906 145.902344 C 294.128906 149.308594 291.34375 152.09375 287.9375 152.09375 Z M 287.9375 152.09375 "/>
<path style=" stroke:none;fill-rule:nonzero;fill:rgb(97.24884%,95.689392%,95.689392%);fill-opacity:1;" d="M 287.9375 189.242188 L 151.726562 189.242188 C 148.308594 189.242188 145.535156 186.457031 145.535156 183.050781 C 145.535156 179.632812 148.308594 176.859375 151.726562 176.859375 L 287.9375 176.859375 C 291.34375 176.859375 294.128906 179.632812 294.128906 183.050781 C 294.128906 186.457031 291.34375 189.242188 287.9375 189.242188 Z M 287.9375 189.242188 "/>
<path style=" stroke:none;fill-rule:nonzero;fill:rgb(97.24884%,95.689392%,95.689392%);fill-opacity:1;" d="M 287.9375 53.03125 L 151.726562 53.03125 C 148.308594 53.03125 145.535156 50.242188 145.535156 46.839844 C 145.535156 43.421875 148.308594 40.648438 151.726562 40.648438 L 287.9375 40.648438 C 291.34375 40.648438 294.128906 43.421875 294.128906 46.839844 C 294.128906 50.242188 291.34375 53.03125 287.9375 53.03125 Z M 287.9375 53.03125 "/>
<path style=" stroke:none;fill-rule:nonzero;fill:rgb(97.24884%,95.689392%,95.689392%);fill-opacity:1;" d="M 287.9375 90.179688 L 151.726562 90.179688 C 148.308594 90.179688 145.535156 87.390625 145.535156 83.988281 C 145.535156 80.570312 148.308594 77.796875 151.726562 77.796875 L 287.9375 77.796875 C 291.34375 77.796875 294.128906 80.570312 294.128906 83.988281 C 294.128906 87.390625 291.34375 90.179688 287.9375 90.179688 Z M 287.9375 90.179688 "/>
</g>
<clipPath id="clip3">
  <path d="M 133 410 L 153 410 L 153 420.324219 L 133 420.324219 Z M 133 410 "/>
</clipPath>
<clipPath id="clip4">
  <path d="M 134 150.324219 L 149 150.324219 L 149 167 L 134 167 Z M 134 150.324219 "/>
</clipPath>
<clipPath id="clip5">
  <path d="M 135 150.324219 L 160 150.324219 L 160 174 L 135 174 Z M 135 150.324219 "/>
</clipPath>
<clipPath id="clip6">
  <path d="M 194 172 L 208.515625 172 L 208.515625 195 L 194 195 Z M 194 172 "/>
</clipPath>
</defs>
<g id="surface1">
<use xlink:href="#surface5" transform="matrix(1,0,0,1,0,70)" mask="url(#mask0)"/>
<path style=" stroke:none;fill-rule:nonzero;fill:rgb(96.469116%,68.629456%,49.01886%);fill-opacity:1;" d="M 144.207031 368.082031 L 145.511719 348.207031 L 146.921875 327.136719 L 149.199219 292.925781 L 149.960938 282.390625 L 126.085938 282.390625 L 126.085938 318.558594 L 128.039062 326.921875 L 131.1875 363.519531 L 132.054688 379.488281 L 133.574219 410.546875 L 141.496094 410.546875 Z M 144.207031 368.082031 "/>
<g clip-path="url(#clip3)" clip-rule="nonzero">
<path style=" stroke:none;fill-rule:nonzero;fill:rgb(100%,100%,100%);fill-opacity:1;" d="M 152.347656 417.824219 L 142.253906 411.417969 L 141.386719 410.875 L 141.386719 410.546875 L 133.464844 410.546875 L 133.574219 412.070312 L 133.898438 420.324219 L 136.828125 420.324219 L 136.828125 415.652344 L 147.246094 420.324219 L 151.804688 420.324219 C 152.890625 420.324219 153.214844 418.257812 152.347656 417.824219 Z M 152.347656 417.824219 "/>
</g>
<path style=" stroke:none;fill-rule:nonzero;fill:rgb(96.469116%,68.629456%,49.01886%);fill-opacity:1;" d="M 173.832031 333.21875 C 173.832031 338.214844 171.878906 342.777344 168.296875 346.035156 L 110.246094 399.035156 L 108.507812 401.207031 L 108.507812 401.75 L 108.507812 401.316406 L 110.246094 413.371094 C 110.246094 413.589844 110.246094 413.699219 110.136719 413.914062 C 109.917969 414.242188 109.484375 414.351562 109.050781 414.242188 C 108.835938 414.242188 108.726562 414.023438 108.507812 413.914062 L 105.6875 410.222656 L 102.433594 400.554688 L 102.324219 400.664062 L 99.828125 402.511719 L 97.550781 399.578125 L 104.167969 392.410156 L 105.472656 391.109375 L 157.121094 335.71875 L 149.199219 292.382812 L 163.089844 282.824219 L 173.070312 325.183594 C 173.722656 327.789062 173.832031 330.503906 173.832031 333.21875 Z M 173.832031 333.21875 "/>
<path style=" stroke:none;fill-rule:nonzero;fill:rgb(87.449646%,71.369934%,43.919373%);fill-opacity:1;" d="M 146.378906 173.347656 C 146.597656 183.230469 150.9375 185.621094 154.625 194.527344 C 156.46875 198.980469 159.832031 203.757812 164.609375 203.542969 C 167.539062 203.433594 170.140625 201.367188 171.988281 198.980469 C 177.085938 192.464844 180.882812 178.125 170.140625 174.867188 C 165.800781 173.566406 161.027344 173.023438 157.121094 170.851562 C 155.925781 170.199219 154.84375 169.222656 153.867188 168.242188 C 152.457031 171.066406 149.632812 173.023438 146.378906 173.347656 Z M 146.378906 173.347656 "/>
<g clip-path="url(#clip4)" clip-rule="nonzero">
<path style=" stroke:none;fill-rule:nonzero;fill:rgb(87.449646%,71.369934%,43.919373%);fill-opacity:1;" d="M 135.851562 161.402344 C 135.851562 161.292969 135.960938 161.183594 136.070312 161.074219 C 136.828125 158.6875 138.457031 156.621094 140.628906 155.425781 L 144.644531 152.710938 C 144.96875 152.820312 145.292969 152.820312 145.621094 152.820312 C 145.945312 152.386719 146.269531 151.953125 146.597656 151.734375 C 146.921875 151.410156 147.464844 151.191406 148.007812 151.082031 C 144.425781 150.324219 140.519531 151.300781 137.804688 154.015625 C 134.441406 157.382812 133.683594 162.269531 135.527344 166.398438 C 135.203125 164.769531 135.09375 163.03125 135.851562 161.402344 Z M 135.851562 161.402344 "/>
</g>
<path style=" stroke:none;fill-rule:nonzero;fill:rgb(96.469116%,68.629456%,49.01886%);fill-opacity:1;" d="M 156.796875 161.074219 C 156.6875 161.183594 156.578125 161.292969 156.46875 161.292969 C 153.757812 163.683594 148.332031 164.660156 144.859375 165.960938 C 144.316406 166.179688 143.773438 166.398438 143.230469 166.613281 C 140.519531 167.699219 137.914062 169.222656 136.289062 171.609375 L 136.289062 184.207031 L 148.550781 183.773438 L 148.332031 173.023438 C 151.585938 172.695312 154.410156 170.632812 155.820312 167.917969 C 156.46875 166.613281 156.902344 165.09375 156.902344 163.464844 C 157.121094 162.703125 157.011719 161.835938 156.796875 161.074219 Z M 156.796875 161.074219 "/>
<g clip-path="url(#clip5)" clip-rule="nonzero">
<path style=" stroke:none;fill-rule:nonzero;fill:rgb(87.449646%,71.369934%,43.919373%);fill-opacity:1;" d="M 159.292969 155.210938 C 158.964844 153.039062 156.902344 151.300781 154.734375 150.867188 C 152.996094 150.539062 150.066406 150.324219 148.007812 150.976562 C 147.464844 151.191406 146.921875 151.410156 146.597656 151.625 C 146.269531 151.953125 145.945312 152.277344 145.621094 152.710938 C 145.292969 152.710938 144.96875 152.605469 144.644531 152.605469 L 140.628906 155.320312 C 138.457031 156.515625 136.828125 158.46875 136.070312 160.964844 C 135.960938 161.074219 135.960938 161.183594 135.851562 161.292969 C 135.09375 162.921875 135.203125 164.550781 135.527344 166.398438 C 135.636719 167.046875 135.746094 167.59375 135.851562 168.242188 C 136.179688 169.871094 136.394531 171.609375 135.960938 173.128906 L 136.179688 172.042969 C 136.289062 171.9375 136.394531 171.71875 136.503906 171.609375 C 138.132812 169.222656 140.734375 167.808594 143.449219 166.613281 C 143.992188 166.398438 144.535156 166.179688 145.078125 165.960938 C 148.441406 164.769531 153.972656 163.683594 156.6875 161.292969 C 156.796875 161.183594 156.902344 161.074219 157.011719 161.074219 C 158.421875 159.554688 159.617188 157.382812 159.292969 155.210938 Z M 159.292969 155.210938 "/>
</g>
<path style=" stroke:none;fill-rule:nonzero;fill:rgb(71.759033%,47.839355%,24.708557%);fill-opacity:1;" d="M 188.914062 200.175781 L 180.992188 211.359375 L 170.578125 190.183594 C 170.25 189.421875 169.816406 188.769531 169.382812 188.117188 C 167.648438 185.730469 165.257812 183.992188 162.546875 183.015625 C 165.691406 184.96875 161.460938 185.839844 162.546875 189.640625 L 163.738281 195.394531 L 165.152344 208.210938 L 166.34375 219.179688 L 166.5625 219.613281 L 172.53125 228.957031 C 175.566406 233.734375 182.621094 233.300781 185.226562 228.304688 L 205.734375 188.011719 L 197.378906 204.519531 Z M 188.914062 200.175781 "/>
<path style=" stroke:none;fill-rule:nonzero;fill:rgb(96.469116%,68.629456%,49.01886%);fill-opacity:1;" d="M 205.191406 184.101562 C 204.648438 183.558594 204.105469 183.230469 203.453125 183.121094 L 198.246094 192.898438 C 197.8125 193.765625 196.726562 194.199219 195.859375 193.765625 C 195.097656 193.441406 194.773438 192.679688 194.882812 191.8125 L 189.023438 200.175781 L 197.488281 204.519531 L 205.839844 188.011719 C 206.167969 187.359375 206.277344 186.707031 206.167969 185.945312 C 205.949219 185.296875 205.734375 184.644531 205.191406 184.101562 Z M 205.191406 184.101562 "/>
<g clip-path="url(#clip6)" clip-rule="nonzero">
<path style=" stroke:none;fill-rule:nonzero;fill:rgb(12.548828%,38.42926%,66.268921%);fill-opacity:1;" d="M 195.859375 193.984375 C 196.726562 194.417969 197.8125 193.984375 198.246094 193.113281 L 203.453125 183.449219 L 208.011719 174.867188 C 208.445312 174 208.011719 172.914062 207.144531 172.480469 C 206.277344 172.042969 205.191406 172.480469 204.757812 173.347656 L 194.992188 191.59375 C 194.882812 191.8125 194.882812 191.921875 194.882812 192.136719 C 194.664062 192.789062 195.097656 193.65625 195.859375 193.984375 Z M 195.859375 193.984375 "/>
</g>
<path style=" stroke:none;fill-rule:nonzero;fill:rgb(71.759033%,47.839355%,24.708557%);fill-opacity:1;" d="M 124.351562 274.898438 L 124.460938 278.371094 Z M 124.351562 274.898438 "/>
<path style=" stroke:none;fill-rule:nonzero;fill:rgb(71.759033%,47.839355%,24.708557%);fill-opacity:1;" d="M 121.855469 211.359375 L 111.871094 326.703125 L 181.535156 327.136719 L 166.234375 211.6875 C 166.234375 208.320312 166.234375 204.953125 166.234375 201.695312 C 166.234375 197.675781 167.863281 188.988281 165.691406 185.730469 C 163.414062 182.035156 158.097656 180.300781 153.972656 180.300781 L 153.867188 180.300781 L 152.671875 180.515625 C 151.480469 185.296875 146.921875 188.878906 141.496094 188.878906 C 136.289062 188.878906 131.839844 185.730469 130.429688 181.277344 L 128.476562 181.386719 L 128.039062 181.386719 C 117.191406 182.035156 112.632812 192.355469 106.882812 200.390625 C 102.542969 206.472656 98.199219 212.445312 93.859375 218.527344 C 91.582031 221.789062 92.339844 226.242188 95.488281 228.519531 L 110.136719 239.707031 C 112.199219 236.882812 114.152344 234.058594 115.777344 231.777344 L 107.097656 224.394531 L 121.640625 208.429688 Z M 121.855469 211.359375 "/>
<path style=" stroke:none;fill-rule:nonzero;fill:rgb(96.469116%,68.629456%,49.01886%);fill-opacity:1;" d="M 129.886719 243.835938 L 115.886719 231.777344 C 114.261719 234.058594 112.199219 236.882812 110.246094 239.707031 L 124.570312 250.675781 C 126.414062 252.089844 129.015625 251.761719 130.535156 250.027344 C 131.1875 249.265625 131.511719 248.289062 131.511719 247.308594 C 131.511719 246.007812 130.96875 244.703125 129.886719 243.835938 Z M 129.886719 243.835938 "/>
<path style=" stroke:none;fill-rule:nonzero;fill:rgb(100%,100%,100%);fill-opacity:1;" d="M 103.410156 392.519531 L 96.789062 399.578125 Z M 103.410156 392.519531 "/>
<path style=" stroke:none;fill-rule:nonzero;fill:rgb(100%,100%,100%);fill-opacity:1;" d="M 110.355469 413.15625 C 110.355469 413.261719 110.246094 413.371094 110.246094 413.480469 C 110.246094 413.589844 110.136719 413.699219 110.027344 413.804688 C 109.8125 414.132812 109.378906 414.242188 108.941406 414.132812 C 108.726562 414.132812 107.964844 414.023438 107.859375 413.804688 L 104.386719 410.113281 L 101.78125 400.554688 L 102 400.449219 L 99.613281 402.511719 L 97.441406 399.578125 L 104.167969 392.519531 L 108.507812 400.773438 L 108.617188 400.882812 Z M 110.355469 413.15625 "/>
<path style=" stroke:none;fill-rule:nonzero;fill:rgb(96.469116%,68.629456%,49.01886%);fill-opacity:1;" d="M 128.476562 180.300781 C 130.429688 185.730469 135.960938 188.011719 142.363281 188.011719 C 148.765625 188.011719 154.191406 185.730469 156.253906 180.300781 Z M 128.476562 180.300781 "/>
</g>
</svg>
