<?xml version="1.0" encoding="UTF-8"?>
<svg xmlns="http://www.w3.org/2000/svg" xmlns:xlink="http://www.w3.org/1999/xlink" width="300pt" height="449.999984pt" viewBox="0 0 300 449.999984" version="1.2">
<defs>
<clipPath id="clip1">
  <path d="M 50.773438 244 L 245 244 L 245 411.972656 L 50.773438 411.972656 Z M 50.773438 244 "/>
</clipPath>
<clipPath id="clip2">
  <path d="M 64 197.824219 L 242 197.824219 L 242 300 L 64 300 Z M 64 197.824219 "/>
</clipPath>
</defs>
<g id="surface1">
<rect x="0" y="0" width="300" height="449.999984" style="fill:rgb(100%,100%,100%);fill-opacity:1;stroke:none;"/>
<rect x="0" y="0" width="300" height="449.999984" style="fill:rgb(100%,100%,100%);fill-opacity:1;stroke:none;"/>
<rect x="0" y="0" width="300" height="449.999984" style="fill:rgb(96.859741%,42.349243%,38.038635%);fill-opacity:1;stroke:none;"/>
<g clip-path="url(#clip1)" clip-rule="nonzero">
<path style=" stroke:none;fill-rule:nonzero;fill:rgb(89.7995%,68.238831%,25.489807%);fill-opacity:1;" d="M 225.355469 388.597656 C 222.597656 393.519531 224.796875 402.46875 224.796875 402.46875 C 224.796875 402.46875 202.648438 411.972656 152.328125 411.972656 C 103.382812 411.972656 84.292969 401.910156 84.292969 401.910156 C 84.511719 399.941406 84.597656 397.929688 84.640625 396.046875 C 84.078125 396.34375 83.433594 396.558594 82.785156 396.644531 L 82.742188 396.132812 C 83.433594 396.046875 84.078125 395.832031 84.640625 395.445312 C 84.640625 391.078125 84.292969 387.65625 84.292969 387.65625 C 84.292969 387.65625 73.824219 397.671875 61.027344 388.039062 C 60.898438 387.910156 60.726562 387.824219 60.597656 387.699219 C 60.640625 388.039062 60.726562 388.339844 60.855469 388.640625 L 60.382812 388.808594 C 60.167969 388.296875 60.039062 387.738281 59.996094 387.183594 C 54.566406 382.003906 52.671875 370.613281 52.367188 358.585938 C 51.980469 359.183594 51.59375 359.742188 51.164062 360.253906 L 50.773438 359.953125 C 51.378906 359.226562 51.894531 358.457031 52.324219 357.644531 C 52.28125 354.476562 52.28125 351.265625 52.410156 348.09375 C 52.109375 348.652344 51.980469 349.25 51.980469 349.851562 L 51.464844 349.851562 C 51.421875 348.867188 51.765625 347.882812 52.410156 347.152344 C 52.800781 337.648438 53.746094 328.871094 54.265625 323.605469 C 54.738281 321.125 55.167969 317.742188 55.730469 313.929688 C 55.472656 314.058594 55.253906 314.144531 54.996094 314.230469 L 54.867188 313.761719 C 55.210938 313.675781 55.515625 313.503906 55.816406 313.332031 C 56.632812 307.851562 57.710938 301.429688 59.476562 295.179688 C 58.832031 295.605469 58.316406 296.164062 57.925781 296.804688 L 57.496094 296.550781 C 58.011719 295.648438 58.789062 294.921875 59.691406 294.453125 C 61.546875 288.03125 64.175781 281.777344 68.007812 276.941406 L 67.878906 275.441406 L 68.394531 275.398438 L 68.484375 276.382812 C 70.59375 273.859375 73.050781 271.71875 75.9375 270.132812 C 76.109375 270.046875 76.28125 269.960938 76.453125 269.875 C 75.546875 269.277344 74.730469 268.550781 73.953125 267.777344 C 72.617188 266.410156 71.5 264.867188 70.335938 263.371094 C 69.171875 261.871094 67.964844 260.371094 67.019531 258.703125 C 66.371094 257.589844 65.855469 256.433594 65.554688 255.191406 C 65.378906 254.507812 64.21875 251.980469 65.726562 253.007812 C 67.921875 254.464844 69.644531 256.992188 71.457031 258.875 C 71.972656 259.386719 72.574219 260.203125 73.050781 260.714844 C 74.300781 262.042969 75.160156 263.285156 76.324219 264.652344 C 77.488281 265.980469 78.910156 267.09375 79.898438 268.507812 C 82.441406 267.777344 85.199219 267.566406 88 267.609375 C 87.871094 267.4375 87.699219 267.222656 87.613281 267.007812 C 87.355469 266.410156 87.3125 265.511719 87.871094 264.953125 L 88.214844 265.296875 C 87.828125 265.679688 87.828125 266.324219 88.042969 266.792969 C 88.171875 267.09375 88.386719 267.394531 88.648438 267.652344 C 92.867188 267.820312 97.304688 268.636719 101.570312 269.578125 C 101.789062 269.363281 101.960938 269.105469 102.089844 268.847656 L 102.519531 269.0625 C 102.390625 269.277344 102.261719 269.492188 102.089844 269.664062 C 106.871094 270.777344 111.523438 272.015625 115.574219 272.746094 C 115.445312 272.488281 115.359375 272.230469 115.316406 271.976562 L 115.832031 271.933594 C 115.875 272.273438 116.046875 272.617188 116.308594 272.917969 C 117.988281 273.214844 119.582031 273.386719 121.003906 273.386719 C 121.046875 272.746094 121.261719 272.144531 121.5625 271.589844 L 121.996094 271.847656 C 121.734375 272.316406 121.5625 272.875 121.476562 273.429688 C 124.96875 273.386719 127.507812 272.316406 128.671875 269.40625 C 128.328125 269.019531 128.027344 268.59375 127.769531 268.121094 L 128.199219 267.863281 C 128.414062 268.207031 128.628906 268.550781 128.886719 268.847656 C 129.015625 268.507812 129.101562 268.121094 129.191406 267.734375 C 129.621094 265.46875 129.621094 262.300781 131.6875 261.871094 C 131.988281 261.871094 132.335938 261.828125 132.636719 261.785156 C 133.023438 261.742188 133.367188 259.046875 133.714844 259.046875 C 135.996094 259.046875 138.367188 257.460938 140.605469 257.761719 C 143.277344 258.144531 145.648438 259.171875 148.363281 259.046875 C 151.292969 258.917969 153.101562 258.617188 156.546875 261.1875 C 156.765625 261.101562 157.582031 260.886719 157.796875 260.800781 C 160.167969 261.398438 160.640625 264.140625 161.117188 266.28125 C 161.460938 266.109375 161.761719 265.851562 162.019531 265.511719 L 162.410156 265.808594 C 162.105469 266.238281 161.675781 266.582031 161.203125 266.792969 C 161.332031 267.265625 161.417969 267.695312 161.589844 268.078125 C 161.890625 268.804688 162.234375 269.449219 162.710938 269.960938 C 162.753906 269.492188 162.96875 269.019531 163.269531 268.636719 L 163.65625 268.933594 C 163.3125 269.363281 163.140625 269.917969 163.183594 270.476562 C 164.734375 271.933594 167.148438 272.402344 171.457031 272.144531 C 172.015625 271.847656 172.488281 271.417969 172.835938 270.90625 L 173.265625 271.160156 C 173.050781 271.503906 172.792969 271.804688 172.488281 272.058594 C 172.535156 272.058594 172.578125 272.058594 172.621094 272.058594 C 176.324219 271.761719 179.988281 270.863281 183.648438 269.875 L 183.304688 269.019531 L 183.777344 268.847656 L 184.125 269.75 C 184.554688 269.621094 185.027344 269.492188 185.457031 269.363281 L 185.457031 269.277344 L 185.804688 269.277344 C 190.886719 267.820312 196.015625 266.28125 201.355469 265.722656 C 201.097656 264.953125 201.054688 264.140625 201.226562 263.328125 L 201.703125 263.414062 C 201.574219 264.140625 201.617188 264.953125 201.875 265.636719 C 208.464844 265.082031 215.402344 266.109375 222.941406 270.820312 C 226.175781 272.875 228.886719 276.171875 231.214844 280.28125 C 231.34375 279.980469 231.472656 279.722656 231.644531 279.425781 L 232.078125 279.679688 C 231.863281 280.023438 231.6875 280.410156 231.558594 280.835938 C 232.679688 282.890625 233.671875 285.160156 234.617188 287.515625 C 235.265625 287.644531 235.910156 287.6875 236.601562 287.6875 L 236.601562 288.199219 C 235.996094 288.199219 235.4375 288.15625 234.835938 288.074219 C 235.652344 290.296875 236.429688 292.609375 237.117188 294.964844 C 237.375 294.878906 237.589844 294.75 237.765625 294.535156 L 238.152344 294.835938 C 237.9375 295.136719 237.589844 295.308594 237.246094 295.394531 C 238.667969 300.445312 239.789062 305.710938 240.652344 310.632812 C 241.082031 311.0625 241.683594 311.320312 242.289062 311.40625 L 242.246094 311.917969 C 241.726562 311.875 241.210938 311.660156 240.78125 311.40625 C 242.203125 319.710938 242.890625 326.988281 243.234375 330.800781 C 249.828125 383.03125 225.355469 388.597656 225.355469 388.597656 Z M 229.835938 254.636719 C 231 256.433594 232.59375 257.976562 234.617188 258.746094 C 236.644531 259.472656 239.058594 259.214844 240.652344 257.804688 C 241.945312 256.605469 242.503906 254.765625 242.375 253.007812 C 242.203125 251.253906 241.425781 249.625 240.347656 248.214844 C 238.753906 246.117188 236.429688 244.488281 233.800781 244.316406 C 231.171875 244.1875 228.414062 245.902344 227.984375 248.46875 C 227.984375 248.46875 228.414062 249.5 228.457031 250.867188 C 228.5 252.238281 229.105469 253.523438 229.835938 254.636719 Z M 229.835938 254.636719 "/>
</g>
<path style=" stroke:none;fill-rule:nonzero;fill:rgb(53.329468%,72.938538%,53.729248%);fill-opacity:1;" d="M 242.503906 268.464844 C 242.203125 270.132812 241.296875 271.761719 241.554688 273.472656 C 241.554688 273.472656 241.511719 273.472656 241.511719 273.472656 L 241.898438 273.601562 C 240.910156 273.730469 240.609375 275.058594 239.832031 275.699219 C 239.058594 276.339844 237.9375 276.214844 236.945312 276.128906 C 234.660156 275.914062 232.378906 276.042969 230.136719 276.554688 C 229.921875 275.613281 230.050781 274.628906 230.050781 273.6875 C 230.050781 272.746094 229.792969 271.675781 229.0625 271.074219 C 228.5 270.605469 227.726562 270.476562 227.164062 270.046875 C 226.390625 269.40625 226.21875 268.25 226.347656 267.222656 C 226.519531 266.195312 226.90625 265.253906 227.078125 264.269531 C 227.464844 262 226.519531 259.6875 224.753906 258.230469 C 224.449219 257.976562 223.847656 257.503906 223.546875 257.246094 C 222.769531 257.246094 222.082031 256.863281 221.390625 256.519531 C 220.273438 255.921875 219.066406 255.191406 218.589844 254.035156 C 217.988281 252.539062 218.808594 250.738281 218.332031 249.199219 C 218.074219 248.300781 217.429688 247.570312 217.125 246.714844 C 217.773438 246.628906 218.160156 246.84375 218.675781 247.230469 C 219.367188 247.699219 220.273438 247.65625 221.046875 247.398438 C 221.824219 247.144531 222.554688 246.714844 223.332031 246.414062 C 224.40625 245.988281 225.613281 245.816406 226.777344 245.945312 C 227.335938 245.988281 227.941406 246.117188 228.371094 246.5 C 228.800781 246.84375 229.0625 247.484375 228.84375 248 C 230.222656 248.171875 231.601562 248.300781 232.980469 248.46875 C 233.152344 249.925781 233.886719 251.125 234.964844 252.152344 C 235.910156 253.050781 237.117188 253.652344 237.980469 254.636719 C 238.496094 255.234375 238.882812 255.960938 239.058594 256.734375 C 239.445312 258.230469 239.058594 259.902344 239.746094 261.3125 C 240.132812 262.128906 240.824219 262.769531 241.382812 263.496094 C 242.332031 264.867188 242.804688 266.707031 242.503906 268.464844 Z M 242.503906 268.464844 "/>
<g clip-path="url(#clip2)" clip-rule="nonzero">
<path style=" stroke:none;fill-rule:nonzero;fill:rgb(6.269836%,15.689087%,16.468811%);fill-opacity:1;" d="M 230.613281 266.707031 L 231.042969 266.664062 C 230.871094 265.167969 230.699219 263.328125 229.921875 261.785156 C 229.878906 261.699219 229.835938 261.613281 229.792969 261.527344 C 229.664062 261.273438 229.492188 261.015625 229.320312 260.757812 C 228.886719 260.242188 228.414062 259.773438 227.941406 259.34375 C 227.335938 258.789062 226.777344 258.273438 226.347656 257.632812 L 225.957031 257.847656 C 226.046875 258.019531 226.175781 258.144531 226.261719 258.273438 C 224.191406 260.5 222.210938 262.683594 221.003906 263.925781 C 219.238281 265.679688 218.03125 264.652344 218.851562 263.199219 C 219.539062 261.957031 224.0625 257.503906 225.914062 255.664062 C 226 255.75 226.089844 255.835938 226.132812 255.921875 C 226.476562 256.347656 226.734375 256.820312 226.992188 257.332031 L 227.378906 257.117188 C 227.121094 256.605469 226.820312 256.089844 226.476562 255.621094 C 226.132812 255.191406 225.742188 254.890625 225.3125 254.679688 C 225.054688 254.507812 224.753906 254.378906 224.363281 254.335938 C 224.234375 254.335938 224.105469 254.378906 223.933594 254.378906 C 223.933594 254.378906 223.890625 254.378906 223.890625 254.378906 C 223.632812 254.378906 223.417969 254.335938 223.160156 254.292969 C 222.640625 254.207031 222.125 253.90625 222.039062 253.4375 L 221.605469 253.480469 C 221.691406 254.121094 222.253906 254.507812 222.855469 254.679688 C 220.789062 256.648438 218.894531 258.445312 216.953125 260.886719 C 214.195312 264.355469 216.222656 268.765625 216.222656 268.765625 L 210.835938 275.1875 C 210.835938 275.1875 212.902344 276.257812 213.421875 276.640625 L 217.988281 270.820312 C 217.988281 270.820312 221.132812 272.445312 223.847656 270.820312 C 225.699219 269.707031 228.027344 267.179688 230.351562 264.695312 C 230.484375 265.425781 230.570312 266.109375 230.613281 266.707031 Z M 224.320312 267.222656 C 222.984375 268.765625 221.867188 267.308594 222.683594 266.195312 C 223.289062 265.339844 226.132812 262.511719 228.371094 260.328125 C 228.585938 260.542969 228.800781 260.800781 229.019531 261.058594 C 229.234375 261.3125 229.363281 261.613281 229.535156 261.871094 C 227.378906 263.96875 225.269531 266.109375 224.320312 267.222656 Z M 236.6875 265.808594 C 236.773438 266.066406 236.859375 266.367188 236.859375 266.664062 C 236.816406 267.050781 236.644531 267.394531 236.429688 267.734375 L 236.34375 267.863281 C 236.039062 268.378906 235.824219 268.933594 235.695312 269.535156 C 235.566406 270.003906 235.566406 270.347656 235.695312 270.648438 C 235.78125 270.945312 236.082031 271.246094 236.386719 271.246094 L 236.386719 271.675781 C 235.910156 271.675781 235.4375 271.289062 235.265625 270.777344 C 235.09375 270.304688 235.179688 269.792969 235.265625 269.40625 C 235.394531 268.765625 235.652344 268.164062 235.953125 267.609375 L 236.039062 267.4375 C 236.214844 267.136719 236.386719 266.878906 236.386719 266.582031 C 236.386719 266.367188 236.34375 266.109375 236.257812 265.851562 C 236.171875 265.511719 236.039062 265.167969 236.125 264.78125 L 236.558594 264.910156 C 236.515625 265.253906 236.601562 265.511719 236.6875 265.808594 Z M 240.347656 271.417969 C 240.347656 271.804688 240.347656 272.273438 240.21875 272.789062 C 240.089844 273.128906 239.875 273.472656 239.703125 273.773438 L 239.011719 274.800781 L 238.667969 274.542969 L 239.359375 273.515625 C 239.53125 273.257812 239.746094 272.960938 239.832031 272.660156 C 239.960938 272.273438 239.960938 271.804688 239.960938 271.460938 C 239.917969 270.519531 239.703125 269.578125 239.488281 268.636719 L 239.917969 268.550781 C 240.089844 269.449219 240.304688 270.433594 240.347656 271.417969 Z M 234.792969 255.40625 C 234.1875 254.851562 233.542969 254.421875 232.851562 253.949219 C 231.90625 253.308594 230.957031 252.667969 230.222656 251.808594 C 229.363281 250.738281 228.886719 249.328125 228.5 248.128906 L 228.933594 248 C 229.363281 249.242188 229.75 250.527344 230.613281 251.554688 C 231.300781 252.410156 232.164062 253.007812 233.109375 253.609375 C 233.800781 254.078125 234.488281 254.550781 235.09375 255.105469 C 236.429688 256.347656 237.289062 258.019531 237.503906 259.816406 L 237.074219 259.859375 C 236.902344 258.1875 236.039062 256.5625 234.792969 255.40625 Z M 219.28125 252.453125 C 219.109375 252.453125 218.980469 252.410156 218.851562 252.324219 L 219.066406 251.9375 C 219.367188 252.109375 219.796875 251.894531 220.054688 251.597656 C 220.316406 251.296875 220.53125 250.996094 220.746094 250.609375 C 221.003906 250.183594 221.261719 249.796875 221.605469 249.457031 C 222.210938 248.898438 223.027344 248.640625 223.761719 248.46875 L 223.890625 248.898438 C 223.246094 249.070312 222.46875 249.285156 221.953125 249.796875 C 221.605469 250.097656 221.390625 250.484375 221.132812 250.867188 C 220.917969 251.210938 220.703125 251.597656 220.402344 251.894531 C 220.054688 252.195312 219.667969 252.453125 219.28125 252.453125 Z M 232.851562 269.320312 C 232.9375 269.917969 232.679688 270.476562 232.464844 270.820312 C 232.292969 271.074219 232.121094 271.289062 231.90625 271.503906 C 231.773438 271.632812 231.644531 271.804688 231.515625 271.976562 C 231.085938 272.53125 230.785156 273.214844 230.65625 273.902344 L 230.222656 273.816406 C 230.398438 273.085938 230.699219 272.359375 231.171875 271.71875 C 231.300781 271.546875 231.429688 271.417969 231.558594 271.246094 C 231.730469 271.03125 231.90625 270.820312 232.078125 270.605469 C 232.292969 270.304688 232.507812 269.835938 232.421875 269.40625 Z M 232.035156 259.429688 C 232.035156 259.558594 232.035156 259.730469 232.035156 259.859375 C 232.035156 260.714844 232.292969 261.527344 232.808594 262.214844 L 232.464844 262.46875 C 231.949219 261.699219 231.644531 260.757812 231.644531 259.859375 C 231.644531 259.730469 231.644531 259.558594 231.644531 259.429688 C 231.644531 259.214844 231.644531 259.046875 231.644531 258.832031 C 231.644531 258.445312 231.515625 258.1875 231.386719 257.976562 L 231.730469 257.71875 C 231.949219 257.976562 232.078125 258.359375 232.121094 258.832031 C 232.035156 259.003906 232.035156 259.214844 232.035156 259.429688 Z M 237.160156 263.027344 C 237.460938 263.371094 237.722656 263.753906 237.851562 264.226562 L 237.417969 264.355469 C 237.289062 263.96875 237.117188 263.625 236.816406 263.328125 Z M 227.554688 251.039062 L 227.984375 250.996094 C 228.027344 251.46875 228.285156 251.980469 228.671875 252.28125 L 228.414062 252.625 C 227.941406 252.238281 227.597656 251.640625 227.554688 251.039062 Z M 225.871094 251.253906 C 225.828125 251.039062 225.871094 250.78125 225.957031 250.570312 L 226.347656 250.738281 C 226.304688 250.867188 226.261719 251.039062 226.304688 251.210938 Z M 224.839844 249.15625 L 224.40625 249.15625 L 224.40625 248.511719 L 224.839844 248.511719 Z M 229.191406 268.804688 L 229.449219 269.148438 C 229.191406 269.320312 229.0625 269.621094 229.148438 269.917969 L 228.714844 270.003906 C 228.585938 269.535156 228.800781 269.0625 229.191406 268.804688 Z M 234.878906 273.902344 C 235.050781 274.117188 235.351562 274.199219 235.609375 274.242188 L 235.566406 274.671875 C 235.179688 274.628906 234.835938 274.457031 234.53125 274.199219 Z M 241.339844 266.539062 L 240.910156 266.582031 C 240.867188 266.28125 240.78125 266.023438 240.609375 265.808594 L 240.953125 265.554688 C 241.167969 265.851562 241.296875 266.195312 241.339844 266.539062 Z M 107.734375 296.675781 C 107.949219 298.859375 105.40625 299.675781 105.40625 299.675781 L 99.632812 294.621094 L 95.496094 287.859375 L 102.003906 290.8125 Z M 194.980469 290.769531 L 197.351562 294.621094 L 191.578125 299.675781 C 191.578125 299.675781 189.035156 298.859375 189.25 296.675781 Z M 79.210938 274.84375 L 82.484375 277.496094 C 82.484375 277.496094 93.300781 286.960938 86.191406 275.226562 L 64.605469 250.910156 C 64.605469 250.910156 61.070312 267.265625 79.210938 274.84375 Z M 77.574219 267.308594 C 78.261719 267.992188 78.996094 268.636719 79.683594 269.363281 C 79.855469 269.535156 79.597656 269.75 79.425781 269.621094 C 78.652344 268.976562 78.046875 268.25 77.402344 267.480469 C 77.273438 267.394531 77.445312 267.222656 77.574219 267.308594 Z M 66.199219 254.292969 C 69.863281 257.890625 73.480469 261.65625 76.410156 265.894531 C 76.496094 266.023438 76.28125 266.195312 76.195312 266.066406 C 72.703125 262.300781 69.515625 258.230469 66.070312 254.421875 C 65.941406 254.335938 66.070312 254.207031 66.199219 254.292969 Z M 233.972656 246.117188 C 233.84375 246.074219 233.929688 245.902344 234.015625 245.902344 C 236.214844 245.6875 238.324219 247.871094 239.53125 249.414062 C 239.703125 249.625 239.445312 249.882812 239.230469 249.710938 C 238.324219 249.027344 237.503906 248.214844 236.601562 247.570312 C 235.824219 246.972656 234.878906 246.628906 233.972656 246.117188 Z M 240.695312 252.964844 C 240.566406 252.75 240.476562 252.582031 240.433594 252.367188 C 240.390625 252.152344 240.347656 251.894531 240.261719 251.679688 C 240.261719 251.597656 240.347656 251.597656 240.390625 251.640625 C 240.523438 251.851562 240.652344 252.023438 240.78125 252.238281 C 240.910156 252.453125 240.953125 252.625 241.039062 252.835938 C 241.125 253.007812 240.824219 253.136719 240.695312 252.964844 Z M 175.59375 235.5 C 175.289062 235.113281 174.988281 234.554688 174.515625 234.640625 C 175.074219 234.429688 175.375 233.828125 175.59375 233.273438 C 176.109375 231.859375 176.367188 230.273438 175.980469 228.820312 C 175.679688 227.707031 175.160156 226.292969 174.214844 225.652344 C 174.171875 225.4375 174.128906 225.265625 174.085938 225.050781 C 174.34375 225.222656 174.644531 225.394531 174.988281 225.566406 C 175.074219 225.609375 175.160156 225.480469 175.074219 225.4375 C 174.6875 225.136719 174.300781 224.839844 174 224.539062 C 173.867188 223.597656 173.78125 222.65625 173.480469 221.753906 C 173.222656 221.027344 172.921875 220.214844 172.488281 219.699219 C 172.488281 219.402344 172.445312 219.101562 172.402344 218.757812 C 172.273438 217.988281 172.015625 217.304688 171.542969 216.746094 C 171.542969 214.648438 170.636719 212.507812 169 211.179688 C 168.871094 211.050781 168.742188 210.964844 168.613281 210.839844 C 168.136719 209.511719 167.191406 208.398438 165.855469 207.671875 C 165.425781 206.769531 164.820312 205.957031 164.132812 205.273438 C 163.785156 204.929688 163.441406 204.628906 163.054688 204.417969 C 162.753906 204.246094 162.453125 204.117188 162.148438 203.988281 C 161.546875 203.175781 160.554688 202.617188 159.433594 202.488281 C 158.1875 200.949219 156.460938 199.75 154.480469 199.664062 C 153.359375 199.621094 152.238281 199.964844 151.164062 200.261719 C 150.730469 200.390625 150.34375 200.519531 150 200.691406 C 150.429688 200.179688 150.949219 199.75 151.550781 199.492188 C 151.636719 199.449219 151.59375 199.320312 151.507812 199.363281 C 150.472656 199.707031 149.65625 200.390625 149.179688 201.332031 C 149.007812 201.503906 148.878906 201.71875 148.792969 201.933594 C 147.628906 199.878906 145.476562 198.292969 143.105469 197.996094 C 141.554688 197.824219 140.046875 197.996094 138.796875 198.722656 C 137.246094 198.378906 135.265625 198.851562 133.757812 199.578125 C 133.238281 199.621094 132.679688 199.664062 132.164062 199.835938 C 130.523438 200.304688 129.101562 201.332031 128.027344 202.617188 C 127.679688 203.089844 127.464844 203.175781 127.507812 203.730469 C 125.828125 203.902344 124.277344 204.714844 123.15625 206 C 122.46875 206.8125 121.953125 207.796875 121.734375 208.867188 C 120.488281 209.640625 119.28125 210.496094 118.675781 211.867188 C 118.503906 212.292969 118.375 212.722656 118.332031 213.148438 C 118.117188 213.40625 117.945312 213.707031 117.816406 214.007812 C 117.082031 215.417969 116.953125 217.089844 117.46875 218.585938 C 116.046875 219.1875 115.488281 221.027344 115.144531 222.527344 C 114.757812 224.238281 114.410156 225.992188 114.410156 227.707031 C 114.410156 228.734375 114.539062 229.804688 114.84375 230.789062 C 114.84375 230.789062 114.84375 230.789062 114.800781 230.832031 C 113.59375 232.5 113.851562 234.34375 114.671875 236.054688 C 114.453125 237.9375 114.714844 239.949219 115.488281 241.664062 C 115.488281 241.664062 115.488281 241.664062 115.445312 241.664062 C 115.273438 241.921875 115.101562 242.21875 114.972656 242.476562 C 114.84375 242.777344 114.84375 243.117188 114.886719 243.417969 C 114.886719 243.589844 115.144531 243.589844 115.1875 243.417969 C 115.230469 243.117188 115.316406 242.820312 115.359375 242.519531 C 115.402344 242.261719 115.488281 242.046875 115.574219 241.835938 C 115.660156 242.046875 115.789062 242.261719 115.917969 242.433594 C 115.746094 243.460938 116.222656 244.488281 116.867188 245.386719 C 116.78125 247.058594 117.125 248.726562 118.203125 249.96875 C 118.332031 250.140625 118.503906 250.269531 118.632812 250.441406 C 119.324219 251.765625 120.617188 252.710938 122.339844 252.921875 C 122.425781 252.921875 122.425781 252.835938 122.339844 252.792969 C 121.433594 252.539062 120.660156 252.023438 119.96875 251.425781 C 121.175781 252.109375 122.554688 252.453125 123.933594 252.324219 C 123.933594 252.453125 123.933594 252.539062 123.933594 252.667969 C 123.761719 253.695312 123.417969 254.679688 123.027344 255.492188 C 123.027344 255.535156 123.027344 255.535156 123.070312 255.492188 C 123.417969 254.933594 123.804688 254.25 124.0625 253.566406 C 124.191406 254.421875 124.492188 255.320312 124.882812 256.003906 C 125.269531 256.691406 125.742188 257.289062 126.304688 257.804688 C 126.820312 258.273438 127.421875 258.617188 128.070312 258.832031 C 127.335938 258.230469 126.734375 257.503906 126.171875 256.648438 C 126.949219 257.460938 127.769531 258.1875 128.757812 258.832031 C 128.800781 258.875 128.84375 258.789062 128.800781 258.789062 C 128.199219 258.1875 127.550781 257.546875 126.90625 256.949219 C 127.898438 257.804688 128.972656 258.574219 130.09375 259.300781 C 130.136719 259.300781 130.179688 259.300781 130.222656 259.300781 C 131.644531 259.429688 133.066406 259.257812 134.488281 259.132812 C 136.039062 260.800781 137.203125 257.847656 139.445312 258.273438 C 140.996094 258.574219 142.890625 263.328125 144.398438 262.8125 C 146.378906 262.171875 148.320312 261.355469 150.128906 260.328125 C 150.300781 260.671875 150.558594 260.929688 150.949219 261.015625 C 153.574219 261.570312 156.460938 260.886719 158.617188 259.300781 C 158.917969 259.429688 159.21875 259.515625 159.609375 259.472656 C 160.167969 259.429688 160.640625 259.171875 161.03125 258.832031 C 161.890625 259.171875 162.796875 259.214844 163.613281 258.617188 C 164.132812 258.230469 164.476562 257.675781 164.691406 257.117188 C 164.992188 256.90625 165.296875 256.648438 165.554688 256.390625 C 166.847656 255.277344 168.007812 253.949219 168.613281 252.367188 C 168.484375 253.050781 168.484375 253.738281 168.613281 254.464844 C 168.613281 254.507812 168.699219 254.507812 168.699219 254.464844 C 168.699219 253.4375 169 252.367188 169.429688 251.382812 C 171.113281 251.9375 172.621094 250.953125 173.824219 249.5 C 175.117188 247.871094 175.507812 245.6875 175.375 243.632812 C 176.886719 241.664062 177.144531 237.425781 175.59375 235.5 Z M 114.886719 234.769531 C 114.496094 233.570312 114.367188 232.332031 114.929688 231.132812 C 115.101562 231.6875 115.359375 232.203125 115.617188 232.714844 C 115.316406 233.359375 115.101562 234.042969 114.886719 234.769531 Z M 116.910156 244.660156 C 116.609375 244.105469 116.351562 243.546875 116.308594 242.949219 C 116.523438 243.246094 116.78125 243.546875 117.082031 243.847656 C 116.996094 244.105469 116.953125 244.402344 116.910156 244.660156 Z M 119.839844 210.964844 C 120.269531 210.195312 121.003906 209.597656 121.691406 209.039062 C 121.605469 209.554688 121.5625 210.066406 121.5625 210.582031 C 120.832031 210.839844 120.140625 211.265625 119.496094 211.824219 C 119.582031 211.566406 119.667969 211.265625 119.839844 210.964844 Z M 122.210938 251.554688 C 120.703125 251.210938 119.496094 250.054688 118.804688 248.726562 C 118.761719 248.683594 118.847656 248.640625 118.890625 248.683594 C 119.625 250.054688 120.789062 250.910156 122.253906 251.425781 C 122.296875 251.46875 122.296875 251.597656 122.210938 251.554688 Z M 137.074219 200.304688 C 136.601562 200.050781 136.082031 199.878906 135.523438 199.75 C 136.339844 199.449219 137.203125 199.234375 138.023438 199.191406 C 137.675781 199.492188 137.375 199.878906 137.074219 200.304688 Z M 161.976562 254.25 C 162.019531 254.121094 162.234375 254.25 162.148438 254.335938 C 161.546875 255.40625 160.855469 256.476562 159.695312 257.03125 C 159.652344 257.03125 159.652344 256.992188 159.695312 256.992188 C 160.8125 256.433594 161.417969 255.320312 161.976562 254.25 Z M 162.0625 257.160156 C 162.019531 257.246094 161.933594 257.289062 161.890625 257.375 C 161.546875 257.332031 161.160156 257.246094 160.769531 257.074219 C 160.726562 257.074219 160.769531 257.03125 160.769531 257.03125 C 161.203125 257.203125 161.632812 257.246094 162.0625 257.160156 Z M 161.375 203.730469 C 161.03125 203.6875 160.683594 203.6875 160.296875 203.816406 C 160.082031 203.429688 159.867188 203.089844 159.609375 202.746094 C 160.296875 202.875 160.898438 203.21875 161.375 203.730469 Z M 160.296875 258.875 C 159.824219 259.132812 159.347656 259.171875 158.960938 259.046875 C 159.304688 258.789062 159.609375 258.488281 159.910156 258.1875 C 160.167969 258.359375 160.425781 258.53125 160.683594 258.660156 C 160.554688 258.746094 160.425781 258.832031 160.296875 258.875 Z M 160.855469 258.53125 C 160.554688 258.445312 160.253906 258.316406 159.953125 258.144531 C 160.125 257.976562 160.296875 257.761719 160.425781 257.589844 C 160.726562 257.804688 161.03125 257.976562 161.332031 258.0625 C 161.203125 258.230469 161.03125 258.359375 160.855469 258.53125 Z M 163.828125 257.890625 C 163.097656 258.617188 162.191406 258.789062 161.332031 258.617188 C 161.460938 258.488281 161.632812 258.316406 161.71875 258.144531 C 162.148438 258.230469 162.625 258.144531 163.097656 258.019531 C 163.484375 257.890625 163.828125 257.71875 164.175781 257.546875 C 164.046875 257.632812 163.917969 257.761719 163.828125 257.890625 Z M 164.734375 256.261719 C 164.003906 256.949219 163.140625 257.375 162.191406 257.375 C 162.234375 257.289062 162.277344 257.203125 162.320312 257.074219 C 163.3125 256.820312 164.261719 256.003906 164.992188 255.234375 C 164.90625 255.578125 164.820312 255.960938 164.734375 256.261719 Z M 165.035156 255.960938 C 165.078125 255.664062 165.121094 255.320312 165.164062 255.019531 C 165.25 254.933594 165.339844 254.808594 165.425781 254.722656 C 166.371094 253.566406 167.019531 252.410156 167.320312 250.953125 C 167.363281 250.824219 167.535156 250.867188 167.535156 250.996094 C 167.234375 252.496094 166.328125 254.59375 165.035156 255.960938 Z M 166.585938 209.683594 C 166.457031 209.167969 166.285156 208.613281 166.070312 208.140625 C 166.847656 208.65625 167.535156 209.210938 167.921875 210.152344 C 167.492188 209.855469 167.105469 209.640625 166.585938 209.683594 Z M 168.957031 251.46875 C 168.957031 251.382812 169 251.296875 169 251.210938 C 169 251.210938 169.042969 251.210938 169.042969 251.210938 C 169.042969 251.339844 169 251.425781 168.957031 251.46875 Z M 171.5 217.347656 C 171.757812 217.902344 171.886719 218.542969 171.972656 219.230469 C 171.714844 219.101562 171.457031 219.015625 171.113281 219.101562 C 171.328125 218.5 171.457031 217.945312 171.5 217.347656 Z M 169.601562 248.640625 C 169.558594 248.640625 169.558594 248.597656 169.601562 248.640625 C 171.285156 248.597656 172.273438 246.585938 172.359375 245.175781 C 172.359375 245.089844 172.535156 245.089844 172.535156 245.175781 C 172.535156 246.757812 171.457031 248.8125 169.601562 248.640625 Z M 173.308594 243.890625 C 172.621094 244.660156 171.628906 245.089844 170.59375 244.960938 C 170.550781 244.960938 170.550781 244.917969 170.59375 244.917969 C 171.585938 244.960938 172.535156 244.53125 173.09375 243.761719 C 173.222656 243.632812 173.4375 243.761719 173.308594 243.890625 Z M 174.214844 235.882812 C 174.171875 235.96875 174.042969 235.96875 174.042969 235.839844 C 173.910156 234.511719 173.738281 233.441406 172.921875 232.371094 C 172.835938 232.289062 173.007812 232.160156 173.09375 232.246094 C 173.867188 233.230469 174.644531 234.640625 174.214844 235.882812 Z M 174.214844 235.882812 "/>
</g>
<path style=" stroke:none;fill-rule:nonzero;fill:rgb(85.099792%,56.858826%,49.409485%);fill-opacity:1;" d="M 156.203125 214.21875 C 156.203125 214.175781 156.246094 214.136719 156.289062 214.175781 C 157.023438 215.589844 158.832031 215.675781 159.476562 217.21875 C 159.867188 218.117188 159.867188 219.1875 160.039062 220.128906 C 160.296875 221.328125 160.855469 222.355469 161.546875 223.382812 C 161.546875 223.382812 161.546875 223.425781 161.503906 223.425781 C 160.988281 222.867188 160.425781 222.269531 160.082031 221.585938 C 159.566406 220.558594 159.652344 219.445312 159.347656 218.375 C 158.960938 216.960938 158.273438 216.402344 157.195312 215.503906 C 156.722656 215.121094 156.417969 214.820312 156.203125 214.21875 Z M 135.136719 215.890625 C 135.824219 215.035156 136.039062 214.09375 136.253906 213.023438 C 136.601562 211.222656 137.589844 209.8125 139.359375 209.082031 C 139.488281 209.039062 139.445312 208.824219 139.316406 208.867188 C 138.066406 209.253906 137.074219 210.023438 136.472656 211.179688 C 135.738281 212.636719 135.953125 214.347656 135.050781 215.71875 C 134.964844 215.847656 135.09375 215.933594 135.136719 215.890625 Z M 126.347656 223.039062 C 126.648438 221.027344 127.8125 219.1875 129.621094 218.203125 C 129.664062 218.203125 129.621094 218.160156 129.621094 218.160156 C 127.636719 219.101562 126.347656 220.855469 126.171875 222.996094 C 126.128906 223.125 126.347656 223.167969 126.347656 223.039062 Z M 118.933594 228.777344 C 120.355469 227.0625 121.996094 227.277344 123.976562 227.535156 C 124.792969 227.664062 125.613281 227.664062 126.304688 227.234375 C 126.390625 227.191406 126.347656 227.0625 126.261719 227.105469 C 123.71875 227.75 120.398438 225.738281 118.933594 228.777344 C 118.890625 228.777344 118.933594 228.820312 118.933594 228.777344 Z M 119.28125 225.824219 C 120.269531 225.007812 120.917969 223.726562 121.132812 222.484375 C 121.175781 222.226562 120.832031 222.140625 120.746094 222.355469 C 120.269531 223.554688 120.140625 224.753906 119.238281 225.738281 C 119.195312 225.824219 119.238281 225.867188 119.28125 225.824219 Z M 150.042969 207.113281 C 151.121094 207.328125 151.421875 208.441406 151.59375 209.382812 C 151.59375 209.46875 151.722656 209.425781 151.722656 209.382812 C 151.679688 208.355469 151.25 207.199219 150.085938 206.984375 C 150 206.984375 150 207.113281 150.042969 207.113281 Z M 158.832031 212.421875 C 158.875 212.550781 159.046875 212.507812 159.046875 212.378906 C 159.003906 211.007812 158.230469 209.769531 157.152344 208.910156 C 157.109375 208.867188 157.023438 208.953125 157.066406 208.996094 C 158.054688 209.9375 158.53125 211.09375 158.832031 212.421875 Z M 223.203125 291.925781 C 223.71875 288.03125 222.46875 285.332031 217.386719 280.109375 C 212.257812 274.886719 207.820312 273.128906 206.742188 276.726562 C 206.742188 276.726562 202.003906 276.085938 201.488281 280.707031 C 201.488281 280.707031 197.4375 280.066406 196.832031 285.332031 C 196.832031 285.332031 194.160156 285.589844 194.421875 288.671875 C 194.679688 291.753906 198.039062 294.878906 197.953125 295.820312 C 197.867188 296.804688 195.539062 301.773438 197.738281 309.050781 C 199.976562 316.371094 202.476562 326.390625 202.476562 326.390625 C 202.476562 326.390625 217.902344 332.769531 220.53125 319.882812 C 220.53125 319.882812 216.265625 307.894531 216.523438 306.308594 C 216.78125 304.769531 222.683594 295.820312 223.203125 291.925781 Z M 161.503906 229.160156 C 162.453125 230.402344 164.21875 230.574219 165.25 229.417969 C 165.640625 228.992188 165.898438 228.476562 166.199219 228.007812 C 164.691406 228.007812 163.054688 228.5625 162.148438 229.332031 C 161.890625 229.289062 161.632812 229.160156 161.375 228.992188 C 161.417969 229.078125 161.460938 229.121094 161.503906 229.160156 Z M 122.984375 228.863281 C 123.417969 229.078125 123.71875 229.375 124.0625 229.675781 C 124.234375 229.546875 124.363281 229.417969 124.535156 229.332031 C 124.019531 229.078125 123.375 228.863281 122.683594 228.777344 C 122.8125 228.820312 122.898438 228.820312 122.984375 228.863281 Z M 100.148438 285.332031 C 99.546875 280.066406 95.496094 280.707031 95.496094 280.707031 C 94.980469 276.085938 90.242188 276.726562 90.242188 276.726562 C 89.679688 274.84375 88.214844 274.414062 86.148438 275.226562 C 85.070312 275.65625 83.820312 276.425781 82.441406 277.496094 C 81.539062 278.226562 80.546875 279.125 79.597656 280.109375 C 74.472656 285.332031 73.222656 287.988281 73.78125 291.925781 C 74.300781 295.820312 80.203125 304.769531 80.460938 306.308594 C 80.71875 307.894531 76.453125 319.882812 76.453125 319.882812 C 79.082031 332.769531 94.507812 326.390625 94.507812 326.390625 C 94.507812 326.390625 97.003906 316.371094 99.246094 309.050781 C 101.484375 301.730469 99.117188 296.804688 99.03125 295.820312 C 98.945312 294.835938 102.304688 291.710938 102.5625 288.671875 C 102.820312 285.589844 100.148438 285.332031 100.148438 285.332031 Z M 126.734375 230.105469 C 126.820312 230.019531 126.90625 229.976562 126.949219 229.890625 C 126.519531 230.019531 126.085938 230.019531 125.65625 230.019531 C 125.65625 230.019531 125.398438 229.804688 125.011719 229.589844 C 124.792969 229.71875 124.621094 229.847656 124.449219 229.976562 C 124.707031 230.191406 125.011719 230.273438 125.355469 230.273438 C 125.871094 230.703125 126.347656 230.660156 126.734375 230.105469 Z M 133.324219 220.941406 C 133.023438 220.984375 132.765625 221.027344 132.464844 221.113281 C 130.871094 221.542969 129.578125 222.953125 129.234375 224.539062 C 130.957031 223.683594 132.121094 222.441406 133.324219 220.941406 Z M 148.535156 213.878906 C 148.535156 213.578125 148.492188 213.277344 148.492188 212.980469 C 148.40625 211.824219 148.019531 210.625 147.15625 209.8125 C 146.8125 209.511719 146.421875 209.296875 145.992188 209.167969 C 146.421875 209.597656 146.726562 210.109375 146.984375 210.667969 C 147.542969 211.867188 147.886719 212.980469 148.535156 213.878906 Z M 167.878906 241.363281 C 164.21875 245.902344 160.125 241.835938 160.125 241.835938 C 160.125 241.835938 159.089844 243.71875 157.324219 246.03125 C 157.367188 246.03125 157.410156 245.988281 157.453125 245.988281 C 157.066406 248.46875 156.503906 256.519531 156.894531 261.1875 C 154.265625 262.46875 151.378906 263.199219 148.449219 263.328125 C 145.949219 263.414062 143.449219 263.070312 140.953125 262.726562 C 138.882812 262.425781 136.773438 262.042969 134.660156 262.085938 C 134.058594 262.085938 133.367188 262.171875 132.722656 262.214844 C 132.679688 257.417969 131.773438 249.070312 131.730469 248.46875 C 128.242188 244.789062 126.820312 240.722656 126.820312 240.722656 C 125.957031 241.792969 124.664062 242.519531 122.898438 242.089844 C 118.332031 240.976562 117.644531 231.644531 120.140625 229.632812 C 120.398438 229.417969 120.703125 229.246094 120.960938 229.121094 C 121.5625 229.160156 122.082031 229.160156 122.683594 229.460938 C 123.027344 229.632812 123.328125 229.890625 123.632812 230.105469 C 122.984375 230.789062 122.597656 231.601562 122.683594 232.628906 C 122.683594 232.628906 122.726562 232.671875 122.726562 232.628906 C 122.898438 231.644531 123.328125 230.917969 123.976562 230.359375 C 124.019531 230.402344 124.0625 230.445312 124.105469 230.445312 C 124.707031 230.832031 125.3125 231.175781 126.042969 231.003906 C 126.820312 230.832031 127.292969 230.316406 127.507812 229.675781 C 127.550781 229.632812 127.636719 229.589844 127.679688 229.546875 C 128.371094 228.820312 128.84375 227.878906 128.972656 226.894531 C 129.058594 226.207031 129.015625 225.523438 129.101562 224.878906 C 129.101562 224.839844 129.101562 224.796875 129.148438 224.753906 C 130.523438 224.28125 131.730469 223.554688 132.722656 222.441406 C 133.152344 221.96875 133.5 221.457031 133.84375 220.941406 C 133.929688 220.941406 134.058594 220.898438 134.144531 220.898438 C 135.78125 220.640625 137.289062 219.914062 138.582031 218.886719 C 138.925781 218.585938 139.226562 218.289062 139.445312 217.902344 C 139.746094 217.21875 139.574219 216.402344 139.574219 215.632812 C 139.488281 213.105469 141.554688 210.28125 143.96875 209.46875 C 144.398438 209.339844 144.828125 209.253906 145.261719 209.253906 C 146.378906 210.324219 146.683594 211.824219 147.371094 213.277344 C 147.671875 213.921875 148.105469 214.390625 148.535156 214.777344 C 148.621094 215.589844 148.792969 216.359375 149.398438 216.917969 C 149.742188 217.261719 150.214844 217.429688 150.6875 217.558594 C 152.023438 217.902344 153.53125 217.816406 154.867188 218.074219 C 155.257812 218.289062 155.644531 218.585938 155.945312 218.929688 C 156.636719 219.699219 157.066406 220.597656 157.367188 221.585938 C 157.410156 221.667969 157.496094 221.628906 157.496094 221.542969 C 157.28125 220.472656 156.9375 219.359375 156.160156 218.542969 C 156.117188 218.5 156.074219 218.457031 155.988281 218.375 C 156.332031 218.5 156.679688 218.714844 156.980469 218.972656 C 157.96875 219.785156 158.402344 221.113281 158.617188 222.398438 C 158.832031 223.683594 158.875 225.007812 159.347656 226.207031 C 159.566406 226.808594 159.910156 227.535156 160.382812 228.175781 C 160.898438 229.632812 161.847656 230.832031 163.613281 230.832031 C 165.511719 230.832031 165.726562 229.375 166.414062 228.132812 C 167.105469 228.132812 167.707031 228.261719 168.269531 228.5625 C 170.164062 229.332031 171.542969 236.824219 167.878906 241.363281 Z M 129.015625 227.191406 C 129.015625 227.191406 129.234375 226.980469 131.34375 226.464844 C 133.023438 226.035156 138.496094 226.636719 139.097656 226.550781 C 139.703125 226.464844 140.089844 225.308594 140.089844 225.308594 C 140.089844 225.308594 133.28125 224.964844 131.902344 225.308594 C 130.523438 225.695312 129.015625 227.191406 129.015625 227.191406 Z M 141.167969 235.839844 C 139.703125 232.246094 134.574219 233.1875 132.335938 233.316406 C 130.136719 233.484375 128.714844 232.457031 128.714844 232.457031 C 128.757812 234.472656 130.265625 235.027344 130.65625 235.070312 C 131 235.113281 132.335938 234.941406 135.136719 234.34375 C 137.980469 233.785156 140.261719 234.855469 141.167969 235.839844 Z M 148.792969 225.308594 C 148.792969 225.308594 149.179688 226.421875 149.785156 226.550781 C 150.386719 226.679688 155.859375 226.078125 157.539062 226.464844 C 159.652344 226.980469 159.867188 227.191406 159.867188 227.191406 C 159.867188 227.191406 158.359375 225.652344 156.980469 225.308594 C 155.601562 225.007812 148.792969 225.308594 148.792969 225.308594 Z M 160.125 232.457031 C 160.125 232.457031 158.746094 233.484375 156.503906 233.316406 C 154.308594 233.144531 149.136719 232.246094 147.671875 235.839844 C 148.621094 234.855469 150.863281 233.785156 153.660156 234.34375 C 156.460938 234.941406 157.796875 235.113281 158.144531 235.070312 C 158.574219 235.027344 160.125 234.472656 160.125 232.457031 Z M 160.125 232.457031 "/>
<path style=" stroke:none;fill-rule:nonzero;fill:rgb(70.588684%,32.939148%,24.308777%);fill-opacity:1;" d="M 213.378906 294.410156 C 212.859375 294.496094 212.386719 294.453125 211.914062 294.664062 C 211.351562 294.878906 210.878906 295.265625 210.535156 295.777344 C 210.492188 295.863281 210.320312 295.777344 210.40625 295.691406 C 210.964844 294.792969 212.257812 293.851562 213.378906 294.238281 C 213.464844 294.238281 213.507812 294.367188 213.378906 294.410156 Z M 90.15625 286.359375 C 90.886719 285.203125 91.664062 284.089844 92.609375 283.105469 C 93.515625 282.164062 94.59375 281.566406 95.539062 280.707031 C 95.582031 280.664062 95.539062 280.621094 95.496094 280.621094 C 92.953125 281.050781 90.585938 283.875 89.9375 286.230469 C 89.894531 286.402344 90.066406 286.488281 90.15625 286.359375 Z M 84.164062 283.875 C 85.070312 282.679688 85.976562 281.4375 86.921875 280.28125 C 87.785156 279.253906 88.949219 277.496094 90.199219 276.984375 C 90.328125 276.941406 90.285156 276.769531 90.15625 276.769531 C 88.734375 277.113281 87.742188 278.480469 86.878906 279.550781 C 85.761719 280.878906 84.726562 282.207031 83.90625 283.707031 C 83.820312 283.875 84.035156 284.003906 84.164062 283.875 Z M 95.625 323.820312 L 96.015625 323.992188 C 96.015625 323.949219 97.480469 320.867188 101.054688 320.054688 L 100.96875 319.625 C 97.132812 320.480469 95.667969 323.691406 95.625 323.820312 Z M 101.3125 392.921875 C 101.917969 393.519531 102.304688 394.289062 102.433594 395.105469 L 102.863281 395.0625 C 102.734375 394.160156 102.304688 393.304688 101.613281 392.621094 Z M 85.285156 293.808594 C 85.242188 293.808594 85.242188 293.894531 85.285156 293.894531 C 85.628906 293.980469 86.019531 294.152344 86.363281 294.28125 C 86.707031 294.453125 86.921875 294.664062 87.226562 294.878906 C 87.398438 295.007812 87.570312 294.792969 87.484375 294.621094 C 87.007812 293.9375 86.0625 293.636719 85.285156 293.808594 Z M 78.566406 291.242188 C 79.253906 291.324219 79.640625 291.539062 79.988281 292.140625 C 80.117188 292.355469 80.289062 292.566406 80.503906 292.738281 C 81.0625 293.125 81.582031 293.125 82.226562 292.953125 C 82.355469 292.910156 82.398438 292.652344 82.226562 292.652344 C 81.882812 292.566406 81.582031 292.523438 81.234375 292.4375 C 80.71875 292.3125 80.503906 292.054688 80.160156 291.710938 C 79.726562 291.242188 79.210938 291.199219 78.566406 291.199219 C 78.523438 291.15625 78.523438 291.242188 78.566406 291.242188 Z M 95.066406 290.597656 C 95.886719 289.742188 96.488281 288.800781 97.175781 287.859375 C 97.953125 286.832031 99.03125 286.1875 100.0625 285.460938 C 100.191406 285.375 100.105469 285.203125 99.976562 285.246094 C 97.480469 286.101562 96.015625 288.113281 94.9375 290.46875 C 94.9375 290.597656 95.023438 290.683594 95.066406 290.597656 Z M 106.957031 280.324219 C 106.398438 279.550781 106.011719 278.609375 105.964844 277.667969 L 105.535156 277.710938 C 105.621094 278.738281 105.964844 279.765625 106.613281 280.621094 Z M 120.53125 230.875 C 122.296875 231.003906 123.460938 232.457031 124.148438 233.914062 C 124.148438 233.914062 124.191406 233.914062 124.191406 233.914062 C 123.589844 232.246094 122.511719 230.617188 120.53125 230.789062 C 120.488281 230.789062 120.488281 230.875 120.53125 230.875 Z M 99.117188 295.050781 C 97.4375 298.261719 98.296875 302.027344 98.773438 305.453125 C 98.773438 305.539062 98.902344 305.496094 98.902344 305.453125 C 98.945312 301.902344 97.996094 298.605469 99.203125 295.09375 C 99.246094 295.050781 99.160156 295.007812 99.117188 295.050781 Z M 102.519531 348.179688 C 102.476562 348.179688 97.78125 349.636719 91.402344 350.109375 L 91.445312 350.535156 C 97.867188 350.066406 102.605469 348.609375 102.691406 348.566406 Z M 72.273438 287.472656 C 71.628906 286.015625 71.28125 284.433594 71.328125 282.847656 L 70.894531 282.847656 C 70.851562 284.519531 71.195312 286.1875 71.886719 287.6875 Z M 83.003906 338.804688 L 82.742188 339.148438 C 82.011719 338.632812 81.105469 338.378906 80.203125 338.460938 L 80.160156 338.164062 C 79.253906 342.1875 78.390625 346.425781 77.875 349.25 C 78.910156 349.464844 79.941406 349.679688 81.019531 349.808594 L 80.976562 350.234375 C 77.144531 349.722656 73.652344 348.695312 70.59375 347.195312 C 59.304688 341.632812 56.632812 334.097656 55.988281 331.355469 C 55.730469 332.296875 55.515625 333.070312 55.339844 333.582031 L 54.910156 333.410156 C 55.210938 332.640625 55.558594 331.269531 55.988281 329.558594 C 56.332031 328.144531 56.761719 326.476562 57.238281 324.804688 L 57.195312 324.804688 C 56.980469 324.25 56.71875 323.648438 56.460938 323.09375 L 56.851562 322.921875 C 57.066406 323.351562 57.238281 323.777344 57.410156 324.207031 C 58.488281 320.523438 59.867188 316.585938 61.761719 314.015625 C 62.320312 313.246094 63.054688 312.605469 63.871094 312.046875 C 63.742188 311.875 63.570312 311.703125 63.484375 311.492188 L 63.871094 311.320312 C 63.957031 311.492188 64.089844 311.660156 64.21875 311.832031 C 66.328125 310.550781 69.085938 309.992188 71.671875 309.777344 L 71.414062 309.09375 L 71.800781 308.921875 L 72.101562 309.734375 C 74.34375 309.5625 76.496094 309.691406 78.046875 309.820312 L 78.089844 309.820312 C 78.089844 309.820312 78.089844 309.820312 78.089844 309.863281 C 78.695312 309.90625 79.167969 309.992188 79.597656 310.035156 L 79.554688 310.464844 C 79.253906 310.421875 78.910156 310.378906 78.523438 310.335938 C 78.910156 310.890625 79.210938 311.535156 79.339844 312.175781 L 78.910156 312.261719 C 78.738281 311.535156 78.390625 310.847656 77.917969 310.25 C 73.695312 309.90625 65.335938 309.820312 62.148438 314.273438 C 59.347656 318.167969 57.582031 325.105469 56.460938 329.6875 C 56.417969 329.898438 56.332031 330.15625 56.289062 330.371094 C 56.332031 330.585938 56.460938 331.871094 57.28125 333.796875 C 58.054688 330.886719 61.375 319.027344 64.820312 316.757812 C 68.65625 314.1875 72.230469 315.34375 72.402344 315.386719 L 72.273438 315.816406 C 72.230469 315.816406 68.742188 314.703125 65.078125 317.140625 C 61.546875 319.496094 57.925781 333.195312 57.582031 334.4375 C 58.445312 336.28125 59.867188 338.589844 62.277344 340.945312 C 62.449219 340.5625 62.710938 339.917969 63.054688 339.0625 C 64.132812 336.363281 65.855469 332.082031 67.707031 328.746094 L 67.320312 328.703125 C 67.40625 328.144531 67.363281 327.546875 67.191406 327.03125 L 67.621094 326.902344 C 67.792969 327.460938 67.835938 328.058594 67.792969 328.617188 C 68.007812 328.230469 68.222656 327.84375 68.441406 327.503906 C 70.9375 323.394531 75.765625 322.238281 76.925781 321.980469 C 76.453125 320.824219 76.28125 319.925781 76.28125 319.925781 L 76.710938 319.882812 C 76.710938 319.925781 77.445312 324.421875 81.582031 326.605469 C 85.585938 328.703125 91.359375 328.015625 98.683594 324.546875 L 98.859375 324.933594 C 98.773438 324.976562 98.726562 324.976562 98.640625 325.019531 C 99.804688 326.046875 104.15625 330.800781 103.941406 336.28125 C 103.726562 342.316406 102.777344 346.511719 102.777344 346.554688 L 102.347656 346.46875 C 102.347656 346.425781 103.253906 342.230469 103.511719 336.28125 C 103.726562 330.628906 98.859375 325.703125 98.210938 325.234375 C 95.753906 326.347656 93.472656 327.160156 91.402344 327.675781 C 92.566406 328.957031 96.617188 334.609375 92.78125 347.410156 L 92.351562 347.28125 C 96.316406 334.054688 91.578125 328.488281 90.886719 327.800781 C 89.421875 328.101562 88.085938 328.273438 86.792969 328.273438 C 85.285156 328.273438 83.863281 328.058594 82.613281 327.589844 C 82.355469 328.660156 81.277344 333.195312 80.203125 338.121094 C 81.191406 337.949219 82.226562 338.207031 83.003906 338.804688 Z M 82.226562 327.375 C 81.925781 327.246094 81.625 327.117188 81.320312 326.945312 C 79.039062 325.746094 77.789062 323.863281 77.054688 322.363281 C 76.152344 322.535156 71.238281 323.605469 68.742188 327.675781 C 66.671875 331.097656 64.648438 336.152344 63.398438 339.191406 C 63.011719 340.132812 62.753906 340.816406 62.578125 341.246094 C 64.605469 343.171875 67.277344 345.097656 70.808594 346.855469 C 72.835938 347.839844 75.074219 348.652344 77.488281 349.207031 C 78.609375 342.742188 81.796875 329.042969 82.226562 327.375 Z M 73.007812 312.175781 L 72.75 312.519531 C 73.996094 313.503906 75.546875 315.085938 75.679688 317.097656 L 76.109375 317.054688 C 75.980469 314.914062 74.386719 313.246094 73.007812 312.175781 Z M 89.207031 363.164062 C 90.628906 363.765625 91.792969 364.878906 92.566406 366.207031 L 92.953125 365.992188 C 92.179688 364.578125 90.886719 363.421875 89.421875 362.738281 Z M 89.164062 345.953125 L 89.121094 345.527344 C 88.128906 345.613281 87.09375 345.484375 86.148438 345.183594 L 86.019531 345.613281 C 86.835938 345.871094 87.699219 345.996094 88.558594 345.996094 C 88.734375 345.953125 88.949219 345.953125 89.164062 345.953125 Z M 78.566406 365.433594 L 78.261719 365.777344 C 78.953125 366.375 79.554688 367.0625 79.988281 367.832031 L 80.375 367.617188 C 79.898438 366.804688 79.296875 366.035156 78.566406 365.433594 Z M 69.472656 299.203125 C 69.257812 298.21875 69.816406 297.148438 70.722656 296.71875 L 70.550781 296.335938 C 69.472656 296.847656 68.828125 298.132812 69.042969 299.332031 Z M 57.453125 348.910156 L 57.238281 349.292969 C 57.710938 349.550781 58.269531 349.679688 58.789062 349.679688 C 58.917969 349.679688 59.003906 349.679688 59.132812 349.679688 L 59.089844 349.25 C 58.53125 349.292969 57.96875 349.207031 57.453125 348.910156 Z M 60.683594 368.089844 L 60.855469 368.515625 C 61.675781 368.21875 62.40625 367.703125 62.925781 367.019531 L 62.578125 366.761719 C 62.0625 367.320312 61.417969 367.789062 60.683594 368.089844 Z M 70.851562 379.605469 L 71.28125 379.605469 C 71.28125 379.007812 71.5 378.449219 71.800781 377.9375 L 71.457031 377.722656 C 71.109375 378.277344 70.894531 378.964844 70.851562 379.605469 Z M 80.890625 311.535156 C 81.277344 310.632812 81.320312 309.648438 81.191406 308.664062 C 81.105469 307.722656 80.675781 306.910156 80.460938 305.96875 C 80.460938 305.925781 80.417969 305.96875 80.417969 305.96875 C 80.332031 306.824219 80.632812 307.636719 80.71875 308.492188 C 80.847656 309.480469 80.675781 310.464844 80.589844 311.492188 C 80.632812 311.660156 80.847656 311.660156 80.890625 311.535156 Z M 208.421875 287.171875 C 208.507812 287.257812 208.636719 287.128906 208.59375 287.042969 C 206.957031 284.261719 204.199219 281.90625 201.3125 280.496094 C 201.269531 280.453125 201.226562 280.539062 201.269531 280.578125 C 204.070312 282.464844 206.269531 284.605469 208.421875 287.171875 Z M 213.59375 282.890625 C 213.679688 282.976562 213.808594 282.847656 213.765625 282.761719 C 212 280.238281 209.800781 277.027344 206.441406 276.683594 C 206.441406 276.683594 206.398438 276.726562 206.441406 276.726562 C 209.414062 278.269531 211.480469 280.324219 213.59375 282.890625 Z M 196.917969 285.289062 C 199.460938 285.890625 201.789062 288.757812 203.167969 290.855469 C 203.253906 290.984375 203.425781 290.855469 203.339844 290.769531 C 201.917969 288.542969 199.71875 285.71875 196.917969 285.246094 C 196.875 285.203125 196.875 285.246094 196.917969 285.289062 Z M 196.660156 320.097656 C 200.238281 320.867188 201.660156 323.992188 201.703125 324.035156 L 202.089844 323.863281 C 202.046875 323.734375 200.539062 320.523438 196.746094 319.667969 Z M 192.566406 277.582031 C 193.085938 276.640625 193.34375 275.484375 193.257812 274.414062 L 192.828125 274.457031 C 192.914062 275.484375 192.695312 276.511719 192.179688 277.410156 Z M 198.296875 303.785156 C 198.339844 305.710938 198.816406 307.722656 199.847656 309.351562 C 199.933594 309.480469 200.109375 309.394531 200.066406 309.265625 C 198.945312 306.097656 198.511719 303.527344 199.074219 300.1875 C 199.460938 298.089844 199.246094 296.71875 197.910156 295.050781 C 197.867188 295.007812 197.824219 295.050781 197.867188 295.09375 C 198.902344 297.234375 198.945312 298.519531 198.558594 300.875 C 198.382812 301.859375 198.253906 302.800781 198.296875 303.785156 Z M 224.753906 283.621094 C 224.578125 282.761719 224.710938 281.863281 225.097656 281.09375 L 224.710938 280.921875 C 224.277344 281.777344 224.148438 282.804688 224.320312 283.75 Z M 229.277344 302.285156 C 229.535156 302.542969 229.75 303.015625 229.578125 303.441406 L 229.964844 303.613281 C 230.179688 303.058594 230.007812 302.457031 229.535156 301.988281 C 229.0625 301.515625 228.457031 301.34375 227.898438 301.558594 L 228.027344 301.988281 C 228.542969 301.773438 229.019531 301.988281 229.277344 302.285156 Z M 217.988281 290.984375 C 218.417969 290.855469 218.851562 290.8125 219.195312 290.554688 C 219.882812 290.128906 220.226562 289.269531 220.53125 288.585938 C 220.617188 288.414062 220.359375 288.285156 220.273438 288.457031 C 219.753906 289.570312 219.238281 290.339844 218.03125 290.769531 C 217.167969 291.070312 216.609375 291.582031 215.875 292.140625 C 215.875 292.140625 215.875 292.183594 215.921875 292.183594 C 216.566406 291.582031 217.210938 291.199219 217.988281 290.984375 Z M 213.121094 309.136719 C 213.121094 309.265625 213.292969 309.351562 213.335938 309.222656 C 213.464844 308.964844 213.636719 308.75 213.765625 308.492188 C 213.9375 308.238281 214.195312 308.023438 214.453125 307.894531 C 214.5 307.851562 214.453125 307.808594 214.410156 307.808594 C 214.066406 307.894531 213.808594 308.023438 213.550781 308.238281 C 213.292969 308.535156 213.164062 308.792969 213.121094 309.136719 Z M 140.046875 244.105469 C 141.597656 247.957031 147.886719 247.484375 148.578125 243.246094 C 148.621094 243.074219 148.40625 242.992188 148.320312 243.117188 C 147.5 244.53125 146.683594 245.859375 144.914062 246.246094 C 143.019531 246.671875 141.125 245.644531 140.132812 244.0625 C 140.089844 244.019531 140.003906 244.0625 140.046875 244.105469 Z M 147.113281 229.675781 C 147.113281 229.503906 147.15625 229.289062 147.242188 229.121094 C 147.285156 228.949219 147.414062 228.820312 147.414062 228.648438 C 147.414062 228.5625 147.285156 228.433594 147.199219 228.519531 C 146.984375 228.820312 147.027344 229.332031 147.113281 229.675781 C 147.070312 229.71875 147.113281 229.675781 147.113281 229.675781 Z M 143.363281 239.394531 C 143.96875 239.566406 145.132812 239.652344 145.175781 239.050781 C 145.347656 234 144.183594 231.386719 144.183594 231.386719 C 144.226562 232.628906 143.40625 237.296875 141.984375 238.238281 C 142.246094 238.792969 142.761719 239.265625 143.363281 239.394531 Z M 129.363281 229.035156 C 129.707031 228.519531 130.136719 228.089844 130.65625 227.792969 C 131.085938 227.535156 131.601562 227.40625 132.035156 227.191406 C 132.121094 227.148438 132.078125 227.019531 131.988281 227.019531 C 130.828125 227.019531 129.792969 228.050781 129.277344 228.992188 C 129.277344 229.035156 129.320312 229.078125 129.363281 229.035156 Z M 144.828125 266.152344 L 145.261719 266.152344 C 145.261719 265.851562 145.21875 265.511719 145.132812 265.210938 L 144.699219 265.296875 C 144.785156 265.554688 144.828125 265.851562 144.828125 266.152344 Z M 162.667969 233.742188 C 163.570312 231.816406 165.296875 230.789062 167.363281 230.316406 C 167.492188 230.273438 167.449219 230.105469 167.320312 230.105469 C 165.121094 230.105469 163.3125 231.730469 162.582031 233.699219 C 162.496094 233.742188 162.625 233.785156 162.667969 233.742188 Z M 140.347656 230.53125 C 140.433594 230.660156 140.648438 230.53125 140.5625 230.402344 C 140.175781 229.589844 139.703125 228.820312 139.011719 228.261719 C 138.410156 227.75 137.851562 227.621094 137.074219 227.578125 C 137.03125 227.578125 137.03125 227.621094 137.074219 227.621094 C 138.667969 227.835938 139.703125 229.246094 140.347656 230.53125 Z M 160.597656 241.320312 C 161.375 239.695312 161.675781 238.023438 161.675781 236.269531 C 161.675781 236.183594 161.546875 236.183594 161.546875 236.269531 C 161.332031 237.980469 160.941406 239.652344 160.425781 241.277344 C 160.382812 241.363281 160.554688 241.449219 160.597656 241.320312 Z M 147.113281 234.429688 C 147.371094 232.160156 148.277344 230.0625 149.441406 228.132812 C 149.484375 228.089844 149.398438 228.007812 149.351562 228.050781 C 147.757812 229.847656 147.027344 232.03125 147.027344 234.429688 C 147.070312 234.511719 147.113281 234.511719 147.113281 234.429688 Z M 164.519531 237.9375 C 164.949219 237.382812 165.25 236.570312 165.078125 235.839844 C 165.035156 235.542969 164.863281 235.328125 164.734375 235.070312 C 164.390625 234.34375 164.347656 233.65625 164.648438 232.886719 C 164.691406 232.800781 164.5625 232.757812 164.519531 232.84375 C 164.261719 233.402344 164.089844 234 164.21875 234.640625 C 164.304688 235.027344 164.519531 235.328125 164.605469 235.667969 C 164.820312 236.441406 164.390625 237.082031 164.175781 237.808594 C 164.132812 238.023438 164.390625 238.066406 164.519531 237.9375 Z M 159.175781 229.847656 C 159.390625 230.488281 159.523438 231.132812 159.695312 231.730469 C 159.738281 231.859375 159.910156 231.816406 159.910156 231.6875 C 159.910156 230.273438 159.261719 228.820312 158.359375 227.75 C 158.316406 227.707031 158.273438 227.75 158.316406 227.792969 C 158.617188 228.476562 158.917969 229.203125 159.175781 229.847656 Z M 132.164062 251.808594 C 134.1875 254.59375 138.238281 260.328125 145 260.285156 C 150.214844 260.242188 155.816406 253.308594 157.023438 249.539062 C 157.066406 248.683594 157.324219 246.972656 157.453125 245.988281 C 157.410156 245.988281 157.367188 246.03125 157.324219 246.03125 C 154.351562 249.796875 149.265625 254.679688 143.019531 254.121094 C 137.980469 253.652344 134.316406 251.210938 131.773438 248.511719 C 131.773438 248.683594 131.988281 250.3125 132.164062 251.808594 Z M 189.636719 349.207031 L 189.851562 349.59375 L 190.371094 349.335938 L 190.15625 348.953125 Z M 188.128906 390.949219 L 188.214844 391.378906 C 188.863281 391.25 189.464844 390.824219 189.808594 390.265625 L 189.421875 390.050781 C 189.164062 390.523438 188.648438 390.867188 188.128906 390.949219 Z M 211.523438 386.027344 C 194.464844 373.269531 190.671875 348.011719 188.648438 334.480469 C 186.792969 322.195312 194.808594 317.484375 198.253906 315.472656 C 198.859375 315.128906 199.246094 314.871094 199.503906 314.660156 L 199.203125 314.316406 C 198.988281 314.488281 198.558594 314.746094 197.996094 315.085938 C 196.960938 315.730469 195.453125 316.585938 193.945312 317.828125 C 193.988281 317.613281 194.03125 317.398438 193.988281 317.183594 C 193.945312 316.714844 193.644531 316.242188 193.128906 316.15625 L 193.042969 316.585938 C 193.34375 316.628906 193.515625 316.972656 193.515625 317.226562 C 193.558594 317.570312 193.429688 317.957031 193.300781 318.253906 L 193.386719 318.296875 C 191.75 319.753906 190.199219 321.679688 189.121094 324.25 L 188 324.589844 L 188.128906 325.019531 L 188.90625 324.761719 C 187.957031 327.332031 187.527344 330.542969 188.128906 334.523438 C 188.34375 335.894531 188.5625 337.390625 188.820312 338.976562 L 188.648438 338.847656 C 188.171875 339.617188 187.828125 340.519531 187.699219 341.417969 L 188.128906 341.503906 C 188.257812 340.730469 188.519531 340.003906 188.90625 339.320312 C 191.1875 353.488281 195.886719 374.855469 211.222656 386.328125 C 214.324219 388.640625 220.183594 388.769531 221.476562 388.769531 C 221.605469 388.769531 221.691406 388.769531 221.738281 388.769531 L 221.738281 388.339844 C 221.695312 388.382812 214.84375 388.46875 211.523438 386.027344 Z M 205.96875 392.878906 L 206.613281 394.503906 L 207.042969 394.332031 L 206.398438 392.707031 Z M 186.320312 370.445312 L 186.75 370.488281 C 186.792969 369.972656 187.269531 369.503906 187.785156 369.460938 L 187.742188 369.03125 C 187.011719 369.074219 186.363281 369.714844 186.320312 370.445312 Z M 193.515625 364.835938 L 193.558594 365.261719 C 193.902344 365.222656 194.25 365.136719 194.550781 364.964844 L 194.378906 364.578125 C 194.117188 364.707031 193.816406 364.792969 193.515625 364.835938 Z M 165.035156 320.566406 L 165.425781 320.394531 L 164.519531 318.425781 L 164.132812 318.597656 Z M 186.878906 285.589844 C 186.449219 284.863281 185.675781 284.347656 184.855469 284.261719 L 184.8125 284.691406 C 185.5 284.777344 186.148438 285.203125 186.492188 285.847656 Z M 166.804688 358.839844 C 165.554688 358.628906 164.347656 358.199219 163.226562 357.644531 L 163.011719 358.027344 C 164.175781 358.628906 165.425781 359.011719 166.714844 359.269531 Z M 166.242188 389.921875 L 165.984375 390.265625 C 166.847656 390.824219 167.492188 391.59375 167.921875 392.492188 L 168.3125 392.320312 C 167.878906 391.335938 167.148438 390.523438 166.242188 389.921875 Z M 178.695312 308.066406 C 178.996094 308.707031 179.125 309.4375 179.125 310.121094 L 179.554688 310.121094 C 179.597656 309.351562 179.425781 308.578125 179.082031 307.851562 Z M 224.925781 312.519531 L 224.667969 312.175781 C 223.332031 313.203125 221.695312 314.914062 221.5625 317.054688 L 221.996094 317.097656 C 222.125 315.128906 223.632812 313.503906 224.925781 312.519531 Z M 238.582031 349.25 L 238.539062 349.679688 C 238.667969 349.679688 238.753906 349.679688 238.882812 349.679688 C 239.445312 349.679688 239.960938 349.550781 240.433594 349.292969 L 240.21875 348.910156 C 239.703125 349.207031 239.144531 349.292969 238.582031 349.25 Z M 235.136719 366.71875 L 234.792969 366.976562 C 235.308594 367.660156 236.039062 368.175781 236.859375 368.472656 L 237.03125 368.046875 C 236.300781 367.789062 235.609375 367.320312 235.136719 366.71875 Z M 165.984375 281.566406 C 166.371094 281.734375 166.804688 281.863281 167.234375 281.863281 C 167.234375 281.863281 167.277344 281.863281 167.277344 281.863281 L 167.277344 281.4375 C 166.890625 281.4375 166.5 281.351562 166.199219 281.179688 Z M 225.871094 377.980469 C 226.175781 378.492188 226.347656 379.050781 226.390625 379.648438 L 226.820312 379.648438 C 226.777344 378.964844 226.605469 378.320312 226.261719 377.765625 Z M 188.648438 329.257812 L 189.078125 329.34375 C 189.292969 328.402344 189.851562 327.503906 190.628906 326.6875 C 191.449219 325.875 192.394531 325.234375 193.171875 324.761719 L 192.957031 324.378906 C 192.179688 324.847656 191.1875 325.535156 190.328125 326.390625 C 189.464844 327.289062 188.90625 328.273438 188.648438 329.257812 Z M 242.675781 333.496094 L 242.246094 333.667969 C 242.074219 333.152344 241.855469 332.382812 241.597656 331.441406 C 240.996094 334.140625 238.28125 341.714844 226.992188 347.28125 C 223.933594 348.78125 220.445312 349.808594 216.609375 350.320312 L 216.566406 349.894531 C 217.644531 349.765625 218.675781 349.550781 219.710938 349.335938 C 219.238281 346.511719 218.332031 342.230469 217.429688 338.25 L 217.386719 338.546875 C 216.480469 338.421875 215.574219 338.675781 214.84375 339.234375 L 214.585938 338.890625 C 215.359375 338.292969 216.394531 338.035156 217.386719 338.121094 C 216.308594 333.195312 215.230469 328.660156 214.972656 327.589844 C 213.722656 328.058594 212.300781 328.273438 210.792969 328.273438 C 209.542969 328.273438 208.164062 328.101562 206.699219 327.800781 C 206.011719 328.53125 201.269531 334.054688 205.234375 347.28125 L 204.804688 347.410156 C 200.96875 334.609375 205.019531 328.957031 206.183594 327.675781 C 204.070312 327.160156 201.789062 326.390625 199.375 325.234375 C 198.6875 325.746094 193.859375 330.628906 194.074219 336.28125 C 194.292969 342.273438 195.195312 346.46875 195.238281 346.46875 L 194.808594 346.554688 C 194.808594 346.511719 193.902344 342.273438 193.644531 336.28125 C 193.429688 330.800781 197.78125 326.046875 198.945312 325.019531 C 198.859375 324.976562 198.816406 324.976562 198.730469 324.933594 L 198.902344 324.546875 C 206.269531 328.015625 212 328.746094 216.007812 326.605469 C 220.140625 324.421875 220.832031 319.925781 220.875 319.882812 L 221.304688 319.925781 C 221.304688 319.925781 221.175781 320.824219 220.660156 321.980469 C 221.867188 322.195312 226.691406 323.394531 229.148438 327.503906 C 229.363281 327.84375 229.578125 328.230469 229.792969 328.617188 C 229.707031 328.015625 229.792969 327.460938 229.964844 326.902344 L 230.398438 327.03125 C 230.222656 327.589844 230.179688 328.144531 230.265625 328.703125 L 229.878906 328.746094 C 231.6875 332.082031 233.414062 336.363281 234.53125 339.0625 C 234.878906 339.875 235.136719 340.519531 235.308594 340.945312 C 237.722656 338.589844 239.144531 336.320312 240.003906 334.4375 C 239.660156 333.152344 236.039062 319.496094 232.507812 317.140625 C 228.84375 314.703125 225.355469 315.816406 225.3125 315.816406 L 225.183594 315.386719 C 225.3125 315.34375 228.886719 314.1875 232.765625 316.757812 C 236.214844 319.027344 239.53125 330.886719 240.304688 333.796875 C 241.082031 331.914062 241.253906 330.585938 241.296875 330.371094 C 241.253906 330.15625 241.167969 329.941406 241.125 329.6875 C 239.960938 325.105469 238.238281 318.167969 235.4375 314.273438 C 232.25 309.820312 223.890625 309.863281 219.667969 310.25 C 219.195312 310.804688 218.851562 311.492188 218.675781 312.261719 L 218.246094 312.175781 C 218.375 311.492188 218.675781 310.890625 219.066406 310.335938 C 218.675781 310.378906 218.289062 310.421875 218.03125 310.464844 L 217.988281 310.035156 C 218.375 309.992188 218.894531 309.949219 219.496094 309.863281 C 219.496094 309.863281 219.496094 309.863281 219.496094 309.820312 L 219.539062 309.820312 C 221.089844 309.691406 223.203125 309.605469 225.484375 309.734375 L 225.785156 308.921875 L 226.175781 309.09375 L 225.914062 309.777344 C 228.542969 309.992188 231.257812 310.550781 233.371094 311.832031 C 233.5 311.660156 233.628906 311.492188 233.714844 311.320312 L 234.101562 311.492188 C 234.015625 311.703125 233.886719 311.875 233.714844 312.046875 C 234.53125 312.605469 235.265625 313.246094 235.824219 314.015625 C 237.679688 316.628906 239.101562 320.523438 240.175781 324.207031 C 240.347656 323.777344 240.523438 323.351562 240.738281 322.921875 L 241.125 323.09375 C 240.867188 323.648438 240.609375 324.207031 240.390625 324.804688 L 240.347656 324.804688 C 240.824219 326.519531 241.253906 328.144531 241.597656 329.558594 C 242.074219 331.355469 242.417969 332.683594 242.675781 333.496094 Z M 235.09375 341.246094 C 234.921875 340.859375 234.617188 340.132812 234.273438 339.191406 C 233.066406 336.152344 231.042969 331.097656 228.976562 327.675781 C 226.476562 323.5625 221.605469 322.535156 220.660156 322.367188 C 219.96875 323.863281 218.675781 325.746094 216.394531 326.945312 C 216.09375 327.117188 215.789062 327.246094 215.488281 327.375 C 215.875 329.085938 219.109375 342.742188 220.183594 349.207031 C 222.597656 348.652344 224.796875 347.882812 226.863281 346.855469 C 230.351562 345.097656 233.066406 343.171875 235.09375 341.246094 Z M 204.761719 365.992188 L 205.148438 366.207031 C 205.882812 364.878906 207.085938 363.765625 208.507812 363.164062 L 208.335938 362.78125 C 206.785156 363.421875 205.535156 364.578125 204.761719 365.992188 Z M 195.023438 348.609375 C 195.066406 348.609375 199.847656 350.066406 206.269531 350.578125 L 206.3125 350.152344 C 199.933594 349.679688 195.238281 348.222656 195.195312 348.222656 Z M 219.410156 365.777344 L 219.109375 365.433594 C 218.375 366.035156 217.773438 366.804688 217.253906 367.617188 L 217.644531 367.832031 C 218.117188 367.0625 218.71875 366.332031 219.410156 365.777344 Z M 211.523438 345.183594 C 210.578125 345.484375 209.542969 345.613281 208.550781 345.527344 L 208.507812 345.953125 C 208.726562 345.953125 208.898438 345.953125 209.113281 345.953125 C 209.972656 345.953125 210.835938 345.828125 211.65625 345.570312 Z M 149.351562 297.40625 L 149.785156 297.449219 C 149.828125 296.636719 150.601562 295.863281 151.421875 295.820312 L 151.378906 295.394531 C 150.34375 295.4375 149.441406 296.335938 149.351562 297.40625 Z M 122.554688 236.097656 C 122.210938 235.414062 122.296875 234.554688 122.039062 233.828125 C 122.039062 233.785156 121.953125 233.785156 121.953125 233.871094 C 122.167969 234.683594 121.953125 235.582031 122.339844 236.355469 C 122.726562 237.082031 123.675781 237.597656 124.40625 237.894531 C 124.492188 237.9375 124.578125 237.851562 124.492188 237.765625 C 123.890625 237.210938 122.941406 236.867188 122.554688 236.097656 Z M 124.0625 239.308594 C 123.113281 238.921875 121.953125 238.539062 121.390625 237.640625 C 120.832031 236.738281 120.574219 235.625 120.53125 234.597656 C 120.53125 234.554688 120.441406 234.554688 120.441406 234.597656 C 120.441406 235.753906 120.617188 237.039062 121.261719 238.023438 C 121.863281 238.921875 122.941406 239.394531 123.933594 239.609375 C 124.148438 239.609375 124.234375 239.351562 124.0625 239.308594 Z M 126.433594 239.351562 C 126.261719 237.382812 125.785156 235.414062 125.484375 233.441406 C 125.484375 233.359375 125.355469 233.402344 125.355469 233.441406 C 125.3125 235.457031 125.527344 237.554688 126.347656 239.394531 C 126.390625 239.394531 126.433594 239.394531 126.433594 239.351562 Z M 127.679688 330.671875 L 126.304688 332.167969 L 126.605469 332.46875 L 127.984375 330.96875 Z M 120.398438 356.273438 L 120.832031 356.273438 C 120.875 355.246094 121.390625 354.21875 122.253906 353.574219 L 121.996094 353.234375 C 121.046875 353.960938 120.398438 355.117188 120.398438 356.273438 Z M 107.300781 349.335938 L 107.820312 349.59375 L 108.035156 349.207031 L 107.519531 348.953125 Z M 113.59375 307.464844 L 114.023438 307.464844 L 114.023438 304.167969 L 113.59375 304.167969 Z M 165.8125 239.394531 C 166.847656 238.921875 167.664062 238.109375 168.050781 237.039062 C 168.09375 236.867188 167.878906 236.78125 167.792969 236.910156 C 167.191406 238.152344 166.285156 239.179688 164.90625 239.523438 C 163.742188 239.824219 162.625 239.394531 161.503906 239.78125 C 161.460938 239.78125 161.460938 239.863281 161.546875 239.863281 C 162.96875 239.4375 164.390625 240.078125 165.8125 239.394531 Z M 103.078125 364.964844 C 103.382812 365.136719 103.726562 365.222656 104.070312 365.261719 L 104.113281 364.835938 C 103.8125 364.792969 103.511719 364.707031 103.253906 364.578125 Z M 108.808594 338.976562 C 108.941406 338.164062 109.070312 337.351562 109.15625 336.621094 C 109.242188 335.894531 109.371094 335.210938 109.457031 334.566406 C 110.058594 330.585938 109.628906 327.375 108.679688 324.804688 L 109.457031 325.0625 L 109.585938 324.632812 L 108.464844 324.292969 C 107.429688 321.722656 105.835938 319.796875 104.199219 318.339844 L 104.285156 318.296875 C 104.15625 317.957031 104.027344 317.613281 104.070312 317.269531 C 104.113281 316.972656 104.285156 316.671875 104.542969 316.628906 L 104.457031 316.199219 C 103.941406 316.285156 103.640625 316.800781 103.597656 317.226562 C 103.597656 317.441406 103.597656 317.65625 103.640625 317.871094 C 102.132812 316.628906 100.667969 315.730469 99.589844 315.128906 C 99.03125 314.832031 98.597656 314.574219 98.382812 314.359375 L 98.082031 314.703125 C 98.339844 314.914062 98.726562 315.171875 99.332031 315.515625 C 102.734375 317.527344 110.75 322.238281 108.941406 334.523438 C 108.851562 335.210938 108.722656 335.894531 108.636719 336.578125 C 106.527344 351.050781 102.949219 375.238281 86.0625 386.070312 L 86.320312 386.457031 C 102.304688 376.222656 106.441406 354.175781 108.679688 339.449219 C 109.070312 340.089844 109.285156 340.816406 109.414062 341.589844 L 109.84375 341.503906 C 109.714844 340.601562 109.371094 339.703125 108.898438 338.933594 Z M 109.027344 329.257812 C 108.765625 328.273438 108.207031 327.289062 107.34375 326.390625 C 106.527344 325.535156 105.492188 324.847656 104.71875 324.378906 L 104.5 324.761719 C 105.277344 325.234375 106.226562 325.875 107.042969 326.6875 C 107.820312 327.503906 108.378906 328.445312 108.59375 329.34375 Z M 126.691406 391.722656 C 127.207031 392.277344 127.636719 392.964844 127.898438 393.691406 L 128.328125 393.5625 C 128.070312 392.792969 127.59375 392.0625 127.035156 391.421875 Z M 146.378906 281.609375 L 146.121094 281.949219 C 146.378906 282.121094 146.640625 282.378906 146.8125 282.679688 L 147.199219 282.464844 C 147.027344 282.121094 146.726562 281.820312 146.378906 281.609375 Z M 102.605469 378.105469 L 102.863281 378.449219 C 103.425781 378.105469 103.8125 377.464844 103.941406 376.824219 L 103.511719 376.738281 C 103.382812 377.335938 103.035156 377.808594 102.605469 378.105469 Z M 151.421875 272.53125 C 151.207031 273.046875 151.121094 273.644531 151.207031 274.199219 L 151.636719 274.15625 C 151.59375 273.644531 151.636719 273.128906 151.851562 272.703125 Z M 151.421875 342.957031 L 151.765625 343.257812 C 152.671875 342.273438 153.964844 341.671875 155.300781 341.589844 L 155.257812 341.160156 C 153.792969 341.203125 152.414062 341.886719 151.421875 342.957031 Z M 128.242188 276.296875 L 128.628906 276.46875 C 128.714844 276.214844 128.886719 276.042969 129.148438 275.914062 L 128.929688 275.527344 C 128.585938 275.699219 128.371094 275.957031 128.242188 276.296875 Z M 160.125 274.757812 C 159.910156 273.988281 159.175781 271.203125 159.476562 267.394531 C 159.78125 263.753906 157.625 262.171875 156.679688 261.613281 C 157.496094 261.273438 157.96875 261.058594 157.96875 261.015625 L 157.753906 260.628906 C 157.710938 260.671875 152.152344 263.453125 146.8125 262.898438 L 146.769531 263.328125 C 147.242188 263.371094 147.714844 263.414062 148.234375 263.414062 C 149.007812 264.523438 148.792969 266.878906 148.277344 268.207031 C 147.714844 269.664062 147.457031 275.527344 147.457031 275.785156 L 147.886719 275.785156 C 147.886719 275.742188 148.148438 269.75 148.707031 268.335938 C 149.222656 267.050781 149.484375 264.695312 148.792969 263.371094 C 150.085938 263.328125 151.335938 263.15625 152.5 262.898438 C 152.929688 263.15625 154.824219 264.441406 154.523438 268.035156 C 154.394531 269.578125 154.480469 271.976562 154.824219 274.800781 L 155.257812 274.757812 C 154.953125 271.976562 154.824219 269.621094 154.953125 268.078125 C 155.257812 264.867188 153.878906 263.371094 153.101562 262.769531 C 154.308594 262.46875 155.386719 262.128906 156.203125 261.785156 C 156.636719 261.957031 159.433594 263.328125 159.089844 267.308594 C 158.746094 271.246094 159.523438 274.074219 159.78125 274.84375 C 158.875 275.1875 157.667969 275.570312 156.160156 275.957031 L 156.246094 276.382812 C 160.683594 275.3125 162.496094 274.074219 162.539062 273.988281 L 162.277344 273.644531 C 162.234375 273.730469 161.589844 274.199219 160.125 274.757812 Z M 138.28125 358.671875 L 137.894531 358.457031 C 137.546875 359.140625 137.804688 360.082031 138.496094 360.46875 L 138.710938 360.082031 C 138.238281 359.828125 138.023438 359.140625 138.28125 358.671875 Z M 131.085938 309.519531 C 130.957031 309.265625 130.957031 309.007812 131.042969 308.792969 L 130.65625 308.621094 C 130.523438 308.964844 130.566406 309.351562 130.742188 309.691406 C 130.914062 310.035156 131.214844 310.292969 131.558594 310.378906 L 131.6875 309.949219 C 131.386719 309.949219 131.171875 309.777344 131.085938 309.519531 Z M 145.304688 380.121094 L 145.734375 380.121094 L 145.734375 377.765625 L 145.304688 377.765625 Z M 151.035156 277.328125 L 150.992188 276.898438 C 149.527344 277.070312 147.929688 277.199219 146.335938 277.285156 C 144.398438 277.367188 142.589844 277.285156 140.910156 277.113281 C 141.253906 276.339844 142.113281 274.199219 142.027344 271.890625 C 142.027344 271.546875 142.027344 271.117188 141.984375 270.734375 C 141.898438 268.25 141.8125 264.824219 142.632812 263.796875 L 142.289062 263.539062 C 141.339844 264.695312 141.46875 268.035156 141.511719 270.777344 C 141.511719 271.160156 141.554688 271.546875 141.554688 271.933594 C 141.597656 274.242188 140.648438 276.511719 140.390625 277.070312 C 136.296875 276.554688 133.152344 275.355469 131 274.328125 C 131.816406 273.214844 133.066406 269.917969 133.152344 267.734375 L 133.152344 267.609375 C 133.238281 265.851562 133.324219 263.242188 134.316406 262.382812 C 134.488281 262.257812 134.660156 262.171875 134.875 262.128906 C 135.910156 262.171875 137.375 262.257812 138.882812 262.46875 C 138.839844 262.511719 138.753906 262.554688 138.710938 262.597656 C 138.195312 263.027344 137.03125 264.355469 137.03125 267.566406 C 137.03125 271.503906 136.039062 273.773438 136.039062 273.816406 L 136.429688 273.988281 C 136.472656 273.902344 137.460938 271.632812 137.460938 267.566406 C 137.460938 264.566406 138.539062 263.328125 138.96875 262.941406 C 139.273438 262.683594 139.53125 262.597656 139.617188 262.597656 L 139.617188 262.554688 C 140.132812 262.640625 140.605469 262.726562 141.125 262.855469 L 141.210938 262.425781 C 139.097656 261.957031 136.816406 261.742188 135.265625 261.65625 L 135.265625 261.613281 C 135.136719 261.613281 135.007812 261.613281 134.875 261.613281 C 133.929688 261.570312 133.324219 261.570312 133.324219 261.570312 L 133.324219 262 C 133.324219 262 133.585938 262 134.015625 262 C 132.9375 263.027344 132.808594 265.59375 132.722656 267.480469 L 132.722656 267.609375 C 132.636719 269.75 131.34375 273.128906 130.613281 274.03125 C 128.84375 273.128906 127.898438 272.402344 127.855469 272.359375 L 127.59375 272.703125 C 127.679688 272.746094 133.972656 277.667969 144.699219 277.667969 C 145.21875 277.667969 145.734375 277.667969 146.292969 277.625 C 147.976562 277.667969 149.527344 277.539062 151.035156 277.328125 Z M 151.035156 277.328125 "/>
</g>
</svg>
