<?xml version="1.0" encoding="UTF-8"?>
<svg xmlns="http://www.w3.org/2000/svg" xmlns:xlink="http://www.w3.org/1999/xlink" width="600pt" height="599.999999pt" viewBox="0 0 600 599.999999" version="1.2">
<defs>
<clipPath id="clip1">
  <path d="M 113.839844 185 L 476 185 L 476 500.859375 L 113.839844 500.859375 Z M 113.839844 185 "/>
</clipPath>
<clipPath id="clip2">
  <path d="M 139 98.449219 L 470 98.449219 L 470 290 L 139 290 Z M 139 98.449219 "/>
</clipPath>
</defs>
<g id="surface1">
<rect x="0" y="0" width="600" height="599.999999" style="fill:rgb(100%,100%,100%);fill-opacity:1;stroke:none;"/>
<rect x="0" y="0" width="600" height="599.999999" style="fill:rgb(100%,100%,100%);fill-opacity:1;stroke:none;"/>
<rect x="0" y="0" width="600" height="599.999999" style="fill:rgb(96.859741%,42.349243%,38.038635%);fill-opacity:1;stroke:none;"/>
<g clip-path="url(#clip1)" clip-rule="nonzero">
<path style=" stroke:none;fill-rule:nonzero;fill:rgb(89.7995%,68.238831%,25.489807%);fill-opacity:1;" d="M 439.824219 456.933594 C 434.675781 466.1875 438.777344 483 438.777344 483 C 438.777344 483 397.429688 500.859375 303.464844 500.859375 C 212.074219 500.859375 176.433594 481.953125 176.433594 481.953125 C 176.835938 478.253906 177 474.472656 177.078125 470.933594 C 176.03125 471.496094 174.828125 471.898438 173.621094 472.058594 L 173.539062 471.09375 C 174.828125 470.933594 176.03125 470.53125 177.078125 469.804688 C 177.078125 461.601562 176.433594 455.164062 176.433594 455.164062 C 176.433594 455.164062 156.886719 473.988281 132.992188 455.890625 C 132.75 455.648438 132.429688 455.488281 132.1875 455.246094 C 132.269531 455.890625 132.429688 456.453125 132.671875 457.015625 L 131.785156 457.335938 C 131.382812 456.371094 131.144531 455.324219 131.0625 454.28125 C 120.925781 444.546875 117.386719 423.144531 116.824219 400.539062 C 116.097656 401.664062 115.375 402.710938 114.570312 403.675781 L 113.847656 403.113281 C 114.972656 401.746094 115.9375 400.296875 116.742188 398.769531 C 116.660156 392.816406 116.660156 386.78125 116.902344 380.828125 C 116.339844 381.875 116.097656 383 116.097656 384.128906 L 115.132812 384.128906 C 115.054688 382.277344 115.695312 380.425781 116.902344 379.058594 C 117.628906 361.199219 119.398438 344.707031 120.363281 334.8125 C 121.246094 330.144531 122.050781 323.789062 123.097656 316.628906 C 122.613281 316.871094 122.210938 317.03125 121.730469 317.191406 L 121.488281 316.308594 C 122.132812 316.148438 122.695312 315.824219 123.257812 315.503906 C 124.789062 305.207031 126.796875 293.140625 130.097656 281.394531 C 128.890625 282.199219 127.925781 283.242188 127.199219 284.449219 L 126.394531 283.96875 C 127.363281 282.277344 128.808594 280.910156 130.5 280.027344 C 133.957031 267.957031 138.867188 256.210938 146.027344 247.121094 L 145.785156 244.304688 L 146.75 244.226562 L 146.910156 246.074219 C 150.851562 241.328125 155.4375 237.304688 160.828125 234.328125 C 161.148438 234.167969 161.472656 234.007812 161.792969 233.847656 C 160.105469 232.722656 158.574219 231.351562 157.128906 229.90625 C 154.632812 227.332031 152.542969 224.433594 150.371094 221.617188 C 148.199219 218.804688 145.945312 215.988281 144.175781 212.851562 C 142.96875 210.757812 142.003906 208.585938 141.441406 206.253906 C 141.117188 204.964844 138.945312 200.21875 141.761719 202.148438 C 145.863281 204.886719 149.082031 209.632812 152.460938 213.171875 C 153.425781 214.136719 154.554688 215.664062 155.4375 216.632812 C 157.769531 219.125 159.378906 221.457031 161.550781 224.03125 C 163.722656 226.527344 166.378906 228.617188 168.230469 231.273438 C 172.976562 229.90625 178.125 229.503906 183.355469 229.582031 C 183.113281 229.261719 182.789062 228.859375 182.628906 228.457031 C 182.148438 227.332031 182.066406 225.640625 183.113281 224.59375 L 183.757812 225.238281 C 183.03125 225.964844 183.03125 227.167969 183.433594 228.054688 C 183.675781 228.617188 184.078125 229.179688 184.5625 229.664062 C 192.445312 229.984375 200.730469 231.515625 208.695312 233.285156 C 209.097656 232.882812 209.417969 232.398438 209.660156 231.917969 L 210.464844 232.320312 C 210.222656 232.722656 209.984375 233.125 209.660156 233.445312 C 218.589844 235.535156 227.277344 237.871094 234.839844 239.238281 C 234.601562 238.753906 234.4375 238.273438 234.359375 237.789062 L 235.324219 237.707031 C 235.40625 238.351562 235.726562 238.996094 236.207031 239.558594 C 239.347656 240.121094 242.324219 240.445312 244.976562 240.445312 C 245.058594 239.238281 245.460938 238.109375 246.023438 237.066406 L 246.828125 237.546875 C 246.34375 238.433594 246.023438 239.480469 245.863281 240.523438 C 252.378906 240.445312 257.125 238.433594 259.296875 232.960938 C 258.652344 232.238281 258.089844 231.433594 257.609375 230.546875 L 258.414062 230.066406 C 258.816406 230.710938 259.21875 231.351562 259.699219 231.917969 C 259.941406 231.273438 260.101562 230.546875 260.261719 229.824219 C 261.066406 225.5625 261.066406 219.609375 264.929688 218.804688 C 265.492188 218.804688 266.136719 218.722656 266.699219 218.640625 C 267.421875 218.5625 268.066406 213.492188 268.710938 213.492188 C 272.972656 213.492188 277.398438 210.515625 281.582031 211.078125 C 286.570312 211.804688 290.996094 213.734375 296.0625 213.492188 C 301.535156 213.253906 304.910156 212.6875 311.347656 217.515625 C 311.75 217.355469 313.277344 216.953125 313.679688 216.792969 C 318.105469 217.917969 318.992188 223.066406 319.875 227.089844 C 320.519531 226.765625 321.082031 226.285156 321.566406 225.640625 L 322.289062 226.203125 C 321.726562 227.007812 320.921875 227.652344 320.035156 228.054688 C 320.277344 228.941406 320.4375 229.746094 320.761719 230.46875 C 321.324219 231.835938 321.96875 233.042969 322.851562 234.007812 C 322.933594 233.125 323.335938 232.238281 323.898438 231.515625 L 324.621094 232.078125 C 323.976562 232.882812 323.65625 233.925781 323.738281 234.972656 C 326.632812 237.707031 331.136719 238.59375 339.183594 238.109375 C 340.230469 237.546875 341.113281 236.742188 341.757812 235.777344 L 342.5625 236.261719 C 342.160156 236.902344 341.675781 237.46875 341.113281 237.949219 C 341.195312 237.949219 341.273438 237.949219 341.355469 237.949219 C 348.273438 237.386719 355.113281 235.699219 361.949219 233.847656 L 361.308594 232.238281 L 362.191406 231.917969 L 362.835938 233.605469 C 363.640625 233.363281 364.523438 233.125 365.328125 232.882812 L 365.328125 232.722656 L 365.972656 232.722656 C 375.464844 229.984375 385.039062 227.089844 395.015625 226.042969 C 394.53125 224.59375 394.453125 223.066406 394.773438 221.539062 L 395.660156 221.699219 C 395.417969 223.066406 395.496094 224.59375 395.980469 225.882812 C 408.289062 224.835938 421.242188 226.765625 435.320312 235.617188 C 441.351562 239.480469 446.421875 245.671875 450.765625 253.398438 C 451.007812 252.832031 451.25 252.351562 451.570312 251.789062 L 452.375 252.269531 C 451.972656 252.914062 451.652344 253.636719 451.410156 254.441406 C 453.5 258.304688 455.351562 262.566406 457.121094 266.992188 C 458.328125 267.234375 459.535156 267.3125 460.820312 267.3125 L 460.820312 268.28125 C 459.695312 268.28125 458.648438 268.199219 457.523438 268.039062 C 459.050781 272.222656 460.5 276.566406 461.789062 280.992188 C 462.269531 280.828125 462.671875 280.589844 462.992188 280.1875 L 463.71875 280.75 C 463.316406 281.3125 462.671875 281.632812 462.027344 281.796875 C 464.683594 291.289062 466.773438 301.183594 468.382812 310.433594 C 469.1875 311.238281 470.316406 311.722656 471.441406 311.882812 L 471.359375 312.847656 C 470.394531 312.769531 469.429688 312.367188 468.625 311.882812 C 471.28125 327.492188 472.566406 341.167969 473.210938 348.328125 C 485.519531 446.476562 439.824219 456.933594 439.824219 456.933594 Z M 448.191406 205.207031 C 450.363281 208.585938 453.339844 211.480469 457.121094 212.929688 C 460.902344 214.296875 465.40625 213.816406 468.382812 211.160156 C 470.796875 208.90625 471.84375 205.449219 471.601562 202.148438 C 471.28125 198.851562 469.832031 195.792969 467.820312 193.140625 C 464.84375 189.199219 460.5 186.140625 455.59375 185.820312 C 450.683594 185.578125 445.535156 188.796875 444.730469 193.621094 C 444.730469 193.621094 445.535156 195.554688 445.617188 198.128906 C 445.699219 200.703125 446.824219 203.117188 448.191406 205.207031 Z M 448.191406 205.207031 "/>
</g>
<path style=" stroke:none;fill-rule:nonzero;fill:rgb(53.329468%,72.938538%,53.729248%);fill-opacity:1;" d="M 471.84375 231.191406 C 471.28125 234.328125 469.589844 237.386719 470.074219 240.605469 C 470.074219 240.605469 469.992188 240.605469 469.992188 240.605469 L 470.71875 240.847656 C 468.867188 241.085938 468.304688 243.582031 466.855469 244.789062 C 465.40625 245.996094 463.316406 245.753906 461.464844 245.59375 C 457.203125 245.191406 452.9375 245.433594 448.753906 246.398438 C 448.351562 244.628906 448.59375 242.777344 448.59375 241.007812 C 448.59375 239.238281 448.109375 237.226562 446.742188 236.101562 C 445.699219 235.214844 444.25 234.972656 443.203125 234.167969 C 441.753906 232.960938 441.433594 230.789062 441.675781 228.859375 C 441.996094 226.929688 442.722656 225.160156 443.042969 223.308594 C 443.765625 219.042969 441.996094 214.699219 438.699219 211.964844 C 438.136719 211.480469 437.007812 210.597656 436.445312 210.113281 C 434.996094 210.113281 433.710938 209.390625 432.421875 208.746094 C 430.332031 207.621094 428.078125 206.253906 427.195312 204.082031 C 426.066406 201.265625 427.597656 197.886719 426.710938 194.988281 C 426.230469 193.300781 425.023438 191.933594 424.460938 190.324219 C 425.664062 190.164062 426.390625 190.566406 427.355469 191.289062 C 428.640625 192.175781 430.332031 192.09375 431.78125 191.609375 C 433.226562 191.128906 434.59375 190.324219 436.042969 189.761719 C 438.054688 188.957031 440.308594 188.632812 442.480469 188.875 C 443.527344 188.957031 444.652344 189.199219 445.457031 189.921875 C 446.261719 190.566406 446.742188 191.773438 446.339844 192.738281 C 448.914062 193.058594 451.488281 193.300781 454.0625 193.621094 C 454.386719 196.359375 455.753906 198.609375 457.765625 200.539062 C 459.535156 202.230469 461.789062 203.355469 463.394531 205.207031 C 464.363281 206.332031 465.085938 207.699219 465.40625 209.148438 C 466.132812 211.964844 465.40625 215.101562 466.695312 217.757812 C 467.417969 219.285156 468.707031 220.492188 469.75 221.859375 C 471.523438 224.433594 472.40625 227.894531 471.84375 231.191406 Z M 471.84375 231.191406 "/>
<g clip-path="url(#clip2)" clip-rule="nonzero">
<path style=" stroke:none;fill-rule:nonzero;fill:rgb(6.269836%,15.689087%,16.468811%);fill-opacity:1;" d="M 449.640625 227.894531 L 450.445312 227.8125 C 450.121094 224.996094 449.800781 221.539062 448.351562 218.640625 C 448.273438 218.480469 448.191406 218.320312 448.109375 218.160156 C 447.871094 217.675781 447.546875 217.195312 447.226562 216.710938 C 446.421875 215.746094 445.535156 214.859375 444.652344 214.054688 C 443.527344 213.011719 442.480469 212.046875 441.675781 210.839844 L 440.949219 211.242188 C 441.113281 211.5625 441.351562 211.804688 441.515625 212.046875 C 437.652344 216.230469 433.953125 220.332031 431.699219 222.664062 C 428.402344 225.964844 426.148438 224.03125 427.675781 221.296875 C 428.964844 218.964844 437.410156 210.597656 440.871094 207.136719 C 441.03125 207.296875 441.191406 207.460938 441.273438 207.621094 C 441.917969 208.425781 442.398438 209.308594 442.882812 210.273438 L 443.605469 209.871094 C 443.125 208.90625 442.558594 207.941406 441.917969 207.058594 C 441.273438 206.253906 440.546875 205.691406 439.746094 205.289062 C 439.261719 204.964844 438.699219 204.722656 437.972656 204.644531 C 437.734375 204.644531 437.492188 204.722656 437.171875 204.722656 C 437.171875 204.722656 437.089844 204.722656 437.089844 204.722656 C 436.605469 204.722656 436.203125 204.644531 435.722656 204.5625 C 434.757812 204.402344 433.792969 203.839844 433.628906 202.953125 L 432.824219 203.035156 C 432.988281 204.242188 434.03125 204.964844 435.160156 205.289062 C 431.296875 208.988281 427.757812 212.367188 424.136719 216.953125 C 418.988281 223.46875 422.769531 231.753906 422.769531 231.753906 L 412.714844 243.824219 C 412.714844 243.824219 416.574219 245.835938 417.539062 246.558594 L 426.066406 235.617188 C 426.066406 235.617188 431.941406 238.675781 437.007812 235.617188 C 440.46875 233.523438 444.8125 228.777344 449.15625 224.113281 C 449.398438 225.480469 449.558594 226.765625 449.640625 227.894531 Z M 437.894531 228.859375 C 435.398438 231.753906 433.308594 229.019531 434.835938 226.929688 C 435.964844 225.320312 441.273438 220.007812 445.457031 215.90625 C 445.859375 216.308594 446.261719 216.792969 446.664062 217.273438 C 447.066406 217.757812 447.304688 218.320312 447.628906 218.804688 C 443.605469 222.746094 439.664062 226.765625 437.894531 228.859375 Z M 460.984375 226.203125 C 461.144531 226.6875 461.304688 227.25 461.304688 227.8125 C 461.222656 228.539062 460.902344 229.179688 460.5 229.824219 L 460.339844 230.066406 C 459.777344 231.03125 459.375 232.078125 459.132812 233.203125 C 458.890625 234.089844 458.890625 234.730469 459.132812 235.296875 C 459.292969 235.859375 459.855469 236.421875 460.417969 236.421875 L 460.417969 237.226562 C 459.535156 237.226562 458.648438 236.503906 458.328125 235.535156 C 458.007812 234.652344 458.167969 233.6875 458.328125 232.960938 C 458.570312 231.753906 459.050781 230.628906 459.613281 229.582031 L 459.777344 229.261719 C 460.097656 228.699219 460.417969 228.214844 460.417969 227.652344 C 460.417969 227.25 460.339844 226.765625 460.179688 226.285156 C 460.015625 225.640625 459.777344 224.996094 459.9375 224.273438 L 460.742188 224.515625 C 460.660156 225.160156 460.820312 225.640625 460.984375 226.203125 Z M 467.820312 236.742188 C 467.820312 237.46875 467.820312 238.351562 467.578125 239.316406 C 467.339844 239.960938 466.9375 240.605469 466.613281 241.167969 L 465.328125 243.097656 L 464.683594 242.617188 L 465.96875 240.683594 C 466.292969 240.203125 466.695312 239.640625 466.855469 239.078125 C 467.097656 238.351562 467.097656 237.46875 467.097656 236.824219 C 467.015625 235.054688 466.613281 233.285156 466.210938 231.515625 L 467.015625 231.351562 C 467.339844 233.042969 467.742188 234.894531 467.820312 236.742188 Z M 457.441406 206.65625 C 456.316406 205.609375 455.109375 204.804688 453.824219 203.917969 C 452.054688 202.714844 450.28125 201.507812 448.914062 199.898438 C 447.304688 197.886719 446.421875 195.230469 445.699219 192.980469 L 446.503906 192.738281 C 447.304688 195.070312 448.03125 197.484375 449.640625 199.414062 C 450.925781 201.023438 452.535156 202.148438 454.304688 203.277344 C 455.59375 204.160156 456.878906 205.046875 458.007812 206.09375 C 460.5 208.425781 462.109375 211.5625 462.511719 214.941406 L 461.707031 215.023438 C 461.386719 211.882812 459.777344 208.828125 457.441406 206.65625 Z M 428.480469 201.105469 C 428.160156 201.105469 427.917969 201.023438 427.675781 200.863281 L 428.078125 200.136719 C 428.640625 200.460938 429.445312 200.058594 429.929688 199.496094 C 430.414062 198.933594 430.816406 198.367188 431.214844 197.644531 C 431.699219 196.839844 432.183594 196.117188 432.824219 195.472656 C 433.953125 194.425781 435.480469 193.945312 436.847656 193.621094 L 437.089844 194.425781 C 435.882812 194.75 434.433594 195.152344 433.46875 196.117188 C 432.824219 196.679688 432.421875 197.402344 431.941406 198.128906 C 431.539062 198.769531 431.136719 199.496094 430.574219 200.058594 C 429.929688 200.621094 429.207031 201.105469 428.480469 201.105469 Z M 453.824219 232.800781 C 453.984375 233.925781 453.5 234.972656 453.097656 235.617188 C 452.777344 236.101562 452.457031 236.503906 452.054688 236.902344 C 451.8125 237.144531 451.570312 237.46875 451.328125 237.789062 C 450.523438 238.835938 449.960938 240.121094 449.71875 241.410156 L 448.914062 241.25 C 449.238281 239.882812 449.800781 238.511719 450.683594 237.304688 C 450.925781 236.984375 451.167969 236.742188 451.410156 236.421875 C 451.730469 236.019531 452.054688 235.617188 452.375 235.214844 C 452.777344 234.652344 453.179688 233.765625 453.019531 232.960938 Z M 452.292969 214.21875 C 452.292969 214.457031 452.292969 214.78125 452.292969 215.023438 C 452.292969 216.628906 452.777344 218.160156 453.742188 219.445312 L 453.097656 219.929688 C 452.132812 218.480469 451.570312 216.710938 451.570312 215.023438 C 451.570312 214.78125 451.570312 214.457031 451.570312 214.21875 C 451.570312 213.816406 451.570312 213.492188 451.570312 213.089844 C 451.570312 212.367188 451.328125 211.882812 451.085938 211.480469 L 451.730469 211 C 452.132812 211.480469 452.375 212.207031 452.457031 213.089844 C 452.292969 213.414062 452.292969 213.816406 452.292969 214.21875 Z M 461.867188 220.976562 C 462.429688 221.617188 462.914062 222.34375 463.15625 223.226562 L 462.351562 223.46875 C 462.109375 222.746094 461.789062 222.101562 461.222656 221.539062 Z M 443.925781 198.449219 L 444.730469 198.367188 C 444.8125 199.253906 445.296875 200.21875 446.019531 200.78125 L 445.535156 201.425781 C 444.652344 200.703125 444.007812 199.574219 443.925781 198.449219 Z M 440.789062 198.851562 C 440.710938 198.449219 440.789062 197.964844 440.949219 197.5625 L 441.675781 197.886719 C 441.59375 198.128906 441.515625 198.449219 441.59375 198.769531 Z M 438.859375 194.910156 L 438.054688 194.910156 L 438.054688 193.703125 L 438.859375 193.703125 Z M 446.984375 231.835938 L 447.46875 232.480469 C 446.984375 232.800781 446.742188 233.363281 446.902344 233.925781 L 446.101562 234.089844 C 445.859375 233.203125 446.261719 232.320312 446.984375 231.835938 Z M 457.605469 241.410156 C 457.925781 241.8125 458.488281 241.972656 458.972656 242.054688 L 458.890625 242.859375 C 458.167969 242.777344 457.523438 242.457031 456.960938 241.972656 Z M 469.671875 227.570312 L 468.867188 227.652344 C 468.785156 227.089844 468.625 226.605469 468.304688 226.203125 L 468.945312 225.722656 C 469.347656 226.285156 469.589844 226.929688 469.671875 227.570312 Z M 220.199219 284.207031 C 220.601562 288.3125 215.855469 289.839844 215.855469 289.839844 L 205.074219 280.347656 L 197.351562 267.636719 L 209.5 273.1875 Z M 383.109375 273.105469 L 387.53125 280.347656 L 376.753906 289.839844 C 376.753906 289.839844 372.007812 288.3125 372.410156 284.207031 Z M 166.941406 243.179688 L 173.054688 248.167969 C 173.054688 248.167969 193.25 265.945312 179.976562 243.902344 L 139.671875 198.207031 C 139.671875 198.207031 133.074219 228.941406 166.941406 243.179688 Z M 163.886719 229.019531 C 165.171875 230.308594 166.539062 231.515625 167.828125 232.882812 C 168.148438 233.203125 167.667969 233.605469 167.34375 233.363281 C 165.898438 232.15625 164.769531 230.789062 163.5625 229.34375 C 163.320312 229.179688 163.644531 228.859375 163.886719 229.019531 Z M 142.648438 204.5625 C 149.484375 211.320312 156.242188 218.402344 161.714844 226.367188 C 161.875 226.605469 161.472656 226.929688 161.3125 226.6875 C 154.792969 219.609375 148.839844 211.964844 142.40625 204.804688 C 142.164062 204.644531 142.40625 204.402344 142.648438 204.5625 Z M 455.914062 189.199219 C 455.671875 189.117188 455.835938 188.796875 455.996094 188.796875 C 460.097656 188.394531 464.039062 192.496094 466.292969 195.390625 C 466.613281 195.792969 466.132812 196.277344 465.730469 195.957031 C 464.039062 194.667969 462.511719 193.140625 460.820312 191.933594 C 459.375 190.804688 457.605469 190.164062 455.914062 189.199219 Z M 468.464844 202.070312 C 468.222656 201.667969 468.0625 201.34375 467.980469 200.941406 C 467.902344 200.539062 467.820312 200.058594 467.660156 199.65625 C 467.660156 199.496094 467.820312 199.496094 467.902344 199.574219 C 468.144531 199.976562 468.382812 200.300781 468.625 200.703125 C 468.867188 201.105469 468.945312 201.425781 469.109375 201.828125 C 469.269531 202.148438 468.707031 202.390625 468.464844 202.070312 Z M 346.90625 169.246094 C 346.34375 168.523438 345.78125 167.476562 344.894531 167.636719 C 345.941406 167.234375 346.503906 166.109375 346.90625 165.0625 C 347.871094 162.40625 348.355469 159.429688 347.628906 156.695312 C 347.066406 154.605469 346.101562 151.949219 344.332031 150.742188 C 344.25 150.339844 344.171875 150.019531 344.089844 149.617188 C 344.574219 149.9375 345.136719 150.257812 345.78125 150.582031 C 345.941406 150.660156 346.101562 150.421875 345.941406 150.339844 C 345.21875 149.777344 344.492188 149.214844 343.929688 148.652344 C 343.6875 146.878906 343.527344 145.109375 342.964844 143.421875 C 342.480469 142.054688 341.917969 140.523438 341.113281 139.558594 C 341.113281 138.996094 341.035156 138.433594 340.953125 137.789062 C 340.710938 136.34375 340.230469 135.054688 339.34375 134.007812 C 339.34375 130.066406 337.65625 126.042969 334.597656 123.550781 C 334.355469 123.308594 334.113281 123.148438 333.875 122.90625 C 332.988281 120.414062 331.21875 118.320312 328.726562 116.953125 C 327.921875 115.265625 326.792969 113.734375 325.507812 112.449219 C 324.863281 111.804688 324.21875 111.242188 323.496094 110.839844 C 322.933594 110.515625 322.371094 110.277344 321.804688 110.035156 C 320.679688 108.507812 318.828125 107.460938 316.738281 107.21875 C 314.40625 104.324219 311.1875 102.070312 307.488281 101.910156 C 305.394531 101.828125 303.304688 102.472656 301.292969 103.035156 C 300.488281 103.277344 299.761719 103.519531 299.121094 103.839844 C 299.925781 102.875 300.890625 102.070312 302.015625 101.585938 C 302.175781 101.507812 302.097656 101.265625 301.933594 101.347656 C 300.003906 101.988281 298.476562 103.277344 297.589844 105.046875 C 297.269531 105.367188 297.027344 105.769531 296.867188 106.171875 C 294.695312 102.3125 290.671875 99.335938 286.246094 98.773438 C 283.351562 98.449219 280.535156 98.773438 278.203125 100.140625 C 275.308594 99.496094 271.605469 100.378906 268.789062 101.75 C 267.824219 101.828125 266.78125 101.910156 265.8125 102.230469 C 262.757812 103.117188 260.101562 105.046875 258.089844 107.460938 C 257.449219 108.34375 257.046875 108.507812 257.125 109.550781 C 253.988281 109.875 251.09375 111.402344 249 113.816406 C 247.714844 115.34375 246.746094 117.195312 246.34375 119.207031 C 244.011719 120.652344 241.761719 122.261719 240.632812 124.835938 C 240.3125 125.640625 240.070312 126.445312 239.988281 127.25 C 239.585938 127.734375 239.265625 128.296875 239.023438 128.859375 C 237.65625 131.515625 237.414062 134.652344 238.382812 137.46875 C 235.726562 138.59375 234.679688 142.054688 234.035156 144.871094 C 233.3125 148.085938 232.667969 151.386719 232.667969 154.605469 C 232.667969 156.535156 232.910156 158.546875 233.472656 160.394531 C 233.472656 160.394531 233.472656 160.394531 233.394531 160.476562 C 231.140625 163.613281 231.625 167.074219 233.152344 170.292969 C 232.75 173.832031 233.230469 177.613281 234.679688 180.832031 C 234.679688 180.832031 234.679688 180.832031 234.601562 180.832031 C 234.277344 181.3125 233.957031 181.875 233.714844 182.359375 C 233.472656 182.921875 233.472656 183.566406 233.554688 184.128906 C 233.554688 184.449219 234.035156 184.449219 234.117188 184.128906 C 234.199219 183.566406 234.359375 183.003906 234.4375 182.441406 C 234.519531 181.957031 234.679688 181.554688 234.839844 181.152344 C 235.003906 181.554688 235.242188 181.957031 235.484375 182.277344 C 235.164062 184.210938 236.046875 186.140625 237.253906 187.828125 C 237.09375 190.96875 237.738281 194.105469 239.75 196.4375 C 239.988281 196.757812 240.3125 197 240.554688 197.324219 C 241.839844 199.816406 244.253906 201.585938 247.472656 201.988281 C 247.632812 201.988281 247.632812 201.828125 247.472656 201.746094 C 245.78125 201.265625 244.335938 200.300781 243.046875 199.171875 C 245.300781 200.460938 247.875 201.105469 250.449219 200.863281 C 250.449219 201.105469 250.449219 201.265625 250.449219 201.507812 C 250.125 203.4375 249.484375 205.289062 248.757812 206.816406 C 248.757812 206.894531 248.757812 206.894531 248.839844 206.816406 C 249.484375 205.769531 250.207031 204.484375 250.691406 203.195312 C 250.929688 204.804688 251.492188 206.496094 252.21875 207.78125 C 252.941406 209.070312 253.828125 210.195312 254.871094 211.160156 C 255.839844 212.046875 256.964844 212.6875 258.171875 213.089844 C 256.804688 211.964844 255.675781 210.597656 254.632812 208.988281 C 256.078125 210.515625 257.609375 211.882812 259.457031 213.089844 C 259.539062 213.171875 259.621094 213.011719 259.539062 213.011719 C 258.414062 211.882812 257.207031 210.675781 256 209.550781 C 257.847656 211.160156 259.859375 212.609375 261.953125 213.976562 C 262.03125 213.976562 262.113281 213.976562 262.195312 213.976562 C 264.847656 214.21875 267.503906 213.894531 270.160156 213.652344 C 273.054688 216.792969 275.226562 211.242188 279.410156 212.046875 C 282.304688 212.609375 285.847656 221.539062 288.660156 220.574219 C 292.363281 219.367188 295.980469 217.835938 299.359375 215.90625 C 299.683594 216.550781 300.164062 217.03125 300.890625 217.195312 C 305.796875 218.238281 311.1875 216.953125 315.210938 213.976562 C 315.773438 214.21875 316.335938 214.378906 317.058594 214.296875 C 318.105469 214.21875 318.992188 213.734375 319.714844 213.089844 C 321.324219 213.734375 323.011719 213.816406 324.542969 212.6875 C 325.507812 211.964844 326.152344 210.917969 326.554688 209.871094 C 327.117188 209.472656 327.679688 208.988281 328.160156 208.503906 C 330.574219 206.414062 332.746094 203.917969 333.875 200.941406 C 333.632812 202.230469 333.632812 203.515625 333.875 204.886719 C 333.875 204.964844 334.035156 204.964844 334.035156 204.886719 C 334.035156 202.953125 334.597656 200.941406 335.402344 199.09375 C 338.539062 200.136719 341.355469 198.289062 343.609375 195.554688 C 346.023438 192.496094 346.746094 188.394531 346.503906 184.53125 C 349.320312 180.832031 349.800781 172.867188 346.90625 169.246094 Z M 233.554688 167.878906 C 232.828125 165.625 232.589844 163.292969 233.632812 161.039062 C 233.957031 162.085938 234.4375 163.050781 234.921875 164.015625 C 234.359375 165.222656 233.957031 166.511719 233.554688 167.878906 Z M 237.335938 186.460938 C 236.773438 185.417969 236.289062 184.371094 236.207031 183.242188 C 236.609375 183.808594 237.09375 184.371094 237.65625 184.933594 C 237.496094 185.417969 237.414062 185.980469 237.335938 186.460938 Z M 242.804688 123.148438 C 243.609375 121.699219 244.976562 120.574219 246.265625 119.527344 C 246.105469 120.492188 246.023438 121.457031 246.023438 122.425781 C 244.65625 122.90625 243.367188 123.710938 242.160156 124.757812 C 242.324219 124.273438 242.484375 123.710938 242.804688 123.148438 Z M 247.230469 199.414062 C 244.414062 198.769531 242.160156 196.597656 240.875 194.105469 C 240.792969 194.023438 240.957031 193.945312 241.035156 194.023438 C 242.402344 196.597656 244.574219 198.207031 247.3125 199.171875 C 247.390625 199.253906 247.390625 199.496094 247.230469 199.414062 Z M 274.984375 103.117188 C 274.101562 102.632812 273.136719 102.3125 272.089844 102.070312 C 273.617188 101.507812 275.226562 101.105469 276.753906 101.023438 C 276.113281 101.585938 275.546875 102.3125 274.984375 103.117188 Z M 321.484375 204.484375 C 321.566406 204.242188 321.96875 204.484375 321.804688 204.644531 C 320.679688 206.65625 319.394531 208.667969 317.222656 209.710938 C 317.140625 209.710938 317.140625 209.632812 317.222656 209.632812 C 319.3125 208.585938 320.4375 206.496094 321.484375 204.484375 Z M 321.644531 209.953125 C 321.566406 210.113281 321.402344 210.195312 321.324219 210.355469 C 320.679688 210.273438 319.957031 210.113281 319.230469 209.792969 C 319.152344 209.792969 319.230469 209.710938 319.230469 209.710938 C 320.035156 210.035156 320.839844 210.113281 321.644531 209.953125 Z M 320.359375 109.550781 C 319.714844 109.472656 319.070312 109.472656 318.347656 109.714844 C 317.945312 108.988281 317.542969 108.34375 317.058594 107.703125 C 318.347656 107.941406 319.472656 108.585938 320.359375 109.550781 Z M 318.347656 213.171875 C 317.460938 213.652344 316.578125 213.734375 315.851562 213.492188 C 316.496094 213.011719 317.058594 212.449219 317.621094 211.882812 C 318.105469 212.207031 318.589844 212.527344 319.070312 212.769531 C 318.828125 212.929688 318.589844 213.089844 318.347656 213.171875 Z M 319.394531 212.527344 C 318.828125 212.367188 318.265625 212.125 317.703125 211.804688 C 318.023438 211.480469 318.347656 211.078125 318.589844 210.757812 C 319.152344 211.160156 319.714844 211.480469 320.277344 211.644531 C 320.035156 211.964844 319.714844 212.207031 319.394531 212.527344 Z M 324.945312 211.320312 C 323.578125 212.6875 321.886719 213.011719 320.277344 212.6875 C 320.519531 212.449219 320.839844 212.125 321 211.804688 C 321.804688 211.964844 322.691406 211.804688 323.578125 211.5625 C 324.300781 211.320312 324.945312 211 325.585938 210.675781 C 325.347656 210.839844 325.105469 211.078125 324.945312 211.320312 Z M 326.632812 208.265625 C 325.265625 209.550781 323.65625 210.355469 321.886719 210.355469 C 321.96875 210.195312 322.046875 210.035156 322.128906 209.792969 C 323.976562 209.308594 325.75 207.78125 327.117188 206.332031 C 326.957031 206.976562 326.792969 207.699219 326.632812 208.265625 Z M 327.195312 207.699219 C 327.277344 207.136719 327.355469 206.496094 327.4375 205.929688 C 327.597656 205.769531 327.757812 205.527344 327.921875 205.367188 C 329.691406 203.195312 330.898438 201.023438 331.460938 198.289062 C 331.539062 198.046875 331.863281 198.128906 331.863281 198.367188 C 331.300781 201.183594 329.609375 205.125 327.195312 207.699219 Z M 330.09375 120.734375 C 329.851562 119.769531 329.53125 118.722656 329.128906 117.839844 C 330.574219 118.804688 331.863281 119.851562 332.585938 121.621094 C 331.78125 121.054688 331.058594 120.652344 330.09375 120.734375 Z M 334.515625 199.253906 C 334.515625 199.09375 334.597656 198.933594 334.597656 198.769531 C 334.597656 198.769531 334.679688 198.769531 334.679688 198.769531 C 334.679688 199.011719 334.597656 199.171875 334.515625 199.253906 Z M 339.265625 135.136719 C 339.746094 136.179688 339.988281 137.386719 340.148438 138.675781 C 339.667969 138.433594 339.183594 138.273438 338.539062 138.433594 C 338.941406 137.308594 339.183594 136.261719 339.265625 135.136719 Z M 335.722656 193.945312 C 335.644531 193.945312 335.644531 193.863281 335.722656 193.945312 C 338.863281 193.863281 340.710938 190.082031 340.871094 187.425781 C 340.871094 187.265625 341.195312 187.265625 341.195312 187.425781 C 341.195312 190.402344 339.183594 194.265625 335.722656 193.945312 Z M 342.644531 185.015625 C 341.355469 186.460938 339.503906 187.265625 337.574219 187.023438 C 337.492188 187.023438 337.492188 186.945312 337.574219 186.945312 C 339.425781 187.023438 341.195312 186.222656 342.242188 184.773438 C 342.480469 184.53125 342.882812 184.773438 342.644531 185.015625 Z M 344.332031 169.96875 C 344.25 170.128906 344.011719 170.128906 344.011719 169.890625 C 343.769531 167.394531 343.445312 165.382812 341.917969 163.371094 C 341.757812 163.210938 342.078125 162.972656 342.242188 163.132812 C 343.6875 164.980469 345.136719 167.636719 344.332031 169.96875 Z M 344.332031 169.96875 "/>
</g>
<path style=" stroke:none;fill-rule:nonzero;fill:rgb(85.099792%,56.858826%,49.409485%);fill-opacity:1;" d="M 310.703125 129.261719 C 310.703125 129.183594 310.785156 129.101562 310.867188 129.183594 C 312.234375 131.835938 315.613281 131.996094 316.820312 134.894531 C 317.542969 136.582031 317.542969 138.59375 317.863281 140.363281 C 318.347656 142.617188 319.394531 144.546875 320.679688 146.480469 C 320.679688 146.480469 320.679688 146.558594 320.601562 146.558594 C 319.632812 145.511719 318.589844 144.386719 317.945312 143.101562 C 316.980469 141.167969 317.140625 139.078125 316.578125 137.066406 C 315.851562 134.410156 314.566406 133.363281 312.554688 131.675781 C 311.667969 130.953125 311.105469 130.386719 310.703125 129.261719 Z M 271.363281 132.398438 C 272.652344 130.789062 273.054688 129.019531 273.457031 127.007812 C 274.101562 123.628906 275.949219 120.976562 279.25 119.609375 C 279.492188 119.527344 279.410156 119.125 279.167969 119.207031 C 276.835938 119.929688 274.984375 121.378906 273.859375 123.550781 C 272.492188 126.285156 272.894531 129.503906 271.203125 132.078125 C 271.042969 132.320312 271.285156 132.480469 271.363281 132.398438 Z M 254.953125 145.835938 C 255.515625 142.054688 257.6875 138.59375 261.066406 136.742188 C 261.148438 136.742188 261.066406 136.664062 261.066406 136.664062 C 257.367188 138.433594 254.953125 141.730469 254.632812 145.753906 C 254.550781 145.996094 254.953125 146.078125 254.953125 145.835938 Z M 241.117188 156.613281 C 243.769531 153.398438 246.828125 153.800781 250.527344 154.28125 C 252.058594 154.523438 253.585938 154.523438 254.871094 153.71875 C 255.035156 153.636719 254.953125 153.398438 254.792969 153.476562 C 250.046875 154.683594 243.851562 150.902344 241.117188 156.613281 C 241.035156 156.613281 241.117188 156.695312 241.117188 156.613281 Z M 241.761719 151.0625 C 243.609375 149.535156 244.816406 147.121094 245.21875 144.789062 C 245.300781 144.304688 244.65625 144.144531 244.496094 144.546875 C 243.609375 146.800781 243.367188 149.054688 241.679688 150.902344 C 241.597656 151.0625 241.679688 151.144531 241.761719 151.0625 Z M 299.199219 115.90625 C 301.210938 116.308594 301.773438 118.402344 302.097656 120.171875 C 302.097656 120.332031 302.335938 120.25 302.335938 120.171875 C 302.257812 118.242188 301.453125 116.070312 299.28125 115.667969 C 299.121094 115.667969 299.121094 115.90625 299.199219 115.90625 Z M 315.613281 125.882812 C 315.691406 126.125 316.015625 126.042969 316.015625 125.804688 C 315.933594 123.226562 314.484375 120.894531 312.472656 119.285156 C 312.394531 119.207031 312.234375 119.367188 312.3125 119.449219 C 314.164062 121.21875 315.046875 123.390625 315.613281 125.882812 Z M 435.800781 275.277344 C 436.769531 267.957031 434.433594 262.890625 424.941406 253.074219 C 415.367188 243.257812 407.082031 239.960938 405.070312 246.71875 C 405.070312 246.71875 396.222656 245.511719 395.257812 254.199219 C 395.257812 254.199219 387.695312 252.996094 386.566406 262.890625 C 386.566406 262.890625 381.578125 263.371094 382.0625 269.164062 C 382.546875 274.957031 388.820312 280.828125 388.660156 282.601562 C 388.5 284.449219 384.152344 293.78125 388.257812 307.457031 C 392.441406 321.214844 397.105469 340.039062 397.105469 340.039062 C 397.105469 340.039062 425.90625 352.027344 430.816406 327.8125 C 430.816406 327.8125 422.851562 305.285156 423.332031 302.308594 C 423.816406 299.414062 434.835938 282.601562 435.800781 275.277344 Z M 320.601562 157.339844 C 322.371094 159.671875 325.667969 159.992188 327.597656 157.820312 C 328.324219 157.015625 328.804688 156.050781 329.367188 155.167969 C 326.554688 155.167969 323.496094 156.214844 321.804688 157.660156 C 321.324219 157.582031 320.839844 157.339844 320.359375 157.015625 C 320.4375 157.179688 320.519531 157.257812 320.601562 157.339844 Z M 248.679688 156.777344 C 249.484375 157.179688 250.046875 157.742188 250.691406 158.304688 C 251.011719 158.0625 251.253906 157.820312 251.574219 157.660156 C 250.609375 157.179688 249.402344 156.777344 248.117188 156.613281 C 248.355469 156.695312 248.515625 156.695312 248.679688 156.777344 Z M 206.039062 262.890625 C 204.914062 252.996094 197.351562 254.199219 197.351562 254.199219 C 196.386719 245.511719 187.539062 246.71875 187.539062 246.71875 C 186.492188 243.179688 183.757812 242.375 179.894531 243.902344 C 177.882812 244.707031 175.550781 246.15625 172.976562 248.167969 C 171.285156 249.535156 169.4375 251.222656 167.667969 253.074219 C 158.09375 262.890625 155.761719 267.878906 156.804688 275.277344 C 157.769531 282.601562 168.792969 299.414062 169.277344 302.308594 C 169.757812 305.285156 161.792969 327.8125 161.792969 327.8125 C 166.699219 352.027344 195.5 340.042969 195.5 340.042969 C 195.5 340.042969 200.167969 321.214844 204.351562 307.457031 C 208.535156 293.703125 204.109375 284.449219 203.949219 282.601562 C 203.789062 280.75 210.0625 274.875 210.546875 269.164062 C 211.027344 263.371094 206.039062 262.890625 206.039062 262.890625 Z M 255.675781 159.109375 C 255.839844 158.949219 256 158.867188 256.078125 158.707031 C 255.273438 158.949219 254.472656 158.949219 253.667969 158.949219 C 253.667969 158.949219 253.183594 158.546875 252.460938 158.144531 C 252.058594 158.386719 251.734375 158.625 251.414062 158.867188 C 251.894531 159.269531 252.460938 159.429688 253.101562 159.429688 C 254.070312 160.234375 254.953125 160.15625 255.675781 159.109375 Z M 267.984375 141.894531 C 267.421875 141.972656 266.941406 142.054688 266.378906 142.214844 C 263.402344 143.019531 260.988281 145.675781 260.34375 148.652344 C 263.5625 147.042969 265.734375 144.707031 267.984375 141.894531 Z M 296.382812 128.617188 C 296.382812 128.054688 296.304688 127.492188 296.304688 126.929688 C 296.144531 124.757812 295.417969 122.503906 293.808594 120.976562 C 293.167969 120.414062 292.441406 120.011719 291.636719 119.769531 C 292.441406 120.574219 293.003906 121.539062 293.488281 122.585938 C 294.535156 124.835938 295.179688 126.929688 296.382812 128.617188 Z M 332.507812 180.265625 C 325.667969 188.796875 318.023438 181.152344 318.023438 181.152344 C 318.023438 181.152344 316.09375 184.691406 312.796875 189.035156 C 312.875 189.035156 312.957031 188.957031 313.039062 188.957031 C 312.3125 193.621094 311.265625 208.746094 311.992188 217.515625 C 307.085938 219.929688 301.695312 221.296875 296.222656 221.539062 C 291.558594 221.699219 286.890625 221.054688 282.226562 220.410156 C 278.363281 219.847656 274.421875 219.125 270.480469 219.207031 C 269.355469 219.207031 268.066406 219.367188 266.859375 219.445312 C 266.78125 210.4375 265.089844 194.75 265.007812 193.621094 C 258.492188 186.703125 255.839844 179.0625 255.839844 179.0625 C 254.230469 181.070312 251.816406 182.441406 248.515625 181.636719 C 239.988281 179.542969 238.703125 162.003906 243.367188 158.222656 C 243.851562 157.820312 244.414062 157.5 244.898438 157.257812 C 246.023438 157.339844 246.988281 157.339844 248.117188 157.902344 C 248.757812 158.222656 249.320312 158.707031 249.886719 159.109375 C 248.679688 160.394531 247.953125 161.925781 248.117188 163.855469 C 248.117188 163.855469 248.195312 163.9375 248.195312 163.855469 C 248.515625 162.003906 249.320312 160.636719 250.527344 159.59375 C 250.609375 159.671875 250.691406 159.753906 250.769531 159.753906 C 251.894531 160.476562 253.023438 161.121094 254.390625 160.796875 C 255.839844 160.476562 256.722656 159.511719 257.125 158.304688 C 257.207031 158.222656 257.367188 158.144531 257.449219 158.0625 C 258.734375 156.695312 259.621094 154.925781 259.859375 153.074219 C 260.023438 151.789062 259.941406 150.5 260.101562 149.292969 C 260.101562 149.214844 260.101562 149.132812 260.183594 149.054688 C 262.757812 148.167969 265.007812 146.800781 266.859375 144.707031 C 267.664062 143.824219 268.308594 142.859375 268.953125 141.894531 C 269.113281 141.894531 269.355469 141.8125 269.515625 141.8125 C 272.570312 141.328125 275.386719 139.960938 277.800781 138.03125 C 278.445312 137.46875 279.007812 136.90625 279.410156 136.179688 C 279.972656 134.894531 279.652344 133.363281 279.652344 131.917969 C 279.492188 127.171875 283.351562 121.859375 287.855469 120.332031 C 288.660156 120.089844 289.464844 119.929688 290.269531 119.929688 C 292.363281 121.941406 292.925781 124.757812 294.210938 127.492188 C 294.777344 128.699219 295.578125 129.585938 296.382812 130.308594 C 296.546875 131.835938 296.867188 133.285156 297.992188 134.332031 C 298.636719 134.972656 299.523438 135.296875 300.40625 135.539062 C 302.902344 136.179688 305.714844 136.019531 308.210938 136.503906 C 308.933594 136.90625 309.660156 137.46875 310.222656 138.113281 C 311.507812 139.558594 312.3125 141.25 312.875 143.101562 C 312.957031 143.261719 313.117188 143.179688 313.117188 143.019531 C 312.714844 141.007812 312.070312 138.917969 310.625 137.386719 C 310.542969 137.308594 310.464844 137.226562 310.300781 137.066406 C 310.945312 137.308594 311.589844 137.710938 312.152344 138.191406 C 314.003906 139.722656 314.808594 142.214844 315.210938 144.628906 C 315.613281 147.042969 315.691406 149.535156 316.578125 151.789062 C 316.980469 152.914062 317.621094 154.28125 318.507812 155.488281 C 319.472656 158.222656 321.242188 160.476562 324.542969 160.476562 C 328.082031 160.476562 328.484375 157.742188 329.769531 155.410156 C 331.058594 155.410156 332.183594 155.648438 333.230469 156.214844 C 336.769531 157.660156 339.34375 171.738281 332.507812 180.265625 Z M 259.941406 153.636719 C 259.941406 153.636719 260.34375 153.234375 264.285156 152.269531 C 267.421875 151.464844 277.640625 152.59375 278.765625 152.433594 C 279.890625 152.269531 280.617188 150.097656 280.617188 150.097656 C 280.617188 150.097656 267.90625 149.457031 265.332031 150.097656 C 262.757812 150.824219 259.941406 153.636719 259.941406 153.636719 Z M 282.628906 169.890625 C 279.890625 163.132812 270.320312 164.902344 266.136719 165.144531 C 262.03125 165.464844 259.378906 163.535156 259.378906 163.535156 C 259.457031 167.316406 262.273438 168.359375 263 168.441406 C 263.640625 168.523438 266.136719 168.199219 271.363281 167.074219 C 276.675781 166.027344 280.9375 168.039062 282.628906 169.890625 Z M 296.867188 150.097656 C 296.867188 150.097656 297.589844 152.191406 298.71875 152.433594 C 299.84375 152.671875 310.0625 151.546875 313.199219 152.269531 C 317.140625 153.234375 317.542969 153.636719 317.542969 153.636719 C 317.542969 153.636719 314.726562 150.742188 312.152344 150.097656 C 309.578125 149.535156 296.867188 150.097656 296.867188 150.097656 Z M 318.023438 163.535156 C 318.023438 163.535156 315.449219 165.464844 311.269531 165.144531 C 307.164062 164.820312 297.511719 163.132812 294.777344 169.890625 C 296.546875 168.039062 300.730469 166.027344 305.957031 167.074219 C 311.1875 168.199219 313.679688 168.523438 314.324219 168.441406 C 315.128906 168.359375 318.023438 167.316406 318.023438 163.535156 Z M 318.023438 163.535156 "/>
<path style=" stroke:none;fill-rule:nonzero;fill:rgb(70.588684%,32.939148%,24.308777%);fill-opacity:1;" d="M 417.460938 279.945312 C 416.496094 280.105469 415.609375 280.023438 414.726562 280.425781 C 413.679688 280.828125 412.792969 281.554688 412.148438 282.519531 C 412.070312 282.679688 411.75 282.519531 411.910156 282.359375 C 412.953125 280.667969 415.367188 278.898438 417.460938 279.625 C 417.621094 279.625 417.703125 279.863281 417.460938 279.945312 Z M 187.375 264.820312 C 188.742188 262.648438 190.191406 260.554688 191.960938 258.707031 C 193.652344 256.9375 195.664062 255.808594 197.433594 254.199219 C 197.511719 254.121094 197.433594 254.039062 197.351562 254.039062 C 192.605469 254.84375 188.179688 260.152344 186.972656 264.578125 C 186.894531 264.902344 187.214844 265.0625 187.375 264.820312 Z M 176.195312 260.152344 C 177.882812 257.902344 179.574219 255.570312 181.34375 253.394531 C 182.953125 251.464844 185.125 248.167969 187.457031 247.203125 C 187.699219 247.121094 187.617188 246.800781 187.375 246.800781 C 184.722656 247.441406 182.871094 250.015625 181.261719 252.027344 C 179.171875 254.523438 177.238281 257.015625 175.710938 259.832031 C 175.550781 260.152344 175.953125 260.394531 176.195312 260.152344 Z M 197.59375 335.214844 L 198.316406 335.535156 C 198.316406 335.457031 201.050781 329.664062 207.730469 328.132812 L 207.570312 327.328125 C 200.410156 328.9375 197.675781 334.972656 197.59375 335.214844 Z M 208.210938 465.058594 C 209.339844 466.1875 210.0625 467.632812 210.304688 469.164062 L 211.109375 469.082031 C 210.867188 467.394531 210.0625 465.785156 208.777344 464.496094 Z M 178.285156 278.820312 C 178.207031 278.820312 178.207031 278.980469 178.285156 278.980469 C 178.929688 279.140625 179.652344 279.460938 180.296875 279.703125 C 180.941406 280.023438 181.34375 280.425781 181.90625 280.828125 C 182.226562 281.070312 182.550781 280.667969 182.386719 280.347656 C 181.503906 279.058594 179.734375 278.496094 178.285156 278.820312 Z M 165.734375 273.992188 C 167.023438 274.152344 167.746094 274.554688 168.390625 275.679688 C 168.632812 276.082031 168.953125 276.484375 169.355469 276.808594 C 170.402344 277.53125 171.367188 277.53125 172.574219 277.210938 C 172.816406 277.128906 172.894531 276.644531 172.574219 276.644531 C 171.929688 276.484375 171.367188 276.40625 170.722656 276.246094 C 169.757812 276.003906 169.355469 275.519531 168.710938 274.875 C 167.90625 273.992188 166.941406 273.910156 165.734375 273.910156 C 165.65625 273.832031 165.65625 273.992188 165.734375 273.992188 Z M 196.546875 272.785156 C 198.074219 271.175781 199.203125 269.40625 200.488281 267.636719 C 201.9375 265.707031 203.949219 264.5 205.878906 263.132812 C 206.121094 262.96875 205.960938 262.648438 205.71875 262.730469 C 201.050781 264.335938 198.316406 268.117188 196.304688 272.542969 C 196.304688 272.785156 196.46875 272.945312 196.546875 272.785156 Z M 218.75 253.476562 C 217.707031 252.027344 216.980469 250.257812 216.902344 248.488281 L 216.097656 248.570312 C 216.257812 250.5 216.902344 252.429688 218.109375 254.039062 Z M 244.09375 160.558594 C 247.390625 160.796875 249.5625 163.535156 250.851562 166.269531 C 250.851562 166.269531 250.929688 166.269531 250.929688 166.269531 C 249.804688 163.132812 247.792969 160.074219 244.09375 160.394531 C 244.011719 160.394531 244.011719 160.558594 244.09375 160.558594 Z M 204.109375 281.152344 C 200.972656 287.183594 202.582031 294.265625 203.464844 300.699219 C 203.464844 300.863281 203.707031 300.78125 203.707031 300.699219 C 203.789062 294.023438 202.019531 287.828125 204.269531 281.230469 C 204.351562 281.152344 204.191406 281.070312 204.109375 281.152344 Z M 210.464844 380.988281 C 210.382812 380.988281 201.617188 383.726562 189.710938 384.609375 L 189.789062 385.414062 C 201.777344 384.53125 210.625 381.792969 210.785156 381.714844 Z M 153.988281 266.910156 C 152.785156 264.175781 152.140625 261.199219 152.21875 258.222656 L 151.414062 258.222656 C 151.335938 261.359375 151.980469 264.5 153.265625 267.3125 Z M 174.023438 363.371094 L 173.539062 364.015625 C 172.171875 363.050781 170.480469 362.566406 168.792969 362.726562 L 168.710938 362.164062 C 167.023438 369.726562 165.414062 377.691406 164.449219 383 C 166.378906 383.402344 168.308594 383.804688 170.320312 384.046875 L 170.242188 384.851562 C 163.082031 383.886719 156.566406 381.957031 150.851562 379.140625 C 129.773438 368.679688 124.789062 354.523438 123.582031 349.375 C 123.097656 351.144531 122.695312 352.589844 122.375 353.554688 L 121.570312 353.234375 C 122.132812 351.785156 122.777344 349.210938 123.582031 345.996094 C 124.222656 343.339844 125.027344 340.203125 125.914062 337.0625 L 125.832031 337.0625 C 125.429688 336.019531 124.949219 334.890625 124.464844 333.847656 L 125.191406 333.523438 C 125.589844 334.328125 125.914062 335.132812 126.234375 335.9375 C 128.246094 329.019531 130.820312 321.617188 134.359375 316.789062 C 135.40625 315.34375 136.773438 314.136719 138.300781 313.089844 C 138.0625 312.769531 137.738281 312.445312 137.578125 312.042969 L 138.300781 311.722656 C 138.464844 312.042969 138.703125 312.367188 138.945312 312.6875 C 142.886719 310.273438 148.035156 309.230469 152.863281 308.828125 L 152.382812 307.539062 L 153.105469 307.21875 L 153.667969 308.746094 C 157.851562 308.425781 161.875 308.664062 164.769531 308.90625 L 164.851562 308.90625 C 164.851562 308.90625 164.851562 308.90625 164.851562 308.988281 C 165.976562 309.066406 166.863281 309.230469 167.667969 309.308594 L 167.585938 310.113281 C 167.023438 310.03125 166.378906 309.953125 165.65625 309.871094 C 166.378906 310.917969 166.941406 312.125 167.183594 313.332031 L 166.378906 313.492188 C 166.058594 312.125 165.414062 310.835938 164.527344 309.710938 C 156.644531 309.066406 141.039062 308.90625 135.085938 317.273438 C 129.855469 324.59375 126.558594 337.628906 124.464844 346.234375 C 124.386719 346.636719 124.222656 347.121094 124.144531 347.523438 C 124.222656 347.925781 124.464844 350.339844 125.992188 353.957031 C 127.441406 348.488281 133.636719 326.203125 140.074219 321.941406 C 147.234375 317.113281 153.910156 319.285156 154.230469 319.367188 L 153.988281 320.167969 C 153.910156 320.167969 147.394531 318.078125 140.554688 322.664062 C 133.957031 327.089844 127.199219 352.832031 126.558594 355.164062 C 128.167969 358.625 130.820312 362.96875 135.324219 367.394531 C 135.648438 366.671875 136.128906 365.464844 136.773438 363.855469 C 138.785156 358.785156 142.003906 350.742188 145.460938 344.464844 L 144.738281 344.386719 C 144.898438 343.339844 144.820312 342.214844 144.496094 341.246094 L 145.300781 341.007812 C 145.625 342.050781 145.703125 343.179688 145.625 344.222656 C 146.027344 343.5 146.429688 342.777344 146.832031 342.132812 C 151.496094 334.410156 160.507812 332.238281 162.679688 331.753906 C 161.792969 329.582031 161.472656 327.894531 161.472656 327.894531 L 162.277344 327.8125 C 162.277344 327.894531 163.644531 336.339844 171.367188 340.441406 C 178.847656 344.386719 189.628906 343.097656 203.304688 336.582031 L 203.628906 337.304688 C 203.464844 337.386719 203.386719 337.386719 203.226562 337.464844 C 205.398438 339.398438 213.523438 348.328125 213.121094 358.625 C 212.71875 369.96875 210.949219 377.851562 210.949219 377.933594 L 210.144531 377.773438 C 210.144531 377.691406 211.832031 369.808594 212.316406 358.625 C 212.71875 348.003906 203.628906 338.753906 202.421875 337.867188 C 197.835938 339.960938 193.570312 341.488281 189.710938 342.453125 C 191.882812 344.867188 199.445312 355.488281 192.285156 379.542969 L 191.480469 379.300781 C 198.878906 354.441406 190.03125 343.984375 188.742188 342.695312 C 186.007812 343.257812 183.515625 343.582031 181.101562 343.582031 C 178.285156 343.582031 175.632812 343.179688 173.296875 342.292969 C 172.816406 344.304688 170.804688 352.832031 168.792969 362.085938 C 170.644531 361.761719 172.574219 362.246094 174.023438 363.371094 Z M 172.574219 341.890625 C 172.011719 341.648438 171.449219 341.410156 170.882812 341.085938 C 166.621094 338.835938 164.289062 335.292969 162.921875 332.480469 C 161.230469 332.800781 152.058594 334.8125 147.394531 342.453125 C 143.53125 348.890625 139.75 358.382812 137.417969 364.09375 C 136.695312 365.867188 136.210938 367.152344 135.890625 367.957031 C 139.671875 371.578125 144.65625 375.199219 151.253906 378.496094 C 155.035156 380.347656 159.21875 381.875 163.722656 382.921875 C 165.816406 370.773438 171.769531 345.027344 172.574219 341.890625 Z M 155.359375 313.332031 L 154.875 313.976562 C 157.207031 315.824219 160.105469 318.800781 160.34375 322.582031 L 161.148438 322.503906 C 160.910156 318.480469 157.933594 315.34375 155.359375 313.332031 Z M 185.605469 409.148438 C 188.261719 410.273438 190.433594 412.367188 191.882812 414.859375 L 192.605469 414.457031 C 191.15625 411.800781 188.742188 409.628906 186.007812 408.34375 Z M 185.527344 376.804688 L 185.445312 376.003906 C 183.59375 376.164062 181.664062 375.921875 179.894531 375.359375 L 179.652344 376.164062 C 181.183594 376.644531 182.789062 376.886719 184.398438 376.886719 C 184.722656 376.804688 185.125 376.804688 185.527344 376.804688 Z M 165.734375 413.410156 L 165.171875 414.054688 C 166.460938 415.179688 167.585938 416.46875 168.390625 417.917969 L 169.113281 417.515625 C 168.230469 415.984375 167.101562 414.539062 165.734375 413.410156 Z M 148.761719 288.957031 C 148.359375 287.105469 149.40625 285.09375 151.09375 284.289062 L 150.773438 283.566406 C 148.761719 284.53125 147.554688 286.945312 147.957031 289.195312 Z M 126.316406 382.359375 L 125.914062 383.082031 C 126.796875 383.5625 127.84375 383.804688 128.808594 383.804688 C 129.050781 383.804688 129.210938 383.804688 129.453125 383.804688 L 129.371094 383 C 128.328125 383.082031 127.28125 382.921875 126.316406 382.359375 Z M 132.347656 418.398438 L 132.671875 419.203125 C 134.199219 418.640625 135.566406 417.675781 136.53125 416.386719 L 135.890625 415.90625 C 134.921875 416.949219 133.71875 417.835938 132.347656 418.398438 Z M 151.335938 440.039062 L 152.140625 440.039062 C 152.140625 438.914062 152.542969 437.867188 153.105469 436.902344 L 152.460938 436.5 C 151.816406 437.546875 151.414062 438.832031 151.335938 440.039062 Z M 170.078125 312.125 C 170.804688 310.433594 170.882812 308.585938 170.644531 306.734375 C 170.480469 304.964844 169.675781 303.4375 169.277344 301.667969 C 169.277344 301.585938 169.195312 301.667969 169.195312 301.667969 C 169.035156 303.273438 169.597656 304.804688 169.757812 306.414062 C 170 308.261719 169.675781 310.113281 169.515625 312.042969 C 169.597656 312.367188 170 312.367188 170.078125 312.125 Z M 408.207031 266.347656 C 408.371094 266.511719 408.609375 266.269531 408.53125 266.109375 C 405.472656 260.878906 400.324219 256.453125 394.933594 253.796875 C 394.855469 253.71875 394.773438 253.878906 394.855469 253.960938 C 400.082031 257.5 404.1875 261.523438 408.207031 266.347656 Z M 417.863281 258.304688 C 418.023438 258.464844 418.265625 258.222656 418.183594 258.0625 C 414.886719 253.316406 410.78125 247.28125 404.507812 246.636719 C 404.507812 246.636719 404.425781 246.71875 404.507812 246.71875 C 410.058594 249.617188 413.921875 253.476562 417.863281 258.304688 Z M 386.730469 262.808594 C 391.476562 263.933594 395.820312 269.324219 398.394531 273.269531 C 398.554688 273.507812 398.875 273.269531 398.714844 273.105469 C 396.0625 268.921875 391.957031 263.613281 386.730469 262.730469 C 386.648438 262.648438 386.648438 262.730469 386.730469 262.808594 Z M 386.246094 328.214844 C 392.921875 329.664062 395.578125 335.535156 395.660156 335.617188 L 396.382812 335.292969 C 396.300781 335.054688 393.484375 329.019531 386.40625 327.410156 Z M 378.601562 248.328125 C 379.570312 246.558594 380.050781 244.386719 379.890625 242.375 L 379.085938 242.457031 C 379.246094 244.386719 378.84375 246.316406 377.878906 248.007812 Z M 389.304688 297.5625 C 389.382812 301.183594 390.269531 304.964844 392.199219 308.023438 C 392.359375 308.261719 392.683594 308.101562 392.601562 307.859375 C 390.507812 301.90625 389.707031 297.082031 390.75 290.804688 C 391.476562 286.863281 391.074219 284.289062 388.578125 281.152344 C 388.5 281.070312 388.417969 281.152344 388.5 281.230469 C 390.429688 285.253906 390.507812 287.667969 389.785156 292.09375 C 389.464844 293.941406 389.222656 295.714844 389.304688 297.5625 Z M 438.699219 259.671875 C 438.375 258.0625 438.617188 256.375 439.34375 254.925781 L 438.617188 254.601562 C 437.8125 256.210938 437.570312 258.144531 437.894531 259.914062 Z M 447.144531 294.746094 C 447.628906 295.230469 448.03125 296.117188 447.707031 296.917969 L 448.433594 297.242188 C 448.835938 296.195312 448.511719 295.070312 447.628906 294.183594 C 446.742188 293.300781 445.617188 292.976562 444.570312 293.378906 L 444.8125 294.183594 C 445.777344 293.78125 446.664062 294.183594 447.144531 294.746094 Z M 426.066406 273.507812 C 426.871094 273.265625 427.675781 273.1875 428.320312 272.703125 C 429.609375 271.898438 430.25 270.289062 430.816406 269.003906 C 430.976562 268.683594 430.492188 268.441406 430.332031 268.761719 C 429.367188 270.855469 428.402344 272.300781 426.148438 273.105469 C 424.539062 273.667969 423.492188 274.636719 422.125 275.679688 C 422.125 275.679688 422.125 275.761719 422.207031 275.761719 C 423.414062 274.636719 424.621094 273.910156 426.066406 273.507812 Z M 416.976562 307.621094 C 416.976562 307.859375 417.300781 308.023438 417.378906 307.78125 C 417.621094 307.296875 417.941406 306.894531 418.183594 306.414062 C 418.503906 305.929688 418.988281 305.527344 419.472656 305.285156 C 419.550781 305.207031 419.472656 305.125 419.390625 305.125 C 418.746094 305.285156 418.265625 305.527344 417.78125 305.929688 C 417.300781 306.492188 417.058594 306.976562 416.976562 307.621094 Z M 280.535156 185.417969 C 283.433594 192.65625 295.179688 191.773438 296.464844 183.808594 C 296.546875 183.484375 296.144531 183.324219 295.980469 183.566406 C 294.453125 186.222656 292.925781 188.714844 289.625 189.4375 C 286.085938 190.242188 282.546875 188.3125 280.695312 185.335938 C 280.617188 185.253906 280.457031 185.335938 280.535156 185.417969 Z M 293.730469 158.304688 C 293.730469 157.984375 293.808594 157.582031 293.972656 157.257812 C 294.050781 156.9375 294.292969 156.695312 294.292969 156.375 C 294.292969 156.214844 294.050781 155.972656 293.890625 156.132812 C 293.488281 156.695312 293.570312 157.660156 293.730469 158.304688 C 293.648438 158.386719 293.730469 158.304688 293.730469 158.304688 Z M 286.730469 176.566406 C 287.855469 176.886719 290.027344 177.050781 290.109375 175.921875 C 290.429688 166.429688 288.257812 161.523438 288.257812 161.523438 C 288.339844 163.855469 286.8125 172.625 284.15625 174.394531 C 284.640625 175.441406 285.605469 176.324219 286.730469 176.566406 Z M 260.585938 157.097656 C 261.226562 156.132812 262.03125 155.328125 263 154.765625 C 263.804688 154.28125 264.769531 154.039062 265.574219 153.636719 C 265.734375 153.558594 265.652344 153.316406 265.492188 153.316406 C 263.320312 153.316406 261.390625 155.246094 260.425781 157.015625 C 260.425781 157.097656 260.503906 157.179688 260.585938 157.097656 Z M 289.464844 226.847656 L 290.269531 226.847656 C 290.269531 226.285156 290.191406 225.640625 290.027344 225.078125 L 289.222656 225.238281 C 289.386719 225.722656 289.464844 226.285156 289.464844 226.847656 Z M 322.773438 165.949219 C 324.460938 162.328125 327.679688 160.394531 331.539062 159.511719 C 331.78125 159.429688 331.703125 159.109375 331.460938 159.109375 C 327.355469 159.109375 323.976562 162.167969 322.609375 165.867188 C 322.449219 165.949219 322.691406 166.027344 322.773438 165.949219 Z M 281.097656 159.914062 C 281.261719 160.15625 281.664062 159.914062 281.5 159.671875 C 280.777344 158.144531 279.890625 156.695312 278.605469 155.648438 C 277.480469 154.683594 276.433594 154.441406 274.984375 154.363281 C 274.90625 154.363281 274.90625 154.441406 274.984375 154.441406 C 277.960938 154.84375 279.890625 157.5 281.097656 159.914062 Z M 318.910156 180.1875 C 320.359375 177.128906 320.921875 173.992188 320.921875 170.695312 C 320.921875 170.53125 320.679688 170.53125 320.679688 170.695312 C 320.277344 173.910156 319.554688 177.050781 318.589844 180.105469 C 318.507812 180.265625 318.828125 180.429688 318.910156 180.1875 Z M 293.730469 167.234375 C 294.210938 162.972656 295.902344 159.027344 298.074219 155.410156 C 298.15625 155.328125 297.992188 155.167969 297.914062 155.246094 C 294.9375 158.625 293.570312 162.730469 293.570312 167.234375 C 293.648438 167.394531 293.730469 167.394531 293.730469 167.234375 Z M 326.230469 173.832031 C 327.035156 172.785156 327.597656 171.257812 327.277344 169.890625 C 327.195312 169.328125 326.875 168.925781 326.632812 168.441406 C 325.988281 167.074219 325.910156 165.785156 326.472656 164.339844 C 326.554688 164.175781 326.3125 164.097656 326.230469 164.257812 C 325.75 165.304688 325.425781 166.429688 325.667969 167.636719 C 325.828125 168.359375 326.230469 168.925781 326.390625 169.566406 C 326.792969 171.015625 325.988281 172.222656 325.585938 173.589844 C 325.507812 173.992188 325.988281 174.074219 326.230469 173.832031 Z M 316.253906 158.625 C 316.65625 159.832031 316.898438 161.039062 317.222656 162.167969 C 317.300781 162.40625 317.621094 162.328125 317.621094 162.085938 C 317.621094 159.429688 316.417969 156.695312 314.726562 154.683594 C 314.644531 154.605469 314.566406 154.683594 314.644531 154.765625 C 315.210938 156.050781 315.773438 157.417969 316.253906 158.625 Z M 265.8125 199.898438 C 269.59375 205.125 277.15625 215.90625 289.789062 215.828125 C 299.523438 215.746094 309.980469 202.714844 312.234375 195.632812 C 312.3125 194.023438 312.796875 190.804688 313.039062 188.957031 C 312.957031 188.957031 312.875 189.035156 312.796875 189.035156 C 307.246094 196.117188 297.753906 205.289062 286.085938 204.242188 C 276.675781 203.355469 269.835938 198.769531 265.089844 193.703125 C 265.089844 194.023438 265.492188 197.082031 265.8125 199.898438 Z M 373.132812 382.921875 L 373.535156 383.644531 L 374.5 383.164062 L 374.097656 382.4375 Z M 370.316406 461.359375 L 370.476562 462.164062 C 371.683594 461.921875 372.8125 461.117188 373.453125 460.070312 L 372.730469 459.671875 C 372.246094 460.554688 371.28125 461.199219 370.316406 461.359375 Z M 414 452.109375 C 382.144531 428.132812 375.0625 380.667969 371.28125 355.246094 C 367.824219 332.15625 382.785156 323.308594 389.222656 319.527344 C 390.347656 318.882812 391.074219 318.398438 391.554688 317.996094 L 390.992188 317.355469 C 390.589844 317.675781 389.785156 318.160156 388.738281 318.800781 C 386.808594 320.007812 383.992188 321.617188 381.175781 323.949219 C 381.257812 323.546875 381.339844 323.148438 381.257812 322.746094 C 381.175781 321.859375 380.613281 320.972656 379.648438 320.8125 L 379.488281 321.617188 C 380.050781 321.699219 380.375 322.34375 380.375 322.824219 C 380.453125 323.46875 380.210938 324.191406 379.972656 324.753906 L 380.132812 324.835938 C 377.074219 327.570312 374.179688 331.191406 372.167969 336.019531 L 370.074219 336.660156 L 370.316406 337.464844 L 371.765625 336.984375 C 369.996094 341.8125 369.191406 347.84375 370.316406 355.328125 C 370.71875 357.902344 371.121094 360.714844 371.605469 363.691406 L 371.28125 363.453125 C 370.398438 364.898438 369.753906 366.589844 369.511719 368.277344 L 370.316406 368.441406 C 370.558594 366.992188 371.042969 365.625 371.765625 364.335938 C 376.027344 390.964844 384.796875 431.109375 413.4375 452.671875 C 419.230469 457.015625 430.171875 457.257812 432.585938 457.257812 C 432.824219 457.257812 432.988281 457.257812 433.066406 457.257812 L 433.066406 456.453125 C 432.988281 456.53125 420.195312 456.691406 414 452.109375 Z M 403.621094 464.980469 L 404.828125 468.035156 L 405.632812 467.714844 L 404.425781 464.65625 Z M 366.9375 422.824219 L 367.742188 422.90625 C 367.824219 421.9375 368.707031 421.054688 369.671875 420.972656 L 369.59375 420.167969 C 368.226562 420.25 367.019531 421.457031 366.9375 422.824219 Z M 380.375 412.285156 L 380.453125 413.089844 C 381.097656 413.007812 381.742188 412.847656 382.304688 412.527344 L 381.980469 411.800781 C 381.5 412.042969 380.9375 412.203125 380.375 412.285156 Z M 327.195312 329.101562 L 327.921875 328.777344 L 326.230469 325.078125 L 325.507812 325.398438 Z M 367.984375 263.371094 C 367.179688 262.003906 365.730469 261.039062 364.203125 260.878906 L 364.121094 261.683594 C 365.410156 261.84375 366.617188 262.648438 367.261719 263.855469 Z M 330.496094 401.023438 C 328.160156 400.621094 325.910156 399.816406 323.816406 398.769531 L 323.414062 399.492188 C 325.585938 400.621094 327.921875 401.34375 330.332031 401.828125 Z M 329.449219 459.429688 L 328.964844 460.070312 C 330.574219 461.117188 331.78125 462.566406 332.585938 464.253906 L 333.308594 463.933594 C 332.507812 462.082031 331.136719 460.554688 329.449219 459.429688 Z M 352.699219 305.609375 C 353.261719 306.816406 353.503906 308.183594 353.503906 309.46875 L 354.308594 309.46875 C 354.386719 308.023438 354.066406 306.574219 353.421875 305.207031 Z M 439.019531 313.976562 L 438.539062 313.332031 C 436.042969 315.261719 432.988281 318.480469 432.746094 322.503906 L 433.550781 322.582031 C 433.792969 318.882812 436.605469 315.824219 439.019531 313.976562 Z M 464.523438 383 L 464.441406 383.804688 C 464.683594 383.804688 464.84375 383.804688 465.085938 383.804688 C 466.132812 383.804688 467.097656 383.5625 467.980469 383.082031 L 467.578125 382.359375 C 466.613281 382.921875 465.570312 383.082031 464.523438 383 Z M 458.085938 415.824219 L 457.441406 416.308594 C 458.410156 417.59375 459.777344 418.558594 461.304688 419.125 L 461.625 418.320312 C 460.257812 417.835938 458.972656 416.949219 458.085938 415.824219 Z M 328.964844 255.808594 C 329.691406 256.132812 330.496094 256.375 331.300781 256.375 C 331.300781 256.375 331.378906 256.375 331.378906 256.375 L 331.378906 255.570312 C 330.65625 255.570312 329.933594 255.40625 329.367188 255.085938 Z M 440.789062 436.984375 C 441.351562 437.949219 441.675781 438.996094 441.753906 440.121094 L 442.558594 440.121094 C 442.480469 438.832031 442.15625 437.625 441.515625 436.582031 Z M 371.28125 345.429688 L 372.085938 345.59375 C 372.488281 343.820312 373.535156 342.132812 374.984375 340.605469 C 376.511719 339.074219 378.28125 337.867188 379.730469 336.984375 L 379.328125 336.261719 C 377.878906 337.144531 376.027344 338.433594 374.417969 340.039062 C 372.8125 341.730469 371.765625 343.582031 371.28125 345.429688 Z M 472.164062 353.394531 L 471.359375 353.71875 C 471.039062 352.753906 470.636719 351.304688 470.152344 349.535156 C 469.027344 354.601562 463.960938 368.84375 442.882812 379.300781 C 437.171875 382.117188 430.652344 384.046875 423.492188 385.011719 L 423.414062 384.207031 C 425.425781 383.964844 427.355469 383.5625 429.285156 383.164062 C 428.402344 377.851562 426.710938 369.808594 425.023438 362.324219 L 424.941406 362.890625 C 423.253906 362.648438 421.5625 363.128906 420.195312 364.175781 L 419.710938 363.53125 C 421.160156 362.40625 423.089844 361.921875 424.941406 362.085938 C 422.929688 352.832031 420.917969 344.304688 420.4375 342.292969 C 418.105469 343.179688 415.449219 343.582031 412.632812 343.582031 C 410.300781 343.582031 407.726562 343.257812 404.992188 342.695312 C 403.703125 344.0625 394.855469 354.441406 402.253906 379.300781 L 401.449219 379.542969 C 394.289062 355.488281 401.851562 344.867188 404.023438 342.453125 C 400.082031 341.488281 395.820312 340.042969 391.3125 337.867188 C 390.027344 338.835938 381.015625 348.003906 381.417969 358.625 C 381.820312 369.886719 383.511719 377.773438 383.589844 377.773438 L 382.785156 377.933594 C 382.785156 377.851562 381.097656 369.886719 380.613281 358.625 C 380.210938 348.328125 388.335938 339.398438 390.507812 337.464844 C 390.347656 337.386719 390.269531 337.386719 390.105469 337.304688 L 390.429688 336.582031 C 404.1875 343.097656 414.886719 344.464844 422.367188 340.441406 C 430.089844 336.339844 431.378906 327.894531 431.457031 327.8125 L 432.261719 327.894531 C 432.261719 327.894531 432.019531 329.582031 431.054688 331.753906 C 433.308594 332.15625 442.320312 334.410156 446.902344 342.132812 C 447.304688 342.777344 447.707031 343.5 448.109375 344.222656 C 447.949219 343.097656 448.109375 342.050781 448.433594 341.007812 L 449.238281 341.246094 C 448.914062 342.292969 448.835938 343.339844 448.996094 344.386719 L 448.273438 344.464844 C 451.652344 350.742188 454.867188 358.785156 456.960938 363.855469 C 457.605469 365.382812 458.085938 366.589844 458.410156 367.394531 C 462.914062 362.96875 465.570312 358.707031 467.175781 355.164062 C 466.535156 352.753906 459.777344 327.089844 453.179688 322.664062 C 446.339844 318.078125 439.824219 320.167969 439.746094 320.167969 L 439.503906 319.367188 C 439.746094 319.285156 446.421875 317.113281 453.660156 321.941406 C 460.097656 326.203125 466.292969 348.488281 467.742188 353.957031 C 469.1875 350.417969 469.511719 347.925781 469.589844 347.523438 C 469.511719 347.121094 469.347656 346.71875 469.269531 346.234375 C 467.097656 337.628906 463.878906 324.59375 458.648438 317.273438 C 452.695312 308.90625 437.089844 308.988281 429.207031 309.710938 C 428.320312 310.757812 427.675781 312.042969 427.355469 313.492188 L 426.550781 313.332031 C 426.792969 312.042969 427.355469 310.917969 428.078125 309.871094 C 427.355469 309.953125 426.632812 310.03125 426.148438 310.113281 L 426.066406 309.308594 C 426.792969 309.230469 427.757812 309.148438 428.882812 308.988281 C 428.882812 308.988281 428.882812 308.988281 428.882812 308.90625 L 428.964844 308.90625 C 431.859375 308.664062 435.800781 308.503906 440.066406 308.746094 L 440.628906 307.21875 L 441.351562 307.539062 L 440.871094 308.828125 C 445.777344 309.230469 450.847656 310.273438 454.789062 312.6875 C 455.03125 312.367188 455.269531 312.042969 455.433594 311.722656 L 456.15625 312.042969 C 455.996094 312.445312 455.753906 312.769531 455.433594 313.089844 C 456.960938 314.136719 458.328125 315.34375 459.375 316.789062 C 462.832031 321.699219 465.488281 329.019531 467.5 335.9375 C 467.820312 335.132812 468.144531 334.328125 468.546875 333.523438 L 469.269531 333.847656 C 468.785156 334.890625 468.304688 335.9375 467.902344 337.0625 L 467.820312 337.0625 C 468.707031 340.28125 469.511719 343.339844 470.152344 345.996094 C 471.039062 349.375 471.683594 351.867188 472.164062 353.394531 Z M 458.007812 367.957031 C 457.683594 367.234375 457.121094 365.867188 456.476562 364.09375 C 454.226562 358.382812 450.445312 348.890625 446.582031 342.453125 C 441.917969 334.730469 432.824219 332.800781 431.054688 332.480469 C 429.769531 335.292969 427.355469 338.835938 423.089844 341.085938 C 422.527344 341.410156 421.964844 341.648438 421.402344 341.890625 C 422.125 345.109375 428.160156 370.773438 430.171875 382.921875 C 434.675781 381.875 438.777344 380.425781 442.640625 378.496094 C 449.15625 375.199219 454.226562 371.578125 458.007812 367.957031 Z M 401.371094 414.457031 L 402.09375 414.859375 C 403.460938 412.367188 405.714844 410.273438 408.371094 409.148438 L 408.046875 408.421875 C 405.152344 409.628906 402.816406 411.800781 401.371094 414.457031 Z M 383.1875 381.792969 C 383.269531 381.792969 392.199219 384.53125 404.1875 385.496094 L 404.265625 384.691406 C 392.359375 383.804688 383.589844 381.070312 383.511719 381.070312 Z M 428.722656 414.054688 L 428.160156 413.410156 C 426.792969 414.539062 425.664062 415.984375 424.699219 417.515625 L 425.425781 417.917969 C 426.308594 416.46875 427.4375 415.101562 428.722656 414.054688 Z M 414 375.359375 C 412.230469 375.921875 410.300781 376.164062 408.449219 376.003906 L 408.371094 376.804688 C 408.773438 376.804688 409.09375 376.804688 409.496094 376.804688 C 411.105469 376.804688 412.714844 376.566406 414.242188 376.082031 Z M 297.914062 285.578125 L 298.71875 285.65625 C 298.796875 284.128906 300.246094 282.679688 301.773438 282.601562 L 301.695312 281.796875 C 299.761719 281.875 298.074219 283.566406 297.914062 285.578125 Z M 247.875 170.371094 C 247.230469 169.085938 247.390625 167.476562 246.910156 166.109375 C 246.910156 166.027344 246.746094 166.027344 246.746094 166.1875 C 247.148438 167.71875 246.746094 169.40625 247.472656 170.855469 C 248.195312 172.222656 249.964844 173.1875 251.332031 173.75 C 251.492188 173.832031 251.65625 173.671875 251.492188 173.507812 C 250.367188 172.464844 248.597656 171.820312 247.875 170.371094 Z M 250.691406 176.40625 C 248.917969 175.683594 246.746094 174.957031 245.703125 173.269531 C 244.65625 171.578125 244.171875 169.488281 244.09375 167.554688 C 244.09375 167.476562 243.933594 167.476562 243.933594 167.554688 C 243.933594 169.730469 244.253906 172.140625 245.460938 173.992188 C 246.585938 175.683594 248.597656 176.566406 250.449219 176.96875 C 250.851562 176.96875 251.011719 176.488281 250.691406 176.40625 Z M 255.113281 176.488281 C 254.792969 172.785156 253.90625 169.085938 253.34375 165.382812 C 253.34375 165.222656 253.101562 165.304688 253.101562 165.382812 C 253.023438 169.164062 253.425781 173.109375 254.953125 176.566406 C 255.035156 176.566406 255.113281 176.566406 255.113281 176.488281 Z M 257.449219 348.085938 L 254.871094 350.902344 L 255.4375 351.464844 L 258.011719 348.648438 Z M 243.851562 396.195312 L 244.65625 396.195312 C 244.738281 394.265625 245.703125 392.332031 247.3125 391.125 L 246.828125 390.484375 C 245.058594 391.851562 243.851562 394.023438 243.851562 396.195312 Z M 219.394531 383.164062 L 220.359375 383.644531 L 220.761719 382.921875 L 219.796875 382.4375 Z M 231.140625 304.480469 L 231.945312 304.480469 L 231.945312 298.289062 L 231.140625 298.289062 Z M 328.644531 176.566406 C 330.574219 175.683594 332.105469 174.152344 332.828125 172.140625 C 332.910156 171.820312 332.507812 171.660156 332.34375 171.902344 C 331.21875 174.234375 329.53125 176.164062 326.957031 176.808594 C 324.78125 177.371094 322.691406 176.566406 320.601562 177.289062 C 320.519531 177.289062 320.519531 177.453125 320.679688 177.453125 C 323.335938 176.648438 325.988281 177.855469 328.644531 176.566406 Z M 211.511719 412.527344 C 212.074219 412.847656 212.71875 413.007812 213.363281 413.089844 L 213.441406 412.285156 C 212.878906 412.203125 212.316406 412.042969 211.832031 411.800781 Z M 222.210938 363.691406 C 222.453125 362.164062 222.695312 360.636719 222.855469 359.269531 C 223.015625 357.902344 223.257812 356.613281 223.417969 355.40625 C 224.542969 347.925781 223.738281 341.890625 221.96875 337.0625 L 223.417969 337.546875 L 223.660156 336.742188 L 221.566406 336.097656 C 219.636719 331.273438 216.660156 327.652344 213.601562 324.917969 L 213.761719 324.835938 C 213.523438 324.191406 213.28125 323.546875 213.363281 322.90625 C 213.441406 322.34375 213.761719 321.777344 214.246094 321.699219 L 214.085938 320.894531 C 213.121094 321.054688 212.558594 322.019531 212.476562 322.824219 C 212.476562 323.226562 212.476562 323.628906 212.558594 324.03125 C 209.742188 321.699219 207.007812 320.007812 204.996094 318.882812 C 203.949219 318.320312 203.144531 317.835938 202.742188 317.433594 L 202.179688 318.078125 C 202.660156 318.480469 203.386719 318.964844 204.511719 319.605469 C 210.867188 323.386719 225.832031 332.238281 222.453125 355.328125 C 222.292969 356.613281 222.050781 357.902344 221.890625 359.1875 C 217.945312 386.378906 211.269531 431.835938 179.734375 452.1875 L 180.214844 452.914062 C 210.0625 433.683594 217.785156 392.253906 221.96875 364.578125 C 222.695312 365.785156 223.09375 367.152344 223.335938 368.601562 L 224.140625 368.441406 C 223.898438 366.75 223.257812 365.0625 222.371094 363.613281 Z M 222.613281 345.429688 C 222.128906 343.582031 221.085938 341.730469 219.476562 340.039062 C 217.945312 338.433594 216.015625 337.144531 214.566406 336.261719 L 214.164062 336.984375 C 215.613281 337.867188 217.382812 339.074219 218.914062 340.605469 C 220.359375 342.132812 221.40625 343.902344 221.808594 345.59375 Z M 255.597656 462.808594 C 256.5625 463.851562 257.367188 465.140625 257.847656 466.507812 L 258.652344 466.265625 C 258.171875 464.820312 257.285156 463.449219 256.242188 462.246094 Z M 292.363281 255.890625 L 291.878906 256.535156 C 292.363281 256.855469 292.84375 257.339844 293.167969 257.902344 L 293.890625 257.5 C 293.570312 256.855469 293.003906 256.292969 292.363281 255.890625 Z M 210.625 437.222656 L 211.109375 437.867188 C 212.15625 437.222656 212.878906 436.019531 213.121094 434.8125 L 212.316406 434.648438 C 212.074219 435.777344 211.429688 436.660156 210.625 437.222656 Z M 301.773438 238.835938 C 301.371094 239.800781 301.210938 240.925781 301.371094 241.972656 L 302.175781 241.890625 C 302.097656 240.925781 302.175781 239.960938 302.578125 239.15625 Z M 301.773438 371.175781 L 302.417969 371.738281 C 304.109375 369.886719 306.519531 368.761719 309.015625 368.601562 L 308.933594 367.796875 C 306.199219 367.875 303.625 369.164062 301.773438 371.175781 Z M 258.492188 245.914062 L 259.21875 246.238281 C 259.378906 245.753906 259.699219 245.433594 260.183594 245.191406 L 259.78125 244.464844 C 259.136719 244.789062 258.734375 245.269531 258.492188 245.914062 Z M 318.023438 243.019531 C 317.621094 241.570312 316.253906 236.339844 316.820312 229.179688 C 317.382812 222.34375 313.359375 219.367188 311.589844 218.320312 C 313.117188 217.675781 314.003906 217.273438 314.003906 217.195312 L 313.601562 216.46875 C 313.519531 216.550781 303.140625 221.78125 293.167969 220.734375 L 293.085938 221.539062 C 293.972656 221.617188 294.855469 221.699219 295.820312 221.699219 C 297.269531 223.789062 296.867188 228.214844 295.902344 230.710938 C 294.855469 233.445312 294.375 244.464844 294.375 244.949219 L 295.179688 244.949219 C 295.179688 244.867188 295.660156 233.605469 296.707031 230.949219 C 297.671875 228.539062 298.15625 224.113281 296.867188 221.617188 C 299.28125 221.539062 301.613281 221.214844 303.785156 220.734375 C 304.589844 221.214844 308.128906 223.628906 307.566406 230.386719 C 307.324219 233.285156 307.488281 237.789062 308.128906 243.097656 L 308.933594 243.019531 C 308.371094 237.789062 308.128906 233.363281 308.371094 230.46875 C 308.933594 224.433594 306.359375 221.617188 304.914062 220.492188 C 307.164062 219.929688 309.175781 219.285156 310.703125 218.640625 C 311.507812 218.964844 316.738281 221.539062 316.09375 229.019531 C 315.449219 236.421875 316.898438 241.730469 317.382812 243.179688 C 315.691406 243.824219 313.441406 244.546875 310.625 245.269531 L 310.785156 246.074219 C 319.070312 244.0625 322.449219 241.730469 322.53125 241.570312 L 322.046875 240.925781 C 321.96875 241.085938 320.761719 241.972656 318.023438 243.019531 Z M 277.238281 400.699219 L 276.515625 400.296875 C 275.871094 401.585938 276.351562 403.355469 277.640625 404.078125 L 278.042969 403.355469 C 277.15625 402.871094 276.753906 401.585938 277.238281 400.699219 Z M 263.804688 308.34375 C 263.5625 307.859375 263.5625 307.378906 263.722656 306.976562 L 263 306.652344 C 262.757812 307.296875 262.835938 308.023438 263.160156 308.664062 C 263.480469 309.308594 264.042969 309.792969 264.6875 309.953125 L 264.929688 309.148438 C 264.367188 309.148438 263.964844 308.828125 263.804688 308.34375 Z M 290.351562 441.003906 L 291.15625 441.003906 L 291.15625 436.582031 L 290.351562 436.582031 Z M 301.050781 247.84375 L 300.96875 247.039062 C 298.234375 247.363281 295.257812 247.605469 292.28125 247.765625 C 288.660156 247.925781 285.28125 247.765625 282.144531 247.441406 C 282.789062 245.996094 284.398438 241.972656 284.238281 237.628906 C 284.238281 236.984375 284.238281 236.179688 284.15625 235.457031 C 283.996094 230.789062 283.835938 224.355469 285.363281 222.421875 L 284.71875 221.941406 C 282.949219 224.113281 283.191406 230.386719 283.269531 235.535156 C 283.269531 236.261719 283.351562 236.984375 283.351562 237.707031 C 283.433594 242.054688 281.664062 246.316406 281.179688 247.363281 C 273.535156 246.398438 267.664062 244.144531 263.640625 242.214844 C 265.171875 240.121094 267.503906 233.925781 267.664062 229.824219 L 267.664062 229.582031 C 267.824219 226.285156 267.984375 221.378906 269.835938 219.769531 C 270.160156 219.527344 270.480469 219.367188 270.882812 219.285156 C 272.8125 219.367188 275.546875 219.527344 278.363281 219.929688 C 278.285156 220.007812 278.121094 220.089844 278.042969 220.171875 C 277.078125 220.976562 274.90625 223.46875 274.90625 229.503906 C 274.90625 236.902344 273.054688 241.167969 273.054688 241.25 L 273.777344 241.570312 C 273.859375 241.410156 275.710938 237.144531 275.710938 229.503906 C 275.710938 223.871094 277.71875 221.539062 278.523438 220.8125 C 279.089844 220.332031 279.570312 220.171875 279.730469 220.171875 L 279.730469 220.089844 C 280.695312 220.25 281.582031 220.410156 282.546875 220.652344 L 282.707031 219.847656 C 278.765625 218.964844 274.503906 218.5625 271.605469 218.402344 L 271.605469 218.320312 C 271.363281 218.320312 271.125 218.320312 270.882812 218.320312 C 269.113281 218.238281 267.984375 218.238281 267.984375 218.238281 L 267.984375 219.042969 C 267.984375 219.042969 268.46875 219.042969 269.273438 219.042969 C 267.261719 220.976562 267.019531 225.800781 266.859375 229.34375 L 266.859375 229.582031 C 266.699219 233.605469 264.285156 239.960938 262.917969 241.652344 C 259.621094 239.960938 257.847656 238.59375 257.769531 238.511719 L 257.285156 239.15625 C 257.449219 239.238281 269.191406 248.488281 289.222656 248.488281 C 290.191406 248.488281 291.15625 248.488281 292.203125 248.410156 C 295.339844 248.488281 298.234375 248.246094 301.050781 247.84375 Z M 301.050781 247.84375 "/>
</g>
</svg>
